<svg width="40" height="40" viewBox="0 0 40 40" fill="none" xmlns="http://www.w3.org/2000/svg">
<circle cx="20" cy="20" r="20" fill="#E6C700"/>
<path d="M28.75 18.75H21.25V11.25C21.25 10.5596 20.6904 10 20 10C19.3096 10 18.75 10.5596 18.75 11.25V18.75H11.25C10.5596 18.75 10 19.3096 10 20C10 20.6904 10.5596 21.25 11.25 21.25H18.75V28.75C18.75 29.4404 19.3096 30 20 30C20.6904 30 21.25 29.4404 21.25 28.75V21.25H28.75C29.4404 21.25 30 20.6904 30 20C30 19.3096 29.4404 18.75 28.75 18.75Z" fill="black"/>
</svg>
