<svg width="20" height="20" viewBox="0 0 20 20" fill="none" xmlns="http://www.w3.org/2000/svg">
<path d="M17.4998 6.2665V11.1665C17.4998 11.4498 17.2248 11.6498 16.9582 11.5665L13.6832 10.5498C12.7832 10.2748 11.8165 10.5082 11.1582 11.1665C10.4915 11.8332 10.2498 12.8082 10.5332 13.7082L11.5415 16.9582C11.6248 17.2248 11.4248 17.4998 11.1415 17.4998H6.2665C3.3915 17.4998 1.6665 15.7832 1.6665 12.8998V6.2665C1.6665 3.38317 3.3915 1.6665 6.2665 1.6665H12.8998C15.7748 1.6665 17.4998 3.38317 17.4998 6.2665Z" fill="#FFDD00"/>
<path d="M18.3002 15.7002L16.9419 16.1586C16.5669 16.2836 16.2669 16.5752 16.1419 16.9586L15.6836 18.3169C15.2919 19.4919 13.6419 19.4669 13.2752 18.2919L11.7336 13.3336C11.4336 12.3502 12.3419 11.4336 13.3169 11.7419L18.2836 13.2836C19.4502 13.6502 19.4669 15.3086 18.3002 15.7002Z" fill="#FFDD00"/>
</svg>
