<svg width="20" height="20" viewBox="0 0 20 20" fill="none" xmlns="http://www.w3.org/2000/svg">
<path d="M16.9666 10.6081C16.6582 10.6081 16.3999 10.3748 16.3666 10.0665C16.1666 8.23315 15.1832 6.58315 13.6666 5.53315C13.3916 5.34148 13.3249 4.96648 13.5166 4.69148C13.7082 4.41648 14.0832 4.34982 14.3582 4.54148C16.1666 5.79982 17.3332 7.76648 17.5749 9.94148C17.6082 10.2748 17.3666 10.5748 17.0332 10.6081C17.0082 10.6081 16.9916 10.6081 16.9666 10.6081Z" fill="white"/>
<path d="M3.11674 10.6492C3.10008 10.6492 3.07508 10.6492 3.05841 10.6492C2.72508 10.6159 2.48341 10.3159 2.51674 9.98252C2.74174 7.80752 3.89174 5.84086 5.68341 4.57419C5.95008 4.38252 6.33341 4.44919 6.52508 4.71586C6.71674 4.99086 6.65008 5.36586 6.38341 5.55752C4.88341 6.62419 3.90841 8.27419 3.72508 10.0992C3.69174 10.4159 3.42508 10.6492 3.11674 10.6492Z" fill="white"/>
<path d="M13.3248 17.5834C12.2998 18.0751 11.1998 18.3251 10.0498 18.3251C8.84984 18.3251 7.70817 18.0584 6.64151 17.5168C6.34151 17.3751 6.22484 17.0084 6.37484 16.7084C6.51651 16.4084 6.88317 16.2918 7.18317 16.4334C7.70817 16.7001 8.26651 16.8834 8.83317 16.9918C9.59984 17.1418 10.3832 17.1501 11.1498 17.0168C11.7165 16.9168 12.2748 16.7418 12.7915 16.4918C13.0998 16.3501 13.4665 16.4668 13.5998 16.7751C13.7498 17.0751 13.6332 17.4418 13.3248 17.5834Z" fill="white"/>
<path d="M10.0414 1.6748C8.74974 1.6748 7.69141 2.7248 7.69141 4.0248C7.69141 5.3248 8.74141 6.3748 10.0414 6.3748C11.3414 6.3748 12.3914 5.3248 12.3914 4.0248C12.3914 2.7248 11.3414 1.6748 10.0414 1.6748Z" fill="white"/>
<path d="M4.2084 11.5576C2.91673 11.5576 1.8584 12.6076 1.8584 13.9076C1.8584 15.2076 2.9084 16.2576 4.2084 16.2576C5.5084 16.2576 6.5584 15.2076 6.5584 13.9076C6.5584 12.6076 5.50007 11.5576 4.2084 11.5576Z" fill="white"/>
<path d="M15.7914 11.5576C14.4997 11.5576 13.4414 12.6076 13.4414 13.9076C13.4414 15.2076 14.4914 16.2576 15.7914 16.2576C17.0914 16.2576 18.1414 15.2076 18.1414 13.9076C18.1414 12.6076 17.0914 11.5576 15.7914 11.5576Z" fill="white"/>
</svg>
