<svg width="282" height="282" viewBox="0 0 282 282" fill="none" xmlns="http://www.w3.org/2000/svg">
<path d="M250.286 0.390869H237.98V281.661H250.286C259.744 281.661 267.412 273.428 267.412 263.272V18.7797C267.412 8.62388 259.744 0.390869 250.286 0.390869Z" fill="#0B3D59"/>
<path d="M270.043 32.3953H263.105V55.496H270.043V32.3953Z" fill="black"/>
<path d="M265.973 32.3953H261.927V55.496H265.973V32.3953Z" fill="white"/>
<path d="M265.973 55.835H261.927C261.739 55.835 261.588 55.6834 261.588 55.4958V32.3951C261.588 32.2075 261.739 32.0559 261.927 32.0559H265.973C266.161 32.0559 266.312 32.2077 266.312 32.3951V55.4958C266.312 55.6834 266.161 55.835 265.973 55.835ZM262.266 55.1566H265.634V32.7344H262.266V55.1566Z" fill="black"/>
<path d="M128.343 0.390869H241.318C250.776 0.390869 258.444 8.62388 258.444 18.7797V263.272C258.444 273.428 250.776 281.661 241.318 281.661H128.343C118.885 281.661 111.218 273.428 111.218 263.272V18.7797C111.218 8.62388 118.885 0.390869 128.343 0.390869Z" fill="white"/>
<path d="M241.691 282H127.972C118.547 282 110.879 274.332 110.879 264.907V17.1442C110.879 7.71923 118.547 0.0517578 127.972 0.0517578H241.691C251.116 0.0517578 258.783 7.71923 258.783 17.1442V264.907C258.783 274.332 251.116 282 241.691 282ZM127.972 0.730255C118.921 0.730255 111.557 8.09369 111.557 17.1442V264.907C111.557 273.958 118.921 281.322 127.972 281.322H241.691C250.741 281.322 258.105 273.958 258.105 264.907V17.1442C258.105 8.09369 250.741 0.730255 241.691 0.730255H127.972Z" fill="black"/>
<path d="M195.486 7.97717H166.585C166.397 7.97717 166.245 7.82554 166.245 7.638C166.245 7.45046 166.397 7.29883 166.585 7.29883H195.486C195.674 7.29883 195.825 7.45062 195.825 7.638C195.825 7.82554 195.674 7.97717 195.486 7.97717Z" fill="black"/>
<path d="M200.598 10.2604C199.239 10.2604 198.133 9.084 198.133 7.6381C198.133 6.1925 199.239 5.01611 200.598 5.01611C201.958 5.01611 203.064 6.1925 203.064 7.6381C203.064 9.08416 201.958 10.2604 200.598 10.2604ZM200.598 5.69461C199.613 5.69461 198.811 6.5665 198.811 7.6381C198.811 8.71016 199.613 9.58205 200.598 9.58205C201.584 9.58205 202.385 8.71016 202.385 7.6381C202.385 6.5665 201.583 5.69461 200.598 5.69461Z" fill="black"/>
<path d="M235.275 266.131H134.388C126.005 266.131 119.186 259.311 119.186 250.929V31.1232C119.186 22.7407 126.005 15.9209 134.388 15.9209H235.275C243.658 15.9209 250.477 22.7407 250.477 31.1232V250.929C250.477 259.311 243.658 266.131 235.275 266.131ZM134.388 16.5992C126.379 16.5992 119.864 23.1147 119.864 31.123V250.929C119.864 258.937 126.379 265.452 134.388 265.452H235.275C243.284 265.452 249.799 258.937 249.799 250.929V31.1232C249.799 23.1147 243.284 16.5994 235.275 16.5994H134.388V16.5992Z" fill="black"/>
<path d="M213.058 15.6418H194.264V54.1724H213.058V15.6418Z" fill="#FFDD00"/>
<path d="M231.853 15.6418H213.058V54.1724H231.853V15.6418Z" fill="#FF6C08"/>
<path d="M250.648 15.6418H231.853V54.1724H250.648V15.6418Z" fill="#FFDD00"/>
<path d="M137.879 15.6418H119.084V54.1724H137.879V15.6418Z" fill="#FFDD00"/>
<path d="M156.674 15.6418H137.879V54.1724H156.674V15.6418Z" fill="#FF6C08"/>
<path d="M175.469 15.6418H156.674V54.1724H175.469V15.6418Z" fill="#FFDD00"/>
<path d="M194.264 15.6418H175.469V54.1724H194.264V15.6418Z" fill="#FF6C08"/>
<path d="M213.058 54.1724C213.058 60.1699 208.85 65.0318 203.66 65.0318C198.469 65.0318 194.261 60.1699 194.261 54.1724H213.058Z" fill="#D9BC04"/>
<path d="M231.853 54.1724C231.853 60.1699 227.645 65.0318 222.454 65.0318C217.263 65.0318 213.055 60.1699 213.055 54.1724H231.853Z" fill="#E86710"/>
<path d="M250.647 54.1724C250.647 60.1699 246.439 65.0318 241.249 65.0318C236.058 65.0318 231.85 60.1699 231.85 54.1724H250.647Z" fill="#D9BC04"/>
<path d="M137.879 54.1724C137.879 60.1699 133.671 65.0318 128.48 65.0318C123.289 65.0318 119.081 60.1699 119.081 54.1724H137.879Z" fill="#D9BC04"/>
<path d="M156.673 54.1724C156.673 60.1699 152.465 65.0318 147.274 65.0318C142.084 65.0318 137.876 60.1699 137.876 54.1724H156.673Z" fill="#E86710"/>
<path d="M175.469 54.1724C175.469 60.1699 171.261 65.0318 166.07 65.0318C160.879 65.0318 156.671 60.1699 156.671 54.1724H175.469Z" fill="#D9BC04"/>
<path d="M194.264 54.1724C194.264 60.1699 190.056 65.0318 184.865 65.0318C179.674 65.0318 175.466 60.1699 175.466 54.1724H194.264Z" fill="#E86710"/>
<path d="M281.505 143.001H261.775V164.161H281.505V143.001Z" fill="#0B3D59"/>
<path d="M276.45 157.128H268.023C267.851 157.128 267.705 156.998 267.686 156.827L267.004 150.79C266.993 150.694 267.024 150.598 267.088 150.526C267.153 150.454 267.245 150.413 267.341 150.413H278.724C278.835 150.413 278.94 150.468 279.003 150.559C279.066 150.651 279.081 150.767 279.041 150.872L276.768 156.908C276.718 157.04 276.592 157.128 276.45 157.128ZM268.326 156.45H276.216L278.234 151.091H267.721L268.326 156.45Z" fill="white"/>
<path d="M267.34 151.091C267.171 151.091 267.025 150.965 267.004 150.793L266.582 147.305H264.569C264.381 147.305 264.229 147.153 264.229 146.966C264.229 146.778 264.381 146.626 264.569 146.626H266.883C267.055 146.626 267.199 146.755 267.22 146.925L267.678 150.711C267.7 150.897 267.567 151.067 267.381 151.089C267.368 151.091 267.354 151.091 267.34 151.091Z" fill="white"/>
<path d="M268.734 160.65C267.996 160.65 267.396 160.017 267.396 159.238C267.396 158.46 267.996 157.827 268.734 157.827C269.473 157.827 270.074 158.46 270.074 159.238C270.074 160.017 269.473 160.65 268.734 160.65ZM268.734 158.505C268.37 158.505 268.074 158.834 268.074 159.238C268.074 159.642 268.37 159.971 268.734 159.971C269.099 159.971 269.395 159.642 269.395 159.238C269.395 158.834 269.099 158.505 268.734 158.505Z" fill="white"/>
<path d="M275.327 160.65C274.589 160.65 273.988 160.017 273.988 159.238C273.988 158.46 274.589 157.827 275.327 157.827C276.066 157.827 276.667 158.46 276.667 159.238C276.667 160.017 276.066 160.65 275.327 160.65ZM275.327 158.505C274.963 158.505 274.667 158.834 274.667 159.238C274.667 159.642 274.963 159.971 275.327 159.971C275.692 159.971 275.988 159.642 275.988 159.238C275.988 158.834 275.692 158.505 275.327 158.505Z" fill="white"/>
<path d="M281.505 111.804H261.775V132.964H281.505V111.804Z" fill="#0B3D59"/>
<path d="M271.664 129.197C271.616 129.197 271.57 129.187 271.528 129.168C271.48 129.151 271.436 129.123 271.401 129.085L266.262 123.573C264.9 122.113 264.9 119.737 266.262 118.276C266.929 117.561 267.818 117.167 268.764 117.167C269.711 117.167 270.599 117.561 271.267 118.276L271.643 118.68L272.014 118.279C272.681 117.563 273.57 117.169 274.516 117.169C275.463 117.169 276.351 117.563 277.019 118.279C278.38 119.739 278.38 122.115 277.019 123.576L271.912 129.088C271.849 129.156 271.76 129.196 271.667 129.197C271.666 129.197 271.664 129.197 271.664 129.197ZM268.764 117.845C268.008 117.846 267.295 118.163 266.758 118.739C265.634 119.944 265.634 121.906 266.758 123.111L271.657 128.365L276.522 123.114C277.646 121.908 277.646 119.947 276.522 118.741C275.985 118.165 275.273 117.848 274.516 117.848C273.76 117.848 273.047 118.165 272.511 118.741L271.892 119.409C271.828 119.478 271.738 119.518 271.644 119.518C271.644 119.518 271.644 119.518 271.644 119.518C271.549 119.518 271.46 119.478 271.395 119.41L270.77 118.739C270.233 118.163 269.52 117.845 268.764 117.845Z" fill="white"/>
<path d="M281.505 80.6067H261.775V101.767H281.505V80.6067Z" fill="#0B3D59"/>
<path d="M270.53 95.8267C267.591 95.8267 265.2 93.2736 265.2 90.1355C265.2 86.9974 267.591 84.4443 270.53 84.4443C273.468 84.4443 275.859 86.9974 275.859 90.1355C275.859 93.2736 273.468 95.8267 270.53 95.8267ZM270.53 85.1227C267.965 85.1227 265.879 87.3713 265.879 90.1355C265.879 92.8996 267.965 95.1483 270.53 95.1483C273.094 95.1483 275.181 92.8997 275.181 90.1355C275.181 87.3714 273.094 85.1227 270.53 85.1227Z" fill="white"/>
<path d="M278.297 98.3237C278.206 98.3237 278.116 98.2877 278.049 98.2157L274.033 93.9093C273.905 93.7724 273.913 93.5578 274.05 93.4299C274.187 93.302 274.402 93.3094 274.53 93.4468L278.545 97.7532C278.673 97.8901 278.666 98.1047 278.528 98.2326C278.463 98.2935 278.38 98.3237 278.297 98.3237Z" fill="white"/>
<path d="M155.372 167.791C155.164 158.554 149.941 151.158 143.529 151.158C137.116 151.158 131.894 158.554 131.685 167.791H155.372Z" fill="#FF6C08"/>
<path d="M155.372 168.131H131.685C131.593 168.131 131.506 168.094 131.442 168.029C131.378 167.963 131.343 167.875 131.346 167.784C131.56 158.27 136.912 150.818 143.528 150.818C150.145 150.818 155.496 158.27 155.711 167.784C155.713 167.875 155.678 167.963 155.614 168.029C155.551 168.094 155.463 168.131 155.372 168.131ZM132.034 167.452H155.023C154.698 158.477 149.694 151.497 143.529 151.497C137.363 151.497 132.359 158.477 132.034 167.452Z" fill="black"/>
<path d="M153.045 168.131C152.861 168.131 152.71 167.983 152.706 167.798C152.603 162.097 150.944 156.913 148.268 153.931C148.143 153.792 148.155 153.577 148.294 153.452C148.434 153.327 148.648 153.338 148.773 153.478C151.555 156.578 153.278 161.926 153.385 167.785C153.388 167.973 153.239 168.127 153.052 168.131C153.049 168.131 153.047 168.131 153.045 168.131Z" fill="black"/>
<path d="M149.665 168.131C149.48 168.131 149.328 167.981 149.326 167.795C149.221 158.808 146.622 151.497 143.533 151.497C143.346 151.497 143.194 151.345 143.194 151.158C143.194 150.97 143.346 150.819 143.533 150.819C147.051 150.819 149.893 158.272 150.005 167.787C150.007 167.975 149.856 168.128 149.669 168.131C149.668 168.131 149.667 168.131 149.665 168.131Z" fill="black"/>
<path d="M155.826 174.999H130.925C130.611 174.999 130.356 174.744 130.356 174.43V165.805C130.356 165.491 130.611 165.236 130.925 165.236H155.826C156.14 165.236 156.395 165.49 156.395 165.805V174.43C156.395 174.744 156.14 174.999 155.826 174.999Z" fill="#FF6C08"/>
<path d="M155.143 175.338H131.609C130.731 175.338 130.018 174.624 130.018 173.747V166.488C130.018 165.611 130.731 164.897 131.609 164.897H155.143C156.02 164.897 156.734 165.611 156.734 166.488V173.747C156.734 174.624 156.02 175.338 155.143 175.338ZM131.609 165.575C131.106 165.575 130.696 165.985 130.696 166.488V173.747C130.696 174.25 131.106 174.66 131.609 174.66H155.143C155.646 174.66 156.056 174.25 156.056 173.747V166.488C156.056 165.985 155.646 165.575 155.143 165.575H131.609Z" fill="black"/>
<path d="M154.083 172.595C153.896 172.595 153.744 172.443 153.744 172.256V165.236C153.744 165.048 153.896 164.897 154.083 164.897C154.271 164.897 154.422 165.049 154.422 165.236V172.256C154.422 172.443 154.271 172.595 154.083 172.595Z" fill="black"/>
<path d="M151.188 173.993C151 173.993 150.849 173.841 150.849 173.654V165.236C150.849 165.049 151 164.897 151.188 164.897C151.375 164.897 151.527 165.049 151.527 165.236V173.654C151.527 173.841 151.375 173.993 151.188 173.993Z" fill="black"/>
<path d="M133.813 173.993C133.625 173.993 133.474 173.841 133.474 173.654V165.236C133.474 165.049 133.626 164.897 133.813 164.897C134 164.897 134.152 165.049 134.152 165.236V173.654C134.152 173.841 134 173.993 133.813 173.993Z" fill="black"/>
<path d="M136.708 170.887C136.521 170.887 136.369 170.735 136.369 170.548V165.236C136.369 165.048 136.521 164.897 136.708 164.897C136.896 164.897 137.048 165.049 137.048 165.236V170.548C137.048 170.735 136.896 170.887 136.708 170.887Z" fill="black"/>
<path d="M161.761 180.802H124.949C124.761 180.802 124.609 180.65 124.609 180.463V146.256C124.609 146.069 124.761 145.917 124.949 145.917H161.761C161.948 145.917 162.1 146.069 162.1 146.256V180.463C162.1 180.65 161.948 180.802 161.761 180.802ZM125.288 180.124H161.422V146.596H125.288V180.124Z" fill="black"/>
<path d="M180.038 151.234H166.865C166.677 151.234 166.525 151.082 166.525 150.895C166.525 150.707 166.677 150.556 166.865 150.556H180.038C180.226 150.556 180.378 150.707 180.378 150.895C180.378 151.082 180.226 151.234 180.038 151.234Z" fill="black"/>
<path d="M177.841 156.883H166.865C166.677 156.883 166.525 156.732 166.525 156.544C166.525 156.357 166.677 156.205 166.865 156.205H177.841C178.029 156.205 178.181 156.357 178.181 156.544C178.181 156.732 178.029 156.883 177.841 156.883Z" fill="black"/>
<path d="M177.841 162.533H166.865C166.677 162.533 166.525 162.382 166.525 162.194C166.525 162.007 166.677 161.855 166.865 161.855H177.841C178.029 161.855 178.181 162.007 178.181 162.194C178.181 162.382 178.029 162.533 177.841 162.533Z" fill="black"/>
<path d="M180.038 168.183H166.865C166.677 168.183 166.525 168.031 166.525 167.844C166.525 167.656 166.677 167.504 166.865 167.504H180.038C180.226 167.504 180.378 167.656 180.378 167.844C180.378 168.031 180.226 168.183 180.038 168.183Z" fill="black"/>
<path d="M128.189 112.213C127.193 111.369 127.023 109.818 127.81 108.749L136.253 97.2893L139.861 100.347L131.418 111.807C130.631 112.875 129.185 113.057 128.189 112.213Z" fill="#FED101"/>
<path d="M129.609 113.083C129.014 113.084 128.441 112.871 127.969 112.472C126.841 111.516 126.647 109.756 127.537 108.549L135.98 97.0884C136.036 97.0125 136.12 96.9635 136.214 96.9526C136.306 96.9414 136.401 96.9699 136.472 97.0307L140.08 100.088C140.216 100.203 140.24 100.404 140.134 100.548L131.691 112.008C131.25 112.607 130.614 112.983 129.903 113.067C129.804 113.078 129.706 113.083 129.609 113.083ZM136.311 97.783L128.083 108.951C127.401 109.877 127.547 111.224 128.408 111.954C128.812 112.296 129.315 112.452 129.824 112.392C130.347 112.331 130.816 112.052 131.145 111.606L139.4 100.401L136.311 97.783Z" fill="black"/>
<path d="M159.038 112.245C160.034 111.4 160.204 109.85 159.417 108.781L150.974 97.3213L147.366 100.378L155.809 111.839C156.596 112.907 158.042 113.089 159.038 112.245Z" fill="#FED101"/>
<path d="M157.617 113.115C157.52 113.115 157.422 113.11 157.324 113.098C156.612 113.015 155.976 112.639 155.535 112.04L147.093 100.58C146.987 100.436 147.01 100.235 147.146 100.12L150.754 97.0627C150.826 97.0017 150.92 96.9742 151.013 96.9846C151.106 96.9955 151.191 97.0445 151.246 97.1203L159.689 108.58C160.579 109.788 160.385 111.548 159.257 112.503C158.785 112.903 158.212 113.115 157.617 113.115ZM147.827 100.433L156.081 111.638C156.41 112.084 156.879 112.363 157.403 112.424C157.911 112.483 158.414 112.328 158.818 111.986C159.679 111.256 159.825 109.909 159.143 108.983L150.916 97.8153L147.827 100.433Z" fill="black"/>
<path d="M150.598 100.57H136.59C136.163 100.57 135.818 100.224 135.818 99.798V97.2808C135.818 96.8544 136.163 96.5088 136.59 96.5088H150.598C151.024 96.5088 151.37 96.8544 151.37 97.2808V99.798C151.37 100.224 151.024 100.57 150.598 100.57Z" fill="#FED101"/>
<path d="M147.074 96.509H140.114C139.893 96.509 139.715 96.3304 139.715 96.11V94.8091C139.715 94.5888 139.893 94.4102 140.114 94.4102H147.074C147.295 94.4102 147.473 94.5888 147.473 94.8091V96.11C147.473 96.3302 147.295 96.509 147.074 96.509Z" fill="#8C7BFF"/>
<path d="M150.598 104.631H136.59C136.163 104.631 135.818 104.285 135.818 103.859V101.342C135.818 100.915 136.163 100.57 136.59 100.57H150.598C151.024 100.57 151.37 100.915 151.37 101.342V103.859C151.37 104.285 151.024 104.631 150.598 104.631Z" fill="#FED101"/>
<path d="M150.598 108.692H136.59C136.163 108.692 135.818 108.346 135.818 107.92V105.403C135.818 104.977 136.163 104.631 136.59 104.631H150.598C151.024 104.631 151.37 104.977 151.37 105.403V107.92C151.37 108.346 151.024 108.692 150.598 108.692Z" fill="#FED101"/>
<path d="M150.598 112.753H136.59C136.163 112.753 135.818 112.408 135.818 111.981V109.464C135.818 109.038 136.163 108.692 136.59 108.692H150.598C151.024 108.692 151.37 109.038 151.37 109.464V111.981C151.37 112.408 151.024 112.753 150.598 112.753Z" fill="#FED101"/>
<path d="M149.409 100.909H137.778C136.51 100.909 135.479 99.8773 135.479 98.6091V98.4693C135.479 97.2012 136.51 96.1697 137.778 96.1697H149.409C150.677 96.1697 151.709 97.2012 151.709 98.4693V98.6091C151.709 99.8773 150.677 100.909 149.409 100.909ZM137.778 96.8482C136.884 96.8482 136.157 97.5754 136.157 98.4694V98.6092C136.157 99.5033 136.884 100.231 137.778 100.231H149.409C150.303 100.231 151.031 99.5033 151.031 98.6092V98.4694C151.031 97.5754 150.303 96.8482 149.409 96.8482H137.778Z" fill="black"/>
<path d="M146.46 96.8481H140.728C139.982 96.8481 139.375 96.2413 139.375 95.4956V95.4233C139.375 94.6776 139.982 94.0708 140.728 94.0708H146.46C147.205 94.0708 147.812 94.6776 147.812 95.4233V95.4956C147.812 96.2413 147.205 96.8481 146.46 96.8481ZM140.728 94.7491C140.356 94.7491 140.053 95.0516 140.053 95.4233V95.4956C140.053 95.8673 140.356 96.1698 140.728 96.1698H146.46C146.831 96.1698 147.134 95.8673 147.134 95.4956V95.4233C147.134 95.0516 146.831 94.7491 146.46 94.7491H140.728Z" fill="black"/>
<path d="M149.409 104.97H137.778C136.51 104.97 135.479 103.938 135.479 102.67V102.531C135.479 101.263 136.51 100.231 137.778 100.231H149.409C150.677 100.231 151.709 101.263 151.709 102.531V102.67C151.709 103.938 150.677 104.97 149.409 104.97ZM137.778 100.909C136.884 100.909 136.157 101.637 136.157 102.531V102.67C136.157 103.564 136.884 104.292 137.778 104.292H149.409C150.303 104.292 151.031 103.564 151.031 102.67V102.531C151.031 101.637 150.303 100.909 149.409 100.909H137.778Z" fill="black"/>
<path d="M149.409 109.031H137.778C136.51 109.031 135.479 108 135.479 106.731V106.592C135.479 105.324 136.51 104.292 137.778 104.292H149.409C150.677 104.292 151.709 105.324 151.709 106.592V106.731C151.709 108 150.677 109.031 149.409 109.031ZM137.778 104.97C136.884 104.97 136.157 105.698 136.157 106.592V106.732C136.157 107.626 136.884 108.353 137.778 108.353H149.409C150.303 108.353 151.031 107.626 151.031 106.732V106.592C151.031 105.698 150.303 104.97 149.409 104.97H137.778Z" fill="black"/>
<path d="M149.409 113.093H137.778C136.51 113.093 135.479 112.061 135.479 110.793V110.653C135.479 109.385 136.51 108.353 137.778 108.353H149.409C150.677 108.353 151.709 109.385 151.709 110.653V110.793C151.709 112.061 150.677 113.093 149.409 113.093ZM137.778 109.032C136.884 109.032 136.157 109.759 136.157 110.653V110.793C136.157 111.687 136.884 112.414 137.778 112.414H149.409C150.303 112.414 151.031 111.687 151.031 110.793V110.653C151.031 109.759 150.303 109.032 149.409 109.032H137.778Z" fill="black"/>
<path d="M143.594 113.038C143.406 113.038 143.255 112.886 143.255 112.699V94.6121C143.255 94.4246 143.406 94.2729 143.594 94.2729C143.781 94.2729 143.933 94.4247 143.933 94.6121V112.699C143.933 112.887 143.781 113.038 143.594 113.038Z" fill="black"/>
<path d="M137.812 110.845C137.752 110.845 137.69 110.828 137.635 110.794C137.475 110.696 137.426 110.487 137.524 110.327L139.891 106.484C139.989 106.324 140.197 106.274 140.357 106.373C140.517 106.471 140.567 106.68 140.468 106.84L138.102 110.683C138.038 110.787 137.926 110.845 137.812 110.845Z" fill="black"/>
<path d="M149.519 110.844C149.405 110.844 149.294 110.787 149.23 110.683L146.863 106.839C146.765 106.68 146.814 106.471 146.974 106.373C147.133 106.274 147.342 106.324 147.44 106.484L149.807 110.327C149.905 110.487 149.856 110.696 149.696 110.794C149.641 110.828 149.58 110.844 149.519 110.844Z" fill="black"/>
<path d="M162.048 121.472H125.236C125.048 121.472 124.896 121.32 124.896 121.132V86.9258C124.896 86.7383 125.048 86.5867 125.236 86.5867H162.048C162.236 86.5867 162.387 86.7385 162.387 86.9258V121.132C162.387 121.32 162.235 121.472 162.048 121.472ZM125.575 120.793H161.709V87.2652H125.575V120.793Z" fill="black"/>
<path d="M177.552 91.8729H167.309C167.121 91.8729 166.97 91.7211 166.97 91.5337C166.97 91.3462 167.122 91.1946 167.309 91.1946H177.552C177.74 91.1946 177.892 91.3464 177.892 91.5337C177.892 91.7213 177.74 91.8729 177.552 91.8729Z" fill="black"/>
<path d="M179.603 97.5226H167.309C167.122 97.5226 166.97 97.3708 166.97 97.1834C166.97 96.9959 167.122 96.8442 167.309 96.8442H179.603C179.79 96.8442 179.942 96.9959 179.942 97.1834C179.942 97.3708 179.79 97.5226 179.603 97.5226Z" fill="black"/>
<path d="M179.603 103.172H167.309C167.122 103.172 166.97 103.02 166.97 102.833C166.97 102.646 167.122 102.494 167.309 102.494H179.603C179.79 102.494 179.942 102.646 179.942 102.833C179.942 103.021 179.79 103.172 179.603 103.172Z" fill="black"/>
<path d="M177.552 108.822H167.309C167.121 108.822 166.97 108.67 166.97 108.483C166.97 108.295 167.122 108.144 167.309 108.144H177.552C177.74 108.144 177.892 108.295 177.892 108.483C177.892 108.67 177.74 108.822 177.552 108.822Z" fill="black"/>
<path d="M177.552 114.472H167.309C167.121 114.472 166.97 114.32 166.97 114.132C166.97 113.945 167.122 113.793 167.309 113.793H177.552C177.74 113.793 177.892 113.945 177.892 114.132C177.892 114.32 177.74 114.472 177.552 114.472Z" fill="black"/>
<path d="M227.958 180.812H191.146C190.958 180.812 190.807 180.66 190.807 180.473V146.266C190.807 146.079 190.958 145.927 191.146 145.927H227.958C228.146 145.927 228.297 146.079 228.297 146.266V180.473C228.297 180.66 228.145 180.812 227.958 180.812ZM191.485 180.134H227.619V146.605H191.485V180.134Z" fill="black"/>
<path d="M209.472 155.792C206.163 155.792 204.484 152.239 204.335 151.301H201.339L194.524 156.409L198.5 160.554L201.364 158.753L201.438 169.61C201.438 169.61 207.397 172.966 208.253 175.598H209.57H209.636H210.953C211.809 172.966 217.768 169.61 217.768 169.61L217.842 158.753L220.707 160.554L224.682 156.409L217.867 151.301H214.871C214.723 152.239 213.044 155.792 209.735 155.792H209.472Z" fill="#FED101"/>
<path d="M210.953 175.937H208.253C208.106 175.937 207.976 175.843 207.93 175.703C207.125 173.225 201.33 169.939 201.272 169.906C201.166 169.846 201.1 169.734 201.099 169.612L201.029 159.365L198.68 160.841C198.544 160.927 198.366 160.905 198.255 160.789L194.279 156.644C194.212 156.573 194.178 156.478 194.186 156.381C194.194 156.284 194.243 156.195 194.32 156.137L201.136 151.03C201.194 150.986 201.266 150.962 201.339 150.962H204.335C204.502 150.962 204.644 151.083 204.67 151.248C204.805 152.104 206.414 155.453 209.471 155.453H209.734C212.792 155.453 214.4 152.104 214.535 151.248C214.561 151.083 214.703 150.962 214.87 150.962H217.866C217.939 150.962 218.011 150.986 218.07 151.03L224.885 156.137C224.963 156.195 225.012 156.284 225.02 156.381C225.027 156.478 224.993 156.573 224.926 156.644L220.951 160.789C220.839 160.905 220.661 160.927 220.525 160.841L218.177 159.365L218.107 169.612C218.106 169.734 218.04 169.846 217.934 169.906C217.876 169.939 212.08 173.227 211.275 175.703C211.23 175.843 211.1 175.937 210.953 175.937ZM208.488 175.259H210.718C211.748 172.81 216.449 169.982 217.43 169.413L217.503 158.751C217.504 158.628 217.571 158.515 217.679 158.456C217.787 158.397 217.919 158.401 218.023 158.466L220.653 160.12L224.172 156.451L217.754 151.64H215.138C214.756 152.934 212.994 156.131 209.735 156.131H209.471C206.212 156.131 204.45 152.934 204.068 151.64H201.452L195.034 156.451L198.553 160.12L201.183 158.466C201.287 158.401 201.419 158.397 201.527 158.456C201.635 158.515 201.702 158.628 201.703 158.751L201.776 169.413C202.756 169.982 207.457 172.81 208.488 175.259Z" fill="black"/>
<path d="M242.925 153.341H233.013C232.826 153.341 232.674 153.189 232.674 153.002C232.674 152.814 232.826 152.663 233.013 152.663H242.925C243.113 152.663 243.265 152.814 243.265 153.002C243.265 153.189 243.113 153.341 242.925 153.341Z" fill="black"/>
<path d="M244.909 158.991H233.013C232.826 158.991 232.674 158.839 232.674 158.651C232.674 158.464 232.826 158.312 233.013 158.312H244.909C245.097 158.312 245.249 158.464 245.249 158.651C245.249 158.839 245.097 158.991 244.909 158.991Z" fill="black"/>
<path d="M244.909 164.64H233.013C232.826 164.64 232.674 164.488 232.674 164.301C232.674 164.113 232.826 163.962 233.013 163.962H244.909C245.097 163.962 245.249 164.113 245.249 164.301C245.249 164.488 245.097 164.64 244.909 164.64Z" fill="black"/>
<path d="M242.925 170.29H233.013C232.826 170.29 232.674 170.138 232.674 169.951C232.674 169.763 232.826 169.612 233.013 169.612H242.925C243.113 169.612 243.265 169.763 243.265 169.951C243.265 170.138 243.113 170.29 242.925 170.29Z" fill="black"/>
<path d="M242.925 175.939H233.013C232.826 175.939 232.674 175.788 232.674 175.6C232.674 175.413 232.826 175.261 233.013 175.261H242.925C243.113 175.261 243.265 175.413 243.265 175.6C243.265 175.788 243.113 175.939 242.925 175.939Z" fill="black"/>
<path d="M162.012 240.133H125.2C125.012 240.133 124.86 239.981 124.86 239.793V205.587C124.86 205.399 125.012 205.248 125.2 205.248H162.012C162.199 205.248 162.351 205.399 162.351 205.587V239.793C162.351 239.981 162.199 240.133 162.012 240.133ZM125.539 239.454H161.673V205.926H125.539V239.454Z" fill="black"/>
<path d="M152.428 229.167H142.576V237.153H152.428V229.167Z" fill="#FED101"/>
<path d="M146.061 233.82H147.933L151.926 230.407V222.749H140.624V227.989C140.624 231.209 143.058 233.82 146.061 233.82Z" fill="#FED101"/>
<path d="M140.989 214.746H141.165C141.888 214.746 142.474 215.375 142.474 216.151V216.404C142.474 217.238 142.577 218.07 142.78 218.876L143.153 220.362C143.33 221.062 143.419 221.784 143.419 222.509V222.749H140.624V222.561C140.624 221.801 140.531 221.045 140.346 220.312L139.971 218.819C139.778 218.051 139.68 217.259 139.68 216.463V216.151C139.68 215.375 140.266 214.746 140.989 214.746Z" fill="#8C7BFF"/>
<path d="M153.657 220.001L153.319 221.032C153.022 221.94 152.87 222.895 152.87 223.857V224.224C152.87 224.783 152.447 225.236 151.925 225.236L146.49 233.82H148.556C151.455 233.82 153.997 231.742 154.766 228.743L155.286 226.714C155.537 225.733 155.665 224.721 155.665 223.704V223.371C155.665 222.73 155.766 222.095 155.964 221.491L156.151 220.918C156.446 220.019 155.824 219.077 154.935 219.077H154.873C154.326 219.077 153.839 219.447 153.657 220.001Z" fill="#FED101"/>
<path d="M144.837 212.65C144.054 212.65 143.419 213.284 143.419 214.067V222.749H146.255V214.067C146.255 213.284 145.62 212.65 144.837 212.65Z" fill="#FED101"/>
<path d="M147.672 210.198C146.889 210.198 146.254 210.832 146.254 211.615V222.749H149.09V211.615C149.09 210.832 148.455 210.198 147.672 210.198Z" fill="#FED101"/>
<path d="M150.51 211.674C149.726 211.674 149.09 212.31 149.09 213.094V222.749H151.926V213.089C151.926 212.308 151.292 211.674 150.51 211.674Z" fill="#FED101"/>
<path d="M149.09 221.628C148.902 221.628 148.751 221.477 148.751 221.289V212.649C148.751 212.462 148.903 212.31 149.09 212.31C149.278 212.31 149.429 212.462 149.429 212.649V221.289C149.429 221.477 149.278 221.628 149.09 221.628Z" fill="black"/>
<path d="M146.254 221.629C146.067 221.629 145.915 221.477 145.915 221.289V213.545C145.915 213.357 146.067 213.206 146.254 213.206C146.442 213.206 146.593 213.357 146.593 213.545V221.289C146.594 221.477 146.442 221.629 146.254 221.629Z" fill="black"/>
<path d="M152.428 237.493H142.576C142.389 237.493 142.237 237.341 142.237 237.153V232.613C140.994 231.44 140.284 229.764 140.284 227.989V222.56C140.284 221.828 140.194 221.099 140.016 220.394L139.641 218.902C139.441 218.107 139.34 217.287 139.34 216.464V216.151C139.34 215.189 140.079 214.407 140.989 214.407H141.164C142.073 214.407 142.813 215.19 142.813 216.151V216.403C142.813 217.169 142.902 217.932 143.079 218.674V214.133C143.079 213.128 143.851 212.31 144.801 212.31H145.052C145.345 212.31 145.652 212.424 145.914 212.619V211.668C145.914 210.67 146.681 209.859 147.624 209.859H147.719C148.645 209.859 149.402 210.642 149.428 211.615C149.674 211.438 149.972 211.335 150.291 211.335H150.643C151.537 211.335 152.264 212.104 152.264 213.049V224.781C152.424 224.66 152.53 224.455 152.53 224.224V223.857C152.53 222.856 152.687 221.87 152.996 220.927L153.334 219.895C153.562 219.203 154.18 218.737 154.873 218.737H154.935C155.446 218.737 155.917 218.983 156.227 219.411C156.561 219.872 156.653 220.475 156.473 221.024L156.285 221.596C156.098 222.168 156.003 222.765 156.003 223.371V223.704C156.003 224.75 155.872 225.791 155.614 226.799L155.094 228.828C154.715 230.306 153.892 231.636 152.767 232.59V237.154C152.767 237.341 152.615 237.493 152.428 237.493ZM142.915 236.814H152.089V232.43C152.089 232.328 152.135 232.231 152.215 232.166C153.291 231.297 154.08 230.051 154.437 228.659L154.957 226.63C155.201 225.677 155.325 224.693 155.325 223.704V223.37C155.325 222.692 155.431 222.024 155.641 221.385L155.829 220.812C155.941 220.469 155.885 220.095 155.678 219.809C155.497 219.559 155.226 219.416 154.935 219.416H154.873C154.474 219.416 154.114 219.693 153.979 220.106L153.641 221.138C153.354 222.013 153.209 222.928 153.209 223.857V224.223C153.209 224.969 152.633 225.576 151.925 225.576C151.738 225.576 151.586 225.424 151.586 225.236V213.049C151.586 212.478 151.163 212.014 150.644 212.014H150.291C149.816 212.014 149.429 212.44 149.429 212.964C149.429 213.151 149.277 213.303 149.09 213.303C148.902 213.303 148.75 213.151 148.75 212.964V211.667C148.75 211.044 148.288 210.537 147.719 210.537H147.624C147.056 210.537 146.593 211.044 146.593 211.668V213.939C146.593 214.126 146.442 214.278 146.254 214.278C146.067 214.278 145.915 214.126 145.915 213.939C145.915 213.427 145.441 212.989 145.052 212.989H144.802C144.226 212.989 143.758 213.502 143.758 214.133V222.507C143.758 222.695 143.606 222.847 143.419 222.847C143.231 222.847 143.079 222.695 143.079 222.507C143.079 221.811 142.994 221.118 142.824 220.445L142.451 218.959C142.241 218.126 142.135 217.266 142.135 216.403V216.151C142.135 215.563 141.7 215.086 141.165 215.086H140.989C140.454 215.086 140.019 215.564 140.019 216.151V216.464C140.019 217.231 140.113 217.996 140.299 218.737L140.675 220.228C140.866 220.988 140.963 221.773 140.963 222.56V227.989C140.963 229.624 141.634 231.164 142.803 232.212C142.875 232.276 142.916 232.368 142.916 232.464V236.814H142.915Z" fill="black"/>
<path d="M144.125 226.94H134.274V234.927H144.125V226.94Z" fill="#FED101"/>
<path d="M137.758 231.594H139.631L143.623 228.181V220.523H132.321V225.763C132.321 228.983 134.756 231.594 137.758 231.594Z" fill="#FED101"/>
<path d="M132.686 212.52H132.862C133.585 212.52 134.172 213.149 134.172 213.925V214.177C134.172 215.012 134.274 215.844 134.477 216.65L134.851 218.136C135.027 218.836 135.116 219.558 135.116 220.283V220.523H132.321V220.335C132.321 219.575 132.228 218.819 132.043 218.086L131.668 216.594C131.475 215.825 131.377 215.033 131.377 214.237V213.925C131.377 213.149 131.963 212.52 132.686 212.52Z" fill="#FED101"/>
<path d="M145.354 217.775L145.016 218.806C144.719 219.714 144.567 220.669 144.567 221.631V221.997C144.567 222.557 144.144 223.01 143.622 223.01L138.187 231.594H140.253C143.152 231.594 145.694 229.516 146.463 226.517L146.983 224.488C147.234 223.507 147.362 222.495 147.362 221.478V221.145C147.362 220.504 147.463 219.869 147.661 219.265L147.848 218.692C148.143 217.792 147.521 216.851 146.632 216.851H146.57C146.023 216.851 145.536 217.221 145.354 217.775Z" fill="#FED101"/>
<path d="M136.535 210.424C135.752 210.424 135.116 211.058 135.116 211.841V220.523H137.952V211.841C137.952 211.058 137.317 210.424 136.535 210.424Z" fill="#FED101"/>
<path d="M139.369 207.972C138.587 207.972 137.951 208.606 137.951 209.389V220.523H140.787V209.389C140.787 208.606 140.152 207.972 139.369 207.972Z" fill="#FED101"/>
<path d="M142.208 209.448C141.424 209.448 140.787 210.084 140.787 210.868V220.523H143.623V210.863C143.623 210.082 142.989 209.448 142.208 209.448Z" fill="#FED101"/>
<path d="M140.787 219.402C140.6 219.402 140.448 219.251 140.448 219.063V210.424C140.448 210.236 140.6 210.084 140.787 210.084C140.974 210.084 141.126 210.236 141.126 210.424V219.063C141.126 219.251 140.974 219.402 140.787 219.402Z" fill="black"/>
<path d="M137.951 219.402C137.764 219.402 137.612 219.251 137.612 219.063V211.318C137.612 211.131 137.764 210.979 137.951 210.979C138.139 210.979 138.291 211.131 138.291 211.318V219.063C138.291 219.251 138.139 219.402 137.951 219.402Z" fill="black"/>
<path d="M144.126 235.267H134.274C134.087 235.267 133.935 235.115 133.935 234.927V230.387C132.692 229.214 131.982 227.538 131.982 225.763V220.334C131.982 219.603 131.892 218.874 131.715 218.168L131.339 216.676C131.139 215.881 131.038 215.061 131.038 214.238V213.925C131.038 212.963 131.778 212.181 132.687 212.181H132.862C133.771 212.181 134.511 212.963 134.511 213.925V214.177C134.511 214.943 134.6 215.706 134.777 216.447V211.907C134.777 210.902 135.549 210.085 136.499 210.085H136.75C137.043 210.085 137.35 210.198 137.613 210.394V209.442C137.613 208.444 138.38 207.633 139.323 207.633H139.417C140.343 207.633 141.1 208.416 141.126 209.39C141.372 209.213 141.67 209.109 141.99 209.109H142.342C143.235 209.109 143.963 209.878 143.963 210.823V222.555C144.123 222.433 144.228 222.229 144.228 221.997V221.63C144.228 220.63 144.385 219.645 144.695 218.7L145.033 217.669C145.26 216.977 145.878 216.511 146.571 216.511H146.633C147.144 216.511 147.615 216.757 147.925 217.185C148.259 217.646 148.351 218.249 148.172 218.797L147.984 219.37C147.797 219.941 147.702 220.538 147.702 221.144V221.478C147.702 222.522 147.571 223.564 147.312 224.573L146.792 226.601C146.413 228.08 145.589 229.41 144.465 230.364V234.928C144.465 235.115 144.313 235.267 144.126 235.267ZM134.613 234.588H143.786V230.204C143.786 230.102 143.833 230.005 143.913 229.94C144.989 229.071 145.778 227.826 146.135 226.433L146.655 224.404C146.899 223.45 147.023 222.466 147.023 221.478V221.144C147.023 220.466 147.13 219.798 147.339 219.159L147.527 218.586C147.639 218.244 147.583 217.869 147.376 217.583C147.195 217.334 146.924 217.19 146.633 217.19H146.571C146.172 217.19 145.813 217.468 145.677 217.881L145.339 218.912C145.052 219.788 144.907 220.703 144.907 221.631V221.998C144.907 222.743 144.331 223.35 143.623 223.35C143.436 223.35 143.284 223.198 143.284 223.011V210.823C143.284 210.252 142.862 209.788 142.342 209.788H141.99C141.514 209.788 141.127 210.214 141.127 210.738C141.127 210.925 140.975 211.077 140.788 211.077C140.601 211.077 140.449 210.925 140.449 210.738V209.442C140.449 208.818 139.986 208.311 139.417 208.311H139.323C138.754 208.311 138.291 208.818 138.291 209.442V211.713C138.291 211.9 138.139 212.052 137.952 212.052C137.765 212.052 137.613 211.9 137.613 211.713C137.613 211.201 137.139 210.763 136.75 210.763H136.499C135.924 210.763 135.456 211.276 135.456 211.907V220.282C135.456 220.469 135.304 220.621 135.116 220.621C134.929 220.621 134.777 220.469 134.777 220.282C134.777 219.585 134.691 218.891 134.522 218.219L134.149 216.733C133.939 215.899 133.833 215.04 133.833 214.177V213.925C133.833 213.337 133.398 212.86 132.863 212.86H132.687C132.152 212.86 131.717 213.338 131.717 213.925V214.238C131.717 215.006 131.811 215.77 131.998 216.511L132.373 218.002C132.564 218.763 132.661 219.547 132.661 220.335V225.763C132.661 227.398 133.332 228.938 134.501 229.986C134.572 230.05 134.614 230.142 134.614 230.238V234.588H134.613Z" fill="black"/>
<path d="M177.393 212.694H167.149C166.962 212.694 166.81 212.542 166.81 212.355C166.81 212.167 166.962 212.015 167.149 212.015H177.393C177.581 212.015 177.732 212.167 177.732 212.355C177.732 212.542 177.581 212.694 177.393 212.694Z" fill="black"/>
<path d="M179.444 218.343H167.15C166.962 218.343 166.811 218.192 166.811 218.004C166.811 217.816 166.962 217.665 167.15 217.665H179.444C179.631 217.665 179.783 217.816 179.783 218.004C179.783 218.192 179.631 218.343 179.444 218.343Z" fill="black"/>
<path d="M179.444 223.993H167.15C166.962 223.993 166.811 223.841 166.811 223.654C166.811 223.466 166.962 223.314 167.15 223.314H179.444C179.631 223.314 179.783 223.466 179.783 223.654C179.783 223.841 179.631 223.993 179.444 223.993Z" fill="black"/>
<path d="M177.393 229.642H167.149C166.962 229.642 166.81 229.491 166.81 229.303C166.81 229.116 166.962 228.964 167.149 228.964H177.393C177.581 228.964 177.732 229.116 177.732 229.303C177.732 229.491 177.581 229.642 177.393 229.642Z" fill="black"/>
<path d="M177.393 235.292H167.149C166.962 235.292 166.81 235.14 166.81 234.953C166.81 234.765 166.962 234.614 167.149 234.614H177.393C177.581 234.614 177.732 234.765 177.732 234.953C177.732 235.14 177.581 235.292 177.393 235.292Z" fill="black"/>
<path d="M227.84 240.133H191.028C190.84 240.133 190.689 239.981 190.689 239.793V205.587C190.689 205.399 190.84 205.248 191.028 205.248H227.84C228.028 205.248 228.179 205.399 228.179 205.587V239.793C228.179 239.981 228.028 240.133 227.84 240.133ZM191.367 239.454H227.501V205.926H191.367V239.454Z" fill="black"/>
<path d="M214.395 232.176H205.336V236.093H214.395V232.176Z" fill="#4ADA85"/>
<path d="M214.396 236.433H205.337C205.149 236.433 204.997 236.281 204.997 236.094V232.176C204.997 231.988 205.149 231.836 205.337 231.836H214.396C214.583 231.836 214.735 231.988 214.735 232.176V236.094C214.735 236.281 214.583 236.433 214.396 236.433ZM205.676 235.754H214.057V232.515H205.676V235.754Z" fill="black"/>
<path d="M214.353 232.176H205.294L202.96 209.261H216.687L214.353 232.176Z" fill="#FF6C08"/>
<path d="M214.353 232.515H205.294C205.12 232.515 204.974 232.383 204.956 232.21L202.622 209.295C202.612 209.2 202.644 209.105 202.708 209.034C202.772 208.962 202.863 208.922 202.96 208.922H216.687C216.783 208.922 216.874 208.962 216.938 209.034C217.003 209.105 217.034 209.2 217.024 209.295L214.69 232.21C214.672 232.383 214.526 232.515 214.353 232.515ZM205.6 231.836H214.046L216.311 209.6H203.335L205.6 231.836Z" fill="black"/>
<path d="M215.519 212.021H204.126C203.939 212.021 203.787 211.869 203.787 211.682C203.787 211.494 203.939 211.343 204.126 211.343H215.519C215.707 211.343 215.859 211.494 215.859 211.682C215.859 211.869 215.707 212.021 215.519 212.021Z" fill="black"/>
<path d="M204.827 211.263C204.639 211.263 204.487 211.111 204.487 210.924V209.954C204.487 209.766 204.639 209.615 204.827 209.615C205.014 209.615 205.166 209.767 205.166 209.954V210.924C205.166 211.111 205.014 211.263 204.827 211.263Z" fill="black"/>
<path d="M214.8 211.263C214.613 211.263 214.461 211.111 214.461 210.924V209.954C214.461 209.766 214.613 209.615 214.8 209.615C214.988 209.615 215.139 209.767 215.139 209.954V210.924C215.139 211.111 214.988 211.263 214.8 211.263Z" fill="black"/>
<path d="M212.307 211.263C212.119 211.263 211.968 211.111 211.968 210.924V209.954C211.968 209.766 212.12 209.615 212.307 209.615C212.494 209.615 212.646 209.767 212.646 209.954V210.924C212.646 211.111 212.494 211.263 212.307 211.263Z" fill="black"/>
<path d="M207.32 211.263C207.132 211.263 206.981 211.111 206.981 210.924V209.954C206.981 209.766 207.132 209.615 207.32 209.615C207.507 209.615 207.659 209.767 207.659 209.954V210.924C207.659 211.111 207.507 211.263 207.32 211.263Z" fill="black"/>
<path d="M209.814 211.263C209.626 211.263 209.475 211.111 209.475 210.924V209.954C209.475 209.766 209.627 209.615 209.814 209.615C210.001 209.615 210.153 209.767 210.153 209.954V210.924C210.153 211.111 210.001 211.263 209.814 211.263Z" fill="black"/>
<path d="M243.139 212.662H232.895C232.708 212.662 232.556 212.51 232.556 212.323C232.556 212.135 232.708 211.984 232.895 211.984H243.139C243.326 211.984 243.478 212.135 243.478 212.323C243.478 212.51 243.326 212.662 243.139 212.662Z" fill="black"/>
<path d="M245.189 218.311H232.895C232.708 218.311 232.556 218.16 232.556 217.972C232.556 217.785 232.708 217.633 232.895 217.633H245.189C245.376 217.633 245.528 217.785 245.528 217.972C245.528 218.16 245.376 218.311 245.189 218.311Z" fill="black"/>
<path d="M245.189 223.961H232.895C232.708 223.961 232.556 223.81 232.556 223.622C232.556 223.435 232.708 223.283 232.895 223.283H245.189C245.376 223.283 245.528 223.435 245.528 223.622C245.528 223.81 245.376 223.961 245.189 223.961Z" fill="black"/>
<path d="M243.139 229.611H232.895C232.708 229.611 232.556 229.459 232.556 229.272C232.556 229.084 232.708 228.932 232.895 228.932H243.139C243.326 228.932 243.478 229.084 243.478 229.272C243.478 229.459 243.326 229.611 243.139 229.611Z" fill="black"/>
<path d="M243.139 235.26H232.895C232.708 235.26 232.556 235.108 232.556 234.921C232.556 234.734 232.708 234.582 232.895 234.582H243.139C243.326 234.582 243.478 234.733 243.478 234.921C243.478 235.108 243.326 235.26 243.139 235.26Z" fill="black"/>
<path d="M227.958 121.491H191.146C190.958 121.491 190.807 121.34 190.807 121.152V86.9456C190.807 86.7581 190.958 86.6064 191.146 86.6064H227.958C228.146 86.6064 228.297 86.7582 228.297 86.9456V121.152C228.297 121.34 228.145 121.491 227.958 121.491ZM191.485 120.813H227.619V87.2849H191.485V120.813Z" fill="black"/>
<path d="M214.122 117.173L205.222 117.175C204.49 117.175 203.896 116.582 203.896 115.85L203.892 100.463C203.892 99.7308 204.486 99.1372 205.218 99.137L214.118 99.135C214.85 99.1349 215.443 99.7281 215.444 100.46L215.447 115.847C215.447 116.579 214.854 117.173 214.122 117.173Z" fill="#FF6C08"/>
<path d="M213.888 99.0438L205.438 99.0458L205.438 97.1C205.437 96.6483 205.803 96.2822 206.255 96.2821L212.844 96.2805C213.42 96.2804 213.888 96.7477 213.888 97.3242L213.888 99.0438Z" fill="black"/>
<path d="M212.783 96.4416L206.208 96.4431L206.208 94.7241C206.208 94.303 206.549 93.9613 206.97 93.9612L212.019 93.96C212.441 93.9598 212.782 94.3013 212.782 94.7224L212.783 96.4416Z" fill="white"/>
<path d="M208.168 95.1175L208.308 93.9902L208.319 93.9462C208.493 93.3872 208.494 92.9987 208.384 92.4236C208.311 92.0362 208.104 91.7263 208.131 91.1554C208.171 90.3217 208.705 89.8759 209.369 89.8757H209.528C210.192 89.8756 210.764 90.4587 210.77 91.1218C210.776 91.8758 210.577 91.9986 210.502 92.4011C210.397 92.9694 210.409 93.4191 210.591 93.9677L210.731 95.1138C210.733 95.7759 210.192 96.3177 209.529 96.3178H209.373C208.709 96.318 208.17 95.7811 208.168 95.1175Z" fill="white"/>
<path d="M206.813 117.514C205.943 117.514 205.126 117.175 204.511 116.56C203.896 115.946 203.557 115.128 203.557 114.257L203.554 102.055C203.553 100.259 205.014 98.7978 206.81 98.7975L212.525 98.7961C212.525 98.7961 212.526 98.7961 212.526 98.7961C213.396 98.7961 214.214 99.1347 214.829 99.7495C215.444 100.364 215.783 101.182 215.783 102.053L215.786 114.255C215.786 115.125 215.447 115.943 214.832 116.558C214.217 117.173 213.4 117.512 212.529 117.512L206.814 117.514C206.814 117.514 206.813 117.514 206.813 117.514ZM212.526 99.4746C212.526 99.4746 212.526 99.4746 212.525 99.4746L206.81 99.476C206.122 99.476 205.474 99.7443 204.987 100.232C204.5 100.719 204.232 101.366 204.232 102.055L204.235 114.258C204.235 114.946 204.503 115.594 204.991 116.081C205.478 116.568 206.125 116.836 206.813 116.836C206.813 116.836 206.814 116.836 206.814 116.836L212.529 116.834C213.218 116.834 213.866 116.566 214.353 116.078C214.84 115.591 215.108 114.944 215.108 114.255L215.105 102.053C215.104 100.631 213.947 99.4746 212.526 99.4746Z" fill="black"/>
<path d="M206.209 96.7821C206.021 96.7821 205.869 96.6303 205.869 96.4429L205.869 95.6396C205.869 94.5269 206.774 93.6218 207.888 93.6218H208.056C208.144 93.2458 208.138 92.9418 208.051 92.4872C208.031 92.3798 207.996 92.2716 207.958 92.1567C207.87 91.8876 207.771 91.583 207.792 91.139C207.838 90.181 208.472 89.5367 209.369 89.5364H209.528C210.377 89.5364 211.101 90.2608 211.109 91.1185C211.114 91.6797 211.01 91.9526 210.926 92.1719C210.888 92.2707 210.856 92.3561 210.836 92.4632C210.754 92.9074 210.754 93.2512 210.844 93.6212H211.103C211.103 93.6212 211.103 93.6212 211.103 93.6212C211.642 93.6212 212.149 93.8309 212.53 94.2116C212.912 94.5925 213.122 95.099 213.122 95.6384L213.122 96.4417C213.122 96.5315 213.086 96.618 213.023 96.6815C212.959 96.7451 212.873 96.7809 212.783 96.7809L206.209 96.7821ZM209.369 90.2147C208.835 90.215 208.499 90.5725 208.47 91.1714C208.455 91.491 208.527 91.7122 208.603 91.9465C208.646 92.0764 208.689 92.2104 208.718 92.3599C208.844 93.0218 208.824 93.4634 208.643 94.0471C208.599 94.1889 208.464 94.2999 208.316 94.2999L207.888 94.3002C207.149 94.3002 206.548 94.9012 206.548 95.6394L206.548 96.1036L212.444 96.1022L212.444 95.6381C212.444 95.2802 212.304 94.944 212.051 94.6913C211.798 94.4386 211.461 94.2994 211.104 94.2994C211.103 94.2994 211.103 94.2994 211.103 94.2994H210.589C210.443 94.2994 210.313 94.2053 210.267 94.0666C210.077 93.4898 210.049 92.9893 210.169 92.339C210.2 92.1716 210.249 92.0431 210.293 91.9298C210.366 91.738 210.435 91.5572 210.431 91.1242C210.427 90.6396 210.005 90.2146 209.528 90.2146L209.369 90.2147Z" fill="black"/>
<path d="M206.532 103.868C206.344 103.868 206.193 103.717 206.193 103.53C206.192 103.342 206.344 103.19 206.531 103.19L209.542 103.184C209.542 103.184 209.542 103.184 209.542 103.184C209.73 103.184 209.881 103.335 209.881 103.522C209.882 103.71 209.73 103.862 209.543 103.862L206.532 103.868C206.532 103.868 206.532 103.868 206.532 103.868Z" fill="black"/>
<path d="M206.534 114.366C206.348 114.366 206.196 114.215 206.195 114.028C206.194 113.841 206.345 113.689 206.533 113.688L209.523 113.672C209.524 113.672 209.524 113.672 209.525 113.672C209.711 113.672 209.863 113.823 209.864 114.01C209.865 114.197 209.714 114.35 209.526 114.351L206.536 114.366C206.535 114.366 206.535 114.366 206.534 114.366Z" fill="black"/>
<path d="M209.593 107.37C209.592 107.37 209.592 107.37 209.591 107.37L206.678 107.36C206.49 107.36 206.339 107.207 206.34 107.02C206.34 106.833 206.492 106.682 206.679 106.682C206.679 106.682 206.68 106.682 206.68 106.682L209.594 106.692C209.781 106.693 209.932 106.845 209.932 107.033C209.931 107.219 209.779 107.37 209.593 107.37Z" fill="black"/>
<path d="M206.563 110.911C206.376 110.911 206.225 110.76 206.224 110.573C206.223 110.386 206.374 110.233 206.561 110.232L209.566 110.217C209.567 110.217 209.567 110.217 209.568 110.217C209.754 110.217 209.906 110.368 209.907 110.555C209.908 110.742 209.757 110.895 209.569 110.896L206.565 110.911C206.564 110.911 206.563 110.911 206.563 110.911Z" fill="black"/>
<path d="M242.626 94.0206H233.013C232.826 94.0206 232.674 93.8688 232.674 93.6815C232.674 93.4939 232.826 93.3423 233.013 93.3423H242.626C242.814 93.3423 242.965 93.4939 242.965 93.6815C242.965 93.8688 242.814 94.0206 242.626 94.0206Z" fill="black"/>
<path d="M244.551 99.67H233.013C232.826 99.67 232.674 99.5183 232.674 99.3309C232.674 99.1433 232.826 98.9917 233.013 98.9917H244.551C244.738 98.9917 244.89 99.1435 244.89 99.3309C244.89 99.5184 244.738 99.67 244.551 99.67Z" fill="black"/>
<path d="M244.551 105.32H233.013C232.826 105.32 232.674 105.168 232.674 104.981C232.674 104.793 232.826 104.641 233.013 104.641H244.551C244.738 104.641 244.89 104.793 244.89 104.981C244.89 105.168 244.738 105.32 244.551 105.32Z" fill="black"/>
<path d="M242.626 110.969H233.013C232.826 110.969 232.674 110.818 232.674 110.63C232.674 110.443 232.826 110.291 233.013 110.291H242.626C242.814 110.291 242.965 110.443 242.965 110.63C242.965 110.818 242.814 110.969 242.626 110.969Z" fill="black"/>
<path d="M242.626 116.619H233.013C232.826 116.619 232.674 116.467 232.674 116.28C232.674 116.092 232.826 115.94 233.013 115.94H242.626C242.814 115.94 242.965 116.092 242.965 116.28C242.965 116.467 242.814 116.619 242.626 116.619Z" fill="black"/>
<path d="M123.908 181.514L117.785 175.329L113.944 179.118C112.21 178.031 110.339 177.252 108.409 176.78L108.427 171.373L99.7395 171.298L99.7214 176.705C97.788 177.143 95.9119 177.89 94.1712 178.947L90.3551 175.092L84.1915 181.171L88.0076 185.026C86.9284 186.75 86.1576 188.614 85.695 190.538L80.2783 190.492L80.249 199.163L85.6659 199.21C86.1154 201.143 86.8736 203.019 87.9412 204.763L84.0995 208.552L90.2218 214.737L94.0636 210.948C95.7971 212.034 97.6681 212.813 99.5984 213.285L99.5802 218.692L108.268 218.768L108.286 213.36C110.219 212.922 112.095 212.175 113.836 211.119L117.652 214.974L123.816 208.895L120 205.04C121.079 203.315 121.85 201.451 122.312 199.527L127.729 199.574L127.758 190.902L122.341 190.855C121.892 188.923 121.134 187.046 120.066 185.303L123.908 181.514ZM111.724 202.832C107.431 207.065 100.495 207.005 96.2313 202.698C91.9676 198.391 91.9909 191.467 96.2834 187.233C100.576 183 107.512 183.06 111.776 187.367C116.039 191.675 116.016 198.598 111.724 202.832Z" fill="#FFDD00"/>
<path d="M95.4756 256.405H73.0908L75.8031 232.13H98.1877L95.4756 256.405Z" fill="#F4AA74"/>
<path d="M96.6354 246.027L74.123 247.808L75.8035 232.13H98.1881L96.6354 246.027Z" fill="#020202"/>
<path d="M122.783 273.522V269.488C122.783 266.477 120.587 263.926 117.635 263.506L109.383 262.332C108.072 262.146 106.829 261.629 105.769 260.83L103.888 259.525C99.8115 256.696 98.8096 252.742 98.5764 252.313H71.742L70.0166 273.26L122.783 273.522Z" fill="#FED101"/>
<path d="M69.8809 273.106C69.1454 273.106 68.5486 273.707 68.5462 274.449L68.5293 279.993C68.5293 280.8 69.177 281.454 69.976 281.454H122.782C124.038 281.454 125.056 280.426 125.056 279.158V275.402C125.056 274.135 124.038 273.107 122.782 273.107L69.8809 273.106Z" fill="black"/>
<path d="M122.795 273.444C122.788 273.444 122.781 273.444 122.775 273.443C122.588 273.433 122.445 273.273 122.456 273.085L122.624 270.133C122.796 267.129 120.705 264.523 117.759 264.071L107.847 262.553C107.772 262.543 107.696 262.576 107.653 262.641L102.541 270.49C102.44 270.647 102.229 270.691 102.072 270.589C101.915 270.487 101.871 270.277 101.973 270.12L107.085 262.27C107.272 261.983 107.612 261.831 107.949 261.882L117.862 263.401C121.155 263.906 123.494 266.817 123.302 270.172L123.133 273.125C123.123 273.305 122.973 273.444 122.795 273.444Z" fill="black"/>
<path d="M98.5759 263.697C98.4596 263.697 98.3465 263.638 98.2833 263.53C98.1882 263.369 98.242 263.161 98.4035 263.066L103.818 259.877C103.979 259.783 104.187 259.836 104.282 259.997C104.377 260.159 104.324 260.367 104.162 260.462L98.7478 263.65C98.6938 263.682 98.6345 263.697 98.5759 263.697Z" fill="black"/>
<path d="M80.1287 273.374C78.409 266.362 73.4635 263.392 70.905 262.295L69.9416 273.133C69.6485 273.133 80.1287 273.374 80.1287 273.374Z" fill="#020202"/>
<path d="M42.0602 256.77L20.126 250.881L31.0839 228.713L53.0181 234.602L42.0602 256.77Z" fill="#F4AA74"/>
<path d="M48.6677 243.825L23.1892 245.105L32.2698 226.735L54.204 232.625L48.6677 243.825Z" fill="#020202"/>
<path d="M21.2961 244.004L12.0413 259.248L39.8532 273.175C42.3572 274.429 45.2667 274.559 47.8631 273.532L63.6913 267.273C60.3479 258.736 53.8794 259.177 50.7509 259.978C49.4668 260.307 48.1094 260.17 46.9105 259.595L45.5512 254.43L21.2961 244.004Z" fill="#FED101"/>
<path d="M44.2616 274.556C42.6957 274.556 41.1323 274.195 39.7015 273.479L11.8895 259.552C11.8048 259.51 11.7416 259.433 11.7154 259.342C11.6892 259.251 11.7022 259.153 11.7513 259.072L21.0062 243.828C21.0941 243.683 21.2743 243.626 21.4302 243.692L45.6853 254.118C45.7812 254.16 45.8528 254.243 45.8795 254.343L47.1981 259.355C48.2894 259.839 49.5145 259.945 50.667 259.65C53.5094 258.921 60.4994 258.194 64.0073 267.15C64.0754 267.324 63.9899 267.52 63.8162 267.589L47.988 273.848C46.7907 274.321 45.5252 274.556 44.2616 274.556ZM12.5224 259.11L40.0053 272.872C42.4183 274.081 45.237 274.206 47.7385 273.217L63.2494 267.083C60.028 259.255 54.1065 259.468 50.8351 260.307C49.4795 260.655 48.0336 260.51 46.7638 259.901C46.6743 259.858 46.6078 259.778 46.5825 259.682L45.2654 254.676L21.4332 244.432L12.5224 259.11Z" fill="black"/>
<path d="M63.6911 267.273L47.863 273.532C45.2666 274.559 42.3569 274.429 39.8531 273.175L12.0412 259.248L11.6468 259.053C10.8047 258.663 9.8086 258.979 9.34384 259.785L7.73982 262.954C7.21265 263.868 7.57155 265.043 8.51864 265.504L38.5111 280.091C42.0977 281.835 46.2382 281.995 49.9366 280.533L66.3434 274.045C67.2346 273.693 67.6714 272.678 67.319 271.778L65.9429 268.265C65.5905 267.365 64.5822 266.921 63.6911 267.273Z" fill="#020202"/>
<path d="M20.0397 263.254C21.1445 260.493 21.2437 257.315 20.0712 254.321C19.4629 252.768 18.571 251.413 17.4792 250.291L12.0413 259.248L20.0397 263.254Z" fill="#020202"/>
<path d="M44.042 269.881C43.9828 269.881 43.923 269.866 43.8688 269.833C43.7078 269.737 43.6551 269.529 43.7511 269.368L49.1453 260.315C49.241 260.153 49.4499 260.101 49.6102 260.197C49.7712 260.293 49.8239 260.501 49.7279 260.662L44.3337 269.715C44.2702 269.822 44.1577 269.881 44.042 269.881Z" fill="black"/>
<path d="M40.0051 265.523C39.9173 265.523 39.8298 265.489 39.7634 265.421C39.6321 265.288 39.6338 265.073 39.7674 264.941L43.6341 261.14C43.7676 261.008 43.9823 261.01 44.1139 261.144C44.2452 261.277 44.2435 261.492 44.1099 261.624L40.2431 265.425C40.1768 265.49 40.0908 265.523 40.0051 265.523Z" fill="black"/>
<path d="M99.3451 244.404L73.0633 242.2L77.5255 189.703L61.2344 114.455L97.9441 123.609L103.344 182.119C104.274 188.145 104.497 194.256 104.009 200.331L99.3451 244.404Z" fill="#363738"/>
<path d="M70.9521 154.777L69.365 159.881L77.525 189.906L73.0627 242.2L76.2067 242.538L81.1267 190.846L70.9521 154.777Z" fill="black"/>
<path d="M50.9371 244.117L24.6814 238.26L42.931 191.505L40.8596 130.242H75.9696L69.9276 189.937C69.2226 196.902 67.5204 203.717 64.8781 210.154L50.9371 244.117Z" fill="#363738"/>
<path d="M50.9376 244.456C50.9131 244.456 50.8883 244.453 50.8636 244.447L24.6079 238.591C24.5113 238.569 24.429 238.507 24.3824 238.42C24.3359 238.332 24.3297 238.229 24.3656 238.137L42.6151 191.382C42.6832 191.207 42.8799 191.121 43.0545 191.189C43.229 191.257 43.3153 191.454 43.2472 191.628L25.1415 238.015L50.7322 243.723L64.5647 210.025C67.1973 203.612 68.8881 196.841 69.5903 189.902L72.4798 161.355C72.4984 161.168 72.6642 161.033 72.8515 161.051C73.0379 161.07 73.1738 161.237 73.1549 161.423L70.2654 189.971C69.5565 196.975 67.8496 203.809 65.1923 210.283L51.2512 244.245C51.1982 244.375 51.0726 244.456 50.9376 244.456Z" fill="black"/>
<path d="M72.8179 161.728C72.7111 161.728 72.6059 161.678 72.5399 161.584C72.4322 161.431 72.4693 161.219 72.6225 161.112L78.9258 156.687C79.0794 156.579 79.2908 156.616 79.3984 156.769C79.5061 156.922 79.4689 157.134 79.3158 157.242L73.0125 161.667C72.9532 161.708 72.8851 161.728 72.8179 161.728Z" fill="black"/>
<path d="M44.5785 194.292C44.5169 194.292 44.4546 194.276 44.3987 194.241L39.8277 191.374C39.7062 191.298 39.6458 191.153 39.6767 191.013C39.7076 190.873 39.8232 190.767 39.9653 190.75L45.4245 190.06C45.609 190.04 45.7802 190.168 45.8036 190.354C45.8272 190.54 45.6954 190.71 45.5096 190.733L40.993 191.304L44.759 193.665C44.9177 193.765 44.9658 193.974 44.8661 194.133C44.8018 194.236 44.6915 194.292 44.5785 194.292Z" fill="black"/>
<path d="M123.6 115.05C119.962 119.075 113.766 119.374 109.76 115.718L85.3499 93.4391L98.525 78.8647L123.429 99.9385C127.435 103.594 127.238 111.026 123.6 115.05Z" fill="#F4AA74"/>
<path d="M116.336 118.615C113.812 118.615 111.413 117.686 109.531 115.969L85.1212 93.6894C84.9834 93.5635 84.9731 93.3499 85.0984 93.2114L98.2735 78.6372C98.396 78.5018 98.6046 78.4882 98.7442 78.6058L123.649 99.6795C127.682 103.361 127.776 110.937 123.852 115.278C122.031 117.292 119.538 118.473 116.832 118.604C116.667 118.611 116.501 118.615 116.336 118.615ZM85.828 93.4162L109.989 115.468C111.858 117.174 114.275 118.042 116.799 117.926C119.324 117.804 121.649 116.703 123.349 114.823C126.973 110.814 126.9 103.565 123.201 100.189L98.5565 79.3359L85.828 93.4162Z" fill="black"/>
<path d="M106.181 107.002L125.392 112.219L140.107 77.9929L126.276 71.2517L106.181 107.002Z" fill="#F4AA74"/>
<path d="M125.392 112.558C125.347 112.558 125.302 112.549 125.258 112.531C125.086 112.456 125.006 112.257 125.081 112.085L140.861 75.4335C140.936 75.2615 141.135 75.1831 141.307 75.256C141.479 75.3302 141.559 75.5299 141.484 75.7019L125.703 112.353C125.648 112.481 125.523 112.558 125.392 112.558Z" fill="black"/>
<path d="M114.594 92.9379C114.539 92.9379 114.485 92.9249 114.433 92.8975C114.268 92.8084 114.207 92.6027 114.295 92.4377L126.621 69.553C126.71 69.3879 126.916 69.3263 127.081 69.4152C127.246 69.5043 127.307 69.71 127.218 69.875L114.893 92.7597C114.831 92.8733 114.714 92.9379 114.594 92.9379Z" fill="black"/>
<path d="M145.979 97.5756L130.345 102.306C128.634 102.824 126.884 101.632 126.777 99.8768L123.986 53.9182C123.91 52.6567 124.722 51.5059 125.952 51.1337L141.586 46.4037C143.298 45.8859 145.048 47.0773 145.155 48.8328L147.945 94.7912C148.022 96.0528 147.209 97.2036 145.979 97.5756Z" fill="black"/>
<path d="M140.561 60.9345C139.535 59.5969 139.809 57.6936 141.172 56.6834L144.698 54.0701C146.062 53.0599 147.998 53.3252 149.023 54.6627C150.048 56.0002 149.775 57.9035 148.411 58.9138L144.885 61.527C143.522 62.5374 141.586 62.272 140.561 60.9345Z" fill="#F4AA74"/>
<path d="M143.027 62.4779C141.989 62.4779 140.963 62.0164 140.291 61.141C139.742 60.4244 139.508 59.5396 139.633 58.6495C139.759 57.7514 140.234 56.9564 140.97 56.4108L144.496 53.7974C146.006 52.6797 148.157 52.9752 149.293 54.4563C149.842 55.1729 150.075 56.0577 149.95 56.9478C149.824 57.8459 149.349 58.6409 148.614 59.1865L145.087 61.7999C144.47 62.257 143.746 62.4779 143.027 62.4779ZM140.83 60.7281C141.741 61.9178 143.47 62.1546 144.683 61.2545L148.209 58.6412C148.798 58.2049 149.178 57.5699 149.279 56.8536C149.378 56.1448 149.192 55.4401 148.754 54.869C147.842 53.6797 146.113 53.4439 144.901 54.3426L141.374 56.956C140.785 57.3922 140.406 58.0273 140.305 58.7435C140.206 59.4524 140.392 60.1571 140.83 60.7281Z" fill="black"/>
<path d="M142.157 67.3558C141.131 66.0182 141.405 64.1149 142.768 63.1046L146.294 60.4913C147.658 59.481 149.594 59.7464 150.619 61.0839C151.644 62.4215 151.371 64.3248 150.007 65.3351L146.481 67.9483C145.118 68.9585 143.182 68.6933 142.157 67.3558Z" fill="#F4AA74"/>
<path d="M144.623 68.8988C143.585 68.8988 142.559 68.4376 141.887 67.5622C141.338 66.8456 141.104 65.9605 141.229 65.0704C141.355 64.1726 141.83 63.3776 142.566 62.832L146.092 60.2186C147.602 59.1012 149.753 59.3957 150.888 60.8775C151.438 61.5941 151.671 62.4789 151.546 63.369C151.42 64.2671 150.945 65.0621 150.209 65.6077L146.683 68.2211C146.066 68.6781 145.342 68.8988 144.623 68.8988ZM142.426 67.1493C143.337 68.3385 145.066 68.5744 146.279 67.6757L149.805 65.0624C150.394 64.6261 150.774 63.9911 150.874 63.2748C150.974 62.566 150.788 61.8613 150.35 61.2902C149.438 60.1009 147.709 59.864 146.496 60.7638L142.97 63.3772C142.381 63.8134 142.002 64.4485 141.901 65.1647C141.801 65.8733 141.988 66.5783 142.426 67.1493Z" fill="black"/>
<path d="M143.187 74.4037C142.162 73.0661 142.436 71.1629 143.799 70.1526L147.325 67.5394C148.688 66.5291 150.625 66.7945 151.65 68.1319C152.675 69.4695 152.401 71.3727 151.038 72.383L147.512 74.9962C146.149 76.0066 144.213 75.7413 143.187 74.4037Z" fill="#F4AA74"/>
<path d="M145.654 75.9469C144.616 75.9469 143.589 75.4859 142.918 74.6103C142.369 73.8937 142.135 73.0086 142.26 72.1182C142.387 71.2204 142.862 70.4257 143.597 69.8801L147.123 67.2667C148.633 66.1493 150.784 66.4438 151.92 67.9256C152.469 68.6422 152.702 69.527 152.577 70.4171C152.451 71.3152 151.976 72.1102 151.24 72.6558L147.714 75.2689C147.097 75.7261 146.373 75.9469 145.654 75.9469ZM143.457 74.1976C144.368 75.3869 146.097 75.6233 147.31 74.7237L150.836 72.1106C151.425 71.6744 151.805 71.0393 151.905 70.3231C152.005 69.6142 151.819 68.9096 151.381 68.3385C150.469 67.1493 148.74 66.9124 147.527 67.8121L144.001 70.4254C143.412 70.8617 143.033 71.4964 142.932 72.2127C142.833 72.9215 143.019 73.6265 143.457 74.1976Z" fill="black"/>
<path d="M17.3113 128.736L7.5788 125.577C1.01467 123.447 -1.72412 115.662 2.06254 109.896L20.4728 81.8633L39.7789 94.5246L17.3113 128.736Z" fill="#F4AA74"/>
<path d="M35.9542 100.349L13.9114 91.8546L20.4732 81.863L39.7794 94.5244L35.9542 100.349Z" fill="black"/>
<path d="M17.3117 129.074C17.2767 129.074 17.2414 129.069 17.207 129.058L7.47448 125.9C4.24335 124.851 1.74433 122.413 0.618492 119.21C-0.50658 116.009 -0.0834231 112.546 1.77932 109.71L20.1896 81.6767C20.2922 81.52 20.5029 81.4762 20.6591 81.5793L39.9654 94.2406C40.0407 94.2899 40.0933 94.3671 40.1114 94.4553C40.1298 94.5434 40.1122 94.6351 40.0629 94.7103L17.5952 128.921C17.5312 129.019 17.4237 129.074 17.3117 129.074ZM20.5705 82.3324L2.3464 110.082C0.600773 112.74 0.204278 115.985 1.25846 118.985C2.31358 121.987 4.65541 124.272 7.68375 125.255L17.17 128.333L39.3092 94.6219L20.5705 82.3324Z" fill="black"/>
<path d="M90.5978 133.483L76.5238 137.03L38.5576 121.165V99.0515L14.7119 84.1446L20.004 78.8703C27.1572 71.7409 36.8475 67.7373 46.9504 67.7373H78.1111C86.0739 67.7373 93.6775 71.049 99.0979 76.8781L106.819 85.1809L90.598 94.4777V133.483H90.5978Z" fill="#FED101"/>
<path d="M76.5243 137.369C76.4797 137.369 76.4352 137.36 76.3934 137.343L38.427 121.478C38.3008 121.425 38.2187 121.301 38.2187 121.165V99.2397L14.5324 84.4324C14.4447 84.3777 14.3867 84.2857 14.3752 84.1829C14.3636 84.0803 14.3995 83.9775 14.4727 83.9046L19.7649 78.6301C27.032 71.3869 36.6869 67.3982 46.9508 67.3982H78.1113C86.1406 67.3982 93.8807 70.7696 99.3467 76.6475L107.067 84.9505C107.138 85.026 107.17 85.13 107.154 85.2323C107.139 85.3346 107.077 85.4242 106.987 85.4755L90.9374 94.6745V133.483C90.9374 133.639 90.8317 133.774 90.681 133.812L76.607 137.359C76.5799 137.366 76.552 137.369 76.5243 137.369ZM38.8972 120.939L76.5509 136.674L90.2589 133.219V94.4781C90.2589 94.3565 90.3239 94.2441 90.4295 94.1839L106.279 85.0995L98.8497 77.1093C93.5116 71.3692 85.9528 68.0765 78.1113 68.0765H46.9508C36.8678 68.0765 27.3831 71.9951 20.2439 79.1104L15.2542 84.0835L38.7378 98.764C38.8369 98.8259 38.8972 98.9346 38.8972 99.0515V120.939Z" fill="black"/>
<path d="M66.5093 145.001L7.57886 125.577L13.2279 103.471L62.3517 127.565L66.5093 145.001Z" fill="#F4AA74"/>
<path d="M67.1219 145.584C67.0863 145.584 67.0504 145.578 67.0155 145.567L7.45358 125.901C7.27575 125.842 7.17913 125.65 7.23769 125.472C7.29671 125.294 7.48856 125.197 7.66624 125.257L66.6304 144.725L62.0648 127.803L14.3618 104.576C14.1935 104.494 14.1234 104.291 14.2054 104.123C14.2874 103.954 14.4906 103.884 14.6589 103.966L62.5006 127.26C62.5887 127.303 62.6539 127.382 62.6795 127.477L67.4495 145.156C67.4821 145.277 67.4458 145.405 67.3552 145.491C67.2911 145.552 67.2072 145.584 67.1219 145.584Z" fill="black"/>
<path d="M101.404 134.967L100.846 133.831L91.31 136.268L86.872 141.216H63.2979V144.079C65.1381 144.079 70.2329 147.046 74.386 147.046H81.949C84.3745 147.046 86.7673 146.489 88.9431 145.418L99.6965 139.974C101.55 139.061 102.314 136.821 101.404 134.967Z" fill="#F4AA74"/>
<path d="M90.7745 133.794L101.316 127.657C102.65 127 104.264 127.552 104.916 128.887L104.927 128.91C105.713 130.52 105.048 132.463 103.44 133.255L91.896 139.913C89.7205 140.984 87.3276 141.541 84.9023 141.541H63.2979V131.052H76.1247L78.7475 133.549C80.4935 135.212 82.9203 135.977 85.2977 135.572C86.8592 135.306 88.7469 134.784 90.7745 133.794Z" fill="#F4AA74"/>
<path d="M84.9023 141.881H82.2286C82.0413 141.881 81.8895 141.729 81.8895 141.541C81.8895 141.354 82.0414 141.202 82.2286 141.202H84.9023C87.2624 141.202 89.6289 140.651 91.7461 139.608L103.27 132.961C104.727 132.243 105.324 130.497 104.622 129.058C104.336 128.472 103.857 128.05 103.263 127.846C102.668 127.643 102.03 127.684 101.466 127.962L90.9452 134.088C89.1323 134.974 87.2586 135.581 85.3547 135.906C82.9765 136.311 80.5644 135.616 78.7343 133.998C78.5941 133.874 78.5808 133.659 78.705 133.519C78.8288 133.379 79.0433 133.365 79.1838 133.49C80.8592 134.971 83.0676 135.609 85.2408 135.238C87.0809 134.924 88.8926 134.336 90.6259 133.49L101.146 127.364C101.893 126.995 102.716 126.942 103.483 127.204C104.249 127.466 104.866 128.011 105.221 128.739C106.098 130.534 105.361 132.687 103.59 133.559L92.0657 140.207C89.8359 141.305 87.3657 141.881 84.9023 141.881Z" fill="black"/>
<path d="M78.9798 133.868C79.5506 133.772 80.1665 133.719 80.8431 133.719C81.0929 133.692 88.453 133.701 92.1316 133.71C93.9725 133.714 95.47 132.224 95.47 130.385V130.338C95.47 128.502 93.9808 127.014 92.1438 127.014H66.4386C56.6652 127.014 57.1012 134.434 57.1012 134.434V138.187H65.6609C72.6889 138.187 74.3453 134.645 78.9798 133.868Z" fill="#F4AA74"/>
<path d="M75.5703 135.389C75.4466 135.389 75.3273 135.321 75.2675 135.203C75.1828 135.036 75.2493 134.832 75.4164 134.747C76.2727 134.312 77.4454 133.781 78.9235 133.533C79.5393 133.43 80.1648 133.38 80.8354 133.379C81.5341 133.346 92.0243 133.37 92.1324 133.37C92.1347 133.37 92.1371 133.37 92.1394 133.37C92.938 133.37 93.6886 133.06 94.254 132.496C94.8194 131.932 95.1308 131.182 95.1308 130.384V130.337C95.1308 128.692 93.7908 127.353 92.1438 127.353H66.4386C63.1925 127.353 60.7629 128.181 59.2171 129.815C57.3194 131.821 57.4383 134.389 57.4399 134.414C57.4502 134.601 57.3072 134.761 57.1206 134.772C56.9275 134.787 56.7734 134.64 56.7626 134.454C56.7557 134.337 56.6193 131.581 58.7163 129.357C60.395 127.577 62.9931 126.675 66.4386 126.675H92.1439C94.1652 126.675 95.8095 128.318 95.8095 130.338V130.385C95.8095 131.364 95.4273 132.284 94.7334 132.977C94.0399 133.669 93.1191 134.049 92.1399 134.049C92.137 134.049 92.1339 134.049 92.131 134.049C87.7758 134.039 81.1868 134.034 80.8749 134.057C80.2079 134.058 79.6166 134.106 79.0362 134.203C77.6568 134.434 76.5875 134.914 75.7238 135.353C75.6743 135.377 75.622 135.389 75.5703 135.389Z" fill="black"/>
<path d="M81.9489 147.386H74.3859C71.0064 147.386 66.9966 145.798 64.3435 144.747C63.6981 144.492 63.1407 144.271 62.7171 144.124C62.54 144.063 62.4464 143.87 62.5077 143.693C62.569 143.515 62.7619 143.42 62.9393 143.483C63.3768 143.635 63.9403 143.858 64.5931 144.116C67.1983 145.148 71.1355 146.707 74.3857 146.707H81.9487C84.3094 146.707 86.676 146.156 88.7929 145.113L99.4971 139.581C101.168 138.758 101.868 136.795 101.095 135.109C101.017 134.939 101.092 134.737 101.262 134.659C101.432 134.581 101.634 134.656 101.712 134.826C102.639 136.848 101.8 139.203 99.8027 140.187L89.0984 145.719C86.8831 146.81 84.4128 147.386 81.9489 147.386Z" fill="black"/>
<path d="M70.6367 73.1348L62.1048 67.9024L62.1046 53.6672H70.6366L70.6367 73.1348Z" fill="#F4AA74"/>
<path d="M69.5836 61.8201C73.7142 61.8201 77.0626 58.1553 77.0626 53.6345C77.0626 49.1138 73.7142 45.449 69.5836 45.449C65.4531 45.449 62.1046 49.1138 62.1046 53.6345C62.1046 58.1553 65.4531 61.8201 69.5836 61.8201Z" fill="#F4AA74"/>
<path d="M67.96 58.2882C68.4964 58.7793 69.1872 59.1109 69.9668 59.1901C71.7049 59.3666 73.2711 58.2389 73.7021 56.6021L67.96 58.2882Z" fill="white"/>
<path d="M69.7907 62.1595C69.016 62.1595 68.2515 62.033 67.5188 61.7835C67.3414 61.7233 67.2467 61.5305 67.3069 61.3533C67.3673 61.1758 67.5595 61.0796 67.7375 61.1416C68.3996 61.3669 69.0906 61.4812 69.7907 61.4812C73.6134 61.4812 76.7234 58.0628 76.7234 53.8613C76.7232 49.6598 73.6131 46.2415 69.7905 46.2415C66.2205 46.2415 63.2553 49.1812 62.8938 53.0791C62.8766 53.2656 62.7094 53.4012 62.5248 53.3856C62.3383 53.3681 62.201 53.203 62.2183 53.0163C62.6124 48.7675 65.8676 45.563 69.7903 45.563C73.9872 45.563 77.4016 49.2854 77.4017 53.8612C77.4019 58.437 73.9875 62.1595 69.7907 62.1595Z" fill="black"/>
<path d="M69.9712 50.6715L77.0341 54.1467C77.0486 53.94 77.0629 53.7331 77.0629 53.5223C77.0629 49.0636 73.7605 45.4492 69.6864 45.4492C65.6127 45.4492 62.0488 49.2424 62.0488 53.701C62.0488 54.0034 62.0669 54.3008 62.0963 54.5945L69.9712 50.6715Z" fill="#060606"/>
<path d="M60.142 51.3732C63.1895 51.3732 65.6599 48.9044 65.6599 45.8591C65.6599 42.8137 63.1895 40.345 60.142 40.345C57.0945 40.345 54.624 42.8137 54.624 45.8591C54.624 48.9044 57.0945 51.3732 60.142 51.3732Z" fill="#060606"/>
<path d="M51.5396 46.5421C54.587 46.5421 57.0575 44.0734 57.0575 41.028C57.0575 37.9827 54.587 35.5139 51.5396 35.5139C48.4921 35.5139 46.0216 37.9827 46.0216 41.028C46.0216 44.0734 48.4921 46.5421 51.5396 46.5421Z" fill="#060606"/>
<path d="M42.9369 41.7108C45.9844 41.7108 48.4549 39.2421 48.4549 36.1967C48.4549 33.1514 45.9844 30.6826 42.9369 30.6826C39.8894 30.6826 37.4189 33.1514 37.4189 36.1967C37.4189 39.2421 39.8894 41.7108 42.9369 41.7108Z" fill="#060606"/>
<path d="M56.9347 150.969C56.7705 150.969 56.6262 150.85 56.6 150.683L52.295 123.039C52.2662 122.853 52.3928 122.68 52.5781 122.651C52.7636 122.624 52.9365 122.749 52.9655 122.934L57.2705 150.578C57.2993 150.763 57.1727 150.937 56.9874 150.965C56.9697 150.968 56.9521 150.969 56.9347 150.969Z" fill="black"/>
<path d="M39.3976 150.24L60.3297 150.706L66.5015 207.306L32.3026 206.467L39.3976 150.24Z" fill="white"/>
<path d="M66.502 207.645C66.4992 207.645 66.4966 207.645 66.4936 207.645L32.2946 206.806C32.1987 206.804 32.1083 206.761 32.0457 206.689C31.9833 206.616 31.9545 206.52 31.9664 206.425L39.0614 150.198C39.0832 150.025 39.2318 149.912 39.4056 149.901L60.3379 150.367C60.508 150.371 60.6492 150.5 60.6675 150.669L66.8393 207.269C66.8499 207.367 66.8179 207.464 66.7518 207.536C66.6873 207.605 66.5967 207.645 66.502 207.645ZM32.6866 206.137L66.1227 206.958L60.0252 151.038L39.6962 150.586L32.6866 206.137Z" fill="black"/>
<path d="M66.5017 207.645C66.4621 207.645 66.422 207.638 66.3827 207.624L49.185 201.189C49.0494 201.138 48.961 201.007 48.965 200.862L50.3326 150.511C50.3375 150.324 50.4882 150.17 50.6809 150.182C50.8681 150.187 51.0157 150.343 51.0106 150.53L49.6496 200.638L66.6205 206.988C66.7958 207.054 66.8848 207.249 66.8193 207.425C66.7684 207.561 66.639 207.645 66.5017 207.645Z" fill="black"/>
<path d="M32.6225 206.814C32.4807 206.814 32.3485 206.725 32.301 206.583C32.2412 206.405 32.3369 206.213 32.5144 206.153L49.1964 200.55C49.3745 200.491 49.5663 200.586 49.6258 200.764C49.6856 200.941 49.5899 201.134 49.4124 201.193L32.7305 206.797C32.6947 206.808 32.6582 206.814 32.6225 206.814Z" fill="black"/>
<path d="M44.3592 150.69C44.3319 150.69 44.3041 150.686 44.2767 150.679C44.0949 150.634 43.9844 150.45 44.0297 150.268L46.8292 139.061C46.8748 138.879 47.0608 138.769 47.2405 138.815C47.4223 138.86 47.5328 139.044 47.4875 139.226L44.688 150.433C44.6493 150.587 44.5109 150.69 44.3592 150.69Z" fill="black"/>
<path d="M30.8313 140.091C30.7452 140.091 30.659 140.058 30.5929 139.993C30.4596 139.861 30.4582 139.646 30.59 139.513L35.3338 134.708C35.4652 134.575 35.6803 134.574 35.8135 134.705C35.9468 134.837 35.9482 135.052 35.8164 135.185L31.0726 139.99C31.0064 140.057 30.9188 140.091 30.8313 140.091Z" fill="black"/>
<path d="M41.2848 145.677C41.2618 145.677 41.2386 145.675 41.2153 145.67C41.0318 145.632 40.9142 145.452 40.9524 145.269L46.2541 119.867C46.2924 119.684 46.472 119.566 46.6554 119.604C46.8389 119.642 46.9565 119.822 46.9183 120.005L41.6166 145.407C41.5831 145.567 41.442 145.677 41.2848 145.677Z" fill="black"/>
<path d="M27.9788 138.227L44.4062 147.006L26.4804 194.144L0.563354 180.216L27.9788 138.227Z" fill="#0B3D59"/>
<path d="M25.2975 193.013C25.1974 193.013 25.0982 192.969 25.0313 192.884L16.0653 181.547C15.9821 181.442 15.9686 181.298 16.0309 181.179L36.2206 142.665C36.3073 142.499 36.512 142.435 36.6785 142.522C36.8445 142.609 36.9085 142.814 36.8215 142.98L16.7341 181.299L25.5636 192.463C25.6799 192.61 25.655 192.823 25.508 192.94C25.4454 192.989 25.3713 193.013 25.2975 193.013Z" fill="black"/>
<path d="M16.3319 181.676C16.3217 181.676 16.3115 181.676 16.301 181.675L2.25205 180.409C2.06559 180.392 1.92783 180.227 1.94462 180.04C1.96157 179.854 2.12338 179.715 2.31307 179.733L16.3621 180.999C16.5485 181.016 16.6861 181.181 16.6695 181.367C16.6535 181.544 16.5055 181.676 16.3319 181.676Z" fill="black"/>
<path d="M66.6507 7.89318L63.1433 4.34984L60.9423 6.52047C59.9491 5.89807 58.8772 5.45165 57.7714 5.18121L57.7819 2.08352L52.8048 2.04053L52.7943 5.13821C51.6867 5.38939 50.6118 5.81733 49.6147 6.42262L47.4285 4.21409L43.8973 7.69671L46.0835 9.90525C45.4652 10.8933 45.0236 11.9609 44.7587 13.0635L41.6555 13.0367L41.6387 18.0048L44.7419 18.0316C44.9994 19.1387 45.4338 20.2138 46.0454 21.2125L43.8444 23.3832L47.3519 26.9266L49.5529 24.756C50.546 25.3784 51.6179 25.8248 52.7237 26.0953L52.7133 29.193L57.6903 29.236L57.7008 26.1383C58.8085 25.8871 59.8833 25.4592 60.8805 24.854L63.0667 27.0626L66.5978 23.5799L64.4116 21.3714C65.0299 20.3833 65.4715 19.3157 65.7364 18.2132L68.8398 18.24L68.8565 13.2718L65.7531 13.245C65.4956 12.138 65.0612 11.0628 64.4495 10.0641L66.6507 7.89318ZM59.6705 20.1063C57.2114 22.5316 53.2377 22.4972 50.7949 20.0295C48.3521 17.5618 48.3655 13.5953 50.8246 11.1699C53.2837 8.74457 57.2575 8.77894 59.7002 11.2467C62.143 13.7144 62.1296 17.6811 59.6705 20.1063Z" fill="#FFDD00"/>
<path d="M45.7347 52.2805C45.6324 52.2805 45.5329 52.2341 45.4674 52.15L34.7885 38.473H0.378358C0.190974 38.473 0.0391846 38.3212 0.0391846 38.1338V0.339169C0.0391846 0.151631 0.191129 0 0.378358 0H45.7347C45.9221 0 46.0739 0.151785 46.0739 0.339169V51.9412C46.0739 52.0859 45.9821 52.2148 45.8451 52.2618C45.809 52.2745 45.7717 52.2805 45.7347 52.2805ZM0.717527 37.7945H34.954C35.0585 37.7945 35.1571 37.8426 35.2214 37.925L45.3956 50.9559V0.678497H0.717527V37.7945Z" fill="#BFBEBE"/>
<path d="M32.4193 11.5596C30.1269 9.26874 26.4102 9.26874 24.1177 11.5596L22.9778 12.7062L21.8263 11.5554C19.5339 9.26473 15.8172 9.26473 13.5248 11.5554C11.2325 13.8462 11.2325 17.5603 13.5248 19.8511L22.9889 29.3086L22.9986 29.2989L23.0148 29.3151L32.4191 19.8551C34.7117 17.5645 34.7116 13.8504 32.4193 11.5596Z" fill="#FF6C08"/>
<path d="M45.7085 41.1373C45.708 41.1373 45.7075 41.1373 45.7069 41.1373C45.5195 41.1367 45.3684 40.984 45.3691 40.7967L45.4089 31.5772C45.4097 31.3904 45.5615 31.2393 45.7481 31.2393C45.7485 31.2393 45.749 31.2393 45.7496 31.2393C45.937 31.2399 46.0882 31.3926 46.0874 31.5798L46.0476 40.7994C46.0469 40.9861 45.8952 41.1373 45.7085 41.1373Z" fill="#BFBEBE"/>
</svg>
