<svg width="20" height="20" viewBox="0 0 20 20" fill="none" xmlns="http://www.w3.org/2000/svg">
<path d="M14.8415 4.57484V5.1915L11.8915 3.48317C10.7749 2.8415 9.21654 2.8415 8.1082 3.48317L5.1582 5.19984V4.57484C5.1582 2.69984 6.1832 1.6665 8.0582 1.6665H11.9415C13.8165 1.6665 14.8415 2.69984 14.8415 4.57484Z" fill="white"/>
<path d="M14.8665 6.64186L14.7498 6.58353L13.6165 5.93353L11.2665 4.5752C10.5498 4.15853 9.44984 4.15853 8.73317 4.5752L6.38317 5.9252L5.24984 6.59186L5.09984 6.66686C3.6415 7.6502 3.5415 7.83353 3.5415 9.40853V13.1752C3.5415 14.7502 3.6415 14.9335 5.13317 15.9419L8.73317 18.0169C9.0915 18.2335 9.5415 18.3252 9.99984 18.3252C10.4498 18.3252 10.9082 18.2252 11.2665 18.0169L14.8998 15.9169C16.3665 14.9335 16.4582 14.7585 16.4582 13.1752V9.40853C16.4582 7.83353 16.3582 7.6502 14.8665 6.64186ZM12.3248 11.2502L11.8165 11.8752C11.7332 11.9669 11.6748 12.1419 11.6832 12.2669L11.7332 13.0669C11.7665 13.5585 11.4165 13.8085 10.9582 13.6335L10.2165 13.3335C10.0998 13.2919 9.90817 13.2919 9.7915 13.3335L9.04984 13.6252C8.5915 13.8085 8.2415 13.5502 8.27484 13.0585L8.32484 12.2585C8.33317 12.1335 8.27484 11.9585 8.1915 11.8669L7.67484 11.2502C7.35817 10.8752 7.49984 10.4585 7.97484 10.3335L8.74984 10.1335C8.87484 10.1002 9.0165 9.98353 9.08317 9.88353L9.5165 9.21686C9.78317 8.8002 10.2082 8.8002 10.4832 9.21686L10.9165 9.88353C10.9832 9.99186 11.1332 10.1002 11.2498 10.1335L12.0248 10.3335C12.4998 10.4585 12.6415 10.8752 12.3248 11.2502Z" fill="white"/>
</svg>
