<svg width="116" height="20" viewBox="0 0 116 20" fill="none" xmlns="http://www.w3.org/2000/svg">
<path d="M16.4832 14.7661C15.1164 15.0943 13.6895 15.0784 12.3303 14.7198C10.9711 14.3612 9.72213 13.6711 8.69503 12.7114C7.66804 11.7516 6.89506 10.5521 6.44535 9.22033C5.99565 7.88854 5.88324 6.46599 6.11824 5.08008C6.0825 5.1146 6.04476 5.14699 6.00524 5.17708C5.72523 5.39008 5.37524 5.46908 4.67524 5.62708L4.04024 5.77108C1.58024 6.32808 0.350235 6.60609 0.057235 7.54709C-0.234765 8.48713 0.603235 9.46813 2.28024 11.4291L2.71424 11.9361C3.19024 12.4931 3.42923 12.7721 3.53623 13.1161C3.64323 13.4611 3.60723 13.8331 3.53523 14.5761L3.46923 15.2531C3.21623 17.8701 3.08924 19.1781 3.85524 19.7591C4.62123 20.3411 5.77323 19.8111 8.07523 18.7501L8.67223 18.4761C9.32623 18.1741 9.65323 18.0241 10.0002 18.0241C10.3472 18.0241 10.6742 18.1741 11.3292 18.4761L11.9242 18.7501C14.2272 19.8101 15.3792 20.3401 16.1442 19.7601C16.9112 19.1781 16.7842 17.8701 16.5312 15.2531L16.4832 14.7661Z" fill="#FFC42D"/>
<path opacity="0.7" d="M7.15465 3.408L6.82665 3.996C6.46665 4.642 6.28665 4.965 6.00665 5.178C6.04665 5.148 6.08365 5.116 6.11965 5.081C5.8846 6.46701 5.99699 7.88967 6.44675 9.2216C6.8965 10.5535 7.66958 11.7531 8.69675 12.7128C9.72395 13.6726 10.9731 14.3627 12.3325 14.7212C13.6918 15.0797 15.1188 15.0954 16.4857 14.767L16.4657 14.577C16.3947 13.834 16.3587 13.462 16.4657 13.117C16.5727 12.773 16.8107 12.494 17.2877 11.937L17.7217 11.43C19.3987 9.47 20.2367 8.489 19.9437 7.548C19.6517 6.607 18.4217 6.328 15.9617 5.772L15.3257 5.628C14.6267 5.47 14.2767 5.391 13.9957 5.178C13.7157 4.965 13.5357 4.642 13.1757 3.996L12.8487 3.408C11.5817 1.136 10.9487 0 10.0017 0C9.05465 0 8.42165 1.136 7.15465 3.408Z" fill="#FFC42D"/>
<path d="M40.4832 14.7661C39.1164 15.0943 37.6895 15.0784 36.3303 14.7198C34.9711 14.3612 33.7221 13.6711 32.695 12.7114C31.668 11.7516 30.895 10.5521 30.4453 9.22033C29.9956 7.88854 29.8832 6.46599 30.1182 5.08008C30.0825 5.1146 30.0447 5.14699 30.0052 5.17708C29.7252 5.39008 29.3752 5.46908 28.6752 5.62708L28.0402 5.77108C25.5802 6.32808 24.3502 6.60609 24.0572 7.54709C23.7652 8.48713 24.6032 9.46813 26.2802 11.4291L26.7142 11.9361C27.1902 12.4931 27.4292 12.7721 27.5362 13.1161C27.6432 13.4611 27.6072 13.8331 27.5352 14.5761L27.4692 15.2531C27.2162 17.8701 27.0892 19.1781 27.8552 19.7591C28.6212 20.3411 29.7732 19.8111 32.0752 18.7501L32.6722 18.4761C33.3262 18.1741 33.6532 18.0241 34.0002 18.0241C34.3472 18.0241 34.6742 18.1741 35.3292 18.4761L35.9242 18.7501C38.2272 19.8101 39.3792 20.3401 40.1442 19.7601C40.9112 19.1781 40.7842 17.8701 40.5312 15.2531L40.4832 14.7661Z" fill="#FFC42D"/>
<path opacity="0.7" d="M31.1546 3.408L30.8266 3.996C30.4666 4.642 30.2866 4.965 30.0066 5.178C30.0466 5.148 30.0836 5.116 30.1196 5.081C29.8846 6.46701 29.9969 7.88967 30.4467 9.2216C30.8965 10.5535 31.6695 11.7531 32.6967 12.7128C33.7239 13.6726 34.9731 14.3627 36.3324 14.7212C37.6917 15.0797 39.1187 15.0954 40.4856 14.767L40.4656 14.577C40.3946 13.834 40.3586 13.462 40.4656 13.117C40.5726 12.773 40.8106 12.494 41.2876 11.937L41.7216 11.43C43.3986 9.47 44.2366 8.489 43.9436 7.548C43.6516 6.607 42.4216 6.328 39.9616 5.772L39.3256 5.628C38.6266 5.47 38.2766 5.391 37.9956 5.178C37.7156 4.965 37.5356 4.642 37.1756 3.996L36.8486 3.408C35.5816 1.136 34.9486 0 34.0016 0C33.0546 0 32.4216 1.136 31.1546 3.408Z" fill="#FFC42D"/>
<path d="M64.4832 14.7661C63.1164 15.0943 61.6895 15.0784 60.3303 14.7198C58.9711 14.3612 57.7221 13.6711 56.695 12.7114C55.668 11.7516 54.895 10.5521 54.4453 9.22033C53.9956 7.88854 53.8832 6.46599 54.1182 5.08008C54.0825 5.1146 54.0447 5.14699 54.0052 5.17708C53.7252 5.39008 53.3752 5.46908 52.6752 5.62708L52.0402 5.77108C49.5802 6.32808 48.3502 6.60609 48.0572 7.54709C47.7652 8.48713 48.6032 9.46813 50.2802 11.4291L50.7142 11.9361C51.1902 12.4931 51.4292 12.7721 51.5362 13.1161C51.6432 13.4611 51.6072 13.8331 51.5352 14.5761L51.4692 15.2531C51.2162 17.8701 51.0892 19.1781 51.8552 19.7591C52.6212 20.3411 53.7732 19.8111 56.0752 18.7501L56.6722 18.4761C57.3262 18.1741 57.6532 18.0241 58.0002 18.0241C58.3472 18.0241 58.6742 18.1741 59.3292 18.4761L59.9242 18.7501C62.2272 19.8101 63.3792 20.3401 64.1442 19.7601C64.9112 19.1781 64.7842 17.8701 64.5312 15.2531L64.4832 14.7661Z" fill="#FFC42D"/>
<path opacity="0.7" d="M55.1546 3.408L54.8266 3.996C54.4666 4.642 54.2866 4.965 54.0066 5.178C54.0466 5.148 54.0836 5.116 54.1196 5.081C53.8846 6.46701 53.9969 7.88967 54.4467 9.2216C54.8964 10.5535 55.6695 11.7531 56.6967 12.7128C57.7239 13.6726 58.973 14.3627 60.3324 14.7212C61.6917 15.0797 63.1187 15.0954 64.4856 14.767L64.4656 14.577C64.3946 13.834 64.3586 13.462 64.4656 13.117C64.5726 12.773 64.8106 12.494 65.2876 11.937L65.7216 11.43C67.3986 9.47 68.2366 8.489 67.9436 7.548C67.6516 6.607 66.4216 6.328 63.9616 5.772L63.3256 5.628C62.6266 5.47 62.2766 5.391 61.9956 5.178C61.7156 4.965 61.5356 4.642 61.1756 3.996L60.8486 3.408C59.5816 1.136 58.9486 0 58.0016 0C57.0546 0 56.4216 1.136 55.1546 3.408Z" fill="#FFC42D"/>
<path d="M88.4832 14.7661C87.1164 15.0943 85.6895 15.0784 84.3303 14.7198C82.9711 14.3612 81.7221 13.6711 80.695 12.7114C79.668 11.7516 78.895 10.5521 78.4453 9.22033C77.9956 7.88854 77.8832 6.46599 78.1182 5.08008C78.0825 5.1146 78.0447 5.14699 78.0052 5.17708C77.7252 5.39008 77.3752 5.46908 76.6752 5.62708L76.0402 5.77108C73.5802 6.32808 72.3502 6.60609 72.0572 7.54709C71.7652 8.48713 72.6032 9.46813 74.2802 11.4291L74.7142 11.9361C75.1902 12.4931 75.4292 12.7721 75.5362 13.1161C75.6432 13.4611 75.6072 13.8331 75.5352 14.5761L75.4692 15.2531C75.2162 17.8701 75.0892 19.1781 75.8552 19.7591C76.6212 20.3411 77.7732 19.8111 80.0752 18.7501L80.6722 18.4761C81.3262 18.1741 81.6532 18.0241 82.0002 18.0241C82.3472 18.0241 82.6742 18.1741 83.3292 18.4761L83.9242 18.7501C86.2272 19.8101 87.3792 20.3401 88.1442 19.7601C88.9112 19.1781 88.7842 17.8701 88.5312 15.2531L88.4832 14.7661Z" fill="#FFC42D"/>
<path opacity="0.7" d="M79.1546 3.408L78.8266 3.996C78.4666 4.642 78.2866 4.965 78.0066 5.178C78.0466 5.148 78.0836 5.116 78.1196 5.081C77.8846 6.46701 77.9969 7.88967 78.4467 9.2216C78.8964 10.5535 79.6695 11.7531 80.6967 12.7128C81.7239 13.6726 82.973 14.3627 84.3324 14.7212C85.6917 15.0797 87.1187 15.0954 88.4856 14.767L88.4656 14.577C88.3946 13.834 88.3586 13.462 88.4656 13.117C88.5726 12.773 88.8106 12.494 89.2876 11.937L89.7216 11.43C91.3986 9.47 92.2366 8.489 91.9436 7.548C91.6516 6.607 90.4216 6.328 87.9616 5.772L87.3256 5.628C86.6266 5.47 86.2766 5.391 85.9956 5.178C85.7156 4.965 85.5356 4.642 85.1756 3.996L84.8486 3.408C83.5816 1.136 82.9486 0 82.0016 0C81.0546 0 80.4216 1.136 79.1546 3.408Z" fill="#FFC42D"/>
<path d="M112.483 14.7661C111.116 15.0943 109.689 15.0784 108.33 14.7198C106.971 14.3612 105.722 13.6711 104.695 12.7114C103.668 11.7516 102.895 10.5521 102.445 9.22033C101.995 7.88854 101.883 6.46599 102.118 5.08008C102.082 5.1146 102.045 5.14699 102.005 5.17708C101.725 5.39008 101.375 5.46908 100.675 5.62708L100.04 5.77108C97.5802 6.32808 96.3502 6.60609 96.0572 7.54709C95.7652 8.48713 96.6032 9.46813 98.2802 11.4291L98.7142 11.9361C99.1902 12.4931 99.4292 12.7721 99.5362 13.1161C99.6432 13.4611 99.6072 13.8331 99.5352 14.5761L99.4692 15.2531C99.2162 17.8701 99.0892 19.1781 99.8552 19.7591C100.621 20.3411 101.773 19.8111 104.075 18.7501L104.672 18.4761C105.326 18.1741 105.653 18.0241 106 18.0241C106.347 18.0241 106.674 18.1741 107.329 18.4761L107.924 18.7501C110.227 19.8101 111.379 20.3401 112.144 19.7601C112.911 19.1781 112.784 17.8701 112.531 15.2531L112.483 14.7661Z" fill="#FFC42D"/>
<path opacity="0.7" d="M103.155 3.408L102.827 3.996C102.467 4.642 102.287 4.965 102.007 5.178C102.047 5.148 102.084 5.116 102.12 5.081C101.885 6.46701 101.997 7.88967 102.447 9.2216C102.897 10.5535 103.67 11.7531 104.697 12.7128C105.724 13.6726 106.973 14.3627 108.333 14.7212C109.692 15.0797 111.119 15.0954 112.486 14.767L112.466 14.577C112.395 13.834 112.359 13.462 112.466 13.117C112.573 12.773 112.811 12.494 113.288 11.937L113.722 11.43C115.399 9.47 116.237 8.489 115.944 7.548C115.652 6.607 114.422 6.328 111.962 5.772L111.326 5.628C110.627 5.47 110.277 5.391 109.996 5.178C109.716 4.965 109.536 4.642 109.176 3.996L108.849 3.408C107.582 1.136 106.949 0 106.002 0C105.055 0 104.422 1.136 103.155 3.408Z" fill="#FFC42D"/>
</svg>
