<svg width="20" height="20" viewBox="0 0 20 20" fill="none" xmlns="http://www.w3.org/2000/svg">
<path d="M9.99984 1.6665C5.39984 1.6665 1.6665 5.39984 1.6665 9.99984C1.6665 14.5998 5.39984 18.3332 9.99984 18.3332C14.5998 18.3332 18.3332 14.5998 18.3332 9.99984C18.3332 5.39984 14.5998 1.6665 9.99984 1.6665ZM5.83317 10.6248H4.1665C3.82484 10.6248 3.5415 10.3415 3.5415 9.99984C3.5415 9.65817 3.82484 9.37484 4.1665 9.37484H5.83317C6.17484 9.37484 6.45817 9.65817 6.45817 9.99984C6.45817 10.3415 6.17484 10.6248 5.83317 10.6248ZM9.99984 11.8748C8.9665 11.8748 8.12484 11.0332 8.12484 9.99984C8.12484 8.9665 8.9665 8.12484 9.99984 8.12484C11.0332 8.12484 11.8748 8.9665 11.8748 9.99984C11.8748 11.0332 11.0332 11.8748 9.99984 11.8748ZM15.8332 10.6248H14.1665C13.8248 10.6248 13.5415 10.3415 13.5415 9.99984C13.5415 9.65817 13.8248 9.37484 14.1665 9.37484H15.8332C16.1748 9.37484 16.4582 9.65817 16.4582 9.99984C16.4582 10.3415 16.1748 10.6248 15.8332 10.6248Z" fill="white"/>
</svg>
