<svg
  width="181"
  height="40"
  viewBox="0 0 181 40"
  fill="none"
  xmlns="http://www.w3.org/2000/svg"
>
  <path
    d="M10.6689 18.9608C10.9334 18.8814 11.2235 18.8528 11.4506 18.7089C14.5103 16.7694 17.5475 14.7977 20.6183 12.8783C21.157 12.5409 21.3028 12.1514 21.2953 11.529C21.2654 9.67379 21.2729 7.81455 21.2916 5.95934C21.3215 2.38141 23.5732 0.00817963 26.9209 0.00416401C29.0081 0.00416401 31.0952 0.0202265 33.1861 0.000148381C34.0127 -0.00788287 34.2783 0.309351 33.9043 1.13657C33.8743 1.20082 33.8669 1.2731 33.8369 1.33334C32.135 4.80685 31.7273 8.50123 31.8844 12.3884C32.0004 15.3117 32.0228 18.3114 31.5441 21.1705C30.5005 27.3747 27.0294 31.6473 21.5871 34.0486C21.1929 34.225 20.7927 34.3904 20.3706 34.4818C16.1525 35.3957 12.3879 34.7718 10.9793 34.3217C7.93087 33.2214 5.41357 31.31 3.34512 28.5432C3.34512 28.5432 2.14264 26.9047 1.44126 25.1259C0.00505821 21.4836 -0.0212424 18.4881 0.00494048 15.0547C0.0386042 10.4649 0.0124215 5.87902 0.0124215 1.28916V0.0764453H10.6689V18.9608Z"
    fill="#FFDD00"
  />
  <path
    d="M10.6649 18.9609C13.6273 24.2134 16.7169 25.0285 24.2912 22.5228C24.6017 23.2336 24.9196 23.9524 25.2338 24.6752C19.6868 28.0804 12.2396 27.458 8.74609 20.5632C9.38944 20.0331 10.0328 19.503 10.6761 18.969L10.6649 18.9609Z"
    fill="black"
  />
  <path
    d="M29.6776 3.32063C29.614 4.06754 29.2212 4.58556 28.4619 4.59359C27.7101 4.60162 27.2575 4.12376 27.2388 3.29654C27.2201 2.45326 27.7026 1.9754 28.4283 1.96335C29.1614 1.95131 29.614 2.4372 29.6738 3.32063H29.6776Z"
    fill="black"
  />
  <rect y="37.6699" width="34.1748" height="2.3301" fill="#FFDD00" />
  <path
    d="M64.1579 12.8421V23.2421C64.1579 30.0568 61.0653 32.4105 55.1263 32.4105C49.1874 32.4105 46.0947 30.0568 46.0947 23.2421V12.8421H51.5684V23.2421C51.5684 26.7453 52.8547 27.3474 55.1263 27.3474C57.3705 27.3474 58.5474 26.7453 58.5474 23.2421V12.8421H64.1579ZM78.7243 32L75.3306 27.1832L71.9369 32H65.259L71.9917 22.4211L65.259 12.8421H71.9369L75.3306 17.6589L78.7243 12.8421H85.4022L78.6696 22.4211L85.4022 32H78.7243ZM93.3416 18.8632C93.3416 15.2232 95.8595 12.4316 100.649 12.4316C103.003 12.4316 105.192 12.6505 107.546 13.4716V18.5347C105.165 17.7684 103.304 17.4947 100.841 17.4947C99.5816 17.4947 98.4048 17.6042 98.4048 18.5347C98.4048 19.4926 99.5542 19.52 101.333 19.7116C105.274 20.1495 108.695 21.4632 108.668 26.0063C108.641 30.0842 106.041 32.4105 100.786 32.4105C98.4595 32.4105 96.1879 32.1916 93.6153 31.3705V26.3074C96.2974 27.0737 97.7479 27.3474 100.238 27.3474C102.702 27.3474 103.605 26.8274 103.605 26.2253C103.605 25.5411 102.948 25.2947 100.758 25.1032C94.7921 24.5558 93.3416 22.0653 93.3416 18.8632ZM110.887 32V12.8421H119.59C126.077 12.8421 127.856 14.7032 127.856 19.9579C127.856 25.2126 126.077 27.0737 119.59 27.0737H116.361V32H110.887ZM116.361 22.1474H118.934C121.041 22.1474 122.245 21.7368 122.245 19.9579C122.245 18.1789 121.26 17.7684 118.934 17.7684H116.361V22.1474ZM126.718 32L134.518 12.8421H139.308L147.108 32H141.47L140.539 29.8379H133.287L132.356 32H126.718ZM135.175 25.4589H138.651L136.927 21.4358L135.175 25.4589ZM157.729 27.3474C159.645 27.3474 161.67 27.0737 164.051 26.3074V31.3705C161.697 32.1916 159.672 32.4105 157.318 32.4105C150.777 32.4105 147.384 29.4 147.384 22.4211C147.384 15.4421 150.777 12.4316 157.017 12.4316C159.672 12.4316 161.424 12.6505 163.777 13.4716V18.5347C161.396 17.7684 159.699 17.4947 157.701 17.4947C154.527 17.4947 152.994 18.7263 152.994 22.4211C152.994 26.1158 154.937 27.3474 157.729 27.3474ZM180.087 27.0737V32H166.239V12.8421H180.087V17.7684H171.713V20.2316H178.445V24.6105H171.713V27.0737H180.087Z"
    fill="black"
  />
</svg>
