<svg width="20" height="20" viewBox="0 0 20 20" fill="none" xmlns="http://www.w3.org/2000/svg">
<path d="M9.99984 1.6665C5.39984 1.6665 1.6665 5.39984 1.6665 9.99984C1.6665 14.5998 5.39984 18.3332 9.99984 18.3332C14.5998 18.3332 18.3332 14.5998 18.3332 9.99984C18.3332 5.39984 14.5998 1.6665 9.99984 1.6665ZM9.99984 16.4582C6.4415 16.4582 3.5415 13.5582 3.5415 9.99984C3.5415 8.8665 3.8415 7.75817 4.39984 6.78317C4.5665 6.48317 4.94984 6.38317 5.24984 6.54984L10.3082 9.45817C10.6082 9.63317 10.7082 10.0082 10.5415 10.3082C10.3665 10.6082 9.9915 10.7082 9.6915 10.5415L7.2665 9.14984C7.18317 9.42484 7.12484 9.70817 7.12484 9.99984C7.12484 11.5832 8.4165 12.8748 9.99984 12.8748C11.5832 12.8748 12.8748 11.5832 12.8748 9.99984C12.8748 8.4165 11.5832 7.12484 9.99984 7.12484C9.57484 7.12484 9.15817 7.2165 8.77484 7.39984C8.45817 7.54984 8.0915 7.4165 7.9415 7.09984C7.7915 6.7915 7.92484 6.4165 8.2415 6.2665C8.7915 6.00817 9.38317 5.87484 9.99984 5.87484C12.2748 5.87484 14.1248 7.72484 14.1248 9.99984C14.1248 12.2748 12.2748 14.1248 9.99984 14.1248C7.72484 14.1248 5.87484 12.2748 5.87484 9.99984C5.87484 9.4915 5.97484 8.98317 6.15817 8.50817L5.19984 7.9665C4.93317 8.60817 4.7915 9.29984 4.7915 9.99984C4.7915 12.8748 7.12484 15.2082 9.99984 15.2082C12.8748 15.2082 15.2082 12.8748 15.2082 9.99984C15.2082 7.12484 12.8748 4.7915 9.99984 4.7915C8.8665 4.7915 7.78317 5.14984 6.87484 5.83317C6.59984 6.0415 6.20817 5.98317 5.99984 5.70817C5.7915 5.43317 5.84984 5.0415 6.12484 4.83317C7.24984 3.9915 8.5915 3.5415 9.99984 3.5415C13.5582 3.5415 16.4582 6.4415 16.4582 9.99984C16.4582 13.5582 13.5582 16.4582 9.99984 16.4582Z" fill="white"/>
</svg>
