<svg width="280" height="282" viewBox="0 0 280 282" fill="none" xmlns="http://www.w3.org/2000/svg">
<g style="mix-blend-mode:luminosity">
<path d="M51.8486 96.9143H2.80371V151.489H51.8486V96.9143Z" fill="black"/>
<path d="M0.715621 101.717C0.710102 101.716 0.704738 101.716 0.699219 101.714C0.704891 101.716 0.710102 101.716 0.715621 101.717Z" fill="#955B50"/>
<path d="M49.3828 94.4253H0.337891V149H49.3828V94.4253Z" fill="white"/>
<path d="M49.7211 149.338H0V94.0869H49.7211V149.338ZM0.676371 148.662H49.045V94.7633H0.676371V148.662Z" fill="black"/>
<path d="M11.3129 126.621H7.40625V143.422H11.3129V126.621Z" fill="#8C7BFF"/>
<path d="M19.0599 131.773H15.1533V143.422H19.0599V131.773Z" fill="#8C7BFF"/>
<path d="M26.8068 135.196H22.9001V143.423H26.8068V135.196Z" fill="#FDA4FF"/>
<path d="M34.5531 131.773H30.6465V143.422H34.5531V131.773Z" fill="#8C7BFF"/>
<path d="M42.2992 128.503H38.3926V143.423H42.2992V128.503Z" fill="#4ADA85"/>
<path d="M33.3278 121.666L24.8625 113.201L33.3276 104.736C38.0031 109.411 38.0031 116.991 33.3278 121.666Z" fill="#FDA4FF"/>
<path d="M34.8815 101.009L26.4163 109.474V97.5027C29.7222 97.5027 32.7152 98.8427 34.8815 101.009Z" fill="#4ADA85"/>
<path d="M24.8623 113.201L33.3275 121.667C28.6524 126.342 21.0725 126.342 16.3972 121.667C11.7221 116.992 11.7221 109.411 16.3972 104.736C18.7348 102.399 21.7985 101.23 24.8623 101.23V113.201Z" fill="#8C7BFF"/>
<path d="M147.714 211.693L99.5828 281.662L21.3865 227.871L83.5798 137.46L143.739 180.252L147.714 211.693Z" fill="white"/>
<path d="M99.5826 282C99.5165 282 99.4498 281.981 99.3913 281.94L21.195 228.15C21.0411 228.044 21.0023 227.833 21.1083 227.68L83.3016 137.268C83.353 137.194 83.4321 137.143 83.5212 137.127C83.6101 137.111 83.7021 137.132 83.7761 137.184L143.935 179.976C144.087 180.084 144.122 180.295 144.014 180.448C143.907 180.6 143.696 180.635 143.543 180.527L83.6639 137.935L21.857 227.784L99.496 281.192L147.436 211.501C147.542 211.347 147.752 211.309 147.906 211.414C148.06 211.52 148.099 211.731 147.993 211.884L99.8616 281.854C99.7958 281.949 99.6902 282 99.5826 282Z" fill="black"/>
<path d="M1.76953 202.398L63.9627 111.987L83.5796 137.46L21.3862 227.871L1.76953 202.398Z" fill="white"/>
<path d="M21.3865 228.209C21.2818 228.209 21.1827 228.161 21.1185 228.077L1.50184 202.604C1.41231 202.488 1.40802 202.327 1.49126 202.207L63.6846 111.795C63.7459 111.706 63.8459 111.652 63.9541 111.649C64.0611 111.646 64.1652 111.695 64.2312 111.78L83.848 137.253C83.9375 137.37 83.9418 137.53 83.8585 137.651L21.6652 228.063C21.6039 228.152 21.5039 228.206 21.3957 228.209C21.3926 228.209 21.3895 228.209 21.3865 228.209ZM2.18803 202.387L21.3713 227.297L83.1618 137.471L63.9787 112.561L2.18803 202.387Z" fill="black"/>
<path d="M10.6982 199.003L61.9988 124.426L74.6514 140.856L23.3508 215.432L10.6982 199.003Z" fill="#4ADA85"/>
<path d="M91.1973 172.823L101.586 157.719L90.5108 150.102L80.1221 165.205L91.1973 172.823Z" fill="#FCB503"/>
<path d="M76.7012 193.896L87.0898 178.793L76.0147 171.175L65.626 186.279L76.7012 193.896Z" fill="#FCB503"/>
<path d="M62.2041 214.969L72.5928 199.866L61.5176 192.248L51.129 207.352L62.2041 214.969Z" fill="#FCB503"/>
<path d="M47.708 236.043L58.0967 220.939L47.0215 213.322L36.6328 228.425L47.708 236.043Z" fill="#8C7BFF"/>
<path d="M107.454 184.337C107.388 184.337 107.321 184.317 107.262 184.277L96.1875 176.659C96.0336 176.553 95.9948 176.342 96.1007 176.189L106.49 161.085C106.596 160.931 106.806 160.892 106.96 160.998L118.035 168.616C118.109 168.667 118.16 168.745 118.176 168.833C118.193 168.922 118.173 169.013 118.122 169.086L107.733 184.19C107.667 184.286 107.561 184.337 107.454 184.337ZM96.8493 176.293L107.367 183.528L117.374 168.982L106.856 161.747L96.8493 176.293Z" fill="black"/>
<path d="M92.9587 205.409C92.8906 205.409 92.8238 205.388 92.767 205.349L81.6921 197.731C81.5382 197.625 81.4994 197.415 81.6054 197.261L91.9949 182.157C92.0457 182.084 92.1236 182.033 92.2119 182.017C92.2993 182 92.3911 182.02 92.465 182.07L103.54 189.689C103.694 189.795 103.733 190.005 103.627 190.159L93.2372 205.262C93.1863 205.336 93.1084 205.387 93.0201 205.403C92.9998 205.407 92.9792 205.409 92.9587 205.409ZM82.3539 197.365L92.8717 204.601L102.878 190.054L92.3602 182.819L82.3539 197.365Z" fill="black"/>
<path d="M78.4628 226.481C78.3947 226.481 78.3279 226.461 78.2712 226.422L67.1963 218.803C67.0424 218.697 67.0036 218.487 67.1095 218.333L77.499 203.229C77.5499 203.156 77.6278 203.105 77.7161 203.089C77.8038 203.072 77.8951 203.092 77.9692 203.143L89.0441 210.761C89.198 210.867 89.2368 211.077 89.1309 211.231L78.7414 226.335C78.6905 226.409 78.6126 226.459 78.5243 226.476C78.5041 226.479 78.4834 226.481 78.4628 226.481ZM67.8581 218.438L78.3759 225.673L88.3821 211.126L77.8643 203.891L67.8581 218.438Z" fill="black"/>
<path d="M63.9707 247.23L74.3594 232.126L63.2842 224.509L52.8955 239.612L63.9707 247.23Z" fill="#FCB503"/>
<path d="M123.717 195.523C123.649 195.523 123.582 195.503 123.525 195.464L112.45 187.845C112.296 187.739 112.257 187.529 112.363 187.375L122.753 172.272C122.804 172.198 122.882 172.147 122.97 172.131C123.058 172.115 123.149 172.134 123.223 172.185L134.298 179.803C134.452 179.909 134.491 180.12 134.385 180.273L123.995 195.377C123.945 195.451 123.867 195.502 123.778 195.518C123.758 195.521 123.737 195.523 123.717 195.523ZM113.112 187.48L123.63 194.715L133.636 180.168L123.118 172.933L113.112 187.48Z" fill="black"/>
<path d="M109.222 216.596C109.154 216.596 109.087 216.575 109.03 216.536L97.9551 208.918C97.8012 208.812 97.7624 208.601 97.8682 208.448L108.258 193.344C108.309 193.27 108.386 193.219 108.475 193.203C108.563 193.187 108.654 193.206 108.728 193.257L119.803 200.876C119.957 200.981 119.995 201.192 119.89 201.346L109.5 216.449C109.449 216.523 109.371 216.574 109.283 216.59C109.263 216.594 109.242 216.596 109.222 216.596ZM98.6169 208.552L109.135 215.787L119.141 201.241L108.623 194.006L98.6169 208.552Z" fill="black"/>
<path d="M94.7252 237.668C94.6591 237.668 94.5924 237.649 94.5339 237.608L83.4588 229.99C83.3851 229.939 83.3343 229.861 83.3179 229.773C83.3015 229.685 83.3211 229.594 83.3719 229.52L93.7615 214.416C93.8124 214.343 93.8905 214.292 93.9786 214.276C94.0661 214.259 94.1577 214.279 94.2317 214.33L105.307 221.948C105.461 222.054 105.499 222.265 105.393 222.418L95.0039 237.522C94.9386 237.617 94.8328 237.668 94.7252 237.668ZM84.1206 229.625L94.6386 236.86L104.645 222.313L94.127 215.078L84.1206 229.625Z" fill="black"/>
<path d="M80.2344 258.418L90.623 243.314L79.5479 235.696L69.1592 250.8L80.2344 258.418Z" fill="#FCB503"/>
<path d="M139.978 206.71C139.912 206.71 139.846 206.691 139.787 206.651L128.712 199.032C128.638 198.981 128.588 198.903 128.571 198.815C128.555 198.727 128.574 198.636 128.625 198.562L139.015 183.458C139.066 183.385 139.144 183.334 139.232 183.318C139.319 183.301 139.411 183.321 139.485 183.372L143.163 185.902C143.317 186.008 143.356 186.218 143.25 186.372C143.144 186.526 142.934 186.565 142.78 186.459L139.38 184.12L129.374 198.667L140.17 206.093C140.324 206.199 140.363 206.41 140.257 206.564C140.192 206.659 140.086 206.71 139.978 206.71Z" fill="black"/>
<path d="M125.483 227.782C125.417 227.782 125.35 227.763 125.292 227.723L114.217 220.104C114.143 220.053 114.092 219.975 114.076 219.887C114.06 219.799 114.079 219.708 114.13 219.634L124.52 204.531C124.626 204.377 124.836 204.338 124.99 204.444L136.065 212.062C136.138 212.113 136.189 212.191 136.206 212.279C136.222 212.367 136.202 212.458 136.152 212.532L125.762 227.636C125.696 227.731 125.591 227.782 125.483 227.782ZM114.879 219.739L125.396 226.974L135.403 212.428L124.885 205.192L114.879 219.739Z" fill="black"/>
<path d="M110.987 248.855C110.921 248.855 110.854 248.836 110.796 248.795L99.7207 241.177C99.5668 241.071 99.528 240.861 99.6338 240.707L110.023 225.603C110.129 225.45 110.34 225.411 110.493 225.516L121.569 233.135C121.642 233.186 121.693 233.264 121.709 233.352C121.726 233.44 121.706 233.531 121.655 233.605L111.266 248.708C111.2 248.804 111.095 248.855 110.987 248.855ZM100.383 240.811L110.9 248.047L120.907 233.5L110.389 226.265L100.383 240.811Z" fill="black"/>
<path d="M96.4971 269.605L106.886 254.501L95.8106 246.884L85.4219 261.987L96.4971 269.605Z" fill="#FCB503"/>
<path d="M273.152 53.0725C274.156 25.7895 252.648 2.85022 225.111 1.83615C197.574 0.822083 174.436 22.1172 173.432 49.4003C172.427 76.6833 193.935 99.6226 221.472 100.637C249.009 101.651 272.147 80.3555 273.152 53.0725Z" fill="#FED101"/>
<path d="M223.312 101.003C196.035 101.003 173.585 79.2693 173.068 52.1353C172.816 38.9282 177.746 26.3954 186.948 16.8454C196.271 7.16997 208.841 1.70732 222.344 1.46372C250.026 0.963489 272.992 22.8825 273.515 50.3229C273.767 63.5301 268.837 76.063 259.635 85.6128C250.312 95.2884 237.742 100.751 224.239 100.995C223.931 101 223.62 101.003 223.312 101.003ZM222.35 1.80191L222.355 2.13994C209.034 2.38016 196.633 7.76938 187.435 17.3148C178.358 26.7345 173.496 39.0962 173.744 52.1226C174.254 78.8867 196.404 100.325 223.312 100.327C223.618 100.327 223.92 100.324 224.228 100.319C237.549 100.078 249.951 94.6891 259.149 85.1437C268.225 75.724 273.087 63.3623 272.839 50.336C272.329 23.5719 250.179 2.13181 223.271 2.13181C222.965 2.13181 222.663 2.13457 222.356 2.14009L222.35 1.80191Z" fill="black"/>
<path d="M259.731 52.5796C260.465 32.6418 244.747 15.8783 224.624 15.1372C204.5 14.3962 187.592 29.9582 186.858 49.896C186.124 69.8338 201.842 86.5973 221.965 87.3384C242.088 88.0794 258.997 72.5174 259.731 52.5796Z" fill="white"/>
<path d="M251.364 52.274C251.929 36.9186 239.824 24.008 224.326 23.4372C208.827 22.8665 195.805 34.8518 195.24 50.2072C194.674 65.5625 206.78 78.4732 222.278 79.0439C237.776 79.6146 250.798 67.6293 251.364 52.274Z" fill="#FDA4FF"/>
<path d="M241.376 51.9053C241.74 42.0141 233.942 33.6976 223.959 33.33C213.976 32.9623 205.587 40.6827 205.223 50.574C204.859 60.4652 212.657 68.7817 222.64 69.1493C232.623 69.517 241.011 61.7966 241.376 51.9053Z" fill="white"/>
<path d="M233.513 51.6128C233.719 46.0197 229.31 41.317 223.664 41.1091C218.019 40.9012 213.276 45.2668 213.07 50.86C212.864 56.4531 217.273 61.1558 222.919 61.3637C228.564 61.5716 233.307 57.206 233.513 51.6128Z" fill="#FDA4FF"/>
<path d="M232.954 94.2538L218.515 51.4297L262.502 67.0479L232.954 94.2538Z" fill="black"/>
<path d="M251.524 77.1172L243.667 84.6929L253.495 94.8863L261.352 87.3106L251.524 77.1172Z" fill="black"/>
<path d="M236.955 90.6832L222.517 47.8589L266.504 63.4771L236.955 90.6832Z" fill="white"/>
<path d="M236.955 91.0212C236.927 91.0212 236.899 91.0177 236.871 91.0106C236.76 90.9823 236.671 90.8996 236.635 90.7911L222.197 47.967C222.155 47.8443 222.187 47.7088 222.28 47.6179C222.372 47.527 222.508 47.4969 222.63 47.5403L266.617 63.1585C266.729 63.1981 266.811 63.2934 266.835 63.4095C266.859 63.5257 266.82 63.6457 266.733 63.7259L237.184 90.9318C237.121 90.9899 237.039 91.0212 236.955 91.0212ZM223.06 48.4105L237.109 90.0818L265.862 63.6083L223.06 48.4105Z" fill="black"/>
<path d="M254.846 72.8349L246.986 80.4084L257.495 91.314L265.355 83.7405L254.846 72.8349Z" fill="white"/>
<path d="M257.494 91.6671C257.492 91.6671 257.49 91.6671 257.488 91.667C257.398 91.6653 257.313 91.628 257.251 91.5635L247.266 81.2008C247.136 81.0664 247.14 80.8524 247.274 80.7227C247.409 80.5934 247.623 80.597 247.752 80.7316L257.503 90.8508L264.873 83.7449L255.297 73.8061C255.167 73.6716 255.171 73.4576 255.306 73.3279C255.44 73.1987 255.654 73.2022 255.784 73.3368L265.595 83.5191C265.724 83.6535 265.72 83.8675 265.586 83.9971L257.729 91.5724C257.666 91.6332 257.582 91.6671 257.494 91.6671Z" fill="black"/>
<path d="M88.372 79.0584C89.9502 75.2484 88.141 70.8803 84.3309 69.3021C80.5209 67.7239 76.1528 69.5332 74.5746 73.3432C72.9964 77.1533 74.8057 81.5213 78.6157 83.0995C82.4258 84.6777 86.7938 82.8685 88.372 79.0584Z" fill="#D3B6B6"/>
<path d="M76.6777 81.172C78.2559 77.3619 76.4466 72.9939 72.6366 71.4157C68.8265 69.8375 64.4585 71.6467 62.8803 75.4568C61.3021 79.2668 63.1114 83.6349 66.9214 85.2131C70.7314 86.7913 75.0995 84.982 76.6777 81.172Z" fill="#D3B6B6"/>
<path d="M59.2808 87.7982C63.3515 87.1375 66.1159 83.3021 65.4552 79.2314C64.7946 75.1607 60.9591 72.3963 56.8884 73.057C52.8178 73.7176 50.0534 77.5531 50.714 81.6238C51.3747 85.6945 55.2102 88.4588 59.2808 87.7982Z" fill="#D3B6B6"/>
<path d="M87.2166 78.3176H81.3342V85.9208H87.2166V78.3176Z" fill="#955B50"/>
<path d="M81.3342 80.5479V78.3176H87.2166V83.2405C86.6857 83.3463 85.6276 83.4793 84.4126 83.0789C82.5107 82.4524 81.5771 80.965 81.3342 80.5479Z" fill="black"/>
<path d="M85.0731 81.8097C87.686 81.8097 89.8042 79.4685 89.8042 76.5805C89.8042 73.6925 87.686 71.3513 85.0731 71.3513C82.4602 71.3513 80.342 73.6925 80.342 76.5805C80.342 79.4685 82.4602 81.8097 85.0731 81.8097Z" fill="#955B50"/>
<path d="M85.1193 71.2554C85.6113 71.2554 86.0856 71.3377 86.5331 71.4878C85.9095 74.7051 83.5671 77.3076 80.4992 78.3032C80.3432 77.7763 80.2561 77.215 80.2561 76.6306C80.2561 73.6619 82.4335 71.2554 85.1193 71.2554Z" fill="#D3B6B6"/>
<path d="M83.0168 78.8764C83.4741 79.2953 84.063 79.5782 84.7274 79.6458C86.2089 79.7963 87.544 78.8344 87.9114 77.4382L83.0168 78.8764Z" fill="white"/>
<path d="M160.852 200.832L181.263 204.001L186.413 170.821L166.003 167.653L160.852 200.832Z" fill="black"/>
<path d="M202.134 216.171L193.667 208.699L187.215 195.299L173.897 197.01C171.07 197.374 168.219 196.536 166.038 194.7L165.662 194.384C163.46 192.531 162.515 189.579 163.231 186.791L163.411 186.088C163.767 184.704 162.051 183.752 161.065 184.786L142.27 204.484L148.83 210.785C152.309 214.126 156.279 216.915 160.603 219.054L162.337 219.911C172.877 225.125 184.151 228.704 195.769 230.525L204.106 231.831L207.552 228.962L207.687 228.689C208.653 226.736 208.725 224.459 207.885 222.448L207.874 222.421C207.459 221.428 206.837 220.536 206.048 219.804L202.134 216.171Z" fill="#4ADA85"/>
<path d="M181.562 196.025L187.215 195.299L193.667 208.699L188.469 206.128C186.735 205.271 185.337 203.858 184.497 202.115L181.562 196.025Z" fill="white"/>
<path d="M193.667 209.037C193.616 209.037 193.564 209.026 193.517 209.002L188.32 206.431C186.527 205.545 185.061 204.064 184.193 202.262L181.258 196.172C181.211 196.074 181.214 195.96 181.265 195.864C181.317 195.769 181.412 195.704 181.519 195.69L187.172 194.964C187.318 194.945 187.456 195.021 187.52 195.152L193.972 208.553C194.034 208.683 194.007 208.838 193.905 208.94C193.84 209.004 193.754 209.037 193.667 209.037ZM182.071 196.301L184.802 201.969C185.605 203.635 186.961 205.005 188.619 205.825L192.936 207.96L187.016 195.666L182.071 196.301Z" fill="black"/>
<path d="M171.182 208.58L169.615 211.747L160.663 200.105L157.606 205.786L152.479 193.783L150.576 193.374L141.064 203.461L148.896 210.903C152.332 214.167 156.239 216.896 160.487 218.997L162.336 219.911C172.877 225.125 184.15 228.704 195.768 230.525L204.106 231.832L207.551 228.963L203.465 227.819C188.499 223.453 180.69 214.268 180.69 214.268L179.505 216.836L171.182 208.58Z" fill="white"/>
<path d="M204.106 232.17C204.089 232.17 204.071 232.168 204.054 232.166L195.716 230.859C184.051 229.031 172.77 225.449 162.186 220.214L160.337 219.3C156.055 217.182 152.128 214.439 148.664 211.148L140.832 203.706C140.697 203.577 140.691 203.364 140.818 203.229L150.33 193.142C150.412 193.056 150.533 193.018 150.647 193.044L152.551 193.453C152.658 193.476 152.748 193.55 152.791 193.651L157.641 205.007L160.366 199.945C160.42 199.844 160.522 199.778 160.636 199.769C160.752 199.759 160.861 199.809 160.931 199.899L169.552 211.111L170.879 208.43C170.927 208.333 171.019 208.264 171.126 208.246C171.233 208.228 171.343 208.263 171.42 208.34L179.4 216.256L180.383 214.127C180.431 214.022 180.53 213.949 180.644 213.933C180.758 213.917 180.873 213.961 180.947 214.049C181.025 214.14 188.873 223.21 203.56 227.495L207.643 228.637C207.763 228.671 207.856 228.769 207.882 228.892C207.908 229.015 207.864 229.142 207.768 229.222L204.323 232.092C204.261 232.142 204.185 232.17 204.106 232.17ZM141.541 203.447L149.129 210.657C152.544 213.902 156.416 216.606 160.637 218.693L162.486 219.608C173.008 224.813 184.223 228.373 195.821 230.191L204.008 231.474L206.84 229.115L203.374 228.145C190.224 224.308 182.473 216.673 180.783 214.873L179.812 216.977C179.766 217.077 179.674 217.149 179.565 217.168C179.455 217.188 179.345 217.153 179.267 217.076L171.277 209.15L169.918 211.897C169.866 212.001 169.764 212.072 169.648 212.084C169.532 212.095 169.418 212.046 169.347 211.953L160.714 200.725L157.904 205.946C157.842 206.06 157.718 206.13 157.591 206.123C157.461 206.117 157.346 206.038 157.295 205.918L152.237 194.077L150.692 193.745L141.541 203.447Z" fill="black"/>
<path d="M128.806 250.614H149.46V228.261H128.806V250.614Z" fill="black"/>
<path d="M176.832 248.753L165.93 245.809L154.206 236.658L143.028 244.097C140.654 245.676 137.728 246.189 134.959 245.511L134.482 245.394C131.686 244.709 129.53 242.482 128.936 239.666L128.786 238.956C128.491 237.558 126.531 237.465 126.105 238.829L117.992 264.819L126.665 267.558C131.265 269.01 136.061 269.75 140.884 269.75H142.818C154.578 269.75 166.269 267.959 177.49 264.44L185.543 261.915L187.359 257.816V257.511C187.359 255.332 186.415 253.259 184.77 251.829L184.748 251.81C183.936 251.104 182.983 250.58 181.951 250.274L176.832 248.753Z" fill="#4ADA85"/>
<path d="M149.461 239.815L154.206 236.658L165.93 245.809H160.132C158.197 245.809 156.318 245.163 154.792 243.973L149.461 239.815Z" fill="white"/>
<path d="M165.93 246.147H160.132C158.131 246.147 156.161 245.47 154.584 244.24L149.254 240.082C149.168 240.015 149.12 239.911 149.124 239.803C149.128 239.694 149.184 239.594 149.274 239.534L154.019 236.377C154.14 236.296 154.298 236.302 154.414 236.392L166.138 245.543C166.252 245.631 166.297 245.783 166.25 245.919C166.203 246.055 166.075 246.147 165.93 246.147ZM150.039 239.837L155 243.706C156.459 244.844 158.281 245.471 160.132 245.471H164.948L154.19 237.075L150.039 239.837Z" fill="black"/>
<path d="M145.723 255.671V259.205L132.538 252.739L132.316 259.186L122.4 250.7L120.512 251.177L116.458 264.435L126.777 267.633C131.304 269.036 136.016 269.75 140.755 269.75H142.818C154.578 269.75 166.27 267.96 177.491 264.441L185.544 261.915L187.36 257.816L183.19 258.603C167.839 261.325 156.767 256.554 156.767 256.554L156.844 259.381L145.723 255.671Z" fill="white"/>
<path d="M142.818 270.088H140.755C135.978 270.088 131.241 269.371 126.677 267.956L116.358 264.758C116.18 264.703 116.08 264.514 116.135 264.336L120.189 251.078C120.223 250.965 120.315 250.878 120.429 250.849L122.317 250.372C122.424 250.345 122.536 250.372 122.619 250.443L132.002 258.472L132.2 252.727C132.204 252.612 132.266 252.507 132.364 252.448C132.463 252.389 132.584 252.384 132.687 252.435L145.385 258.662V255.671C145.385 255.562 145.437 255.46 145.525 255.397C145.614 255.333 145.727 255.316 145.83 255.35L156.493 258.907L156.429 256.563C156.426 256.448 156.482 256.339 156.578 256.274C156.673 256.209 156.795 256.198 156.901 256.244C157.011 256.291 168.067 260.941 183.131 258.27L187.297 257.484C187.42 257.461 187.546 257.508 187.625 257.606C187.703 257.704 187.719 257.838 187.669 257.953L185.853 262.052C185.813 262.141 185.737 262.209 185.644 262.238L177.592 264.763C166.325 268.296 154.626 270.088 142.818 270.088ZM116.88 264.212L126.877 267.31C131.376 268.704 136.046 269.411 140.755 269.411H142.818C154.557 269.411 166.189 267.63 177.39 264.118L185.296 261.638L186.79 258.268L183.253 258.935C179.858 259.537 176.66 259.772 173.742 259.772C165.068 259.772 158.85 257.701 157.119 257.055L157.182 259.372C157.185 259.482 157.133 259.587 157.045 259.652C156.956 259.718 156.841 259.736 156.737 259.701L146.061 256.14V259.204C146.061 259.321 146.001 259.43 145.902 259.491C145.803 259.553 145.679 259.559 145.574 259.508L132.858 253.272L132.653 259.197C132.649 259.327 132.57 259.443 132.451 259.495C132.333 259.547 132.195 259.527 132.095 259.442L122.313 251.07L120.78 251.458L116.88 264.212Z" fill="black"/>
<path d="M99.1401 122.719H182.942C191.191 122.719 197.432 130.181 195.974 138.3L188.069 182.333H160.573L165.348 151.091H116.815C107.053 151.091 99.1401 143.178 99.1401 133.416V122.719Z" fill="#8C7BFF"/>
<path d="M79.3943 135.122L75.4368 119.514H107.217L146.8 150.054C152.084 154.131 155.179 160.428 155.179 167.102V232.8H123.629V171.922L102.462 150.964L99.6005 150.946C90.0482 150.886 81.7421 144.381 79.3943 135.122Z" fill="#8C7BFF"/>
<path d="M155.178 233.445H123.628C123.441 233.445 123.29 233.294 123.29 233.107V172.063L102.321 151.301L99.5977 151.284C89.8937 151.223 81.4507 144.612 79.0658 135.205L75.1083 119.597C75.0827 119.496 75.105 119.389 75.1691 119.307C75.2332 119.224 75.3316 119.176 75.4359 119.176H107.216C107.291 119.176 107.364 119.201 107.423 119.247L147.006 149.786C152.335 153.898 155.516 160.371 155.516 167.102V233.107C155.516 233.294 155.365 233.445 155.178 233.445ZM123.966 232.769H154.84V167.102C154.84 160.579 151.757 154.306 146.593 150.321L107.101 119.852H75.8706L79.7213 135.039C82.0308 144.147 90.2059 150.549 99.602 150.608L102.463 150.625C102.552 150.626 102.636 150.661 102.699 150.723L123.866 171.682C123.93 171.746 123.966 171.832 123.966 171.922L123.966 232.769Z" fill="black"/>
<path d="M131.05 103.583L142.06 99.8915C143.606 99.3732 145.312 99.8022 146.429 100.99L148.984 103.708C149.633 104.398 150.125 105.22 150.425 106.118L151.12 108.19C151.416 109.075 150.939 110.033 150.054 110.33L149.831 110.404C148.946 110.701 147.988 110.224 147.692 109.339L147.238 107.986C146.945 107.109 146.464 106.306 145.831 105.632L144.505 104.222C143.923 103.603 143.034 103.38 142.229 103.65L132.199 107.011L131.05 103.583Z" fill="#955B50"/>
<path d="M134.895 105.141L141.267 103.004C142.813 102.486 144.519 102.914 145.636 104.102L148.191 106.82C148.84 107.51 149.332 108.333 149.633 109.23L150.327 111.302C150.624 112.187 150.146 113.145 149.261 113.442L149.039 113.517C148.153 113.813 147.196 113.336 146.899 112.451L146.445 111.098C146.152 110.221 145.672 109.419 145.038 108.745L143.712 107.335C143.13 106.716 142.241 106.492 141.436 106.762L136.043 108.569L134.895 105.141Z" fill="#955B50"/>
<path d="M133.828 107.937L140.201 105.8C141.747 105.282 143.453 105.711 144.57 106.899L147.125 109.617C147.774 110.307 148.265 111.129 148.566 112.027L149.26 114.099C149.557 114.984 149.08 115.942 148.195 116.238L147.972 116.313C147.087 116.61 146.129 116.133 145.832 115.248L145.379 113.894C145.085 113.018 144.605 112.215 143.972 111.541L142.646 110.131C142.064 109.512 141.175 109.288 140.369 109.558L134.977 111.365L133.828 107.937Z" fill="#955B50"/>
<path d="M118.254 111.967V102.022L135.129 102.038L139.493 100.693L142.259 108.948L136.181 110.985L136.302 111.123C136.804 111.702 137.533 112.034 138.3 112.034H141.706C142.614 112.034 143.35 112.771 143.35 113.679V113.791C143.35 114.697 142.619 115.432 141.714 115.436C140.221 115.443 137.305 115.448 136.958 115.427C136.772 115.416 136.587 115.393 136.403 115.359L118.254 111.967Z" fill="#955B50"/>
<path d="M136.403 115.359C135.853 115.256 135.32 115.048 134.837 114.739L130.377 111.967H118.254L136.403 115.359Z" fill="#FDA4FF"/>
<path d="M147.437 116.739C146.589 116.739 145.796 116.202 145.512 115.355L145.059 114.002C144.782 113.177 144.321 112.407 143.726 111.773L142.4 110.363C141.91 109.842 141.155 109.652 140.477 109.879L136.485 111.217C136.307 111.276 136.116 111.181 136.057 111.004C135.998 110.827 136.093 110.635 136.27 110.576L140.262 109.238C141.189 108.927 142.222 109.187 142.892 109.9L144.218 111.31C144.88 112.014 145.393 112.871 145.7 113.787L146.153 115.14C146.39 115.847 147.157 116.23 147.865 115.993L148.087 115.918C148.43 115.803 148.707 115.562 148.868 115.239C149.029 114.915 149.055 114.549 148.94 114.206L148.246 112.135C147.962 111.289 147.489 110.498 146.879 109.849L144.323 107.131C143.3 106.043 141.723 105.646 140.308 106.121L139.283 106.465C139.105 106.525 138.914 106.429 138.855 106.252C138.795 106.075 138.891 105.883 139.068 105.824L140.093 105.48C141.758 104.921 143.612 105.388 144.816 106.667L147.371 109.386C148.048 110.106 148.572 110.982 148.887 111.92L149.581 113.992C149.753 114.505 149.715 115.055 149.473 115.54C149.232 116.025 148.816 116.387 148.302 116.559L148.08 116.634C147.867 116.705 147.65 116.739 147.437 116.739Z" fill="black"/>
<path d="M149.116 113.829C148.974 113.829 148.843 113.74 148.795 113.598C148.736 113.421 148.831 113.23 149.008 113.17L149.155 113.121C149.861 112.885 150.244 112.117 150.007 111.41L149.313 109.338C149.029 108.492 148.557 107.702 147.946 107.052L145.39 104.334C144.368 103.246 142.791 102.85 141.376 103.324L139.493 103.956C139.316 104.015 139.124 103.92 139.065 103.743C139.005 103.566 139.101 103.374 139.278 103.315L141.16 102.683C142.827 102.125 144.68 102.591 145.883 103.871L148.438 106.589C149.115 107.309 149.64 108.185 149.954 109.123L150.648 111.195C151.004 112.255 150.43 113.407 149.369 113.762L149.223 113.812C149.187 113.823 149.151 113.829 149.116 113.829Z" fill="black"/>
<path d="M138.872 115.799C136.974 115.799 135.7 115.691 134.655 115.024L130.281 112.305H118.254C118.068 112.305 117.916 112.154 117.916 111.967V102.054C117.916 101.867 118.067 101.716 118.254 101.716L134.952 101.7L141.962 99.5684C143.62 99.0125 145.472 99.4793 146.675 100.759L149.231 103.477C149.908 104.197 150.432 105.074 150.746 106.011L151.441 108.083C151.796 109.144 151.222 110.295 150.162 110.651C149.987 110.71 149.793 110.615 149.734 110.438C149.674 110.261 149.77 110.069 149.947 110.01C150.654 109.773 151.036 109.005 150.799 108.298L150.105 106.226C149.822 105.381 149.349 104.59 148.738 103.94L146.183 101.222C145.16 100.134 143.583 99.738 142.168 100.213L135.1 102.362C135.068 102.372 135.035 102.376 135.002 102.376L118.592 102.392V111.629H130.377C130.44 111.629 130.502 111.647 130.555 111.68L135.015 114.452C136.126 115.161 137.583 115.143 140.229 115.112C140.688 115.106 141.181 115.101 141.712 115.098C142.429 115.095 143.012 114.509 143.012 113.792V113.679C143.012 112.959 142.426 112.373 141.706 112.373H138.3C137.435 112.373 136.614 111.998 136.047 111.345L135.926 111.206C135.803 111.065 135.819 110.852 135.96 110.729C136.101 110.607 136.314 110.622 136.437 110.763L136.557 110.902C136.996 111.407 137.631 111.697 138.3 111.697H141.706C142.799 111.697 143.689 112.586 143.689 113.679V113.792C143.689 114.88 142.803 115.77 141.715 115.775C141.187 115.777 140.695 115.783 140.237 115.788C139.748 115.794 139.295 115.799 138.872 115.799Z" fill="black"/>
<path d="M98.5423 88.4389L107.898 98.991C109.16 100.415 110.972 101.23 112.875 101.23H128.674V114.688L108.905 114.679C105.937 114.678 103.113 113.401 101.152 111.173L85.9221 93.8765L92.6466 88.0507C94.3864 86.5433 97.0151 86.7163 98.5423 88.4389Z" fill="#FED101"/>
<path d="M72.9062 125.75H111.229L111.1 121.158H102.086L100.824 94.5358C100.53 89.3097 96.7024 85.3306 91.6184 85.3306H80.19L72.9062 125.75Z" fill="#FED101"/>
<path d="M142.259 121.812H181.336L199.713 90.3323H160.636L142.259 121.812Z" fill="black"/>
<path d="M181.336 121.814H111.076V125.789H181.336V121.814Z" fill="black"/>
<path d="M173.909 107.138C174.32 105.638 173.497 104.105 172.071 103.713C170.644 103.322 169.154 104.221 168.743 105.722C168.332 107.222 169.155 108.755 170.581 109.146C172.008 109.537 173.498 108.638 173.909 107.138Z" fill="white"/>
<path d="M105.906 110.954L120.507 110.948V122.89L105.906 122.894V110.954Z" fill="#955B50"/>
<path d="M133.616 114.662L134.912 116.062C135.567 116.769 135.632 117.839 135.069 118.621L133.796 120.388L130.712 116.947H111.336V112.892H129.567C131.104 112.892 132.572 113.534 133.616 114.662Z" fill="#955B50"/>
<path d="M133.019 112.132L133.752 112.924C134.407 113.632 134.472 114.702 133.909 115.484L132.637 117.251L129.552 113.809H111.336V110.989H114.428C115.707 110.989 117.988 109.755 120.875 109.755H127.578C129.644 109.755 131.616 110.617 133.019 112.132Z" fill="#955B50"/>
<path d="M135.069 118.959C135 118.959 134.931 118.939 134.871 118.896C134.72 118.786 134.685 118.575 134.795 118.424C135.262 117.775 135.207 116.878 134.664 116.291L133.368 114.891C132.39 113.835 131.005 113.23 129.566 113.23H126C125.813 113.23 125.661 113.079 125.661 112.892C125.661 112.705 125.813 112.554 126 112.554H129.566C131.193 112.554 132.759 113.238 133.864 114.432L135.16 115.832C135.921 116.654 135.998 117.91 135.343 118.819C135.277 118.911 135.174 118.959 135.069 118.959Z" fill="black"/>
<path d="M134.069 117.388L135.623 119.067C136.278 119.774 136.344 120.845 135.78 121.627L134.508 123.393L131.424 119.952H119.419V115.897H130.658C131.953 115.897 133.189 116.437 134.069 117.388Z" fill="#955B50"/>
<path d="M135.285 122.653C135.217 122.653 135.148 122.632 135.088 122.589C134.936 122.48 134.902 122.268 135.011 122.117L135.507 121.429C135.974 120.78 135.919 119.884 135.376 119.297L133.821 117.617C133.008 116.739 131.855 116.235 130.658 116.235H125.967C125.78 116.235 125.629 116.084 125.629 115.897C125.629 115.71 125.781 115.559 125.967 115.559H130.658C132.043 115.559 133.377 116.142 134.317 117.158L135.872 118.838C136.633 119.659 136.71 120.916 136.055 121.825L135.56 122.513C135.494 122.604 135.39 122.653 135.285 122.653Z" fill="black"/>
<path d="M133.501 120.34L135.122 122.092C135.724 122.742 135.784 123.725 135.267 124.443C134.572 125.407 133.165 125.482 132.372 124.598L131.492 123.615C131.071 123.146 130.471 122.878 129.841 122.878H119.76C117.125 122.878 115.27 122.727 112.731 118.82L130.029 118.823C131.347 118.823 132.605 119.373 133.501 120.34Z" fill="#955B50"/>
<path d="M133.755 125.554C133.131 125.554 132.54 125.292 132.12 124.823L131.24 123.841C130.884 123.444 130.374 123.216 129.841 123.216H118.692C116.64 123.216 114.726 122.201 113.572 120.5C113.467 120.346 113.508 120.135 113.662 120.031C113.817 119.926 114.027 119.966 114.132 120.121C115.16 121.636 116.864 122.54 118.692 122.54H129.841C130.566 122.54 131.259 122.85 131.743 123.39L132.624 124.372C132.933 124.717 133.377 124.901 133.838 124.876C134.301 124.851 134.722 124.621 134.992 124.245C135.414 123.66 135.364 122.851 134.874 122.322L133.253 120.57C132.424 119.674 131.249 119.161 130.029 119.161H126.125C125.939 119.161 125.787 119.01 125.787 118.823C125.787 118.636 125.939 118.485 126.125 118.485H130.029C131.437 118.485 132.792 119.077 133.749 120.11L135.371 121.862C136.078 122.627 136.15 123.795 135.541 124.641C135.15 125.184 134.543 125.516 133.874 125.551C133.834 125.553 133.795 125.554 133.755 125.554Z" fill="black"/>
<path d="M122.541 123.233H105.906C105.719 123.233 105.568 123.082 105.568 122.895V110.954C105.568 110.767 105.719 110.616 105.906 110.616H113.85C114.97 110.616 115.828 110.379 116.821 110.106C117.992 109.783 119.319 109.417 121.323 109.417H127.579C129.732 109.417 131.806 110.323 133.268 111.903L134.001 112.695C134.658 113.405 134.818 114.429 134.407 115.304C134.327 115.473 134.126 115.546 133.957 115.467C133.788 115.387 133.715 115.186 133.794 115.017C134.088 114.393 133.974 113.661 133.505 113.154L132.772 112.362C131.437 110.92 129.544 110.093 127.579 110.093H121.323C119.411 110.093 118.185 110.431 117 110.758C116.003 111.032 115.062 111.292 113.85 111.292H106.244V122.557H122.54C122.727 122.557 122.878 122.709 122.878 122.895C122.878 123.082 122.727 123.233 122.541 123.233Z" fill="black"/>
<path d="M79.4318 85.3306H80.3286L86.0133 107.757C86.3824 109.213 87.6936 110.233 89.1961 110.231L109.889 110.215L109.9 124.523L85.3852 124.543C79.6011 124.548 74.5525 120.624 73.1297 115.017L68.9992 98.7415C67.2729 91.939 72.4138 85.3306 79.4318 85.3306Z" fill="#FED101"/>
<path d="M85.375 124.881C79.4328 124.882 74.2641 120.861 72.8022 115.1L68.6717 98.8249C67.8231 95.4807 68.5512 92.0009 70.6697 89.2778C72.7882 86.5547 75.982 84.9927 79.4321 84.9927H81.1451C81.3318 84.9927 81.4833 85.144 81.4833 85.3307C81.4833 85.5174 81.332 85.6689 81.1451 85.6689H79.4321C76.1922 85.6689 73.1928 87.1355 71.2035 89.6929C69.2141 92.2502 68.5302 95.5182 69.3273 98.6586L73.4577 114.934C74.8434 120.394 79.7431 124.205 85.3752 124.205C85.3787 124.205 85.3819 124.205 85.3853 124.205L109.562 124.186L109.551 110.554L89.1969 110.57C89.196 110.57 89.1949 110.57 89.1941 110.57C87.5357 110.57 86.0936 109.448 85.6861 107.84L82.8819 96.7772C82.836 96.5963 82.9455 96.4124 83.1265 96.3665C83.3084 96.3202 83.4914 96.4303 83.5372 96.6112L86.3415 107.674C86.6727 108.981 87.8457 109.894 89.194 109.894C89.1947 109.894 89.1955 109.894 89.1963 109.894L109.889 109.877H109.889C109.979 109.877 110.065 109.913 110.128 109.976C110.191 110.039 110.227 110.125 110.227 110.215L110.239 124.523C110.239 124.71 110.088 124.861 109.901 124.861L85.3861 124.881C85.3824 124.881 85.3782 124.881 85.375 124.881Z" fill="black"/>
<path d="M231.262 205.516C242.665 205.516 251.909 196.249 251.909 184.817C251.909 173.384 242.665 164.117 231.262 164.117C219.859 164.117 210.615 173.384 210.615 184.817C210.615 196.249 219.859 205.516 231.262 205.516Z" fill="black"/>
<path d="M229.276 206.372C240.679 206.372 249.923 197.104 249.923 185.672C249.923 174.24 240.679 164.972 229.276 164.972C217.873 164.972 208.63 174.24 208.63 185.672C208.63 197.104 217.873 206.372 229.276 206.372Z" fill="#FED101"/>
<path d="M234.647 197.119L233.14 194.601C231.372 195.627 229.418 196.223 228.093 196.267L227.007 192.67C228.451 192.586 230.299 192.169 231.968 191.096C233.431 190.155 234.084 188.928 233.449 187.868C232.846 186.861 231.644 186.753 229.347 187.311C226.029 188.123 223.361 188.002 221.822 185.431C220.426 183.098 220.924 180.245 223.338 177.922L221.832 175.404L224.348 173.786L225.744 176.119C227.512 175.093 228.889 174.721 229.991 174.601L231.038 178.075C230.196 178.213 228.65 178.362 226.801 179.551C225.132 180.624 225.037 181.712 225.481 182.455C226.005 183.33 227.237 183.309 229.927 182.754C233.649 181.903 235.754 182.569 237.182 184.955C238.593 187.315 238.181 190.369 235.546 192.798L237.164 195.502L234.647 197.119Z" fill="white"/>
<path d="M260.43 183.063C271.231 183.063 279.987 174.285 279.987 163.456C279.987 152.627 271.231 143.848 260.43 143.848C249.629 143.848 240.873 152.627 240.873 163.456C240.873 174.285 249.629 183.063 260.43 183.063Z" fill="black"/>
<path d="M258.549 183.873C269.35 183.873 278.106 175.095 278.106 164.266C278.106 153.437 269.35 144.658 258.549 144.658C247.747 144.658 238.991 153.437 238.991 164.266C238.991 175.095 247.747 183.873 258.549 183.873Z" fill="white"/>
<path d="M258.552 184.212C258.517 184.212 258.482 184.212 258.447 184.211C253.133 184.184 248.147 182.083 244.408 178.296C236.692 170.48 236.757 157.826 244.553 150.09C248.33 146.342 253.346 144.287 258.652 144.32C263.966 144.348 268.952 146.448 272.69 150.235C280.407 158.052 280.342 170.705 272.545 178.442C268.793 182.165 263.827 184.212 258.552 184.212ZM258.546 144.996C253.451 144.996 248.654 146.973 245.029 150.57C237.497 158.044 237.434 170.269 244.89 177.821C248.501 181.479 253.317 183.509 258.451 183.535C258.484 183.535 258.519 183.535 258.552 183.535C263.648 183.535 268.444 181.559 272.069 177.962C279.601 170.487 279.664 158.262 272.209 150.71C268.598 147.052 263.781 145.023 258.648 144.996C258.614 144.996 258.58 144.996 258.546 144.996Z" fill="black"/>
<path d="M250.688 173.022L252.279 170.742C250.706 169.613 249.432 168.156 248.88 167.028L251.566 164.694C252.198 165.908 253.276 167.343 254.851 168.368C256.232 169.268 257.546 169.355 258.216 168.395C258.852 167.483 258.479 166.402 257.104 164.635C255.114 162.083 254.182 159.731 255.807 157.403C257.28 155.291 259.938 154.613 262.883 155.797L264.473 153.517L266.848 155.063L265.374 157.175C266.948 158.304 267.804 159.35 268.335 160.255L265.741 162.509C265.295 161.835 264.565 160.557 262.82 159.421C261.245 158.396 260.268 158.737 259.799 159.409C259.246 160.201 259.743 161.257 261.267 163.366C263.447 166.251 263.689 168.328 262.182 170.488C260.691 172.624 257.892 173.454 254.771 172.12L253.063 174.568L250.688 173.022Z" fill="#4ADA85"/>
<path d="M233.52 140.516C243.007 140.516 250.697 132.806 250.697 123.294C250.697 113.783 243.007 106.072 233.52 106.072C224.033 106.072 216.342 113.783 216.342 123.294C216.342 132.806 224.033 140.516 233.52 140.516Z" fill="black"/>
<path d="M231.867 141.228C241.354 141.228 249.045 133.517 249.045 124.006C249.045 114.494 241.354 106.784 231.867 106.784C222.38 106.784 214.689 114.494 214.689 124.006C214.689 133.517 222.38 141.228 231.867 141.228Z" fill="#4ADA85"/>
<path d="M230.008 134.226L230.18 131.79C228.485 131.647 226.868 131.123 225.943 130.521L226.917 127.551C227.941 128.181 229.4 128.777 231.05 128.841C232.496 128.896 233.526 128.37 233.598 127.345C233.667 126.37 232.898 125.724 231.066 125.011C228.416 123.983 226.654 122.63 226.829 120.143C226.989 117.887 228.687 116.178 231.441 115.744L231.613 113.308L234.099 113.404L233.94 115.66C235.635 115.802 236.752 116.205 237.56 116.648L236.62 119.517C235.98 119.209 234.854 118.575 233.027 118.504C231.377 118.441 230.794 119.138 230.743 119.856C230.683 120.702 231.533 121.275 233.632 122.178C236.576 123.371 237.695 124.828 237.532 127.136C237.371 129.418 235.634 131.305 232.679 131.706L232.495 134.321L230.008 134.226Z" fill="white"/>
<path d="M122.004 70.3355C131.491 70.3355 139.182 62.6249 139.182 53.1134C139.182 43.6019 131.491 35.8914 122.004 35.8914C112.517 35.8914 104.826 43.6019 104.826 53.1134C104.826 62.6249 112.517 70.3355 122.004 70.3355Z" fill="black"/>
<path d="M120.352 71.0469C129.839 71.0469 137.529 63.3363 137.529 53.8249C137.529 44.3134 129.839 36.6028 120.352 36.6028C110.865 36.6028 103.174 44.3134 103.174 53.8249C103.174 63.3363 110.865 71.0469 120.352 71.0469Z" fill="#4ADA85"/>
<path d="M118.492 64.0448L118.664 61.6091C116.969 61.4669 115.352 60.942 114.428 60.3407L115.401 57.3702C116.425 58.0008 117.885 58.5969 119.534 58.6602C120.981 58.7158 122.01 58.1897 122.083 57.1641C122.152 56.1899 121.383 55.5432 119.55 54.8301C116.9 53.8026 115.138 52.4494 115.314 49.9624C115.473 47.7061 117.172 45.9975 119.925 45.5634L120.097 43.1277L122.584 43.2234L122.425 45.4797C124.119 45.6219 125.236 46.0248 126.045 46.4672L125.104 49.3362C124.464 49.0288 123.338 48.3941 121.511 48.3239C119.862 48.2604 119.278 48.9578 119.227 49.6759C119.168 50.522 120.018 51.0945 122.117 51.998C125.061 53.191 126.179 54.6479 126.016 56.9555C125.855 59.2374 124.119 61.1245 121.164 61.5251L120.979 64.1403L118.492 64.0448Z" fill="white"/>
<path d="M44.5692 52.4402C55.8365 52.4402 64.9705 43.2827 64.9705 31.9863C64.9705 20.69 55.8365 11.5325 44.5692 11.5325C33.3019 11.5325 24.168 20.69 24.168 31.9863C24.168 43.2827 33.3019 52.4402 44.5692 52.4402Z" fill="black"/>
<path d="M42.6078 53.2851C53.8751 53.2851 63.0091 44.1276 63.0091 32.8313C63.0091 21.5349 53.8751 12.3774 42.6078 12.3774C31.3405 12.3774 22.2065 21.5349 22.2065 32.8313C22.2065 44.1276 31.3405 53.2851 42.6078 53.2851Z" fill="white"/>
<path d="M42.6106 53.6233C42.5738 53.6233 42.5379 53.6232 42.5011 53.623C36.9612 53.5945 31.7641 51.4047 27.8671 47.4573C19.8232 39.309 19.8909 26.1188 28.0181 18.0541C31.9292 14.1732 37.1061 12.0396 42.6046 12.0396C42.6414 12.0396 42.6774 12.0397 42.7142 12.0399C48.2541 12.0684 53.4513 14.2582 57.3481 18.2057C65.3922 26.3539 65.3244 39.5441 57.1972 47.6089C53.286 51.4896 48.1091 53.623 42.6106 53.6233ZM42.6048 12.7156C37.2855 12.7156 32.2781 14.7794 28.4946 18.5339C20.6312 26.3366 20.5655 39.0985 28.3482 46.9821C32.1182 50.8008 37.1456 52.919 42.5047 52.9466C47.8736 52.9752 52.9121 50.908 56.7209 47.1285C64.5843 39.3257 64.6499 26.5639 56.8672 18.6803C53.0973 14.8616 48.0699 12.7432 42.7109 12.7156C42.6754 12.7158 42.6399 12.7156 42.6048 12.7156Z" fill="black"/>
<path d="M34.4071 41.9654L36.0666 39.5871C34.4253 38.4094 33.0968 36.8891 32.5205 35.713L35.3224 33.2774C35.9822 34.5443 37.1069 36.0412 38.7498 37.1108C40.1906 38.0488 41.5608 38.1399 42.2595 37.1384C42.9233 36.187 42.5337 35.0596 41.0998 33.216C39.0239 30.5539 38.0521 28.1007 39.7464 25.6724C41.2836 23.4693 44.0561 22.7621 47.1277 23.9972L48.7872 21.6189L51.2643 23.2315L49.7271 25.4346C51.3684 26.6123 52.2613 27.7033 52.8158 28.6471L50.109 30.9987C49.6438 30.2955 48.8828 28.9627 47.0628 27.7778C45.4199 26.7082 44.4 27.0636 43.9108 27.7647C43.3344 28.5908 43.8522 29.6925 45.4418 31.8925C47.7161 34.9023 47.9687 37.0691 46.3966 39.3223C44.8419 41.5504 41.922 42.4164 38.6658 41.0246L36.8841 43.5782L34.4071 41.9654Z" fill="#FED101"/>
<path d="M208.553 239.57H274.423V278.614H208.416L208.553 239.57Z" fill="black"/>
<path d="M211.729 237.807H277.6V276.851H211.593L211.729 237.807Z" fill="white"/>
<path d="M277.6 277.189H211.593C211.503 277.189 211.417 277.153 211.354 277.09C211.29 277.026 211.255 276.94 211.255 276.85L211.391 237.806C211.392 237.619 211.543 237.469 211.729 237.469H277.6C277.787 237.469 277.938 237.62 277.938 237.807V276.851C277.938 277.038 277.787 277.189 277.6 277.189ZM211.932 276.513H277.262V238.145H212.066L211.932 276.513Z" fill="black"/>
<path d="M221.937 261.638H216.567V272.847H221.937V261.638Z" fill="#FED101"/>
<path d="M232.082 252.874H226.712V272.847H232.082V252.874Z" fill="#FED101"/>
<path d="M242.228 256.453H236.857V272.847H242.228V256.453Z" fill="#FED101"/>
<path d="M252.372 252.465H247.002V272.847H252.372V252.465Z" fill="#FED101"/>
<path d="M262.518 247.848H257.147V272.847H262.518V247.848Z" fill="#FED101"/>
<path d="M272.662 241.942H267.292V272.847H272.662V241.942Z" fill="#FED101"/>
<path d="M224.99 269.555C224.914 269.555 224.837 269.53 224.775 269.478L216.352 262.542C216.207 262.423 216.187 262.21 216.306 262.066C216.424 261.922 216.637 261.901 216.782 262.02L225.003 268.79L236.011 260.847C236.147 260.75 236.333 260.766 236.451 260.886L240.632 265.166L254.884 253.88C255.025 253.769 255.227 253.786 255.347 253.921L259.24 258.298L272.442 247.061C272.585 246.94 272.798 246.957 272.919 247.099C273.04 247.242 273.023 247.455 272.881 247.576L259.427 259.027C259.287 259.146 259.077 259.132 258.955 258.994L255.054 254.609L240.813 265.885C240.677 265.993 240.483 265.981 240.361 265.857L236.171 261.566L225.188 269.491C225.128 269.534 225.059 269.555 224.99 269.555Z" fill="#1EC15F"/>
</g>
</svg>
