<svg width="264" height="265" viewBox="0 0 264 265" fill="none" xmlns="http://www.w3.org/2000/svg">
<g clip-path="url(#clip0_178_42181)">
<path d="M94.4734 39.3941C81.1649 39.3941 70.3359 28.5727 70.3359 15.2735C70.3359 1.97419 81.1649 -8.84717 94.4734 -8.84717C107.782 -8.84717 118.611 1.97419 118.611 15.2735C118.611 28.5727 107.782 39.3941 94.4734 39.3941ZM94.4734 -8.16829C81.5385 -8.16829 71.0153 2.34757 71.0153 15.2735C71.0153 28.1993 81.5385 38.7152 94.4734 38.7152C107.408 38.7152 117.932 28.1993 117.932 15.2735C117.932 2.34757 107.408 -8.16829 94.4734 -8.16829Z" fill="#8F8F8F"/>
<path d="M109.634 11.8519H97.8982V0.124268H91.0503V11.8519H79.3145V18.695H91.0503V30.4227H97.8982V18.695H109.634V11.8519Z" fill="#FF6C08"/>
<path d="M257.661 -8.66064H247.562V206.141H257.661C265.423 206.141 271.714 199.854 271.714 192.098V5.382C271.714 -2.37421 265.423 -8.66064 257.661 -8.66064Z" fill="#0B3D59"/>
<path d="M250.308 -8.66064H157.599C149.838 -8.66064 143.547 -2.37354 143.547 5.382V192.098C143.547 199.853 149.838 206.141 157.599 206.141H250.308C258.069 206.141 264.36 199.853 264.36 192.098V5.382C264.36 -2.37354 258.069 -8.66064 250.308 -8.66064Z" fill="white"/>
<path d="M250.147 206.48H157.752C149.728 206.48 143.203 199.959 143.203 191.942V5.53823C143.203 -2.47935 149.728 -9 157.752 -9H250.147C258.17 -9 264.696 -2.47935 264.696 5.53823V191.945C264.696 199.963 258.17 206.483 250.147 206.483V206.48ZM157.752 -8.32112C150.105 -8.32112 143.882 -2.10257 143.882 5.53823V191.945C143.882 199.586 150.105 205.805 157.752 205.805H250.147C257.793 205.805 264.016 199.586 264.016 191.945V5.53823C264.016 -2.10257 257.797 -8.32112 250.147 -8.32112H157.752Z" fill="black"/>
<path d="M239.368 206.141L164.041 206.365V141.827H239.368V206.141Z" fill="black"/>
<path d="M164.039 206.704C163.951 206.704 163.862 206.671 163.798 206.606C163.733 206.542 163.699 206.457 163.699 206.365V141.827C163.699 141.641 163.852 141.488 164.039 141.488H239.366C239.553 141.488 239.706 141.641 239.706 141.827V206.141C239.706 206.328 239.553 206.48 239.366 206.48L164.039 206.704ZM164.379 142.167V206.026L239.026 205.805V142.167H164.379Z" fill="black"/>
<path d="M169.483 81.6842L146.607 63.8369L116.362 102.55L139.238 120.397L169.483 81.6842Z" fill="#F4AA74"/>
<path d="M139.232 120.737C139.157 120.737 139.083 120.714 139.022 120.666L116.144 102.818C115.995 102.703 115.971 102.489 116.087 102.343L146.335 63.6301C146.389 63.5588 146.471 63.5147 146.562 63.5011C146.651 63.4909 146.742 63.5147 146.814 63.569L169.691 81.4167C169.841 81.5321 169.864 81.746 169.749 81.892L139.5 120.605C139.446 120.676 139.365 120.721 139.273 120.734C139.259 120.734 139.246 120.734 139.232 120.734V120.737ZM116.834 102.493L139.174 119.923L169.005 81.746L146.664 64.3157L116.834 102.493Z" fill="black"/>
<path d="M244.938 146.752L243.032 86.8547L218.691 37.0113L176.7 36.8008C167.236 36.7533 158.062 40.0662 150.813 46.149L131.947 70.1474L157.501 88.4093L157.022 146.752H244.941H244.938Z" fill="#3F7421"/>
<path d="M244.94 147.092H157.021C156.929 147.092 156.844 147.054 156.78 146.99C156.715 146.925 156.681 146.837 156.681 146.749L157.16 88.5825L131.752 70.4258C131.678 70.3715 131.627 70.2901 131.613 70.1984C131.6 70.1068 131.623 70.0151 131.681 69.9404L150.547 45.942C150.56 45.925 150.577 45.9081 150.594 45.8911C157.843 39.8083 167.038 36.4648 176.498 36.4648C176.566 36.4648 176.634 36.4648 176.702 36.4648L218.693 36.6753C218.822 36.6753 218.941 36.75 218.995 36.8654L243.337 86.7088C243.357 86.7529 243.371 86.8004 243.371 86.848L245.276 146.746C245.276 146.837 245.246 146.925 245.181 146.993C245.116 147.061 245.028 147.095 244.936 147.095L244.94 147.092ZM157.364 146.413H244.59L242.698 86.9396L218.482 37.3542L176.702 37.1437C176.634 37.1437 176.569 37.1437 176.502 37.1437C167.211 37.1437 158.183 40.4227 151.06 46.3901L132.435 70.083L157.7 88.1378C157.792 88.2023 157.843 88.3075 157.843 88.4162L157.367 146.42L157.364 146.413Z" fill="black"/>
<path d="M200.165 75.9758C200.138 75.9758 200.111 75.9758 200.084 75.9656C199.9 75.9214 199.791 75.7382 199.836 75.5549L207.825 43.0772C209.431 36.5396 205.42 29.9137 198.878 28.3082C192.336 26.7026 185.705 30.7114 184.098 37.249L181.493 47.8362C181.449 48.0195 181.265 48.1315 181.082 48.0839C180.899 48.0398 180.79 47.8565 180.834 47.6732L183.439 37.0861C185.138 30.1853 192.135 25.9491 199.041 27.6463C205.946 29.3435 210.182 36.3359 208.487 43.2367L200.498 75.7144C200.461 75.8705 200.321 75.9724 200.168 75.9724L200.165 75.9758Z" fill="black"/>
<path d="M183.009 75.9044C182.965 75.9044 182.924 75.8976 182.88 75.8806C182.707 75.8093 182.622 75.6125 182.693 75.4394C183.594 73.2432 184.317 70.8603 184.847 68.362C185.893 63.4164 186.046 58.5963 185.275 54.7912C184.524 51.0811 183.003 48.8069 180.988 48.3792C178.974 47.9549 176.661 49.4213 174.473 52.5102C172.228 55.6805 170.417 60.1476 169.371 65.0932C168.841 67.5949 168.542 70.066 168.475 72.4387C168.468 72.6254 168.315 72.7714 168.125 72.768C167.938 72.7612 167.788 72.605 167.795 72.4183C167.863 70.0049 168.169 67.4931 168.705 64.9507C169.769 59.9168 171.62 55.3581 173.916 52.1164C176.27 48.7933 178.831 47.2285 181.128 47.7139C183.424 48.1993 185.132 50.6636 185.941 54.6554C186.729 58.5488 186.576 63.4673 185.513 68.5012C184.976 71.0436 184.239 73.4638 183.322 75.6973C183.267 75.8297 183.142 75.9078 183.006 75.9078L183.009 75.9044Z" fill="black"/>
<path d="M183.638 75.6973C183.407 76.7937 182.327 77.4963 181.23 77.2621C180.133 77.0313 179.43 75.9519 179.664 74.8555C179.895 73.7591 180.975 73.0564 182.073 73.2906C183.17 73.5215 183.873 74.6009 183.638 75.6973Z" fill="black"/>
<path d="M171.139 74.2311C170.575 75.2019 169.332 75.5311 168.364 74.9676C167.393 74.4042 167.063 73.1618 167.627 72.1944C168.191 71.2236 169.434 70.8944 170.402 71.4578C171.374 72.0213 171.703 73.2636 171.139 74.2311Z" fill="black"/>
<path d="M202.677 79.8285C201.574 81.5868 199.254 82.1164 197.494 81.0132C195.734 79.91 195.205 77.5916 196.309 75.8333C197.412 74.075 199.732 73.5455 201.492 74.6487C203.252 75.7519 203.781 78.0702 202.677 79.8285Z" fill="black"/>
<path d="M208.514 84.7705H166.152V139.665H208.514V84.7705Z" fill="#0B3D59"/>
<path d="M208.517 140.001H166.156C165.969 140.001 165.816 139.848 165.816 139.661V84.7672C165.816 84.5805 165.969 84.4277 166.156 84.4277H208.517C208.704 84.4277 208.857 84.5805 208.857 84.7672V139.661C208.857 139.848 208.704 140.001 208.517 140.001ZM166.492 139.322H208.174V85.1066H166.492V139.322Z" fill="black"/>
<path d="M172.935 100.639L173.051 106.705L164.008 106.878L164.039 108.542L161.44 108.592C159.304 108.633 157.541 106.936 157.497 104.801C157.456 102.666 159.154 100.904 161.291 100.86L172.932 100.636L172.935 100.639Z" fill="#F4AA74"/>
<path d="M171.706 106.726L171.821 112.791L162.779 112.964L162.81 114.628L160.082 114.679C158.017 114.719 156.312 113.08 156.274 111.016V110.755C156.23 108.691 157.871 106.987 159.936 106.95L171.706 106.726Z" fill="#F4AA74"/>
<path d="M173.522 112.75L173.638 118.816L164.596 118.989L164.626 120.653L161.899 120.704C159.833 120.744 158.128 119.105 158.091 117.041V116.78C158.047 114.716 159.687 113.012 161.752 112.975L173.522 112.75Z" fill="#F4AA74"/>
<path d="M175 118.776L175.116 124.841L166.074 125.015L166.162 129.22L164.049 129.261C161.644 129.308 159.657 127.397 159.61 124.994L159.579 123.426C159.531 121.023 161.444 119.034 163.849 118.986L174.997 118.772L175 118.776Z" fill="#F4AA74"/>
<path d="M187.057 101.356L182.267 106.929C182.267 106.929 176.33 99.0406 174.845 97.1499C174.635 96.8138 172.75 95.0012 171.982 91.1791C171.985 91.0977 170.909 87.6388 173.911 85.2865L173.989 85.2254C175.246 84.241 177.108 84.9266 177.417 86.4949C177.784 88.3482 177.937 89.7195 179.248 91.3964L187.057 101.356Z" fill="#F4AA74"/>
<path d="M183.261 100.442C186.392 100.381 189.507 100.928 192.435 102.048L219.572 112.448L219.698 79.0066H247.259L247.117 116.525C247.079 126.219 239.413 134.206 229.715 134.556C223.852 134.766 218.19 134.359 215.452 133.31L192.442 124.505L169.381 124.946L168.916 100.717L183.264 100.442H183.261Z" fill="#F4AA74"/>
<path d="M158.844 114.838C158.81 114.838 158.772 114.831 158.738 114.821C157.094 114.281 155.967 112.757 155.933 111.026V110.765C155.885 108.518 157.679 106.654 159.927 106.613L171.296 106.396C171.48 106.396 171.639 106.542 171.643 106.729C171.646 106.916 171.497 107.072 171.31 107.075L159.941 107.292C158.066 107.33 156.571 108.881 156.609 110.751V111.013C156.642 112.455 157.58 113.728 158.952 114.176C159.129 114.234 159.227 114.427 159.17 114.604C159.122 114.746 158.99 114.838 158.847 114.838H158.844Z" fill="black"/>
<path d="M160.677 120.867C160.643 120.867 160.606 120.86 160.572 120.85C158.914 120.317 157.779 118.789 157.745 117.048V116.787C157.718 115.697 158.122 114.668 158.88 113.884C159.634 113.1 160.65 112.656 161.74 112.635L173.028 112.418C173.204 112.418 173.371 112.564 173.374 112.751C173.377 112.937 173.228 113.093 173.041 113.097L161.754 113.314C160.847 113.331 160.001 113.701 159.369 114.353C158.741 115.008 158.401 115.867 158.421 116.773V117.034C158.455 118.484 159.4 119.757 160.782 120.201C160.962 120.259 161.057 120.449 161 120.629C160.952 120.772 160.82 120.863 160.677 120.863V120.867Z" fill="black"/>
<path d="M158.471 107.628C158.376 107.628 158.284 107.591 158.216 107.513C157.557 106.766 157.18 105.806 157.163 104.808C157.119 102.489 158.97 100.568 161.29 100.524L181.552 100.137C181.742 100.134 181.895 100.283 181.898 100.47C181.902 100.656 181.752 100.813 181.565 100.816L161.304 101.203C159.357 101.24 157.805 102.853 157.842 104.798C157.859 105.633 158.172 106.44 158.725 107.065C158.851 107.204 158.837 107.421 158.695 107.544C158.63 107.601 158.549 107.628 158.471 107.628Z" fill="black"/>
<path d="M225.594 115.1C225.553 115.1 225.513 115.093 225.472 115.076L215.924 111.417C215.747 111.349 215.662 111.152 215.727 110.979C215.795 110.806 215.992 110.717 216.165 110.782L225.713 114.441C225.89 114.509 225.975 114.706 225.91 114.879C225.859 115.015 225.73 115.096 225.594 115.096V115.1Z" fill="black"/>
<path d="M226.704 134.95C221.694 134.95 217.546 134.475 215.328 133.626L192.38 124.845L166.493 125.344L166.5 129.217C166.5 129.404 166.35 129.553 166.167 129.556L164.054 129.597C161.482 129.651 159.322 127.584 159.268 124.998L159.237 123.429C159.213 122.177 159.679 120.989 160.548 120.082C161.418 119.18 162.586 118.667 163.843 118.643L174.557 118.436C174.74 118.443 174.9 118.582 174.903 118.769C174.907 118.956 174.757 119.112 174.57 119.115L163.857 119.322C162.783 119.343 161.785 119.78 161.041 120.551C160.297 121.325 159.9 122.34 159.92 123.412L159.951 124.981C159.995 127.19 161.829 128.966 164.044 128.915L165.824 128.881L165.817 125.008C165.817 124.821 165.963 124.672 166.15 124.668L192.437 124.159C192.485 124.159 192.526 124.166 192.566 124.183L215.576 132.988C218.039 133.932 223.266 134.407 229.214 134.227C239.028 133.932 246.745 126.029 246.782 116.233L246.922 79.3429H220.04L219.917 112.448C219.917 112.56 219.863 112.666 219.771 112.727C219.679 112.791 219.561 112.805 219.459 112.764L192.318 102.36C189.944 101.406 186.456 100.928 186.422 100.921C186.333 100.908 186.255 100.863 186.201 100.795L178.986 91.6001C177.75 90.0251 177.502 88.7284 177.189 87.0855L177.087 86.556C176.965 85.9382 176.54 85.4358 175.946 85.2152C175.352 84.9945 174.699 85.0964 174.203 85.4867L174.125 85.5478C171.771 87.391 172.067 89.9911 172.301 91.023C172.311 91.0637 172.318 91.0943 172.322 91.1214C172.967 94.3054 174.394 96.0399 174.93 96.6917C175.022 96.8037 175.09 96.8885 175.127 96.9428C175.579 97.5165 176.452 98.6638 177.729 100.344C177.841 100.493 177.814 100.707 177.665 100.819C177.515 100.931 177.301 100.904 177.189 100.755C175.905 99.0643 175.029 97.9204 174.584 97.3502C174.577 97.34 174.57 97.3298 174.563 97.3196C174.536 97.2789 174.482 97.2144 174.404 97.1194C173.837 96.4303 172.328 94.5939 171.652 91.2369C171.652 91.2301 171.652 91.2199 171.649 91.2131L171.639 91.169C171.374 90.0115 171.048 87.0923 173.707 85.0081L173.786 84.947C174.472 84.4107 175.368 84.2715 176.184 84.5736C176.999 84.8757 177.587 85.5648 177.753 86.4168L177.855 86.9497C178.15 88.501 178.385 89.7297 179.519 91.1724L186.649 100.259C187.335 100.358 190.362 100.833 192.566 101.719L219.241 111.943L219.364 78.9932C219.364 78.8066 219.516 78.6538 219.703 78.6538H247.265C247.356 78.6538 247.441 78.6911 247.506 78.7522C247.57 78.8167 247.604 78.9016 247.604 78.9932L247.462 116.223C247.424 126.386 239.418 134.587 229.235 134.892C228.372 134.919 227.529 134.93 226.707 134.93L226.704 134.95Z" fill="black"/>
<path d="M247.197 99.448L219.592 91.2166V89.2139H247.197V99.448Z" fill="#244113"/>
<path d="M218.689 37.0112C235.184 37.0112 248.574 50.392 248.574 66.8752V90.731H218.689V37.0112Z" fill="#3F7421"/>
<path d="M248.572 91.0706H218.687C218.501 91.0706 218.348 90.9178 218.348 90.7311C218.348 90.5444 218.501 90.3917 218.687 90.3917H248.233V66.8753C248.233 50.5957 234.978 37.3508 218.687 37.3508C218.501 37.3508 218.348 37.198 218.348 37.0113C218.348 36.8246 218.501 36.6719 218.687 36.6719C235.352 36.6719 248.912 50.2223 248.912 66.8753V90.7311C248.912 90.9178 248.759 91.0706 248.572 91.0706Z" fill="black"/>
<path d="M219.713 91.0705H218.687C218.501 91.0705 218.348 90.9178 218.348 90.7311V61.5868C218.348 61.4001 218.501 61.2473 218.687 61.2473C218.874 61.2473 219.027 61.4001 219.027 61.5868V90.3917H219.713C219.9 90.3917 220.053 90.5444 220.053 90.7311C220.053 90.9178 219.9 91.0705 219.713 91.0705Z" fill="black"/>
<path d="M157.499 88.7455C157.319 88.7455 157.17 88.6063 157.159 88.4264L155.926 66.2949C155.916 66.1082 156.059 65.9487 156.246 65.9385C156.436 65.9317 156.592 66.0709 156.602 66.2575L157.835 88.3924C157.845 88.5791 157.703 88.7387 157.516 88.7489C157.509 88.7489 157.502 88.7489 157.496 88.7489L157.499 88.7455Z" fill="black"/>
<path d="M142.749 115.945L121.105 64.4924C121.105 64.4924 122.246 59.6011 117.583 56.0472C116.502 55.2223 114.128 53.722 112.11 52.4796C109.818 51.0676 107.722 49.3568 105.874 47.3948L103.758 45.1477C102.695 44.0174 100.928 43.9258 99.7529 44.9407L99.5016 45.1579C98.3127 46.1864 98.1598 47.9753 99.1619 49.1871L105.612 57.001L101.027 58.7797C98.6761 59.6894 96.1184 59.9304 93.6387 59.4687L83.591 57.8055C81.9198 57.5305 80.303 58.5251 79.8002 60.1408L79.7153 60.4158L74.4163 58.9901C72.8436 58.6201 71.2573 59.5536 70.8192 61.1082C70.3844 62.6323 71.2064 64.2345 72.701 64.7708L105.242 76.495L114.515 115.398C117.209 126.695 131.761 129.892 138.945 120.765L142.739 115.945H142.749Z" fill="#F4AA74"/>
<path d="M70.8296 61.1082C71.2711 59.5536 72.854 58.6235 74.4267 58.9901L79.7257 60.4158L79.8106 60.1408C80.3134 58.5251 81.9302 57.5271 83.6014 57.8055L93.6491 59.4687C96.1288 59.9304 98.6865 59.6894 101.037 58.7797L105.623 57.001L99.1723 49.1871C98.1702 47.9753 98.3231 46.1864 99.5119 45.1579L99.7633 44.9407C100.939 43.9258 102.705 44.0174 103.768 45.1477L105.884 47.3948C107.729 49.3568 109.825 51.0676 112.121 52.4796C114.138 53.722 116.509 55.2223 117.593 56.0472C120.226 58.0533 121.007 60.487 121.19 62.225H70.7344C70.7005 61.8584 70.7277 61.4816 70.8364 61.1082H70.8296Z" fill="#F4AA74"/>
<path d="M128.132 126.308C127.096 126.308 126.049 126.196 125.006 125.965C119.595 124.777 115.438 120.693 114.154 115.307L104.965 76.7495L72.5942 65.0864C70.94 64.4889 70.0228 62.7001 70.5018 61.0097C70.9909 59.2785 72.7504 58.2432 74.5032 58.654L79.4965 59.9981C80.0603 58.25 81.8402 57.1638 83.6541 57.4625L93.7018 59.1258C96.1271 59.5772 98.6169 59.343 100.91 58.4537L105.057 56.8447L98.9056 49.3906C97.7949 48.0465 97.9681 46.0268 99.2861 44.8863L99.5374 44.669C100.852 43.5319 102.819 43.6337 104.011 44.8998L106.127 47.1469C107.955 49.0885 110.03 50.7823 112.292 52.1774C114.184 53.3417 116.674 54.9133 117.792 55.7619C122.177 59.1054 121.596 63.6641 121.46 64.4414L136.399 99.9537C136.471 100.127 136.389 100.327 136.219 100.398C136.046 100.47 135.846 100.388 135.774 100.218L120.798 64.6111C120.771 64.5466 120.764 64.472 120.781 64.4041C120.825 64.214 121.807 59.6757 117.384 56.305C116.518 55.6431 114.636 54.4177 111.939 52.7579C109.622 51.3322 107.503 49.6011 105.635 47.6154L103.518 45.3683C102.578 44.3669 101.025 44.2855 99.9858 45.185L99.7344 45.4022C98.6916 46.3017 98.5592 47.8971 99.4355 48.9595L105.886 56.7735C105.954 56.8583 105.981 56.9703 105.954 57.0756C105.927 57.1808 105.849 57.2657 105.747 57.3064L101.161 59.0851C98.7494 60.0185 96.1305 60.2629 93.5897 59.7911L83.5488 58.1312C82.0542 57.8834 80.5868 58.7863 80.1384 60.2324L80.0535 60.5073C79.9992 60.6804 79.8191 60.7823 79.6425 60.7347L74.3435 59.3091C72.9543 58.9832 71.5514 59.8081 71.1608 61.1896C70.7769 62.5372 71.5106 63.9662 72.8286 64.4414L105.37 76.1657C105.478 76.203 105.56 76.2947 105.584 76.4067L114.816 115.14C116.039 120.269 120 124.159 125.153 125.293C130.305 126.423 135.533 124.553 138.797 120.412L142.486 115.727C142.602 115.581 142.816 115.554 142.962 115.67C143.108 115.785 143.135 115.999 143.02 116.145L139.331 120.829C136.566 124.339 132.459 126.298 128.132 126.298V126.308Z" fill="black"/>
<path d="M102.225 66.3455L99.525 65.1846C97.8062 64.4446 96.3422 63.226 95.3062 61.6714L89.6302 53.1548C88.815 51.9294 87.1641 51.5866 85.9277 52.3843C84.749 53.1446 84.3516 54.6789 85.0106 55.9145L90.4148 66.0196C90.853 66.8376 91.4475 67.5573 92.1676 68.1377L96.0467 71.2741L102.225 66.3421V66.3455Z" fill="#F4AA74"/>
<path d="M95.1809 63.026L92.3242 62.3267C90.5069 61.8821 88.8595 60.9214 87.5823 59.5569L80.5747 52.096C79.5659 51.0234 77.8845 50.9589 76.7975 51.95C75.7615 52.8937 75.6222 54.4721 76.4782 55.582L83.479 64.6553C84.0462 65.3885 84.7528 65.9995 85.5578 66.4577L89.9023 68.9119L95.1809 63.026Z" fill="#F4AA74"/>
<path d="M85.5515 66.7972C85.4938 66.7972 85.436 66.7836 85.3851 66.7531C84.5325 66.271 83.7988 65.6363 83.2044 64.8624L76.2036 55.7891C75.2457 54.5502 75.4054 52.7511 76.5637 51.6989C77.7831 50.5889 79.6921 50.6636 80.8198 51.8652L86.1765 57.6187C86.3056 57.7545 86.2954 57.9717 86.1596 58.0973C86.0237 58.2263 85.8063 58.2161 85.6806 58.0804L80.3239 52.3268C79.4509 51.3968 77.9665 51.3391 77.0222 52.1979C76.1221 53.0159 75.9998 54.411 76.7437 55.3716L83.7444 64.4449C84.2845 65.1441 84.9503 65.7212 85.7214 66.1556C85.8844 66.2473 85.9422 66.4543 85.8505 66.6173C85.7893 66.7293 85.6738 66.7904 85.5549 66.7904L85.5515 66.7972Z" fill="black"/>
<path d="M93.5582 70.2322C93.4834 70.2322 93.4087 70.2084 93.3476 70.1575C91.6084 68.7726 90.1648 66.9906 89.1729 65.0014L84.7062 56.064C83.9724 54.6926 84.4242 52.9445 85.7422 52.0959C87.1281 51.2032 88.9963 51.5901 89.91 52.9615L95.586 61.4747C96.5881 62.9784 97.9977 64.1528 99.6588 64.8657L105.338 66.8174C105.515 66.8785 105.61 67.072 105.549 67.2485C105.488 67.425 105.294 67.5201 105.117 67.459L99.4142 65.497C97.6071 64.7197 96.0989 63.4638 95.0222 61.848L89.3462 53.3315C88.6362 52.269 87.1858 51.9669 86.109 52.6594C85.0866 53.3179 84.7367 54.6723 85.3074 55.7449L89.7775 64.6892C90.7286 66.59 92.1077 68.294 93.7688 69.6178C93.9148 69.7332 93.9386 69.9471 93.8231 70.0964C93.7552 70.1813 93.6567 70.2254 93.5582 70.2254V70.2322Z" fill="black"/>
<path d="M199.07 20.5857C199.07 26.4173 194.338 31.1457 188.503 31.1457C182.667 31.1457 173.363 21.1051 173.363 15.2701C173.363 9.43511 182.667 10.0223 188.503 10.0223C194.338 10.0223 199.07 14.7507 199.07 20.5823V20.5857Z" fill="black"/>
<path d="M201.015 37.3881L192.108 49.5367L185.148 23.7494L196.592 20.9897L201.015 37.3881Z" fill="#F4AA74"/>
<path d="M192.108 49.8761C192.088 49.8761 192.067 49.8761 192.047 49.8693C191.918 49.8455 191.816 49.7505 191.782 49.6249L184.822 23.8376C184.798 23.7494 184.812 23.6543 184.856 23.5763C184.904 23.4982 184.978 23.4405 185.07 23.4201L196.51 20.6605C196.69 20.6163 196.871 20.725 196.918 20.9015L201.344 37.2998C201.371 37.3983 201.351 37.5069 201.29 37.5884L192.383 49.7369C192.319 49.8252 192.217 49.8761 192.108 49.8761ZM185.569 23.9972L192.254 48.7661L200.648 37.3202L196.351 21.3971L185.569 23.9972Z" fill="black"/>
<path d="M196.593 22.2898V20.9897L185.152 23.7494L188.586 36.4682C190.692 37.4424 194.782 36.9706 196.083 32.6325C197.191 28.9394 196.416 23.3013 196.596 22.2864L196.593 22.2898Z" fill="black"/>
<path d="M194.731 17.2015C198.301 20.9897 197.265 29.3467 193.834 32.5748C190.406 35.8029 185.709 33.6033 182.315 28.8919C179.272 24.6692 178.63 19.4181 182.057 16.19C185.485 12.9619 191.161 13.4134 194.731 17.2015Z" fill="#F4AA74"/>
<path d="M190.177 34.4417C189.99 34.4417 189.803 34.4315 189.613 34.4146C187.062 34.1702 184.3 32.2286 182.038 29.0888C178.611 24.3332 178.522 19.0481 181.824 15.9422C185.384 12.592 191.284 13.0502 194.976 16.9673C198.692 20.9082 197.578 29.5131 194.066 32.8226C192.921 33.8986 191.617 34.4417 190.177 34.4417ZM187.622 14.3774C185.659 14.3774 183.757 15.0529 182.289 16.4344C178.777 19.7406 179.908 24.9713 182.588 28.6916C184.738 31.6753 187.32 33.5117 189.677 33.7391C191.138 33.8783 192.456 33.403 193.601 32.327C196.906 29.2143 197.965 21.1289 194.48 17.4324C192.578 15.4161 190.054 14.3774 187.622 14.3774Z" fill="black"/>
<path d="M178.533 22.6021C179.8 24.0481 183.207 23.1351 186.142 20.5655C189.08 17.9959 190.435 14.7407 189.168 13.2981C187.901 11.8521 184.494 12.7652 181.56 15.3347C178.625 17.9043 177.266 21.1595 178.533 22.6021Z" fill="black"/>
<path d="M198.346 22.1702C199.529 20.657 197.992 17.4842 194.915 15.0835C191.838 12.6827 188.385 11.9632 187.203 13.4763C186.021 14.9894 187.557 18.1623 190.634 20.563C193.711 22.9637 197.164 23.6833 198.346 22.1702Z" fill="black"/>
<path d="M193.175 27.802C192.849 28.7558 192.156 29.5807 191.174 30.0491C190.192 30.5175 189.112 30.5379 188.168 30.1917L193.175 27.802Z" fill="white"/>
<path d="M63.6489 123.386C73.6546 119.244 78.406 107.781 74.2615 97.7825C70.117 87.7838 58.646 83.0357 48.6403 87.1772C38.6347 91.3188 33.8832 102.782 38.0277 112.78C42.1722 122.779 53.6432 127.527 63.6489 123.386Z" fill="#FF6C08"/>
<path d="M32.9109 88.6366C31.2498 88.6366 29.8945 87.2856 29.8945 85.6224C29.8945 83.9591 31.2464 82.6082 32.9109 82.6082C34.5753 82.6082 35.9272 83.9591 35.9272 85.6224C35.9272 87.2856 34.5753 88.6366 32.9109 88.6366ZM32.9109 83.287C31.6235 83.287 30.5739 84.3325 30.5739 85.6224C30.5739 86.9123 31.6201 87.9577 32.9109 87.9577C34.2016 87.9577 35.2479 86.9089 35.2479 85.6224C35.2479 84.3359 34.2016 83.287 32.9109 83.287Z" fill="black"/>
<path d="M46.892 96.4811C46.8207 96.4811 46.7527 96.4607 46.6916 96.4166L34.7451 87.6319C34.5957 87.5198 34.5617 87.3094 34.6738 87.1566C34.7859 87.0073 34.9965 86.9733 35.1493 87.0854L47.0958 95.8701C47.2453 95.9821 47.2792 96.1925 47.1671 96.3453C47.0992 96.4369 46.9973 96.4845 46.892 96.4845V96.4811Z" fill="black"/>
<path d="M29.5077 99.5801C28.1999 99.5801 27.1367 98.5177 27.1367 97.2108C27.1367 95.904 28.1999 94.8416 29.5077 94.8416C30.8154 94.8416 31.8786 95.904 31.8786 97.2108C31.8786 98.5177 30.8154 99.5801 29.5077 99.5801ZM29.5077 95.5204C28.5736 95.5204 27.8161 96.2774 27.8161 97.2108C27.8161 98.1443 28.5736 98.9013 29.5077 98.9013C30.4418 98.9013 31.1993 98.1443 31.1993 97.2108C31.1993 96.2774 30.4418 95.5204 29.5077 95.5204Z" fill="black"/>
<path d="M40.7713 100.184C40.7475 100.184 40.7237 100.184 40.7 100.178L31.4675 98.1579C31.2841 98.1171 31.1686 97.9372 31.2094 97.7539C31.2501 97.5706 31.4301 97.4552 31.6136 97.496L40.846 99.5156C41.0294 99.5564 41.1449 99.7363 41.1042 99.9196C41.0702 100.079 40.9275 100.188 40.7713 100.188V100.184Z" fill="black"/>
<path d="M82.8483 90.5035C82.4577 90.5035 82.0602 90.4254 81.6764 90.2659C80.1445 89.6175 79.4277 87.8491 80.0731 86.3182C80.7219 84.7873 82.4916 84.0711 84.0236 84.716C84.7641 85.0283 85.3415 85.6122 85.6438 86.3589C85.9462 87.1057 85.9394 87.9237 85.6269 88.6637C85.1411 89.811 84.0202 90.5035 82.8449 90.5035H82.8483ZM81.9448 89.6413C83.1302 90.1437 84.5025 89.587 85.0052 88.4024C85.2498 87.8287 85.2532 87.1939 85.0188 86.6169C84.7845 86.0398 84.3395 85.5884 83.7654 85.344C82.58 84.8416 81.2077 85.3983 80.7049 86.583C80.2022 87.7676 80.7593 89.1389 81.9448 89.6413Z" fill="black"/>
<path d="M67.7129 96.5998C67.5974 96.5998 67.4853 96.5421 67.4207 96.4335C67.3256 96.274 67.3766 96.0635 67.5396 95.9685L80.2911 88.3956C80.4508 88.3005 80.6614 88.3514 80.7565 88.5144C80.8516 88.6739 80.8007 88.8844 80.6376 88.9794L67.8861 96.5523C67.8317 96.5863 67.7706 96.5998 67.7129 96.5998Z" fill="black"/>
<path d="M68.7015 83.6808C68.5691 83.6808 68.4332 83.6706 68.3007 83.6468C67.01 83.4296 66.1404 82.2042 66.3578 80.9143C66.5752 79.6245 67.8048 78.7555 69.0922 78.9727C69.7172 79.078 70.2641 79.4208 70.6309 79.9367C70.9978 80.4527 71.1404 81.0807 71.0351 81.7052C70.9298 82.3298 70.5868 82.8763 70.0704 83.2429C69.6662 83.5314 69.1907 83.6808 68.7015 83.6808ZM68.6948 79.6177C67.8863 79.6177 67.1662 80.2015 67.0269 81.0263C66.9522 81.471 67.0541 81.9191 67.3157 82.2891C67.5772 82.6591 67.9678 82.9001 68.4128 82.9781C68.8578 83.0528 69.3062 82.951 69.6764 82.6896C70.0433 82.4282 70.2878 82.0379 70.366 81.5932C70.4441 81.1485 70.3388 80.7005 70.0772 80.3305C69.8157 79.9639 69.4251 79.7195 68.9801 79.6414C68.885 79.6245 68.7899 79.6177 68.6948 79.6177Z" fill="black"/>
<path d="M64.2148 92.3059C64.174 92.3059 64.1298 92.2991 64.0891 92.2821C63.9158 92.2109 63.8309 92.014 63.9023 91.8409L67.4349 83.0833C67.5062 82.9102 67.7033 82.8253 67.8765 82.8966C68.0497 82.9679 68.1346 83.1648 68.0633 83.3379L64.5307 92.0954C64.4763 92.2278 64.3506 92.3093 64.2148 92.3093V92.3059Z" fill="black"/>
<path d="M80.2861 114.549C79.9736 114.549 79.6611 114.502 79.3588 114.403C78.5911 114.156 77.9695 113.626 77.5992 112.91C77.2324 112.194 77.1644 111.379 77.4124 110.612C77.6604 109.845 78.1903 109.224 78.907 108.854C79.6237 108.487 80.4389 108.419 81.2066 108.667C81.9743 108.915 82.5959 109.444 82.9661 110.16C83.333 110.877 83.4009 111.691 83.153 112.458C82.905 113.226 82.3751 113.85 81.6584 114.217C81.227 114.437 80.7582 114.549 80.2861 114.549ZM80.2793 109.2C79.9124 109.2 79.5524 109.288 79.2161 109.458C78.6624 109.743 78.2514 110.225 78.0578 110.819C77.8676 111.413 77.9185 112.044 78.2039 112.601C78.4892 113.154 78.9715 113.565 79.566 113.759C80.1604 113.949 80.7922 113.898 81.3493 113.613C81.9029 113.327 82.314 112.845 82.5076 112.251C82.6978 111.657 82.6468 111.026 82.3615 110.469C82.0762 109.916 81.5938 109.505 80.9994 109.312C80.765 109.237 80.5205 109.2 80.2793 109.2Z" fill="black"/>
<path d="M77.6798 111.257C77.6628 111.257 77.6424 111.257 77.6254 111.254L68.6477 109.797C68.4643 109.767 68.3352 109.594 68.3658 109.407C68.3964 109.224 68.5696 109.095 68.7564 109.125L77.7341 110.582C77.9176 110.612 78.0466 110.785 78.0161 110.972C77.9889 111.138 77.8462 111.257 77.6798 111.257Z" fill="black"/>
<path d="M54.4876 97.7708C54.1683 97.7708 53.8456 97.7063 53.5433 97.5739C52.9625 97.3227 52.5141 96.8577 52.2831 96.2705C52.0521 95.6833 52.0623 95.0383 52.3137 94.4579C52.565 93.8774 53.0304 93.4294 53.618 93.1985C54.8341 92.7199 56.2132 93.3174 56.6955 94.5326C56.9265 95.1232 56.9163 95.7647 56.6649 96.3452C56.4136 96.9256 55.9482 97.3737 55.3606 97.6045C55.0787 97.7165 54.7831 97.7708 54.491 97.7708H54.4876ZM54.4876 93.7077C54.2804 93.7077 54.0732 93.745 53.8694 93.8265C53.4482 93.9928 53.1187 94.3119 52.9387 94.726C52.7587 95.1401 52.7519 95.5984 52.9183 96.0193C53.0847 96.4402 53.404 96.7695 53.8184 96.9494C54.2329 97.1293 54.6948 97.1361 55.1126 96.9697C55.5338 96.8034 55.8633 96.4843 56.0433 96.0702C56.2234 95.6561 56.2302 95.1979 56.0637 94.777C55.8022 94.1116 55.1636 93.7077 54.4876 93.7077Z" fill="black"/>
<path d="M55.0693 100.354C54.9062 100.354 54.7602 100.235 54.733 100.069L54.3288 97.5671C54.2982 97.3804 54.4239 97.2072 54.6107 97.1767C54.7976 97.1461 54.9708 97.2717 55.0014 97.4584L55.4056 99.9601C55.4361 100.147 55.3105 100.32 55.1236 100.35C55.1067 100.35 55.0863 100.354 55.0693 100.354Z" fill="black"/>
<path d="M43.2213 131.915C42.5216 131.915 41.8524 131.674 41.3055 131.226C40.6839 130.714 40.3001 129.991 40.2254 129.19C40.1472 128.389 40.3884 127.604 40.9013 126.987C41.4142 126.365 42.1378 125.982 42.9394 125.907C43.7444 125.833 44.5257 126.07 45.1439 126.583C45.7655 127.095 46.1493 127.818 46.2241 128.619C46.3803 130.272 45.1643 131.746 43.51 131.905C43.4115 131.915 43.3164 131.919 43.2179 131.919L43.2213 131.915ZM43.0039 126.579C42.3823 126.637 41.8218 126.936 41.4244 127.418C41.027 127.9 40.8402 128.504 40.9013 129.125C40.9625 129.746 41.258 130.306 41.7403 130.704C42.2227 131.101 42.8273 131.284 43.4489 131.226C44.7295 131.104 45.6738 129.964 45.5515 128.68C45.4938 128.059 45.1948 127.499 44.7125 127.102C44.2302 126.705 43.6221 126.522 43.0039 126.579Z" fill="black"/>
<path d="M44.7597 127.051C44.7019 127.051 44.6408 127.034 44.5865 127.004C44.4268 126.909 44.3725 126.698 44.471 126.539L52.0899 113.823C52.185 113.664 52.3957 113.609 52.5553 113.708C52.7149 113.803 52.7693 114.013 52.6708 114.173L45.0518 126.888C44.9873 126.993 44.8752 127.055 44.7597 127.055V127.051Z" fill="black"/>
<path d="M44.576 105.687C43.2683 105.687 42.2051 104.624 42.2051 103.317C42.2051 102.01 43.2683 100.948 44.576 100.948C45.8838 100.948 46.947 102.01 46.947 103.317C46.947 104.624 45.8838 105.687 44.576 105.687ZM44.576 101.627C43.6419 101.627 42.8844 102.384 42.8844 103.317C42.8844 104.251 43.6419 105.008 44.576 105.008C45.5101 105.008 46.2676 104.251 46.2676 103.317C46.2676 102.384 45.5101 101.627 44.576 101.627Z" fill="black"/>
<path d="M51.2234 105.279C51.1996 105.279 51.1759 105.279 51.1521 105.272L46.5359 104.264C46.3524 104.224 46.237 104.044 46.2777 103.86C46.3185 103.677 46.4985 103.562 46.6819 103.602L51.2982 104.611C51.4816 104.651 51.5971 104.831 51.5563 105.014C51.5223 105.174 51.3797 105.283 51.2234 105.283V105.279Z" fill="black"/>
<path d="M59.1196 77.2858C58.977 77.2858 58.8309 77.2757 58.6848 77.2553C57.8866 77.1399 57.1835 76.7224 56.7011 76.0774C55.7059 74.7468 55.9776 72.8561 57.3091 71.8616C58.6407 70.867 60.5327 71.1386 61.5313 72.4692C62.5266 73.7998 62.2548 75.6905 60.9233 76.685C60.3968 77.0788 59.7684 77.2858 59.123 77.2858H59.1196ZM59.1094 71.9397C58.6237 71.9397 58.1312 72.0924 57.7134 72.4047C56.6841 73.1752 56.4735 74.6416 57.2446 75.6701C57.6182 76.1691 58.1651 76.4915 58.7833 76.5832C59.3982 76.6715 60.0164 76.5153 60.5157 76.1419C61.5483 75.3714 61.7589 73.905 60.9844 72.8765C60.5259 72.2655 59.8228 71.943 59.1128 71.943L59.1094 71.9397Z" fill="black"/>
<path d="M59.0635 92.0989C58.8767 92.0989 58.7238 91.9496 58.7238 91.7629L58.6016 76.9429C58.6016 76.7562 58.751 76.6035 58.9378 76.6001C59.1247 76.6001 59.2775 76.7495 59.2775 76.9361L59.3998 91.7561C59.3998 91.9428 59.2503 92.0955 59.0635 92.0989Z" fill="black"/>
<path d="M46.4677 83.7319C46.359 83.7319 46.2503 83.7251 46.1416 83.7081C45.5132 83.6232 44.9561 83.2974 44.5757 82.795C44.1919 82.2892 44.0288 81.6681 44.1137 81.0401C44.1987 80.4121 44.5248 79.8554 45.0275 79.4753C45.5302 79.0917 46.1552 78.9288 46.7836 79.0136C47.412 79.0985 47.9691 79.4244 48.3529 79.9267C49.1444 80.9688 48.9406 82.4556 47.9012 83.2465C47.4834 83.5621 46.9874 83.7285 46.4711 83.7285L46.4677 83.7319ZM46.4609 79.6688C46.1043 79.6688 45.7442 79.7808 45.4385 80.0116C44.6946 80.5751 44.5519 81.6375 45.1158 82.3809C45.6797 83.1242 46.7429 83.2668 47.4868 82.7033C48.2306 82.1399 48.3733 81.0774 47.8094 80.3341C47.4766 79.8962 46.9704 79.6688 46.4609 79.6688Z" fill="black"/>
<path d="M51.183 92.2551C51.0539 92.2551 50.9316 92.1838 50.8739 92.0583L46.8962 83.4908C46.8181 83.3211 46.8928 83.1174 47.0627 83.0393C47.2325 82.9613 47.4363 83.0325 47.5144 83.2057L51.4921 91.7731C51.5702 91.9428 51.4955 92.1465 51.3256 92.2246C51.2781 92.2449 51.2305 92.2551 51.183 92.2551Z" fill="black"/>
<path d="M28.285 113.222C28.2442 113.222 28.2034 113.222 28.1627 113.222C27.3576 113.192 26.6138 112.849 26.0669 112.258C24.9391 111.04 25.0139 109.129 26.2333 108.002C27.4528 106.875 29.3651 106.95 30.4929 108.168C31.0398 108.759 31.3217 109.526 31.2911 110.33C31.2605 111.135 30.9175 111.878 30.3264 112.425C29.766 112.944 29.0424 113.226 28.2816 113.226L28.285 113.222ZM28.2816 107.876C27.7143 107.876 27.147 108.08 26.6987 108.494C25.7544 109.366 25.6966 110.846 26.5696 111.793C26.9942 112.252 27.5682 112.516 28.1933 112.54C28.8149 112.557 29.4127 112.343 29.8713 111.922C30.3298 111.498 30.5948 110.924 30.6186 110.3C30.6423 109.675 30.4249 109.081 30.0003 108.623C29.5418 108.127 28.9134 107.873 28.285 107.873L28.2816 107.876Z" fill="black"/>
<path d="M30.9536 110.442C30.7837 110.442 30.6343 110.313 30.6173 110.14C30.5969 109.954 30.7294 109.787 30.9162 109.764L45.6548 108.11C45.8383 108.09 46.0081 108.222 46.0319 108.409C46.0557 108.596 45.9198 108.762 45.733 108.786L30.9943 110.439C30.9943 110.439 30.9672 110.439 30.957 110.439L30.9536 110.442Z" fill="black"/>
<path d="M33.6582 123.395C33.0196 123.395 32.381 123.141 31.9157 122.635C31.0291 121.674 31.0868 120.174 32.0481 119.285C33.0094 118.399 34.5108 118.456 35.4007 119.417C35.8321 119.882 36.0529 120.486 36.0291 121.118C36.0054 121.749 35.7336 122.336 35.2683 122.764C34.8131 123.185 34.2356 123.392 33.6582 123.392V123.395ZM33.6548 119.339C33.2438 119.339 32.8328 119.488 32.5067 119.787C31.8205 120.418 31.7798 121.491 32.4116 122.177C33.0468 122.862 34.1168 122.903 34.8029 122.272C35.1358 121.966 35.326 121.549 35.3464 121.097C35.3634 120.646 35.2037 120.215 34.898 119.882C34.5651 119.522 34.11 119.339 33.6548 119.339Z" fill="black"/>
<path d="M35.5674 120.442C35.4519 120.442 35.3365 120.381 35.2753 120.276C35.1802 120.113 35.2346 119.906 35.3976 119.811L43.5465 115.031C43.7095 114.936 43.9167 114.991 44.0118 115.154C44.1069 115.317 44.0526 115.524 43.8895 115.619L35.7407 120.398C35.6863 120.428 35.6286 120.445 35.5674 120.445V120.442Z" fill="black"/>
<path d="M80.4617 103.127C79.514 103.127 78.6207 102.557 78.2538 101.627C78.0228 101.04 78.033 100.395 78.2844 99.8145C78.5357 99.2341 79.0011 98.786 79.5887 98.5552C80.8048 98.0766 82.1839 98.674 82.6628 99.8926C82.8938 100.48 82.8836 101.125 82.6323 101.705C82.3809 102.286 81.9155 102.734 81.3279 102.965C81.0426 103.077 80.7504 103.131 80.4617 103.131V103.127ZM80.4583 99.0678C80.2511 99.0678 80.0439 99.1051 79.8401 99.1866C79.4189 99.3529 79.0894 99.672 78.9094 100.086C78.7294 100.5 78.7226 100.958 78.8856 101.379C79.2287 102.245 80.2137 102.673 81.0799 102.333C81.5011 102.167 81.8306 101.848 82.0106 101.434C82.1907 101.02 82.1975 100.561 82.0344 100.14C81.7729 99.4751 81.1343 99.0678 80.4583 99.0678Z" fill="black"/>
<path d="M69.0147 102.774C68.8516 102.774 68.7056 102.656 68.6784 102.489C68.6478 102.306 68.7735 102.129 68.9603 102.099L78.2913 100.595C78.4747 100.565 78.6513 100.69 78.6819 100.877C78.7125 101.06 78.5868 101.237 78.4 101.267L69.069 102.771C69.0521 102.771 69.0317 102.774 69.0147 102.774Z" fill="black"/>
<path d="M73.3522 132.027C72.9616 132.027 72.5641 131.949 72.1803 131.79C71.4398 131.478 70.8624 130.894 70.56 130.147C70.2577 129.4 70.2645 128.582 70.577 127.842C71.2258 126.311 72.9955 125.595 74.5275 126.24C75.268 126.552 75.8454 127.136 76.1477 127.883C76.4501 128.63 76.4433 129.448 76.1308 130.188C75.645 131.335 74.5241 132.027 73.3488 132.027H73.3522ZM73.3624 126.681C72.452 126.681 71.5859 127.218 71.2088 128.107C70.9643 128.681 70.9609 129.315 71.1952 129.892C71.4296 130.469 71.8746 130.921 72.4486 131.165C73.6341 131.664 75.0064 131.111 75.5091 129.926C75.7537 129.353 75.7571 128.718 75.5227 128.141C75.2884 127.564 74.8434 127.112 74.2693 126.868C73.9738 126.742 73.6647 126.685 73.3624 126.685V126.681Z" fill="black"/>
<path d="M72.1583 126.963C72.0428 126.963 71.9307 126.905 71.8661 126.797L64.2879 114.054C64.1928 113.894 64.2438 113.684 64.4068 113.589C64.5665 113.494 64.7771 113.545 64.8722 113.708L72.4504 126.45C72.5455 126.61 72.4945 126.82 72.3315 126.915C72.2772 126.949 72.216 126.963 72.1583 126.963Z" fill="black"/>
<path d="M60.0836 128.993C59.1393 128.993 58.2425 128.422 57.8757 127.492C57.3967 126.277 57.998 124.899 59.214 124.42C60.4301 123.942 61.8092 124.542 62.2881 125.758C62.5191 126.345 62.5089 126.99 62.2575 127.57C62.0062 128.151 61.5408 128.599 60.9532 128.83C60.6678 128.942 60.3757 128.996 60.087 128.996L60.0836 128.993ZM59.4586 125.052C58.589 125.394 58.161 126.379 58.5041 127.244C58.8472 128.11 59.8322 128.538 60.6984 128.198C61.1196 128.032 61.4491 127.713 61.6291 127.299C61.8092 126.885 61.8159 126.426 61.6529 126.005C61.3098 125.14 60.3282 124.709 59.4586 125.052Z" fill="black"/>
<path d="M59.9081 124.848C59.7451 124.848 59.599 124.729 59.5718 124.563L58.0671 115.238C58.0365 115.055 58.1622 114.879 58.349 114.848C58.5324 114.818 58.7091 114.943 58.7396 115.13L60.2444 124.454C60.275 124.641 60.1493 124.814 59.9625 124.845C59.9455 124.845 59.9251 124.848 59.9081 124.848Z" fill="black"/>
<path d="M57.5016 113.755C57.2299 113.755 56.9581 113.708 56.6966 113.613C56.1021 113.399 55.6232 112.964 55.3548 112.391C55.0865 111.817 55.0559 111.175 55.2699 110.578C55.4839 109.984 55.9187 109.505 56.4928 109.237C57.0668 108.969 57.7088 108.939 58.3066 109.152C58.9011 109.366 59.38 109.801 59.6484 110.374C59.9167 110.948 59.9473 111.59 59.7333 112.187C59.5193 112.781 59.0845 113.26 58.5104 113.528C58.1911 113.677 57.8481 113.755 57.5016 113.755ZM57.4982 109.692C57.2536 109.692 57.0091 109.746 56.7781 109.855C56.3705 110.049 56.058 110.388 55.9051 110.812C55.7523 111.237 55.7726 111.695 55.9663 112.106C56.1599 112.516 56.4995 112.825 56.9241 112.978C57.3487 113.131 57.8073 113.107 58.2183 112.917C58.6259 112.723 58.9384 112.384 59.0913 111.96C59.2441 111.535 59.2238 111.077 59.0302 110.666C58.8365 110.256 58.4969 109.947 58.0723 109.794C57.8854 109.726 57.6918 109.692 57.4982 109.692Z" fill="black"/>
<path d="M57.1888 109.624C57.0326 109.624 56.8933 109.519 56.8593 109.36L56.2955 106.888C56.2547 106.705 56.3668 106.525 56.5502 106.481C56.7337 106.437 56.9137 106.552 56.9578 106.736L57.5217 109.207C57.5625 109.39 57.4504 109.57 57.2669 109.614C57.2398 109.621 57.216 109.624 57.1922 109.624H57.1888Z" fill="black"/>
<path d="M66.8809 105.222C65.6411 105.222 64.5949 104.258 64.5168 103.002C64.476 102.37 64.6832 101.759 65.1044 101.284C65.5222 100.809 66.1031 100.524 66.7349 100.483C67.3667 100.446 67.9781 100.649 68.4536 101.067C68.9292 101.484 69.2145 102.062 69.2553 102.696C69.296 103.328 69.0888 103.939 68.6676 104.414C68.2498 104.889 67.6724 105.174 67.0372 105.215C66.9862 105.215 66.9353 105.218 66.8843 105.218L66.8809 105.222ZM65.1927 102.958C65.2539 103.888 66.0589 104.597 66.9896 104.536C67.4414 104.505 67.8524 104.305 68.1513 103.966C68.4502 103.626 68.5997 103.192 68.5691 102.74C68.5419 102.289 68.3381 101.878 67.9985 101.579C67.6588 101.281 67.224 101.135 66.7722 101.162C66.3205 101.193 65.9094 101.393 65.6105 101.732C65.3116 102.072 65.1622 102.506 65.1927 102.958Z" fill="black"/>
<path d="M64.8172 102.707C64.8002 102.707 64.7832 102.707 64.7662 102.704L60.0957 101.991C59.9088 101.964 59.7832 101.79 59.8103 101.603C59.8375 101.417 60.0141 101.291 60.1976 101.318L64.8681 102.031C65.055 102.059 65.1806 102.232 65.1535 102.419C65.1263 102.589 64.9836 102.707 64.8172 102.707Z" fill="black"/>
<path d="M36.9327 56.4809C43.8412 54.3887 47.7444 47.096 45.6507 40.1924C43.557 33.2887 36.2593 29.3882 29.3508 31.4805C22.4423 33.5727 18.5391 40.8653 20.6328 47.769C22.7265 54.6727 30.0242 58.5731 36.9327 56.4809Z" fill="#FED101"/>
<path d="M27.2464 25.9693C26.781 26.8383 25.7008 27.1641 24.8346 26.6991C23.9651 26.2341 23.639 25.1546 24.1043 24.2891C24.5697 23.4201 25.6499 23.0942 26.516 23.5593C27.3856 24.0243 27.7117 25.1037 27.2464 25.9693Z" fill="black"/>
<path d="M30.5778 36.044C30.4521 36.044 30.3298 35.9727 30.2721 35.8505L26.0159 26.9368C25.9344 26.7671 26.0057 26.5634 26.1755 26.4854C26.3454 26.4039 26.5492 26.4752 26.6273 26.6449L30.8835 35.5586C30.965 35.7283 30.8937 35.932 30.7238 36.0101C30.6763 36.0338 30.6253 36.044 30.5778 36.044Z" fill="black"/>
<path d="M21.2186 31.509C20.8653 32.1675 20.0467 32.4153 19.3843 32.0657C18.7219 31.716 18.4774 30.8946 18.8272 30.2327C19.1771 29.5708 19.9991 29.3264 20.6615 29.676C21.3205 30.029 21.5684 30.8471 21.2186 31.509Z" fill="black"/>
<path d="M25.8188 36.2952C25.7407 36.2952 25.6625 36.2681 25.598 36.2138L20.8085 32.1269C20.6659 32.0047 20.6489 31.7909 20.7712 31.6483C20.8935 31.5057 21.1074 31.4888 21.2501 31.611L26.0396 35.6978C26.1822 35.82 26.1992 36.0339 26.0769 36.1764C26.009 36.2545 25.9139 36.2952 25.8188 36.2952Z" fill="black"/>
<path d="M53.0539 43.0328C52.4357 42.269 52.5546 41.1455 53.3188 40.5277C54.0831 39.9099 55.2074 40.0287 55.8257 40.7925C56.4439 41.5562 56.325 42.6798 55.5607 43.2976C54.7964 43.9153 53.6721 43.7965 53.0539 43.0328Z" fill="black"/>
<path d="M42.7813 42.6501C42.6013 42.6501 42.4518 42.5074 42.4416 42.324C42.4348 42.1372 42.5775 41.9775 42.7643 41.9707L52.6388 41.5258C52.8188 41.5122 52.9852 41.6616 52.992 41.8485C52.9988 42.0353 52.8562 42.1949 52.6693 42.2017L42.7949 42.6467C42.7949 42.6467 42.7847 42.6467 42.7779 42.6467L42.7813 42.6501Z" fill="black"/>
<path d="M47.2262 34.9034C46.6352 34.4451 46.5265 33.5965 46.9851 33.0059C47.4436 32.4153 48.2928 32.3067 48.8839 32.7649C49.4749 33.2231 49.5836 34.0717 49.125 34.6624C48.6665 35.253 47.8173 35.3616 47.2262 34.9034Z" fill="black"/>
<path d="M42.0706 39.031C41.9721 39.031 41.877 38.9902 41.8091 38.9088C41.6902 38.7662 41.7072 38.5524 41.8532 38.4302L46.6868 34.3942C46.8295 34.2754 47.0435 34.2924 47.1658 34.4383C47.2847 34.5809 47.2677 34.7948 47.1216 34.917L42.288 38.9529C42.2235 39.0072 42.1453 39.031 42.0706 39.031Z" fill="black"/>
<path d="M43.5803 55.2051C43.5973 54.2208 44.4092 53.4367 45.3942 53.4536C46.3793 53.4706 47.1639 54.2819 47.147 55.2662C47.13 56.2506 46.3182 57.0347 45.3331 57.0178C44.348 57.0008 43.5634 56.1895 43.5803 55.2051Z" fill="black"/>
<path d="M44.0258 54.3974C43.9545 54.3974 43.8832 54.3736 43.8186 54.3261L38.9986 50.65C38.8491 50.538 38.822 50.3241 38.9341 50.1748C39.0495 50.0254 39.2601 49.9983 39.4096 50.1103L44.2296 53.7864C44.3791 53.9018 44.4063 54.1123 44.2942 54.2616C44.2262 54.3499 44.1277 54.394 44.0224 54.394L44.0258 54.3974Z" fill="black"/>
<path d="M35.1236 38.9971C34.3797 38.9122 33.8498 38.2401 33.9347 37.4968C34.0196 36.7534 34.6922 36.2239 35.4361 36.3087C36.18 36.3936 36.7099 37.0657 36.625 37.8091C36.54 38.5524 35.8675 39.082 35.1236 38.9971Z" fill="black"/>
<path d="M34.166 40.8879C34.1286 40.8879 34.0912 40.8811 34.0573 40.8709C33.8806 40.8098 33.7855 40.6163 33.8467 40.4398L34.3969 38.841C34.4581 38.6645 34.6517 38.5695 34.8283 38.6306C35.005 38.6917 35.1001 38.8852 35.0389 39.0617L34.4887 40.6604C34.4411 40.803 34.3086 40.8913 34.166 40.8913V40.8879Z" fill="black"/>
<path d="M18.8118 52.1605C19.7188 52.5407 20.1501 53.5828 19.7697 54.4925C19.3893 55.3988 18.3465 55.8299 17.4361 55.4497C16.5292 55.0695 16.0978 54.0274 16.4782 53.1177C16.8587 52.2114 17.9015 51.7803 18.8118 52.1605Z" fill="black"/>
<path d="M19.715 53.3417C19.5995 53.3417 19.4874 53.284 19.4228 53.1753C19.3277 53.0158 19.3787 52.8054 19.5383 52.7103L28.0167 47.6289C28.1763 47.5305 28.3869 47.5848 28.482 47.7443C28.5771 47.9038 28.5262 48.1143 28.3665 48.2093L19.8882 53.2908C19.8338 53.3247 19.7727 53.3383 19.715 53.3383V53.3417Z" fill="black"/>
<path d="M28.1561 39.8318C27.8028 40.4903 26.9842 40.7381 26.3218 40.3885C25.6594 40.0389 25.4149 39.2174 25.7647 38.5555C26.118 37.897 26.9366 37.6492 27.599 37.9988C28.258 38.3518 28.5059 39.1699 28.1561 39.8318Z" fill="black"/>
<path d="M30.3557 42.5746C30.2776 42.5746 30.1994 42.5474 30.1349 42.4931L27.7402 40.4497C27.5975 40.3275 27.5805 40.1136 27.7028 39.971C27.8251 39.8285 28.0391 39.8115 28.1818 39.9337L30.5765 41.9771C30.7191 42.0993 30.7361 42.3132 30.6138 42.4557C30.5459 42.5338 30.4508 42.5746 30.3557 42.5746Z" fill="black"/>
<path d="M44.9115 28.4505C43.9366 28.5999 43.0297 27.9312 42.8802 26.957C42.7308 25.9828 43.4 25.0765 44.3748 24.9271C45.3497 24.7778 46.2566 25.4465 46.4061 26.4206C46.5556 27.3948 45.8864 28.3011 44.9115 28.4505Z" fill="black"/>
<path d="M39.112 37.293C39.0576 37.293 39.0067 37.2794 38.9557 37.2557C38.7893 37.1674 38.7247 36.9638 38.813 36.7974L43.4021 28.0501C43.4904 27.8837 43.6942 27.8192 43.8606 27.9075C44.0271 27.9957 44.0916 28.1994 44.0033 28.3657L39.4143 37.1131C39.3531 37.2285 39.2342 37.2964 39.112 37.2964V37.293Z" fill="black"/>
<path d="M35.1928 28.2164C34.4557 28.3352 33.7593 27.8328 33.6405 27.0928C33.5216 26.3562 34.0243 25.6604 34.7648 25.5416C35.5019 25.4228 36.1982 25.9251 36.3171 26.6651C36.436 27.4051 35.9333 28.0975 35.1928 28.2164Z" fill="black"/>
<path d="M34.43 34.9068C34.43 34.9068 34.4164 34.9068 34.4097 34.9068C34.2228 34.8966 34.0802 34.737 34.0904 34.5504L34.447 28.2673C34.4572 28.0806 34.6135 27.9414 34.8071 27.9482C34.9939 27.9584 35.1366 28.118 35.1264 28.3046L34.7697 34.5877C34.7595 34.7676 34.6101 34.9068 34.43 34.9068Z" fill="black"/>
<path d="M16.9451 37.6765C17.1931 38.6303 16.6224 39.6011 15.6713 39.8489C14.7168 40.0967 13.7454 39.5264 13.4974 38.5726C13.2494 37.6188 13.8201 36.648 14.7746 36.4002C15.7291 36.1524 16.7006 36.7227 16.9485 37.6731L16.9451 37.6765Z" fill="black"/>
<path d="M26.0071 42.9004C25.9664 42.9004 25.9222 42.8936 25.8815 42.8767L16.7 39.2175C16.5267 39.1496 16.4418 38.9493 16.5097 38.7762C16.5777 38.6031 16.7781 38.5182 16.9513 38.5861L26.1328 42.2453C26.306 42.3132 26.391 42.5135 26.323 42.6866C26.2687 42.819 26.143 42.9004 26.0071 42.9004Z" fill="black"/>
<path d="M16.2827 45.8298C16.473 46.5528 16.0382 47.2928 15.3147 47.4794C14.5911 47.6695 13.8506 47.235 13.6638 46.512C13.4736 45.789 13.9084 45.0491 14.6319 44.8624C15.3554 44.6757 16.0959 45.1068 16.2827 45.8298Z" fill="black"/>
<path d="M16.3848 46.567C16.2048 46.567 16.0519 46.4244 16.0451 46.2409C16.0384 46.0541 16.1844 45.8945 16.3712 45.8877L22.6655 45.6397C22.8557 45.6193 23.0119 45.779 23.0187 45.9658C23.0255 46.1526 22.8795 46.3123 22.6926 46.3191L16.3984 46.567C16.3984 46.567 16.3882 46.567 16.3848 46.567Z" fill="black"/>
<path d="M47.5148 48.8034C47.5997 48.06 48.2723 47.5305 49.0162 47.6154C49.7601 47.7002 50.29 48.3723 50.205 49.1157C50.1201 49.8591 49.4476 50.3886 48.7037 50.3037C47.9598 50.2189 47.4299 49.5468 47.5148 48.8034Z" fill="black"/>
<path d="M47.5614 48.7356C47.5241 48.7356 47.4867 48.7288 47.4493 48.7186L41.4948 46.6718C41.3181 46.6107 41.223 46.4172 41.2842 46.2407C41.3453 46.0642 41.5389 45.9692 41.7156 46.0303L47.6701 48.0771C47.8467 48.1382 47.9419 48.3317 47.8807 48.5082C47.8332 48.6473 47.7007 48.7356 47.558 48.7356H47.5614Z" fill="black"/>
<path d="M34.6765 61.9498C35.4442 61.3321 36.5651 61.4509 37.1833 62.2146C37.8015 62.9783 37.6826 64.1019 36.9184 64.7197C36.1541 65.3375 35.0298 65.2186 34.4115 64.4549C33.7933 63.6878 33.9122 62.5676 34.6765 61.9498Z" fill="black"/>
<path d="M35.8437 61.8922C35.6637 61.8922 35.5142 61.7496 35.504 61.5663L35.0591 51.6988C35.0523 51.5121 35.1949 51.3526 35.3818 51.3458C35.5584 51.3288 35.7282 51.4815 35.735 51.6682L36.18 61.5358C36.1868 61.7225 36.0441 61.882 35.8573 61.8888C35.8505 61.8888 35.8471 61.8888 35.8403 61.8888L35.8437 61.8922Z" fill="black"/>
<path d="M28.897 56.4169C29.6409 56.5017 30.1708 57.1738 30.0859 57.9172C30.001 58.6606 29.3284 59.1901 28.5845 59.1053C27.8406 59.0204 27.3107 58.3483 27.3957 57.6049C27.4806 56.8616 28.1531 56.332 28.897 56.4169Z" fill="black"/>
<path d="M29.3061 56.8039C29.2687 56.8039 29.2314 56.7971 29.194 56.787C29.0174 56.7259 28.9222 56.5324 28.9834 56.3559L31.0316 50.4021C31.0928 50.2256 31.2864 50.1305 31.463 50.1916C31.6397 50.2527 31.7348 50.4462 31.6736 50.6227L29.6254 56.5765C29.5778 56.7157 29.4454 56.8039 29.3027 56.8039H29.3061Z" fill="black"/>
<path d="M32.0851 46.6414C32.8324 46.6787 33.4065 47.3169 33.3691 48.0636C33.3317 48.8104 32.6932 49.3841 31.9459 49.3467C31.1986 49.3094 30.6245 48.6712 30.6619 47.9245C30.6992 47.1777 31.3378 46.604 32.0851 46.6414Z" fill="black"/>
<path d="M32.4927 47.0011C32.4622 47.0011 32.4316 46.9977 32.4044 46.9875C32.2244 46.9366 32.1157 46.7499 32.1666 46.57L32.6116 44.9407C32.6626 44.7608 32.8494 44.6555 33.0294 44.7031C33.2094 44.754 33.3181 44.9407 33.2672 45.1206L32.8222 46.7499C32.7815 46.8992 32.6456 47.0011 32.4961 47.0011H32.4927Z" fill="black"/>
<path d="M38.9826 45.3651C39.2917 44.6862 40.0968 44.3841 40.7761 44.693C41.4555 45.0019 41.7578 45.8064 41.4487 46.4852C41.1396 47.1641 40.3345 47.4662 39.6552 47.1573C38.9758 46.8484 38.6735 46.044 38.9826 45.3651Z" fill="black"/>
<path d="M39.1488 45.3312C39.0775 45.3312 39.0061 45.3108 38.945 45.2633L36.4246 43.376C36.2751 43.264 36.2445 43.0501 36.3566 42.9008C36.4687 42.7514 36.6827 42.7209 36.8322 42.8329L39.3526 44.7202C39.5021 44.8322 39.5326 45.0461 39.4205 45.1954C39.3526 45.2837 39.2507 45.3312 39.1488 45.3312Z" fill="black"/>
<path d="M239.186 174.943L239.104 168.758L191.203 169.383L191.284 175.567C191.335 179.522 188.842 183.161 184.864 184.939C182.687 185.913 181.325 187.902 181.352 190.065L182.354 266.697C182.398 269.972 185.421 272.589 189.107 272.542L243.904 271.826C247.589 271.778 250.544 269.083 250.5 265.807L249.498 189.175C249.471 187.013 248.055 185.058 245.853 184.141C241.828 182.468 239.24 178.894 239.189 174.943H239.186Z" fill="white"/>
<path d="M189.003 272.881C185.181 272.881 182.056 270.129 182.012 266.7L181.01 190.068C180.98 187.784 182.437 185.649 184.723 184.627C188.551 182.916 190.993 179.359 190.942 175.571L190.861 169.39C190.861 169.301 190.895 169.213 190.956 169.149C191.021 169.084 191.105 169.047 191.194 169.047L239.095 168.422C239.296 168.429 239.438 168.571 239.438 168.758L239.52 174.939C239.571 178.731 242.101 182.22 245.974 183.833C248.287 184.793 249.798 186.891 249.829 189.176L250.831 265.808C250.851 267.491 250.138 269.08 248.82 270.281C247.512 271.473 245.766 272.145 243.898 272.169L189.101 272.885C189.067 272.885 189.033 272.885 188.996 272.885L189.003 272.881ZM191.544 169.722L191.622 175.564C191.676 179.627 189.074 183.429 184.998 185.252C182.96 186.161 181.659 188.052 181.686 190.065L182.688 266.697C182.729 269.752 185.552 272.206 188.999 272.206C189.03 272.206 189.064 272.206 189.095 272.206L243.891 271.49C245.59 271.466 247.179 270.862 248.365 269.779C249.537 268.71 250.175 267.301 250.155 265.814L249.153 189.182C249.126 187.169 247.777 185.316 245.715 184.457C241.592 182.743 238.895 179.009 238.844 174.946L238.766 169.104L191.544 169.722Z" fill="black"/>
<path d="M190.606 155.897L239.526 155.257C241.377 155.233 242.901 156.717 242.925 158.567L243.095 171.559L187.464 172.287L187.294 159.295C187.27 157.445 188.755 155.921 190.606 155.897Z" fill="white"/>
<path d="M187.461 172.631C187.373 172.631 187.288 172.597 187.224 172.536C187.159 172.475 187.122 172.387 187.122 172.299L186.952 159.305C186.938 158.317 187.312 157.387 188.001 156.681C188.691 155.975 189.615 155.578 190.6 155.564L239.52 154.926C241.555 154.906 243.236 156.535 243.264 158.572L243.433 171.565C243.433 171.752 243.287 171.908 243.097 171.908L187.468 172.635H187.465L187.461 172.631ZM239.568 155.601C239.568 155.601 239.541 155.601 239.527 155.601L190.607 156.24C189.802 156.25 189.048 156.572 188.484 157.149C187.92 157.726 187.618 158.487 187.628 159.291L187.794 171.946L242.744 171.226L242.577 158.572C242.557 156.922 241.205 155.598 239.561 155.598L239.568 155.601Z" fill="black"/>
<path d="M192.818 169.705C192.631 169.705 192.481 169.556 192.478 169.369L192.342 159.064C192.342 158.877 192.488 158.721 192.678 158.721H192.682C192.869 158.721 193.018 158.87 193.021 159.057L193.157 169.362C193.157 169.549 193.011 169.705 192.821 169.705H192.818Z" fill="black"/>
<path d="M200.226 169.607C200.039 169.607 199.89 169.457 199.886 169.271L199.75 158.965C199.75 158.779 199.896 158.623 200.087 158.623H200.09C200.277 158.623 200.426 158.772 200.43 158.959L200.565 169.264C200.565 169.451 200.419 169.607 200.229 169.607H200.226Z" fill="black"/>
<path d="M207.634 169.512C207.447 169.512 207.298 169.363 207.294 169.176L207.158 158.87C207.158 158.684 207.305 158.528 207.495 158.528H207.498C207.685 158.528 207.834 158.677 207.838 158.864L207.974 169.169C207.974 169.356 207.828 169.512 207.637 169.512H207.634Z" fill="black"/>
<path d="M215.042 169.413C214.855 169.413 214.706 169.264 214.703 169.077L214.567 158.772C214.567 158.585 214.713 158.429 214.903 158.429H214.906C215.093 158.429 215.243 158.578 215.246 158.765L215.382 169.07C215.382 169.257 215.236 169.413 215.046 169.413H215.042Z" fill="black"/>
<path d="M222.454 169.318C222.267 169.318 222.118 169.169 222.115 168.982L221.979 158.677C221.979 158.49 222.125 158.334 222.315 158.334H222.318C222.505 158.334 222.655 158.483 222.658 158.67L222.794 168.975C222.794 169.162 222.648 169.318 222.458 169.318H222.454Z" fill="black"/>
<path d="M229.863 169.22C229.676 169.22 229.526 169.071 229.523 168.884L229.387 158.578C229.387 158.392 229.533 158.236 229.723 158.236H229.727C229.913 158.236 230.063 158.385 230.066 158.572L230.202 168.877C230.202 169.064 230.056 169.22 229.866 169.22H229.863Z" fill="black"/>
<path d="M237.271 169.125C237.084 169.125 236.934 168.976 236.931 168.789L236.795 158.483C236.795 158.297 236.941 158.141 237.131 158.141H237.135C237.322 158.141 237.471 158.29 237.475 158.477L237.61 168.782C237.61 168.969 237.464 169.125 237.274 169.125H237.271Z" fill="black"/>
<path d="M203.487 201.124L190.882 204.525C187.584 205.415 185.634 208.809 186.524 212.105C187.414 215.401 190.811 217.349 194.109 216.46L206.714 213.059L203.491 201.124H203.487Z" fill="#FFDD00"/>
<path d="M192.494 217.013C189.617 217.013 186.978 215.095 186.193 212.193C185.256 208.724 187.317 205.136 190.792 204.199L203.398 200.798C203.581 200.75 203.765 200.856 203.816 201.039L207.039 212.974C207.087 213.154 206.981 213.34 206.801 213.391L194.196 216.792C193.629 216.945 193.058 217.02 192.497 217.02L192.494 217.013ZM203.245 201.541L190.966 204.854C187.854 205.693 186.006 208.907 186.845 212.017C187.684 215.126 190.901 216.972 194.012 216.134L206.292 212.821L203.245 201.545V201.541Z" fill="black"/>
<path d="M196.115 214.464C195.965 214.464 195.83 214.365 195.789 214.213C195.741 214.033 195.847 213.846 196.027 213.795L203.051 211.901C203.231 211.854 203.418 211.959 203.469 212.139C203.516 212.319 203.411 212.505 203.231 212.556L196.207 214.45C196.176 214.457 196.145 214.46 196.118 214.46L196.115 214.464Z" fill="white"/>
<path d="M192.368 215.256C191.631 215.256 190.897 215.13 190.191 214.879C190.014 214.814 189.923 214.62 189.984 214.444C190.048 214.267 190.242 214.175 190.419 214.237C191.54 214.637 192.742 214.682 193.897 214.369L194.495 214.206C194.678 214.158 194.862 214.264 194.912 214.447C194.96 214.627 194.855 214.814 194.675 214.865L194.077 215.028C193.513 215.181 192.942 215.256 192.372 215.256H192.368Z" fill="white"/>
<path d="M203.487 201.124L216.092 197.723C219.39 196.833 222.784 198.782 223.677 202.078C224.567 205.374 222.617 208.765 219.319 209.657L206.714 213.059L203.49 201.124H203.487Z" fill="white"/>
<path d="M206.709 213.395C206.651 213.395 206.59 213.381 206.539 213.351C206.461 213.306 206.404 213.232 206.38 213.144L203.156 201.209C203.109 201.029 203.214 200.842 203.394 200.791L215.999 197.39C217.681 196.935 219.44 197.163 220.952 198.032C222.463 198.901 223.544 200.302 223.999 201.986C224.936 205.455 222.874 209.043 219.4 209.98L206.794 213.381C206.764 213.388 206.736 213.391 206.706 213.391L206.709 213.395ZM203.9 201.362L206.947 212.638L219.226 209.325C222.338 208.486 224.186 205.272 223.347 202.163C222.939 200.656 221.971 199.4 220.616 198.622C219.264 197.845 217.688 197.641 216.179 198.049L203.9 201.362Z" fill="black"/>
<path d="M229.485 230.57L219.094 222.668C216.377 220.601 212.494 221.127 210.425 223.846C208.357 226.561 208.883 230.441 211.604 232.508L221.995 240.411L229.485 230.574V230.57Z" fill="#FFDD00"/>
<path d="M221.991 240.747C221.919 240.747 221.848 240.723 221.787 240.679L211.396 232.777C208.533 230.601 207.976 226.5 210.153 223.639C211.209 222.254 212.741 221.361 214.467 221.127C216.192 220.893 217.908 221.344 219.297 222.4L229.688 230.302C229.759 230.356 229.807 230.438 229.82 230.526C229.834 230.614 229.81 230.706 229.756 230.777L222.266 240.614C222.198 240.703 222.096 240.747 221.994 240.747H221.991ZM215.357 221.745C215.092 221.745 214.827 221.762 214.559 221.799C213.013 222.01 211.637 222.807 210.693 224.05C208.74 226.612 209.239 230.285 211.804 232.234L221.926 239.929L229.005 230.631L218.883 222.936C217.853 222.156 216.624 221.741 215.357 221.741V221.745Z" fill="black"/>
<path d="M220.467 237.413C220.395 237.413 220.324 237.39 220.263 237.345L214.471 232.943C214.322 232.831 214.295 232.617 214.407 232.468C214.519 232.318 214.733 232.291 214.882 232.403L220.674 236.806C220.823 236.918 220.85 237.132 220.738 237.281C220.67 237.369 220.568 237.413 220.467 237.413Z" fill="white"/>
<path d="M213.42 232.054C213.348 232.054 213.277 232.03 213.212 231.986L212.72 231.609C211.66 230.801 210.879 229.708 210.468 228.445C210.41 228.266 210.508 228.075 210.685 228.018C210.862 227.96 211.055 228.058 211.113 228.235C211.48 229.365 212.18 230.346 213.131 231.069L213.627 231.446C213.776 231.558 213.803 231.772 213.691 231.921C213.623 232.01 213.525 232.054 213.42 232.054Z" fill="white"/>
<path d="M229.49 230.57L239.881 238.472C242.598 240.54 243.125 244.416 241.059 247.135C238.991 249.851 235.112 250.377 232.391 248.313L222 240.411L229.49 230.574V230.57Z" fill="white"/>
<path d="M236.119 249.912C234.703 249.912 233.33 249.453 232.182 248.581L221.792 240.679C221.642 240.563 221.615 240.353 221.727 240.204L229.217 230.367C229.271 230.295 229.353 230.248 229.441 230.234C229.529 230.224 229.621 230.248 229.692 230.302L240.083 238.204C241.469 239.26 242.362 240.791 242.597 242.515C242.831 244.24 242.379 245.954 241.323 247.342C240.267 248.727 238.735 249.62 237.009 249.854C236.71 249.895 236.415 249.915 236.119 249.915V249.912ZM222.474 240.343L232.597 248.038C233.84 248.982 235.375 249.385 236.924 249.178C238.47 248.968 239.845 248.17 240.79 246.928C242.743 244.365 242.244 240.692 239.679 238.744L229.557 231.049L222.478 240.346L222.474 240.343Z" fill="black"/>
<path d="M224.57 225.954L236.211 231.12C239.255 232.471 242.821 231.1 244.173 228.058C245.525 225.017 244.153 221.453 241.109 220.102L229.468 214.936L224.57 225.954Z" fill="#FFDD00"/>
<path d="M238.151 220.978C238.104 220.978 238.06 220.968 238.012 220.947L231.528 218.069C231.358 217.994 231.28 217.79 231.355 217.621C231.433 217.451 231.633 217.373 231.803 217.448L238.287 220.326C238.457 220.401 238.535 220.604 238.461 220.774C238.403 220.9 238.281 220.974 238.151 220.974V220.978Z" fill="white"/>
<path d="M242.816 224.216C242.701 224.216 242.589 224.158 242.527 224.053C241.923 223.062 241.043 222.292 239.98 221.82L239.426 221.575C239.256 221.501 239.178 221.297 239.253 221.127C239.328 220.958 239.531 220.879 239.701 220.954L240.255 221.199C241.444 221.728 242.432 222.59 243.108 223.7C243.207 223.86 243.156 224.07 242.996 224.165C242.942 224.199 242.881 224.216 242.82 224.216H242.816Z" fill="white"/>
<path d="M224.571 225.954L212.93 220.788C209.887 219.437 208.514 215.873 209.866 212.831C211.218 209.79 214.785 208.418 217.828 209.769L229.469 214.936L224.571 225.954Z" fill="white"/>
<path d="M224.57 226.293C224.523 226.293 224.478 226.283 224.431 226.263L212.79 221.097C211.234 220.404 210.042 219.152 209.431 217.563C208.819 215.974 208.863 214.247 209.553 212.692C210.242 211.137 211.499 209.946 213.089 209.335C214.679 208.724 216.408 208.768 217.963 209.457L229.604 214.623C229.686 214.661 229.75 214.729 229.784 214.81C229.818 214.895 229.815 214.987 229.777 215.071L224.879 226.09C224.821 226.215 224.699 226.29 224.57 226.29V226.293ZM215.382 209.586C214.692 209.586 213.999 209.715 213.337 209.97C211.917 210.516 210.796 211.582 210.178 212.97C209.56 214.359 209.522 215.903 210.066 217.322C210.613 218.741 211.679 219.861 213.069 220.479L224.397 225.509L229.02 215.112L217.692 210.082C216.951 209.752 216.166 209.589 215.382 209.589V209.586Z" fill="black"/>
<path d="M224.268 199.026L237.226 202.18C240.616 203.004 244.033 200.927 244.859 197.539C245.684 194.152 243.605 190.737 240.215 189.912L227.257 186.759L224.268 199.026Z" fill="#FFDD00"/>
<path d="M237.269 191.351C237.242 191.351 237.215 191.351 237.188 191.341L229.966 189.583C229.783 189.539 229.671 189.355 229.715 189.172C229.759 188.989 229.946 188.877 230.126 188.921L237.347 190.679C237.531 190.723 237.643 190.907 237.599 191.09C237.561 191.246 237.422 191.348 237.269 191.348V191.351Z" fill="white"/>
<path d="M242.679 193.819C242.584 193.819 242.492 193.782 242.424 193.704C241.616 192.794 240.559 192.159 239.374 191.871L238.759 191.721C238.575 191.677 238.463 191.494 238.511 191.311C238.555 191.127 238.739 191.019 238.922 191.063L239.537 191.212C240.858 191.535 242.033 192.241 242.937 193.252C243.063 193.391 243.049 193.609 242.91 193.731C242.845 193.788 242.764 193.816 242.686 193.816L242.679 193.819Z" fill="white"/>
<path d="M224.265 199.026L211.307 195.873C207.917 195.048 205.838 191.633 206.663 188.246C207.489 184.858 210.906 182.781 214.296 183.605L227.254 186.759L224.265 199.026Z" fill="white"/>
<path d="M224.267 199.366C224.239 199.366 224.212 199.366 224.185 199.355L211.226 196.202C207.66 195.333 205.465 191.728 206.332 188.164C207.201 184.6 210.808 182.407 214.375 183.273L227.334 186.426C227.422 186.447 227.497 186.504 227.544 186.579C227.592 186.657 227.606 186.749 227.585 186.837L224.596 199.104C224.559 199.26 224.419 199.362 224.267 199.362V199.366ZM212.802 183.765C210.109 183.765 207.66 185.598 206.994 188.327C206.213 191.528 208.186 194.766 211.389 195.544L224.019 198.616L226.848 187.007L214.219 183.935C213.747 183.819 213.271 183.765 212.806 183.765H212.802Z" fill="black"/>
<path d="M199.39 226.236L189.614 236.215C187.057 238.825 187.101 243.014 189.713 245.57C192.325 248.126 196.517 248.082 199.074 245.472L208.85 235.492L199.39 226.239V226.236Z" fill="#FFDD00"/>
<path d="M194.338 247.793C192.507 247.793 190.781 247.091 189.47 245.808C186.729 243.126 186.681 238.713 189.365 235.974L199.141 225.995C199.273 225.862 199.487 225.859 199.62 225.988L209.08 235.241C209.144 235.305 209.182 235.39 209.182 235.478C209.182 235.57 209.148 235.655 209.083 235.719L199.307 245.699C198.006 247.026 196.267 247.77 194.409 247.787C194.385 247.787 194.358 247.787 194.334 247.787L194.338 247.793ZM199.392 226.714L189.854 236.449C187.432 238.92 187.473 242.902 189.949 245.322C191.148 246.497 192.731 247.131 194.409 247.114C196.087 247.098 197.656 246.429 198.828 245.231L208.366 235.495L199.392 226.718V226.714Z" fill="black"/>
<path d="M199.653 242.566C199.568 242.566 199.483 242.536 199.416 242.468C199.283 242.335 199.28 242.121 199.412 241.989L204.861 236.429C204.993 236.297 205.207 236.293 205.34 236.422C205.472 236.555 205.475 236.769 205.343 236.901L199.894 242.461C199.827 242.529 199.738 242.563 199.653 242.563V242.566Z" fill="white"/>
<path d="M194.534 246.113C194.374 246.113 194.232 246.001 194.201 245.838C194.167 245.655 194.286 245.475 194.469 245.441C195.726 245.2 196.864 244.586 197.761 243.669L198.226 243.194C198.359 243.062 198.573 243.058 198.705 243.187C198.838 243.32 198.841 243.533 198.709 243.669L198.243 244.144C197.248 245.159 195.984 245.838 194.595 246.106C194.575 246.11 194.551 246.113 194.531 246.113H194.534Z" fill="white"/>
<path d="M199.389 226.236L209.165 216.256C211.722 213.646 215.914 213.602 218.526 216.158C221.138 218.714 221.182 222.902 218.625 225.513L208.849 235.492L199.389 226.239V226.236Z" fill="white"/>
<path d="M208.845 235.828C208.76 235.828 208.675 235.798 208.607 235.73L199.147 226.477C199.082 226.412 199.045 226.327 199.045 226.239C199.045 226.147 199.079 226.063 199.143 225.998L208.919 216.019C210.22 214.691 211.959 213.948 213.818 213.931C215.689 213.924 217.432 214.617 218.76 215.917C221.501 218.598 221.549 223.011 218.865 225.75L209.089 235.73C209.021 235.798 208.936 235.832 208.848 235.832L208.845 235.828ZM199.867 226.229L208.841 235.007L218.379 225.272C220.801 222.801 220.761 218.819 218.284 216.399C217.085 215.224 215.492 214.589 213.824 214.606C212.146 214.623 210.577 215.292 209.405 216.49L199.867 226.225V226.229Z" fill="black"/>
<path d="M221.436 252.593L209.765 257.135C206.711 258.323 205.2 261.758 206.392 264.81C207.581 267.861 211.019 269.368 214.072 268.18L225.744 263.639L221.436 252.59V252.593Z" fill="#FFDD00"/>
<path d="M215.747 266.089C215.612 266.089 215.483 266.008 215.432 265.872C215.364 265.699 215.449 265.502 215.625 265.434L222.127 262.902C222.3 262.834 222.497 262.919 222.565 263.095C222.633 263.269 222.548 263.465 222.371 263.533L215.87 266.066C215.829 266.083 215.788 266.089 215.747 266.089Z" fill="white"/>
<path d="M221.438 252.593L233.109 248.052C236.163 246.864 239.6 248.374 240.789 251.422C241.978 254.474 240.466 257.909 237.416 259.097L225.745 263.639L221.438 252.59V252.593Z" fill="white"/>
<path d="M225.742 263.978C225.695 263.978 225.65 263.968 225.606 263.951C225.525 263.914 225.46 263.846 225.426 263.764L221.119 252.716C221.085 252.631 221.089 252.539 221.126 252.454C221.163 252.373 221.231 252.308 221.313 252.274L232.984 247.733C236.208 246.477 239.849 248.079 241.106 251.297C242.363 254.518 240.759 258.157 237.539 259.413L225.868 263.954C225.827 263.971 225.786 263.978 225.746 263.978H225.742ZM221.873 252.783L225.932 263.197L237.288 258.778C240.162 257.661 241.588 254.413 240.471 251.541C239.35 248.669 236.102 247.244 233.229 248.361L221.873 252.78V252.783Z" fill="black"/>
<path d="M201.132 247.227L194.397 257.654C192.634 260.383 193.418 264.022 196.149 265.784C198.88 267.545 202.522 266.761 204.285 264.032L211.02 253.605L201.136 247.227H201.132Z" fill="#FFDD00"/>
<path d="M199.329 267.063C198.144 267.063 196.985 266.724 195.966 266.065C194.57 265.166 193.609 263.774 193.259 262.152C192.909 260.529 193.211 258.866 194.115 257.471L200.851 247.043C200.898 246.969 200.976 246.914 201.065 246.894C201.153 246.877 201.245 246.894 201.32 246.941L211.204 253.319C211.36 253.421 211.408 253.632 211.306 253.788L204.57 264.216C203.67 265.611 202.277 266.571 200.654 266.921C200.212 267.016 199.771 267.063 199.332 267.063H199.329ZM201.235 247.695L194.682 257.837C193.881 259.08 193.609 260.563 193.921 262.009C194.234 263.455 195.09 264.694 196.333 265.499C197.576 266.3 199.061 266.571 200.508 266.259C201.955 265.947 203.195 265.091 203.996 263.849L210.549 253.706L201.235 247.698V247.695Z" fill="black"/>
<path d="M204.214 261.446C204.15 261.446 204.089 261.429 204.031 261.391C203.875 261.29 203.827 261.079 203.929 260.923L207.682 255.112C207.784 254.956 207.995 254.908 208.151 255.01C208.307 255.112 208.355 255.322 208.253 255.478L204.5 261.29C204.435 261.391 204.326 261.446 204.214 261.446Z" fill="white"/>
<path d="M200.393 265.448C200.261 265.448 200.131 265.37 200.08 265.237C200.009 265.064 200.091 264.867 200.264 264.793C201.307 264.361 202.183 263.632 202.798 262.678L203.117 262.182C203.219 262.026 203.43 261.979 203.586 262.08C203.742 262.182 203.79 262.393 203.688 262.549L203.369 263.044C202.679 264.114 201.694 264.932 200.522 265.417C200.481 265.434 200.437 265.444 200.393 265.444V265.448Z" fill="white"/>
<path d="M201.135 247.226L207.871 236.799C209.634 234.07 213.275 233.286 216.006 235.047C218.737 236.809 219.522 240.448 217.759 243.177L211.023 253.605L201.138 247.226H201.135Z" fill="white"/>
<path d="M211.023 253.944C210.958 253.944 210.894 253.927 210.839 253.89L200.955 247.512C200.798 247.41 200.751 247.199 200.853 247.043L207.588 236.616C208.489 235.22 209.881 234.26 211.505 233.91C213.129 233.561 214.793 233.863 216.189 234.766C219.073 236.626 219.902 240.482 218.044 243.364L211.308 253.791C211.26 253.866 211.182 253.92 211.094 253.941C211.07 253.944 211.046 253.947 211.023 253.947V253.944ZM201.607 247.125L210.921 253.133L217.473 242.99C219.131 240.424 218.39 236.989 215.822 235.332C214.579 234.531 213.095 234.26 211.648 234.572C210.201 234.884 208.961 235.74 208.159 236.982L201.607 247.125Z" fill="black"/>
<path d="M98.8164 186.182L58.1162 182.424C58.1162 182.424 45.6602 186.188 41.4211 185.802C38.3266 185.52 34.7634 182.278 28.9481 182.02C21.7096 181.701 16.3223 187.818 16.3223 187.818V145.703C16.3223 145.703 26.0167 139.621 31.7708 140.782C37.5385 141.946 38.4659 146.532 43.8532 147.693C49.6854 148.948 53.0754 144.227 58.4593 145.113C62.8038 145.826 63.7719 150.788 67.8276 151.084C72.437 151.42 73.4731 147.839 78.5954 147.506C83.0248 147.217 88.1302 150.7 91.0684 150.938C94.2749 151.199 101.242 149.186 101.242 149.186L98.8198 186.178L98.8164 186.182Z" fill="black"/>
<path d="M38.0374 272.65L45.4628 222.875L18.1798 242.114C15.3062 244.137 12.0079 245.112 8.74359 245.112C3.59407 245.112 -1.47392 242.695 -4.66689 238.173C-9.88434 230.784 -8.12142 220.563 -0.723234 215.346L28.9612 194.413C43.8799 183.893 62.2836 179.522 80.3443 182.213L143.545 191.629L144.978 193.296L130.61 199.942L158.857 260.912C159.204 261.659 159.601 262.369 160.046 263.034L137.278 233.642L132.084 272.562L38.0374 272.65Z" fill="#FFDD00"/>
<path d="M38.0376 272.99C38.0376 272.99 38.0036 272.99 37.9866 272.987C37.7998 272.959 37.6741 272.786 37.7013 272.6L45.0112 223.608L18.377 242.389C15.5339 244.392 12.2017 245.448 8.74376 245.448C3.30552 245.448 -1.81342 242.8 -4.94525 238.367C-10.2646 230.835 -8.45752 220.384 -0.92007 215.068L28.7644 194.135C43.8291 183.514 62.1649 179.159 80.392 181.877L143.592 191.294C143.674 191.307 143.745 191.348 143.8 191.409L145.233 193.076C145.301 193.157 145.332 193.266 145.308 193.368C145.284 193.473 145.216 193.558 145.118 193.605L131.058 200.109L159.163 260.77C159.5 261.5 159.894 262.196 160.325 262.844C160.427 262.997 160.39 263.201 160.24 263.309C160.091 263.418 159.883 263.387 159.771 263.241L137.502 234.491L132.417 272.606C132.393 272.793 132.22 272.926 132.037 272.898C131.85 272.875 131.721 272.702 131.745 272.518L136.938 233.598C136.955 233.462 137.054 233.35 137.186 233.316C137.319 233.279 137.458 233.33 137.543 233.435L157.961 259.793L130.298 200.088C130.26 200.007 130.257 199.912 130.287 199.83C130.318 199.746 130.382 199.678 130.464 199.64L144.425 193.184L143.368 191.955L80.2935 182.556C62.2362 179.865 44.0771 184.179 29.155 194.698L-0.52944 215.631C-7.76118 220.73 -9.49354 230.76 -4.39158 237.987C-1.38543 242.24 3.52292 244.783 8.74037 244.783C12.059 244.783 15.252 243.768 17.9796 241.846L45.2625 222.607C45.3746 222.529 45.5207 222.525 45.6362 222.597C45.7517 222.668 45.8128 222.8 45.7924 222.936L38.3671 272.712C38.3433 272.881 38.1972 273 38.0308 273L38.0376 272.99Z" fill="black"/>
<path d="M184.783 239.62L161.478 264.874H161.474L161.457 264.854L160.048 263.034C159.603 262.369 159.205 261.659 158.859 260.913L130.611 199.942L144.98 193.296L184.783 239.62Z" fill="white"/>
<path d="M161.475 265.217C161.475 265.217 161.461 265.217 161.454 265.217C161.352 265.21 161.257 265.159 161.196 265.074L159.78 263.241C159.311 262.545 158.903 261.816 158.55 261.055L130.302 200.085C130.265 200.003 130.262 199.908 130.292 199.827C130.323 199.742 130.387 199.674 130.469 199.637L144.837 192.991C144.976 192.926 145.139 192.964 145.238 193.079L185.041 239.402C185.153 239.531 185.15 239.728 185.035 239.854L161.729 265.108C161.665 265.179 161.573 265.22 161.478 265.22L161.475 265.217ZM131.063 200.109L159.168 260.77C159.504 261.5 159.898 262.196 160.33 262.844L161.498 264.351L184.328 239.609L144.888 193.71L131.06 200.105L131.063 200.109Z" fill="black"/>
<path d="M-0.725528 215.686C-0.830828 215.686 -0.936128 215.635 -1.00406 215.543C-1.11276 215.39 -1.0754 215.176 -0.922541 215.071L29.9304 193.313C44.2376 183.225 61.6563 179.087 78.9765 181.67L94.0004 183.907C94.1873 183.934 94.3129 184.108 94.2858 184.294C94.2586 184.481 94.0819 184.606 93.8985 184.579L78.8746 182.342C61.7276 179.786 44.4822 183.88 30.3176 193.87L-0.535308 215.628C-0.59645 215.669 -0.664386 215.689 -0.732321 215.689L-0.725528 215.686Z" fill="#FFDD00"/>
<path d="M82.8292 238.435C80.1797 238.435 77.6423 237.512 75.5941 235.787C73.8685 234.334 72.6321 232.427 72.0207 230.265C71.9697 230.085 72.075 229.898 72.255 229.847C72.4351 229.796 72.6219 229.901 72.6728 230.081C73.2503 232.111 74.4086 233.903 76.0322 235.271C78.1926 237.091 80.9338 237.96 83.7497 237.719C86.5657 237.478 89.1166 236.157 90.9373 233.998C91.4332 233.411 91.8646 232.77 92.2213 232.094C92.3096 231.928 92.5134 231.867 92.6799 231.952C92.8463 232.04 92.9108 232.244 92.8225 232.41C92.4455 233.129 91.9835 233.812 91.457 234.436C89.5209 236.734 86.8034 238.14 83.8075 238.398C83.4814 238.425 83.1553 238.438 82.8292 238.438V238.435Z" fill="black"/>
<path d="M129.053 237.637C125.086 237.637 121.383 235.55 119.342 232.06C119.247 231.897 119.301 231.69 119.464 231.595C119.627 231.5 119.834 231.554 119.929 231.717C122.08 235.394 126.2 237.417 130.425 236.867C133.228 236.504 135.721 235.071 137.447 232.838C139.172 230.601 139.919 227.827 139.559 225.027C139.536 224.84 139.668 224.671 139.851 224.647C140.035 224.627 140.208 224.756 140.232 224.939C140.619 227.919 139.821 230.872 137.983 233.252C136.149 235.631 133.496 237.155 130.514 237.542C130.025 237.607 129.539 237.637 129.057 237.637H129.053Z" fill="black"/>
<path d="M72.0524 164.325L31.8379 213.201L40.5812 220.383L80.7957 171.507C82.7794 169.094 82.4329 165.53 80.0178 163.547C77.6027 161.565 74.0361 161.911 72.0524 164.325Z" fill="white"/>
<path d="M40.5817 220.723C40.507 220.723 40.4288 220.699 40.3677 220.645L31.6244 213.462C31.5565 213.404 31.5123 213.323 31.5021 213.231C31.4919 213.143 31.5191 213.051 31.5768 212.983L71.7913 164.107C73.8905 161.555 77.6779 161.185 80.2357 163.283C82.7901 165.38 83.1603 169.168 81.0611 171.721L40.8466 220.597C40.7787 220.678 40.6836 220.723 40.5851 220.723H40.5817ZM32.3173 213.153L40.5341 219.905L80.5312 171.293C82.3926 169.029 82.0666 165.672 79.8009 163.812C77.5353 161.952 74.1758 162.278 72.3144 164.542L32.3173 213.156V213.153Z" fill="black"/>
<path d="M62.2428 182.519L36.9844 213.218L39.5727 215.343L64.8312 184.644C65.4188 183.931 65.3169 182.875 64.6002 182.288C63.8869 181.701 62.8305 181.802 62.2428 182.519Z" fill="#B9BEC6"/>
<path d="M44.2305 215.964C44.1557 215.964 44.0776 215.94 44.0165 215.886L39.8045 212.424C39.6584 212.305 39.638 212.091 39.7569 211.945C39.8758 211.799 40.0898 211.779 40.2358 211.897L44.4478 215.36C44.5939 215.479 44.6143 215.692 44.4954 215.838C44.4275 215.92 44.3324 215.964 44.2339 215.964H44.2305Z" fill="black"/>
<path d="M47.5698 211.907C47.495 211.907 47.4169 211.884 47.3558 211.829L45.2498 210.098C45.1037 209.979 45.0833 209.766 45.2022 209.62C45.3211 209.474 45.5351 209.453 45.6812 209.572L47.7872 211.303C47.9332 211.422 47.9536 211.636 47.8347 211.782C47.7668 211.863 47.6717 211.907 47.5732 211.907H47.5698Z" fill="black"/>
<path d="M50.9082 207.848C50.8335 207.848 50.7553 207.824 50.6942 207.77L46.4822 204.311C46.3361 204.192 46.3157 203.978 46.4346 203.832C46.5535 203.686 46.7675 203.666 46.9136 203.785L51.1256 207.244C51.2716 207.362 51.292 207.576 51.1731 207.722C51.1052 207.804 51.0101 207.848 50.9116 207.848H50.9082Z" fill="black"/>
<path d="M54.2475 203.791C54.1728 203.791 54.0946 203.768 54.0335 203.713L51.9275 201.982C51.7814 201.863 51.7611 201.65 51.8799 201.504C51.9988 201.358 52.2128 201.337 52.3589 201.456L54.4649 203.187C54.611 203.306 54.6313 203.52 54.5124 203.666C54.4445 203.747 54.3494 203.791 54.2509 203.791H54.2475Z" fill="black"/>
<path d="M57.584 199.735C57.5092 199.735 57.4311 199.711 57.37 199.657L53.158 196.195C53.0119 196.076 52.9915 195.862 53.1104 195.716C53.2293 195.57 53.4433 195.55 53.5894 195.668L57.8014 199.131C57.9474 199.25 57.9678 199.463 57.8489 199.609C57.781 199.691 57.6859 199.735 57.5874 199.735H57.584Z" fill="black"/>
<path d="M60.9233 195.675C60.8485 195.675 60.7704 195.652 60.7093 195.597L58.6033 193.866C58.4572 193.747 58.4368 193.534 58.5557 193.388C58.6746 193.242 58.8886 193.221 59.0347 193.34L61.1407 195.071C61.2867 195.19 61.3071 195.404 61.1882 195.55C61.1203 195.631 61.0252 195.675 60.9267 195.675H60.9233Z" fill="black"/>
<path d="M64.2597 191.619C64.185 191.619 64.1069 191.595 64.0458 191.541L59.8337 188.079C59.6877 187.96 59.6673 187.746 59.7862 187.6C59.9051 187.454 60.1191 187.434 60.2651 187.553L64.4771 191.015C64.6232 191.134 64.6436 191.348 64.5247 191.494C64.4568 191.575 64.3617 191.619 64.2631 191.619H64.2597Z" fill="black"/>
<path d="M77.3398 202.37L81.348 219.08L92.177 216.487L97.8428 215.129L108.59 212.553C109.518 212.329 110.496 212.512 111.28 213.055L112.924 214.189C114.402 215.211 116.45 214.603 117.133 212.94C117.588 211.83 117.283 210.577 116.413 209.79L116.895 208.615C117.449 207.268 116.973 205.713 115.761 204.905L114.844 204.294C115.302 202.984 114.82 201.514 113.651 200.737L112.119 199.715L112.136 199.698C112.384 198.497 111.888 197.234 110.835 196.531L109.477 195.625C106.875 193.891 103.668 193.317 100.628 194.047L90.3835 196.501C86.1341 197.519 85.6653 200.377 83.7835 200.829L77.3398 202.373V202.37Z" fill="#F4AA74"/>
<path d="M114.845 204.634C114.808 204.634 114.77 204.627 114.733 204.613C114.556 204.552 114.461 204.359 114.526 204.182C114.937 203.008 114.498 201.708 113.466 201.019L111.064 199.416C109.213 198.181 106.91 197.77 104.746 198.289L99.4948 199.549C99.3148 199.593 99.128 199.481 99.0838 199.298C99.0397 199.114 99.1518 198.931 99.3352 198.887L104.587 197.628C106.934 197.064 109.434 197.512 111.441 198.85L113.843 200.452C115.137 201.314 115.68 202.94 115.168 204.406C115.12 204.545 114.988 204.634 114.848 204.634H114.845Z" fill="black"/>
<path d="M116.406 210.142C116.362 210.142 116.321 210.136 116.277 210.115C116.104 210.044 116.019 209.847 116.09 209.674L116.576 208.486C117.065 207.291 116.64 205.903 115.567 205.187L112.686 203.265C111.137 202.233 109.215 201.891 107.404 202.322L100.499 203.978C100.315 204.022 100.132 203.91 100.088 203.727C100.044 203.544 100.156 203.36 100.339 203.316L107.245 201.66C109.239 201.185 111.358 201.561 113.06 202.699L115.941 204.62C117.282 205.516 117.812 207.25 117.201 208.741L116.715 209.929C116.661 210.061 116.535 210.139 116.399 210.139L116.406 210.142Z" fill="black"/>
<path d="M81.3469 219.419C81.194 219.419 81.0547 219.314 81.0174 219.158L77.0092 202.447C76.9888 202.359 77.0024 202.268 77.0499 202.189C77.0975 202.111 77.1722 202.057 77.2605 202.037L83.7042 200.492C84.3564 200.336 84.8387 199.82 85.4468 199.168C86.4318 198.113 87.6547 196.803 90.3076 196.164L100.552 193.71C103.674 192.964 106.999 193.554 109.669 195.336L111.028 196.243C112.186 197.016 112.753 198.398 112.472 199.759C112.434 199.942 112.254 200.061 112.071 200.024C111.887 199.987 111.768 199.807 111.806 199.623C112.03 198.53 111.578 197.427 110.651 196.806L109.292 195.9C106.779 194.223 103.65 193.663 100.712 194.369L90.4672 196.823C88.0147 197.41 86.87 198.639 85.9461 199.627C85.2871 200.333 84.7165 200.944 83.8639 201.147L77.7531 202.61L81.605 218.659L97.7703 214.786C97.9537 214.742 98.1371 214.854 98.1813 215.037C98.2255 215.221 98.1133 215.404 97.9299 215.448L81.4352 219.399C81.408 219.406 81.3808 219.409 81.357 219.409L81.3469 219.419Z" fill="black"/>
<path d="M90.1121 217.071C87.8464 217.071 85.6317 216.232 83.9163 214.667C83.7771 214.542 83.7669 214.328 83.8926 214.189C84.0182 214.05 84.2356 214.039 84.3715 214.165C86.4605 216.069 89.3478 216.813 92.0958 216.158L108.509 212.227C109.528 211.982 110.608 212.183 111.471 212.78L113.115 213.914C113.737 214.342 114.504 214.464 115.228 214.25C115.951 214.036 116.529 213.513 116.814 212.817C117.259 211.731 116.872 210.472 115.897 209.82L112.891 207.814C111.315 206.762 109.355 206.412 107.51 206.853L101.763 208.232C101.58 208.276 101.396 208.164 101.352 207.98C101.308 207.797 101.42 207.614 101.603 207.57L107.351 206.192C109.379 205.706 111.532 206.09 113.265 207.247L116.271 209.253C117.514 210.085 118.006 211.69 117.439 213.072C117.076 213.961 116.339 214.627 115.418 214.898C114.498 215.17 113.516 215.014 112.724 214.47L111.084 213.337C110.381 212.851 109.497 212.685 108.665 212.885L92.252 216.816C91.5421 216.986 90.822 217.071 90.1087 217.071H90.1121Z" fill="black"/>
<path d="M82.221 218.968L81.348 219.08L77.3398 202.369L81.2733 201.473L82.221 218.968Z" fill="black"/>
<path d="M75.8545 195.903L83.5584 227.746L12.8171 244.837C4.01602 246.962 -4.83938 241.558 -6.96916 232.763C-9.09555 223.968 -3.68788 215.119 5.11318 212.991L75.8545 195.9V195.903Z" fill="#FFDD00"/>
<path d="M8.93246 245.204C5.89234 245.204 2.90317 244.369 0.243497 242.746C-3.57108 240.417 -6.25114 236.745 -7.30075 232.407C-9.01612 225.316 -5.98619 218.001 0.2401 214.206C0.399749 214.107 0.610349 214.158 0.705459 214.318C0.803965 214.477 0.753014 214.688 0.593365 214.783C-5.37817 218.425 -8.28581 225.445 -6.64177 232.247C-5.63293 236.412 -3.06497 239.935 0.596762 242.169C4.25509 244.402 8.5656 245.078 12.7334 244.07L83.1453 227.06L75.601 195.876L16.4224 210.173C16.2423 210.217 16.0555 210.105 16.0113 209.922C15.9672 209.739 16.0793 209.556 16.2627 209.511L75.7709 195.133C75.8592 195.109 75.9509 195.126 76.029 195.173C76.1071 195.221 76.1615 195.296 76.1819 195.384L83.8858 227.227C83.9062 227.315 83.8926 227.407 83.845 227.485C83.7975 227.563 83.7227 227.617 83.6344 227.638L12.8931 244.728C11.5785 245.047 10.2504 245.204 8.92906 245.204H8.93246Z" fill="black"/>
<path d="M116.901 166.677C116.724 166.677 116.575 166.538 116.561 166.358C116.548 166.172 116.691 166.009 116.877 165.998L138.539 164.617C138.722 164.61 138.888 164.746 138.899 164.933C138.912 165.119 138.77 165.282 138.583 165.292L116.922 166.674C116.922 166.674 116.908 166.674 116.901 166.674V166.677Z" fill="black"/>
<path d="M130.779 175.211C130.742 175.211 130.708 175.204 130.67 175.194L115.735 170.143C115.558 170.082 115.463 169.888 115.521 169.712C115.582 169.535 115.776 169.44 115.952 169.498L130.888 174.549C131.064 174.61 131.16 174.804 131.102 174.98C131.054 175.123 130.922 175.211 130.779 175.211Z" fill="black"/>
<path d="M127.836 185.051C127.755 185.051 127.67 185.021 127.605 184.96L115.193 173.48C115.054 173.351 115.047 173.137 115.176 173.001C115.305 172.862 115.519 172.855 115.655 172.984L128.067 184.464C128.206 184.593 128.213 184.807 128.084 184.943C128.016 185.014 127.924 185.051 127.836 185.051Z" fill="black"/>
<path d="M152.567 183.13C151.738 181.382 153.674 179.226 151.806 175.279L147.302 165.761C145.963 162.936 143.507 160.798 140.525 159.858L138.966 159.369C137.757 158.989 136.462 159.393 135.681 160.34V160.364L133.922 159.81C132.583 159.389 131.136 159.932 130.399 161.11L129.346 160.781C127.953 160.343 126.449 160.947 125.742 162.224L125.127 163.337C123.972 163.154 122.801 163.7 122.22 164.749C121.35 166.324 122.159 168.296 123.884 168.809L125.797 169.376C126.71 169.647 127.468 170.296 127.875 171.158L132.6 181.141L135.09 186.402L139.852 196.463L155.396 189.114L152.563 183.13H152.567Z" fill="#F4AA74"/>
<path d="M144.028 170.289C143.903 170.289 143.78 170.218 143.723 170.095L141.413 165.218C140.462 163.208 138.699 161.67 136.576 161.002L133.821 160.136C132.636 159.763 131.348 160.238 130.689 161.294C130.591 161.453 130.38 161.501 130.22 161.402C130.061 161.304 130.013 161.093 130.112 160.934C130.934 159.617 132.54 159.019 134.025 159.488L136.78 160.353C139.083 161.076 140.995 162.743 142.028 164.926L144.337 169.803C144.419 169.973 144.344 170.177 144.174 170.255C144.127 170.279 144.079 170.289 144.028 170.289Z" fill="black"/>
<path d="M139.94 172.278C139.815 172.278 139.692 172.207 139.634 172.085L136.598 165.669C135.803 163.989 134.329 162.706 132.556 162.146L129.251 161.107C128.017 160.717 126.669 161.26 126.044 162.39L125.422 163.514C125.331 163.677 125.123 163.738 124.96 163.646C124.797 163.554 124.736 163.347 124.828 163.184L125.45 162.061C126.231 160.649 127.916 159.977 129.454 160.459L132.759 161.497C134.713 162.112 136.336 163.527 137.213 165.377L140.249 171.793C140.331 171.962 140.256 172.166 140.086 172.244C140.039 172.268 139.991 172.278 139.94 172.278Z" fill="black"/>
<path d="M139.857 196.802C139.731 196.802 139.609 196.731 139.551 196.609L132.299 181.287C132.217 181.117 132.292 180.913 132.462 180.835C132.632 180.754 132.835 180.828 132.914 180.998L140.023 196.012L154.952 188.955L152.265 183.276C151.891 182.485 152.01 181.66 152.146 180.703C152.34 179.365 152.581 177.702 151.501 175.425L146.997 165.907C145.702 163.178 143.308 161.09 140.424 160.184L138.865 159.695C137.798 159.359 136.653 159.698 135.943 160.557C135.825 160.703 135.611 160.723 135.465 160.601C135.318 160.482 135.298 160.269 135.417 160.123C136.304 159.05 137.737 158.626 139.065 159.043L140.624 159.532C143.688 160.496 146.232 162.712 147.605 165.611L152.109 175.129C153.274 177.59 153.019 179.369 152.812 180.794C152.683 181.677 152.584 182.373 152.87 182.98L155.703 188.965C155.74 189.046 155.747 189.138 155.716 189.223C155.686 189.308 155.624 189.376 155.543 189.416L139.999 196.765C139.952 196.789 139.904 196.799 139.853 196.799L139.857 196.802Z" fill="black"/>
<path d="M141.743 191.701C141.726 191.701 141.709 191.701 141.692 191.697C138.675 191.229 136.094 189.304 134.789 186.548L127.571 171.3C127.204 170.526 126.525 169.943 125.703 169.698L123.791 169.131C122.87 168.856 122.133 168.191 121.77 167.302C121.406 166.412 121.464 165.421 121.929 164.583C122.653 163.276 124.212 162.651 125.638 163.099L129.086 164.182C131.073 164.807 132.724 166.246 133.614 168.127L136.141 173.466C136.223 173.636 136.148 173.839 135.978 173.917C135.808 173.999 135.608 173.924 135.526 173.755L132.999 168.415C132.187 166.704 130.686 165.394 128.879 164.827L125.431 163.744C124.314 163.391 123.087 163.88 122.52 164.909C122.157 165.567 122.109 166.345 122.395 167.044C122.68 167.74 123.257 168.262 123.981 168.48L125.893 169.046C126.899 169.345 127.734 170.061 128.183 171.008L135.401 186.256C136.61 188.809 138.998 190.591 141.794 191.022C141.98 191.052 142.106 191.225 142.075 191.409C142.048 191.575 141.906 191.697 141.739 191.697L141.743 191.701Z" fill="black"/>
<path d="M155.401 189.114L139.857 196.463L152.568 183.13L155.401 189.114Z" fill="black"/>
<path d="M180.894 268.153L179.878 268.625C173.428 271.608 165.999 269.884 161.478 264.874C161.468 264.867 161.461 264.86 161.457 264.853C160.948 264.287 160.476 263.682 160.048 263.034C159.603 262.369 159.205 261.659 158.859 260.913L130.611 199.942L144.98 193.296L160.36 186.181L188.608 247.152C192.283 255.081 188.829 264.483 180.894 268.153Z" fill="#FFDD00"/>
<path d="M173.19 270.444C168.733 270.444 164.375 268.591 161.23 265.105C161.22 265.094 161.213 265.088 161.203 265.078C160.67 264.483 160.184 263.859 159.763 263.217C159.311 262.542 158.903 261.812 158.55 261.052L130.302 200.082C130.265 200 130.262 199.905 130.292 199.824C130.323 199.739 130.387 199.671 130.469 199.633L160.218 185.873C160.388 185.794 160.591 185.869 160.67 186.039L188.917 247.009C190.734 250.926 190.914 255.315 189.423 259.368C187.935 263.418 184.956 266.649 181.037 268.462L180.021 268.934C177.82 269.952 175.49 270.447 173.19 270.447V270.444ZM161.709 264.626C161.709 264.626 161.723 264.64 161.729 264.646C166.298 269.711 173.533 271.184 179.736 268.316L180.751 267.844C184.508 266.106 187.361 263.014 188.785 259.131C190.211 255.247 190.038 251.045 188.299 247.291L160.194 186.629L131.06 200.105L159.165 260.767C159.501 261.496 159.895 262.192 160.326 262.841C160.731 263.455 161.196 264.052 161.706 264.619L161.709 264.626Z" fill="black"/>
<path d="M153.567 249.837C153.438 249.837 153.315 249.765 153.258 249.64L130.302 200.088C130.265 200.007 130.262 199.912 130.292 199.83C130.323 199.745 130.387 199.678 130.469 199.64L160.218 185.876C160.388 185.798 160.591 185.873 160.67 186.042C160.748 186.212 160.673 186.416 160.503 186.494L131.06 200.115L153.873 249.358C153.951 249.528 153.876 249.731 153.706 249.81C153.659 249.83 153.611 249.84 153.563 249.84L153.567 249.837Z" fill="black"/>
<path d="M111.677 190.442L82.9844 186.165L84.2174 171.925L114.653 176.46L111.677 190.442Z" fill="white"/>
<path d="M111.676 190.781C111.676 190.781 111.642 190.781 111.625 190.778L82.9323 186.504C82.7557 186.477 82.63 186.318 82.6436 186.138L83.88 171.898C83.8868 171.803 83.9344 171.718 84.0091 171.66C84.0838 171.603 84.1755 171.579 84.2706 171.593L114.706 176.128C114.797 176.141 114.882 176.192 114.933 176.27C114.988 176.348 115.005 176.443 114.988 176.535L112.012 190.516C111.978 190.676 111.839 190.785 111.679 190.785L111.676 190.781ZM83.3467 185.876L111.408 190.058L114.24 176.742L84.5186 172.316L83.3433 185.88L83.3467 185.876Z" fill="black"/>
<path d="M114.649 176.462C114.918 174.658 108.345 172.183 99.9678 170.935C91.5903 169.687 84.5808 170.138 84.3116 171.942C84.0424 173.746 90.6155 176.22 98.993 177.468C107.371 178.717 114.38 178.266 114.649 176.462Z" fill="#B9BEC6"/>
<path d="M92.2109 176.138L105.458 178.11L106.926 165.282L94.1131 163.375L92.2109 176.138Z" fill="#F4AA74"/>
<path d="M105.457 178.449C105.457 178.449 105.423 178.449 105.406 178.446L92.1584 176.474C92.0701 176.46 91.9886 176.413 91.9343 176.341C91.8799 176.27 91.8595 176.178 91.8697 176.09L93.7719 163.327C93.7855 163.239 93.8331 163.157 93.9044 163.103C93.9757 163.049 94.0674 163.028 94.1557 163.039L106.968 164.946C107.148 164.973 107.278 165.14 107.257 165.32L105.79 178.147C105.78 178.239 105.732 178.32 105.661 178.378C105.599 178.422 105.528 178.449 105.453 178.449H105.457ZM92.5932 175.849L105.158 177.719L106.551 165.568L94.3969 163.758L92.5932 175.849Z" fill="black"/>
<path d="M93.3628 168.395L94.1101 163.375L107.357 165.347L105.703 176.426C104.474 176.487 102.045 176.43 99.443 175.123C95.3703 173.076 93.767 169.413 93.3594 168.395H93.3628Z" fill="black"/>
<path d="M113.654 162.572C114.611 156.158 110.68 150.258 104.874 149.393C99.0683 148.528 93.586 153.026 92.6291 159.44C91.6722 165.853 95.603 171.754 101.409 172.619C107.215 173.484 112.697 168.986 113.654 162.572Z" fill="#F4AA74"/>
<path d="M93.8633 167.981C96.1086 171.314 98.1704 172.132 101.404 172.614C107.209 173.48 112.695 168.982 113.65 162.567C114.607 156.155 110.674 150.252 104.869 149.39C101.037 148.819 97.3484 150.581 95.0046 153.69L93.8633 167.981Z" fill="#F4AA74"/>
<path d="M102.846 173.062C102.35 173.062 101.851 173.025 101.351 172.95C97.9918 172.451 95.8689 171.572 93.576 168.171C93.4707 168.015 93.5115 167.804 93.6677 167.699C93.824 167.594 94.0346 167.638 94.1399 167.791C96.3036 171.002 98.2194 171.796 101.45 172.278C104.16 172.682 106.888 171.895 109.126 170.058C111.375 168.215 112.86 165.537 113.311 162.519C113.763 159.502 113.121 156.508 111.511 154.088C109.908 151.681 107.53 150.13 104.816 149.726C101.215 149.189 97.6454 150.747 95.2744 153.894C95.1623 154.043 94.9483 154.074 94.7989 153.962C94.6494 153.85 94.6188 153.636 94.7309 153.487C97.2174 150.187 101.12 148.49 104.914 149.054C107.819 149.485 110.363 151.141 112.075 153.711C113.78 156.27 114.456 159.434 113.984 162.618C113.508 165.802 111.936 168.633 109.558 170.581C107.581 172.203 105.241 173.059 102.846 173.059V173.062Z" fill="black"/>
<path d="M104.868 149.39C99.0627 148.524 92.9824 152.377 92.0245 158.789C91.9396 159.366 92.4899 160.585 92.4831 161.148L100.041 157.143L113.71 159.179C113.132 154.193 109.633 150.096 104.871 149.386L104.868 149.39Z" fill="black"/>
<path d="M106.209 167.095C106.07 168.025 105.203 168.666 104.273 168.527C103.342 168.388 102.7 167.523 102.839 166.593C102.979 165.662 103.845 165.021 104.775 165.16C105.706 165.299 106.348 166.165 106.209 167.095Z" fill="white"/>
<path d="M107.295 178.473C104.805 178.473 101.908 178.242 98.9087 177.794C91.575 176.701 83.9696 174.277 84.3161 171.939C84.3433 171.752 84.5165 171.626 84.7033 171.654C84.8902 171.681 85.0158 171.854 84.9887 172.041C84.7815 173.425 90.488 175.856 99.0072 177.122C102.934 177.706 106.674 177.92 109.537 177.719C112.635 177.506 113.824 176.867 113.902 176.345C113.929 176.158 114.102 176.032 114.289 176.06C114.476 176.087 114.602 176.26 114.575 176.446C114.415 177.523 112.737 178.181 109.585 178.398C108.871 178.449 108.104 178.473 107.295 178.473Z" fill="black"/>
</g>
<defs>
<clipPath id="clip0_178_42181">
<rect width="263.82" height="264.116" fill="white" transform="translate(0.179688 0.174561)"/>
</clipPath>
</defs>
</svg>
