<svg width="283" height="282" viewBox="0 0 283 282" fill="none" xmlns="http://www.w3.org/2000/svg">
<path d="M190.892 211.796L206.136 206.783L195.525 174.693L180.281 179.707L190.892 211.796Z" fill="#DFE3E8"/>
<path d="M190.895 212.133C190.751 212.133 190.618 212.042 190.572 211.9L179.961 179.811C179.902 179.632 180 179.441 180.177 179.383L195.421 174.37C195.507 174.34 195.6 174.348 195.68 174.388C195.76 174.428 195.822 174.499 195.85 174.585L206.461 206.675C206.49 206.761 206.483 206.854 206.442 206.934C206.402 207.014 206.331 207.076 206.245 207.103L191.001 212.116C190.966 212.128 190.93 212.133 190.895 212.133ZM180.715 179.92L191.111 211.364L205.707 206.564L195.309 175.12L180.713 179.92H180.715Z" fill="black"/>
<path d="M182.606 186.725L199.645 187.141L195.528 174.692L180.285 179.705L182.606 186.725Z" fill="#020202"/>
<path d="M190.893 211.796L206.137 206.783L201.071 191.463L185.827 196.476L190.893 211.796Z" fill="#020202"/>
<path d="M214.693 210.762C211.49 206.114 210.569 202.964 206.51 200.302L206.156 200.069C204.858 199.217 203.129 200.143 203.123 201.693L203.115 204.288C203.107 206.809 200.646 207.356 200.618 207.375C199.195 207.843 198.405 207.198 194.973 206.429L194 203.484L190.684 201.958L187.663 202.952L186.523 207.037L177.358 217.064L165.12 220.333L162.427 224.071L166.747 228.084L185.69 231.055L197.841 223.996L214.694 210.76L214.693 210.762Z" fill="white"/>
<path d="M185.69 231.395C185.673 231.395 185.654 231.395 185.637 231.391L166.695 228.418C166.628 228.407 166.565 228.378 166.515 228.33L162.195 224.318C162.07 224.2 162.051 224.009 162.15 223.871L164.843 220.132C164.89 220.069 164.956 220.023 165.032 220.003L177.174 216.761L186.216 206.866L187.335 202.858C187.366 202.748 187.448 202.662 187.556 202.627L190.577 201.634C190.659 201.608 190.748 201.613 190.826 201.648L194.142 203.174C194.228 203.214 194.293 203.286 194.322 203.376L195.236 206.139C196.269 206.376 197.056 206.598 197.694 206.778C199.035 207.159 199.649 207.331 200.505 207.052C200.522 207.046 200.539 207.042 200.556 207.037C201.22 206.843 202.768 206.188 202.775 204.285L202.782 201.69C202.785 200.835 203.238 200.083 203.994 199.679C204.749 199.275 205.627 199.314 206.342 199.784L206.696 200.016C209.657 201.959 210.984 204.155 212.665 206.937C213.319 208.019 214.061 209.245 214.972 210.569C215.074 210.717 215.043 210.917 214.903 211.028L198.051 224.264C198.039 224.273 198.025 224.282 198.011 224.29L185.859 231.349C185.807 231.38 185.748 231.395 185.688 231.395H185.69ZM166.903 227.765L185.623 230.702L197.649 223.715L214.232 210.691C213.392 209.452 212.698 208.307 212.083 207.288C210.446 204.581 209.153 202.442 206.322 200.585L205.969 200.352C205.465 200.021 204.847 199.995 204.317 200.278C203.785 200.563 203.467 201.092 203.465 201.693L203.458 204.288C203.45 206.715 201.382 207.505 200.749 207.69C200.749 207.69 200.771 207.681 200.8 207.664C200.777 207.678 200.754 207.689 200.727 207.698C199.669 208.045 198.902 207.829 197.51 207.435C196.841 207.245 196.01 207.009 194.9 206.761C194.783 206.735 194.689 206.65 194.652 206.536L193.724 203.732L190.665 202.325L187.945 203.218L186.853 207.129C186.839 207.18 186.813 207.228 186.777 207.267L177.613 217.294C177.57 217.342 177.512 217.375 177.449 217.392L165.329 220.628L162.881 224.025L166.905 227.763L166.903 227.765Z" fill="black"/>
<path d="M218.442 212.423L214.694 210.762L196.498 223.02L182.225 228.617L171.453 227.222L162.414 224.057L161.969 227.025L162.735 229.26L168.907 233.621C168.907 233.621 172.802 234.294 180.508 235.441C180.508 235.441 193.335 231.705 196.549 230.639L197.717 228.394L200.361 227.525L202.62 228.643C209.66 226.301 215.221 224.5 215.221 224.5L221.823 218.584L218.445 212.421L218.442 212.423Z" fill="#020202"/>
<path d="M209.506 203.753L209.236 203.061C209.004 202.468 206.977 197.229 207.062 195.788C207.107 195.016 207.45 194.307 208.029 193.792C208.609 193.278 209.36 193.02 210.128 193.065C210.902 193.11 211.612 193.452 212.129 194.03C212.645 194.608 212.903 195.35 212.858 196.122C212.774 197.565 210.152 202.534 209.854 203.097L209.505 203.753H209.506ZM209.958 193.74C209.412 193.74 208.893 193.936 208.483 194.301C208.04 194.694 207.777 195.236 207.742 195.828C207.686 196.787 208.89 200.217 209.602 202.112C210.529 200.312 212.122 197.044 212.178 196.085C212.212 195.495 212.014 194.925 211.619 194.483C211.225 194.04 210.681 193.779 210.087 193.743C210.043 193.742 209.999 193.74 209.956 193.74H209.958Z" fill="black"/>
<path d="M188.299 210.954C188.268 210.954 188.234 210.95 188.203 210.94L184.325 209.801C184.144 209.749 184.041 209.56 184.095 209.379C184.147 209.199 184.337 209.094 184.518 209.15L188.396 210.288C188.577 210.341 188.681 210.53 188.627 210.711C188.583 210.859 188.447 210.954 188.301 210.954H188.299Z" fill="black"/>
<path d="M186.174 213.679C186.143 213.679 186.109 213.674 186.078 213.665L182.2 212.526C182.019 212.473 181.916 212.284 181.97 212.104C182.022 211.925 182.212 211.82 182.393 211.874L186.271 213.013C186.452 213.065 186.556 213.255 186.502 213.435C186.458 213.583 186.322 213.679 186.176 213.679H186.174Z" fill="black"/>
<path d="M184.049 216.403C184.018 216.403 183.984 216.399 183.953 216.389L180.075 215.25C179.894 215.198 179.791 215.009 179.845 214.828C179.897 214.65 180.087 214.545 180.268 214.599L184.146 215.737C184.327 215.79 184.431 215.979 184.377 216.16C184.333 216.308 184.197 216.403 184.051 216.403H184.049Z" fill="black"/>
<path d="M175.177 230.05C175.075 230.05 174.973 230.004 174.907 229.918L166.569 219.074C166.455 218.924 166.483 218.712 166.632 218.598C166.782 218.483 166.996 218.513 167.11 218.661L175.448 229.505C175.562 229.654 175.534 229.867 175.384 229.981C175.323 230.029 175.25 230.05 175.177 230.05Z" fill="black"/>
<path d="M226.645 204.408L244.722 208.281L242.301 194.125L225.378 197.005L226.645 204.408Z" fill="#020202"/>
<path d="M231.244 231.252L248.167 228.373L245.292 211.569L228.37 214.448L231.244 231.252Z" fill="#DFE3E8"/>
<path d="M231.235 231.603C231.166 231.603 231.096 231.582 231.039 231.542C230.965 231.489 230.916 231.411 230.9 231.321L228.026 214.519C227.994 214.334 228.119 214.158 228.304 214.127L245.226 211.247C245.411 211.215 245.587 211.34 245.618 211.524L248.494 228.327C248.509 228.415 248.489 228.508 248.436 228.582C248.384 228.656 248.305 228.705 248.215 228.72L231.293 231.6C231.274 231.603 231.254 231.605 231.235 231.605V231.603ZM228.754 214.737L231.514 230.871L247.764 228.107L245.005 211.973L228.754 214.737Z" fill="black"/>
<path d="M248.079 221.935L248.394 222.217C252.01 225.453 252.451 228.706 254.924 233.776L236.283 244.36L206.617 249.789L201.028 247.677L202.025 243.182L217.539 234.966L227.622 225.91L229.361 222.039L232.496 221.505L235.546 223.507L236.068 226.564C239.347 227.834 240.032 228.589 241.509 228.338C241.54 228.323 244.054 228.149 244.439 225.657L244.834 223.091C245.071 221.559 246.919 220.9 248.075 221.935H248.079Z" fill="#FFDD00"/>
<path d="M206.618 250.131C206.578 250.131 206.536 250.123 206.498 250.109L200.91 247.998C200.753 247.938 200.661 247.771 200.698 247.606L201.695 243.111C201.717 243.014 201.78 242.931 201.868 242.885L217.345 234.688L227.345 225.708L229.053 221.903C229.099 221.8 229.195 221.726 229.306 221.707L232.441 221.174C232.526 221.159 232.614 221.177 232.685 221.225L235.735 223.227C235.814 223.279 235.868 223.361 235.884 223.453L236.375 226.321C237.363 226.709 238.106 227.045 238.71 227.319C239.979 227.894 240.558 228.159 241.448 228.008C241.465 228.005 241.484 228.002 241.501 228.001C242.187 227.908 243.815 227.492 244.106 225.609L244.501 223.043C244.631 222.199 245.192 221.522 245.999 221.234C246.805 220.946 247.667 221.115 248.306 221.686L248.621 221.968C251.258 224.328 252.243 226.698 253.49 229.697C253.975 230.864 254.525 232.187 255.228 233.631C255.307 233.792 255.247 233.987 255.09 234.075L236.449 244.659C236.415 244.677 236.38 244.691 236.343 244.697L206.677 250.126C206.657 250.129 206.637 250.132 206.615 250.132L206.618 250.131ZM201.425 247.465L206.649 249.439L236.163 244.038L254.479 233.639C253.831 232.289 253.318 231.053 252.862 229.956C251.649 227.036 250.69 224.729 248.168 222.471L247.853 222.19C247.405 221.787 246.797 221.669 246.229 221.872C245.66 222.074 245.268 222.55 245.175 223.145L244.779 225.711C244.409 228.111 242.245 228.585 241.592 228.672C241.587 228.672 241.609 228.669 241.644 228.654C241.62 228.665 241.595 228.671 241.57 228.675C240.471 228.863 239.745 228.534 238.429 227.937C237.797 227.651 237.009 227.295 235.949 226.885C235.837 226.842 235.757 226.743 235.737 226.624L235.238 223.714L232.423 221.867L229.6 222.348L227.937 226.053C227.917 226.096 227.889 226.134 227.853 226.167L217.768 235.223C217.748 235.242 217.725 235.257 217.7 235.271L202.326 243.415L201.426 247.471L201.425 247.465Z" fill="black"/>
<path d="M201.028 247.679L210.606 247.873L235.099 243.198L254.924 233.779L258.384 235.98L260.802 242.575L253.389 247.443C253.389 247.443 247.621 248.399 240.311 249.668L238.244 248.228L235.501 248.694L234.011 250.741C222.585 252.718 210.197 254.794 210.197 254.794L202.962 252.525L201.536 250.641L201.029 247.682L201.028 247.679Z" fill="#020202"/>
<path d="M250.842 226.077L250.678 225.353C250.537 224.732 249.315 219.251 249.613 217.838C249.772 217.081 250.219 216.431 250.868 216.009C251.518 215.586 252.294 215.442 253.053 215.6C253.811 215.759 254.463 216.204 254.887 216.852C255.31 217.499 255.455 218.272 255.296 219.031C254.998 220.444 251.664 224.969 251.283 225.481L250.842 226.077ZM252.45 216.217C252.024 216.217 251.606 216.34 251.242 216.577C250.744 216.901 250.403 217.397 250.281 217.977C250.081 218.917 250.76 222.487 251.181 224.466C252.368 222.824 254.431 219.829 254.63 218.889C254.752 218.309 254.641 217.718 254.317 217.221C253.992 216.725 253.495 216.385 252.914 216.263C252.759 216.231 252.605 216.215 252.452 216.215L252.45 216.217Z" fill="black"/>
<path d="M228.845 230.05C228.798 230.05 228.748 230.039 228.702 230.018L225.038 228.315C224.868 228.236 224.794 228.033 224.873 227.863C224.952 227.694 225.154 227.62 225.326 227.698L228.989 229.401C229.159 229.48 229.233 229.683 229.155 229.853C229.097 229.976 228.974 230.048 228.845 230.048V230.05Z" fill="black"/>
<path d="M226.339 232.429C226.291 232.429 226.242 232.419 226.195 232.397L222.532 230.694C222.362 230.616 222.288 230.412 222.366 230.243C222.445 230.073 222.648 229.999 222.819 230.078L226.484 231.781C226.654 231.859 226.729 232.063 226.65 232.232C226.593 232.355 226.469 232.428 226.341 232.428L226.339 232.429Z" fill="black"/>
<path d="M223.831 234.808C223.783 234.808 223.734 234.798 223.687 234.776L220.024 233.073C219.854 232.995 219.78 232.791 219.858 232.622C219.937 232.452 220.14 232.378 220.311 232.457L223.975 234.16C224.145 234.238 224.219 234.442 224.14 234.611C224.083 234.735 223.959 234.807 223.831 234.807V234.808Z" fill="black"/>
<path d="M225.105 80.6367L221.591 103.397L213.97 138.972C211.336 151.272 211.634 164.018 214.84 176.182L225.105 215.121H250.801L240.804 162.481L250.797 103.42H250.801V80.6367H225.105Z" fill="#020202"/>
<path d="M250.802 215.46H225.106C224.951 215.46 224.815 215.355 224.777 215.206L214.511 176.267C211.306 164.113 211.005 151.191 213.638 138.9L221.258 103.325L224.769 80.5843C224.795 80.4194 224.938 80.2961 225.106 80.2961H250.802C250.991 80.2961 251.142 80.4487 251.142 80.6352V103.419C251.142 103.456 251.136 103.491 251.125 103.523L241.151 162.475L251.136 215.055C251.155 215.155 251.128 215.257 251.063 215.335C250.999 215.414 250.903 215.459 250.801 215.459L250.802 215.46ZM225.369 214.781H250.391L240.471 162.545C240.464 162.504 240.464 162.464 240.471 162.424L250.464 103.369V80.9757H225.399L221.929 103.448L214.305 139.043C211.694 151.231 211.993 164.042 215.17 176.096L225.37 214.781H225.369Z" fill="black"/>
<path d="M237.963 107.883L240.285 85.2181L214.722 82.6123L214.351 86.2336L174.437 128.27C168.825 134.181 166.648 142.552 168.672 150.437L179.788 193.748L204.751 194.008L198.624 148.309L231.947 107.27L237.964 107.883H237.963Z" fill="#020202"/>
<path d="M218.441 92.6748L250.803 86.0162V83.9976H218.441V92.6748Z" fill="#020202"/>
<path d="M176.604 231.99L235.33 252.454V51.8479L176.604 31.3853V231.99Z" fill="#C9C9C9"/>
<path d="M59.1665 231.963L0.440186 252.425V51.8204L59.1665 31.3577V231.963Z" fill="white"/>
<path d="M59.168 231.963L117.894 252.425V51.8204L59.168 31.3577V231.963Z" fill="#C9C9C9"/>
<path d="M176.603 231.99L117.876 252.454V51.8479L176.603 31.3853V231.99Z" fill="white"/>
<path d="M235.326 252.794C235.287 252.794 235.25 252.788 235.213 252.775L176.486 232.311C176.351 232.263 176.258 232.134 176.258 231.99V31.3855C176.258 31.276 176.312 31.1728 176.402 31.1081C176.493 31.0434 176.607 31.0295 176.711 31.0649L235.437 51.5292C235.573 51.5769 235.666 51.7064 235.666 51.8497V252.455C235.666 252.564 235.611 252.667 235.522 252.732C235.463 252.774 235.395 252.795 235.324 252.795L235.326 252.794ZM176.941 231.749L234.986 251.975V52.0901L176.941 31.8632V231.749Z" fill="black"/>
<path d="M235.328 204.985C235.249 204.985 235.168 204.957 235.105 204.901L175.983 153.775L111.416 179.853C111.248 179.92 111.055 179.845 110.979 179.68L58.6358 66.5874L2.0264 86.1471C1.84716 86.2072 1.65402 86.1147 1.59221 85.9375C1.5304 85.7603 1.62466 85.5661 1.80235 85.5045L58.7038 65.8447C58.8676 65.7876 59.0514 65.8647 59.1241 66.0234L111.459 179.101L175.918 153.066C176.037 153.018 176.172 153.041 176.269 153.124L235.549 204.388C235.691 204.511 235.706 204.726 235.583 204.867C235.515 204.944 235.42 204.985 235.324 204.985H235.328Z" fill="#020202"/>
<path d="M81.8318 116.235C81.6435 116.235 81.4922 116.082 81.4922 115.896V41.0917C81.4922 40.9037 81.645 40.7527 81.8318 40.7527C82.0186 40.7527 82.1714 40.9052 82.1714 41.0917V115.896C82.1714 116.084 82.0186 116.235 81.8318 116.235Z" fill="#020202"/>
<path d="M1.91544 223.889C1.866 223.889 1.81501 223.878 1.76711 223.855C1.59714 223.773 1.5276 223.57 1.6095 223.401L29.463 165.933V76.1906C29.463 76.0026 29.616 75.8516 29.8029 75.8516C29.9899 75.8516 30.1429 76.0041 30.1429 76.1906V166.011C30.1429 166.062 30.1305 166.113 30.1089 166.159L2.22294 223.696C2.16422 223.818 2.04215 223.888 1.91544 223.888V223.889Z" fill="#020202"/>
<path d="M153.996 162.628C153.808 162.628 153.656 162.475 153.656 162.288V39.2611C153.656 39.0731 153.809 38.9221 153.996 38.9221C154.183 38.9221 154.336 39.0747 154.336 39.2611V162.287C154.336 162.475 154.183 162.626 153.996 162.626V162.628Z" fill="#020202"/>
<path d="M0.441095 252.766C0.371562 252.766 0.302029 252.744 0.243312 252.702C0.153691 252.639 0.0996094 252.536 0.0996094 252.425V51.82C0.0996094 51.6752 0.190775 51.5473 0.328297 51.4995L59.0546 31.0353C59.1581 30.9998 59.274 31.0152 59.3636 31.0784C59.4532 31.1416 59.5073 31.2448 59.5073 31.3558V231.961C59.5073 232.106 59.4161 232.234 59.2786 232.281L0.552348 252.747C0.515264 252.759 0.478179 252.766 0.43955 252.766H0.441095ZM0.781036 52.062V251.947L58.8259 231.72V31.835L0.781036 52.062Z" fill="black"/>
<path d="M117.895 252.766C117.857 252.766 117.819 252.76 117.782 252.747L59.0561 232.283C58.9201 232.235 58.8274 232.106 58.8274 231.963V31.3576C58.8274 31.2482 58.8815 31.145 58.9711 31.0802C59.0623 31.0155 59.1766 31.0017 59.2801 31.0371L118.006 51.5013C118.144 51.5491 118.235 51.6785 118.235 51.8219V252.427C118.235 252.536 118.181 252.639 118.091 252.704C118.033 252.746 117.965 252.767 117.894 252.767L117.895 252.766ZM59.5088 231.721L117.554 251.948V52.0623L59.5088 31.8353V231.721Z" fill="black"/>
<path d="M117.877 252.793C117.808 252.793 117.738 252.772 117.679 252.73C117.59 252.667 117.536 252.564 117.536 252.453V51.8479C117.536 51.703 117.627 51.5751 117.764 51.5273L176.491 31.0631C176.594 31.0277 176.71 31.0431 176.8 31.1062C176.889 31.1694 176.943 31.2727 176.943 31.3836V231.989C176.943 232.133 176.852 232.261 176.715 232.309L117.988 252.773C117.951 252.786 117.914 252.792 117.876 252.792L117.877 252.793ZM118.217 52.0898V251.975L176.262 231.748V31.8629L118.217 52.0898Z" fill="black"/>
<path d="M35.8851 75.0366L12.8588 35.0543C5.84362 18.5966 17.9548 0.340576 35.8851 0.340576C53.8154 0.340576 65.9266 18.5981 58.9114 35.0543L35.8851 75.0366Z" fill="#FED101"/>
<path d="M35.8869 75.3756C35.7648 75.3756 35.652 75.3109 35.5918 75.2045L12.5654 35.2238C12.5593 35.2114 12.5531 35.2006 12.5469 35.1883C9.20776 27.354 10.0252 18.4378 14.7349 11.3385C19.4446 4.2377 27.3513 0 35.8869 0C44.4225 0 52.3292 4.23924 57.0389 11.3385C61.7487 18.4378 62.5661 27.354 59.2269 35.1883C59.2223 35.2006 59.2161 35.213 59.2084 35.2238L36.182 75.2061C36.1218 75.3109 36.009 75.3771 35.8869 75.3771V75.3756ZM13.1665 34.9032L35.8869 74.3539L58.6073 34.9032C61.8476 27.2846 61.0502 18.6166 56.4703 11.7145C51.8888 4.80478 44.1938 0.679573 35.8869 0.679573C27.58 0.679573 19.885 4.80478 15.3035 11.713C10.7251 18.6166 9.92627 27.2831 13.1665 34.9032Z" fill="black"/>
<path d="M35.8863 44.0091C46.1798 44.0091 54.5243 35.6873 54.5243 25.4218C54.5243 15.1563 46.1798 6.83447 35.8863 6.83447C25.5928 6.83447 17.2483 15.1563 17.2483 25.4218C17.2483 35.6873 25.5928 44.0091 35.8863 44.0091Z" fill="white"/>
<path d="M43.5758 30.5763H29.0959C28.9244 30.5763 28.7791 30.4484 28.7575 30.2789L27.5863 21.0453C27.5739 20.9482 27.6033 20.8512 27.6682 20.7772C27.7331 20.7032 27.8258 20.6616 27.9231 20.6616H47.4805C47.5949 20.6616 47.7015 20.7186 47.7648 20.8142C47.8282 20.9097 47.839 21.0299 47.7942 21.1347L43.888 30.3683C43.8354 30.4946 43.7118 30.5763 43.5743 30.5763H43.5758ZM29.3972 29.8967H43.3502L46.9691 21.3427H28.3125L29.3988 29.8967H29.3972Z" fill="black"/>
<path d="M27.9254 21.3426C27.757 21.3426 27.6118 21.2193 27.5886 21.0482L26.8423 15.5516H23.1632C22.9747 15.5516 22.8232 15.399 22.8232 15.2126C22.8232 15.0261 22.9762 14.8735 23.1632 14.8735H27.1405C27.3105 14.8735 27.4557 14.9999 27.4789 15.1679L28.2654 20.9589C28.2901 21.1453 28.1603 21.3164 27.9733 21.341C27.9579 21.3426 27.9424 21.3441 27.927 21.3441L27.9254 21.3426Z" fill="black"/>
<path d="M30.3199 35.9635C29.1842 35.9635 28.2617 35.0759 28.2617 33.9833C28.2617 32.8908 29.1857 32.0032 30.3199 32.0032C31.4541 32.0032 32.3781 32.8908 32.3781 33.9833C32.3781 35.0759 31.4541 35.9635 30.3199 35.9635ZM30.3199 32.6827C29.5597 32.6827 28.9431 33.2668 28.9431 33.9833C28.9431 34.6999 29.5612 35.2839 30.3199 35.2839C31.0786 35.2839 31.6967 34.6999 31.6967 33.9833C31.6967 33.2668 31.0786 32.6827 30.3199 32.6827Z" fill="black"/>
<path d="M41.6468 35.9635C40.5111 35.9635 39.5886 35.0759 39.5886 33.9833C39.5886 32.8908 40.5126 32.0032 41.6468 32.0032C42.781 32.0032 43.705 32.8908 43.705 33.9833C43.705 35.0759 42.781 35.9635 41.6468 35.9635ZM41.6468 32.6827C40.8866 32.6827 40.27 33.2668 40.27 33.9833C40.27 34.6999 40.8881 35.2839 41.6468 35.2839C42.4055 35.2839 43.0236 34.6999 43.0236 33.9833C43.0236 33.2668 42.4055 32.6827 41.6468 32.6827Z" fill="black"/>
<path d="M36.3871 30.5763C36.3871 30.5763 36.3716 30.5763 36.3639 30.5763C36.1769 30.564 36.0348 30.4022 36.0471 30.2142L36.6791 20.9807C36.6915 20.7942 36.8491 20.6586 37.0422 20.6648C37.2292 20.6771 37.3714 20.8389 37.359 21.0269L36.727 30.2604C36.7147 30.4392 36.5648 30.5763 36.3871 30.5763Z" fill="black"/>
<path d="M40.2301 30.5762C40.2116 30.5762 40.1915 30.5746 40.1714 30.5716C39.986 30.5392 39.8624 30.3635 39.8948 30.1786L41.5173 20.9451C41.5497 20.7601 41.7243 20.6369 41.9113 20.6692C42.0967 20.7016 42.2203 20.8773 42.1879 21.0622L40.5654 30.2957C40.5361 30.4606 40.3924 30.5762 40.2301 30.5762Z" fill="black"/>
<path d="M32.4978 30.5761C32.317 30.5761 32.1671 30.4344 32.1578 30.2525L31.6989 21.019C31.6896 20.831 31.8349 20.6722 32.0218 20.663C32.2135 20.6491 32.3695 20.7986 32.3788 20.9851L32.8377 30.2186C32.847 30.4066 32.7017 30.5654 32.5148 30.5746C32.5086 30.5746 32.5024 30.5746 32.4978 30.5746V30.5761Z" fill="black"/>
<path d="M198.897 157.421L175.87 117.438C168.855 100.981 180.966 82.7246 198.897 82.7246C216.827 82.7246 228.938 100.982 221.923 117.438L198.897 157.421Z" fill="#FF6C08"/>
<path d="M198.898 157.76C198.776 157.76 198.663 157.695 198.603 157.589L175.576 117.606C175.57 117.594 175.564 117.582 175.558 117.571C172.219 109.737 173.036 100.82 177.746 93.7211C182.456 86.6218 190.362 82.3826 198.898 82.3826C207.433 82.3826 215.34 86.6203 220.05 93.7211C224.76 100.82 225.577 109.737 222.238 117.571C222.233 117.583 222.227 117.596 222.219 117.606L199.193 157.589C199.133 157.693 199.02 157.76 198.898 157.76ZM176.178 117.287L198.898 156.738L221.618 117.287C224.859 109.669 224.061 101.001 219.481 94.0987C214.898 87.1889 207.203 83.0652 198.898 83.0652C190.593 83.0652 182.896 87.1904 178.314 94.0987C173.736 101.002 172.937 109.669 176.178 117.289V117.287Z" fill="black"/>
<path d="M212.075 120.948C219.353 113.69 219.353 101.921 212.075 94.662C204.796 87.4032 192.995 87.4032 185.717 94.662C178.438 101.921 178.438 113.69 185.717 120.948C192.995 128.207 204.796 128.207 212.075 120.948Z" fill="white"/>
<path d="M208.857 118.665H189.604C189.415 118.665 189.264 118.512 189.264 118.326V105.719C189.264 105.531 189.417 105.38 189.604 105.38H208.857C209.045 105.38 209.197 105.533 209.197 105.719V118.326C209.197 118.514 209.044 118.665 208.857 118.665ZM189.945 117.985H208.517V106.058H189.945V117.985Z" fill="black"/>
<path d="M196.449 112.939H192.331C192.142 112.939 191.991 112.786 191.991 112.6V108.493C191.991 108.305 192.144 108.154 192.331 108.154H196.449C196.637 108.154 196.789 108.307 196.789 108.493V112.6C196.789 112.788 196.636 112.939 196.449 112.939ZM192.672 112.259H196.109V108.832H192.672V112.259Z" fill="black"/>
<path d="M206.48 112.939H202.362C202.173 112.939 202.022 112.786 202.022 112.6V108.493C202.022 108.305 202.175 108.154 202.362 108.154H206.48C206.668 108.154 206.82 108.307 206.82 108.493V112.6C206.82 112.788 206.667 112.939 206.48 112.939ZM202.703 112.259H206.14V108.832H202.703V112.259Z" fill="black"/>
<path d="M212.935 106.057H185.873C185.735 106.057 185.61 105.973 185.558 105.847C185.505 105.721 185.535 105.574 185.632 105.477L199.163 91.9829C199.291 91.855 199.517 91.855 199.645 91.9829L213.176 105.477C213.274 105.574 213.303 105.721 213.251 105.847C213.198 105.973 213.073 106.057 212.935 106.057ZM186.695 105.377H212.113L199.404 92.7025L186.695 105.377Z" fill="black"/>
<path d="M36.3893 88.6789C38.9819 88.6789 41.0836 86.5829 41.0836 83.9974C41.0836 81.4119 38.9819 79.3159 36.3893 79.3159C33.7968 79.3159 31.6951 81.4119 31.6951 83.9974C31.6951 86.5829 33.7968 88.6789 36.3893 88.6789Z" fill="#FED101"/>
<path d="M198.124 170.508C200.716 170.508 202.818 168.412 202.818 165.827C202.818 163.241 200.716 161.145 198.124 161.145C195.531 161.145 193.429 163.241 193.429 165.827C193.429 168.412 195.531 170.508 198.124 170.508Z" fill="#FED101"/>
<path d="M187.317 163.466C187.238 163.466 187.158 163.438 187.095 163.383C186.926 163.236 186.853 162.994 186.234 160.504L186.089 159.92C186.044 159.738 186.155 159.553 186.337 159.509C186.52 159.464 186.705 159.575 186.75 159.757L186.895 160.341C187.21 161.609 187.484 162.709 187.583 162.914C187.683 163.041 187.683 163.224 187.574 163.35C187.507 163.427 187.411 163.467 187.317 163.467V163.466ZM187.54 162.87C187.54 162.87 187.54 162.87 187.541 162.87C187.541 162.87 187.541 162.87 187.54 162.87ZM185.576 156.871C185.424 156.871 185.287 156.769 185.246 156.616C184.948 155.476 184.658 154.4 184.36 153.329C184.309 153.149 184.415 152.961 184.596 152.91C184.777 152.861 184.965 152.966 185.016 153.146C185.316 154.22 185.607 155.299 185.906 156.444C185.954 156.625 185.844 156.81 185.662 156.858C185.633 156.866 185.605 156.869 185.576 156.869V156.871ZM183.743 150.303C183.596 150.303 183.46 150.207 183.417 150.059C183.092 148.968 182.756 147.874 182.417 146.809C182.36 146.631 182.459 146.44 182.638 146.383C182.819 146.326 183.009 146.426 183.066 146.603C183.406 147.672 183.745 148.771 184.071 149.865C184.125 150.046 184.021 150.234 183.84 150.287C183.808 150.297 183.775 150.301 183.743 150.301V150.303ZM181.677 143.809C181.535 143.809 181.402 143.72 181.354 143.578C180.99 142.504 180.611 141.425 180.229 140.371C180.166 140.194 180.257 140 180.433 139.937C180.609 139.873 180.806 139.964 180.869 140.14C181.252 141.199 181.632 142.282 181.999 143.361C182.059 143.538 181.963 143.732 181.785 143.791C181.75 143.803 181.713 143.809 181.676 143.809H181.677ZM179.356 137.408C179.22 137.408 179.09 137.325 179.038 137.191C178.628 136.13 178.204 135.07 177.776 134.036C177.704 133.862 177.786 133.663 177.961 133.592C178.134 133.523 178.333 133.603 178.406 133.777C178.836 134.816 179.262 135.882 179.673 136.946C179.741 137.121 179.653 137.317 179.478 137.385C179.438 137.4 179.396 137.408 179.356 137.408ZM176.753 131.116C176.621 131.116 176.496 131.041 176.44 130.913C175.977 129.865 175.501 128.826 175.027 127.826C174.946 127.657 175.019 127.453 175.189 127.373C175.36 127.293 175.563 127.365 175.643 127.535C176.121 128.541 176.598 129.586 177.065 130.638C177.14 130.809 177.063 131.011 176.89 131.087C176.845 131.107 176.799 131.116 176.753 131.116ZM173.837 124.964C173.712 124.964 173.593 124.897 173.532 124.778C173.018 123.766 172.485 122.755 171.95 121.776C171.861 121.611 171.921 121.405 172.086 121.315C172.251 121.225 172.459 121.286 172.548 121.451C173.087 122.436 173.622 123.453 174.14 124.471C174.225 124.639 174.158 124.843 173.99 124.928C173.94 124.952 173.888 124.964 173.837 124.964ZM170.569 118.995C170.451 118.995 170.339 118.935 170.275 118.827C169.697 117.847 169.102 116.874 168.506 115.94C168.406 115.782 168.452 115.572 168.611 115.472C168.77 115.372 168.98 115.418 169.081 115.577C169.68 116.518 170.281 117.495 170.862 118.483C170.958 118.645 170.904 118.853 170.742 118.948C170.688 118.981 170.627 118.995 170.569 118.995ZM166.91 113.264C166.802 113.264 166.695 113.213 166.629 113.117C165.976 112.177 165.307 111.253 164.64 110.37C164.527 110.22 164.556 110.006 164.706 109.894C164.858 109.78 165.071 109.81 165.184 109.96C165.858 110.851 166.533 111.783 167.189 112.731C167.296 112.885 167.257 113.096 167.103 113.204C167.044 113.244 166.976 113.264 166.91 113.264ZM67.5807 109.43C67.3968 109.43 67.2454 109.283 67.2408 109.1C67.2361 108.912 67.3845 108.756 67.5714 108.75C68.7272 108.719 69.8599 108.635 70.9353 108.502C71.1192 108.481 71.2922 108.612 71.3154 108.798C71.3386 108.985 71.2057 109.154 71.0187 109.177C69.9217 109.313 68.7674 109.399 67.59 109.431H67.5807V109.43ZM64.1751 109.381C64.1751 109.381 64.1628 109.381 64.1566 109.381C63.0271 109.317 61.8774 109.209 60.7386 109.057C60.5517 109.032 60.4219 108.861 60.4466 108.675C60.4713 108.488 60.6413 108.359 60.8298 108.384C61.9516 108.533 63.0842 108.641 64.1952 108.702C64.3837 108.713 64.5274 108.874 64.5166 109.06C64.5073 109.24 64.3559 109.381 64.1767 109.381H64.1751ZM74.327 108.565C74.174 108.565 74.0349 108.462 73.9963 108.308C73.95 108.126 74.0612 107.941 74.2435 107.897C74.7395 107.772 75.2247 107.633 75.6852 107.484C76.2909 107.286 76.8843 107.088 77.4653 106.889C77.6445 106.827 77.8376 106.923 77.8979 107.1C77.9597 107.277 77.8639 107.471 77.6862 107.531C77.1006 107.732 76.5041 107.93 75.8953 108.129C75.4194 108.285 74.9188 108.428 74.4089 108.555C74.3811 108.562 74.3532 108.565 74.3254 108.565H74.327ZM57.4289 108.481C57.4057 108.481 57.3809 108.479 57.3578 108.473C56.236 108.236 55.1173 107.954 54.031 107.633C53.8502 107.581 53.7482 107.391 53.8008 107.211C53.8533 107.032 54.0418 106.926 54.2241 106.981C55.2934 107.296 56.3951 107.575 57.4999 107.807C57.6838 107.846 57.8012 108.026 57.7626 108.211C57.7286 108.371 57.5865 108.481 57.4289 108.481ZM162.796 107.833C162.698 107.833 162.602 107.792 162.534 107.71C161.806 106.833 161.055 105.973 160.304 105.154C160.177 105.015 160.187 104.801 160.326 104.674C160.465 104.548 160.68 104.557 160.806 104.696C161.567 105.523 162.324 106.391 163.059 107.277C163.18 107.422 163.16 107.636 163.014 107.755C162.951 107.807 162.874 107.833 162.798 107.833H162.796ZM50.9004 106.553C50.8603 106.553 50.817 106.545 50.7768 106.53C49.6937 106.111 48.6337 105.645 47.6293 105.147C47.4609 105.064 47.3913 104.861 47.4763 104.693C47.5598 104.525 47.7637 104.456 47.9321 104.54C48.918 105.029 49.9579 105.485 51.0225 105.896C51.1987 105.964 51.2852 106.161 51.2172 106.336C51.1647 106.47 51.0364 106.553 50.8989 106.553H50.9004ZM80.7781 106.402C80.6406 106.402 80.5108 106.319 80.4598 106.181C80.3934 106.006 80.483 105.81 80.6591 105.744C81.73 105.342 82.7915 104.924 83.8144 104.503C83.989 104.432 84.1883 104.514 84.2594 104.688C84.3305 104.862 84.2486 105.061 84.074 105.132C83.0434 105.556 81.9741 105.977 80.8987 106.38C80.8585 106.396 80.8183 106.402 80.7781 106.402ZM87.0686 103.811C86.9388 103.811 86.8152 103.737 86.758 103.611C86.6807 103.44 86.758 103.238 86.928 103.161C87.9509 102.7 88.9831 102.215 89.9951 101.719C90.1636 101.637 90.3675 101.705 90.451 101.874C90.5344 102.042 90.4649 102.246 90.2949 102.329C89.2751 102.828 88.2367 103.318 87.2061 103.781C87.1613 103.801 87.1134 103.811 87.067 103.811H87.0686ZM44.8093 103.523C44.7475 103.523 44.6842 103.506 44.6285 103.471C43.6396 102.85 42.6955 102.18 41.8209 101.478C41.6742 101.361 41.651 101.147 41.7684 101.001C41.8858 100.854 42.1006 100.831 42.2474 100.948C43.1004 101.632 44.0244 102.289 44.9901 102.896C45.1493 102.996 45.1972 103.206 45.0967 103.365C45.0318 103.468 44.9221 103.523 44.8078 103.523H44.8093ZM158.181 102.816C158.095 102.816 158.01 102.784 157.943 102.719C157.129 101.924 156.291 101.152 155.452 100.424C155.31 100.301 155.295 100.087 155.418 99.9451C155.542 99.8033 155.757 99.7895 155.899 99.9112C156.747 100.648 157.595 101.429 158.419 102.233C158.553 102.364 158.555 102.58 158.424 102.714C158.357 102.782 158.269 102.816 158.179 102.816H158.181ZM93.1751 100.817C93.0531 100.817 92.9356 100.753 92.8738 100.637C92.7858 100.471 92.8491 100.266 93.0144 100.178C93.9771 99.6677 94.9506 99.133 95.9889 98.5474C96.1527 98.455 96.3613 98.512 96.454 98.6753C96.5467 98.8387 96.4896 99.0467 96.3258 99.1392C95.2828 99.7294 94.3047 100.266 93.3358 100.779C93.2848 100.807 93.2308 100.819 93.1767 100.819L93.1751 100.817ZM39.5233 99.2609C39.4336 99.2609 39.344 99.2255 39.2776 99.1561C38.471 98.3163 37.7308 97.4256 37.0741 96.5087C36.9644 96.3562 37 96.1435 37.1545 96.0356C37.3075 95.9278 37.5207 95.9617 37.6289 96.1158C38.2655 97.0064 38.9855 97.8725 39.7689 98.6877C39.8987 98.8233 39.8941 99.0375 39.7581 99.1684C39.6917 99.2316 39.6067 99.2625 39.5233 99.2625V99.2609ZM153.036 98.361C152.963 98.361 152.89 98.3379 152.83 98.2916C151.929 97.6059 151.004 96.9494 150.078 96.3407C149.92 96.2375 149.877 96.0264 149.981 95.8692C150.084 95.7136 150.296 95.6704 150.454 95.7721C151.391 96.3901 152.331 97.0558 153.244 97.7508C153.394 97.8648 153.422 98.0774 153.309 98.2269C153.243 98.3147 153.141 98.361 153.039 98.361H153.036ZM99.1025 97.4826C98.985 97.4826 98.8722 97.4225 98.8089 97.3146C98.7131 97.1528 98.7672 96.9448 98.9294 96.8493L100.263 96.0649C100.805 95.7459 101.337 95.4316 101.862 95.1249C102.024 95.0294 102.233 95.0849 102.329 95.2467C102.425 95.4085 102.369 95.6165 102.207 95.712C101.683 96.0187 101.151 96.3315 100.609 96.6505L99.2755 97.4364C99.2214 97.4687 99.1612 97.4826 99.1025 97.4826ZM147.36 94.6333C147.304 94.6333 147.247 94.6195 147.195 94.5902C146.209 94.0401 145.197 93.5269 144.189 93.0631C144.019 92.9845 143.944 92.7826 144.023 92.6116C144.101 92.4421 144.302 92.3666 144.475 92.4451C145.5 92.9167 146.526 93.4375 147.529 93.9954C147.692 94.0863 147.751 94.2943 147.66 94.4577C147.598 94.5686 147.482 94.6318 147.362 94.6318L147.36 94.6333ZM104.988 94.0724C104.868 94.0724 104.752 94.0092 104.69 93.8968C104.599 93.7319 104.659 93.5254 104.824 93.4345C105.923 92.8304 106.918 92.3172 107.864 91.8673C108.032 91.7856 108.236 91.858 108.318 92.0275C108.4 92.197 108.327 92.3989 108.157 92.4806C107.224 92.9259 106.241 93.4329 105.153 94.0308C105.101 94.0601 105.045 94.0724 104.99 94.0724H104.988ZM141.19 91.7979C141.152 91.7979 141.111 91.7918 141.073 91.7764C140.02 91.3911 138.94 91.0444 137.865 90.7485C137.684 90.6977 137.578 90.5112 137.627 90.3309C137.678 90.1491 137.867 90.0458 138.046 90.0936C139.14 90.3956 140.237 90.747 141.306 91.1399C141.482 91.2047 141.573 91.4004 141.508 91.576C141.458 91.7132 141.328 91.7979 141.189 91.7979H141.19ZM111.136 91.18C110.999 91.18 110.869 91.0968 110.818 90.9596C110.752 90.784 110.841 90.5883 111.017 90.522C112.111 90.1136 113.182 89.7746 114.29 89.4865C114.469 89.4402 114.658 89.5481 114.706 89.7299C114.754 89.9118 114.644 90.0967 114.462 90.1445C113.377 90.4265 112.328 90.7578 111.255 91.1584C111.217 91.1723 111.177 91.18 111.136 91.18ZM134.646 89.9904C134.625 89.9904 134.603 89.9888 134.581 89.9842C133.674 89.8116 132.747 89.6668 131.828 89.5558C131.63 89.5311 131.434 89.508 131.239 89.4865C131.052 89.4649 130.918 89.2969 130.939 89.1105C130.961 88.924 131.131 88.7899 131.316 88.8115C131.513 88.8346 131.71 88.8577 131.91 88.8824C132.845 88.9964 133.787 89.1428 134.708 89.3185C134.894 89.3539 135.014 89.5312 134.979 89.7161C134.948 89.8794 134.804 89.9919 134.645 89.9919L134.646 89.9904ZM117.703 89.4726C117.538 89.4726 117.393 89.3524 117.367 89.1844C117.337 88.9995 117.465 88.8254 117.652 88.7976C118.745 88.6297 119.893 88.5095 121.063 88.4355C121.259 88.4247 121.412 88.5665 121.424 88.753C121.437 88.941 121.293 89.1012 121.106 89.1135C119.955 89.186 118.828 89.3046 117.756 89.468C117.739 89.4711 117.72 89.4726 117.703 89.4726ZM127.886 89.1721C127.878 89.1721 127.871 89.1721 127.861 89.1721C126.695 89.092 125.558 89.0442 124.477 89.0319C124.289 89.0303 124.139 88.8762 124.141 88.6882C124.142 88.5018 124.295 88.3523 124.481 88.3523H124.485C125.578 88.3646 126.729 88.4124 127.908 88.4941C128.095 88.5079 128.237 88.6697 128.225 88.8562C128.212 89.035 128.062 89.1721 127.885 89.1721H127.886Z" fill="black"/>
<path d="M145.915 101.044C150.08 101.044 153.457 97.676 153.457 93.522C153.457 89.368 150.08 86.0005 145.915 86.0005C141.75 86.0005 138.373 89.368 138.373 93.522C138.373 97.676 141.75 101.044 145.915 101.044Z" fill="#FF6C08"/>
<path d="M166.393 66.2563L162.932 64.8093L159.559 71.585C159.063 72.582 159.435 73.7147 160.39 74.1138C161.347 74.5129 162.524 74.029 163.02 73.0305L166.393 66.2548V66.2563Z" fill="#F4AA74"/>
<path d="M163.822 62.9895L160.361 61.5425L156.988 68.3182C156.492 69.3152 156.864 70.4478 157.819 70.8469C158.776 71.246 159.953 70.7622 160.449 69.7636L163.822 62.9879V62.9895Z" fill="#F4AA74"/>
<path d="M160.673 60.9354L157.581 59.644L154.568 65.6939C154.125 66.5846 154.457 67.5955 155.311 67.953C156.164 68.309 157.217 67.8775 157.66 66.9868L160.673 60.9369V60.9354Z" fill="#F4AA74"/>
<path d="M168.469 70.494L165.85 67.8821L155.25 78.4532C154.527 79.1744 154.527 80.344 155.25 81.0652C155.974 81.7864 157.146 81.7864 157.869 81.0652L168.469 70.494Z" fill="#F4AA74"/>
<path d="M178.131 61.7042L170.822 63.6874L170.477 76.6317C170.365 77.7057 171.14 78.5825 172.211 78.5903C173.282 78.598 174.243 77.7335 174.356 76.6594L174.972 70.8252L178.131 61.7026V61.7042Z" fill="#F4AA74"/>
<path d="M178.131 61.3838L185.812 51.7789L174.833 43.3081L167.891 51.7604L157.595 59.6302L168.469 70.4941L178.131 61.3838Z" fill="#F4AA74"/>
<path d="M185.811 51.7789L174.833 43.3081L172.122 46.3284L180.53 58.4313L185.811 51.7789Z" fill="#020202"/>
<path d="M159.676 73.9212C159.594 73.9212 159.512 73.8919 159.447 73.8334C158.486 72.9689 159.062 71.8131 159.251 71.4341L162.247 65.3888C162.33 65.2208 162.534 65.1515 162.703 65.2347C162.871 65.3179 162.941 65.5213 162.857 65.6893L159.86 71.7361C159.39 72.6807 159.602 73.0598 159.901 73.3295C160.04 73.4558 160.053 73.67 159.926 73.8087C159.86 73.8827 159.765 73.9212 159.673 73.9212H159.676Z" fill="black"/>
<path d="M158.521 71.3246C158.238 71.3246 157.955 71.2722 157.688 71.1598C157.163 70.9409 156.762 70.5249 156.563 69.9917C156.348 69.4169 156.391 68.7512 156.684 68.1672L159.695 62.1373C159.779 61.9693 159.984 61.9015 160.152 61.9848C160.321 62.068 160.39 62.2729 160.305 62.4409L157.294 68.4707C157.087 68.8868 157.053 69.3553 157.203 69.7559C157.336 70.1119 157.601 70.3893 157.952 70.5341C158.746 70.867 159.729 70.4524 160.146 69.6142L162.251 65.3888C162.334 65.2208 162.538 65.1515 162.707 65.2362C162.875 65.3194 162.945 65.5228 162.86 65.6908L160.755 69.9177C160.318 70.7945 159.418 71.3277 158.521 71.3277V71.3246Z" fill="black"/>
<path d="M155.937 68.4151C155.681 68.4151 155.423 68.3673 155.18 68.2656C154.701 68.0653 154.338 67.6877 154.156 67.2008C153.961 66.6769 154 66.0728 154.264 65.5427L157.277 59.4913C157.361 59.3233 157.565 59.2539 157.733 59.3387C157.901 59.4219 157.971 59.6253 157.886 59.7933L154.873 65.8447C154.692 66.2084 154.663 66.6168 154.792 66.9635C154.908 67.2717 155.139 67.5105 155.441 67.6384C156.131 67.925 156.988 67.566 157.353 66.834L159.692 62.1371C159.776 61.9692 159.98 61.8998 160.148 61.9846C160.317 62.0678 160.386 62.2712 160.301 62.4392L157.962 67.1361C157.566 67.9312 156.749 68.4151 155.933 68.4151H155.937Z" fill="black"/>
<path d="M156.56 81.9466C155.974 81.9466 155.423 81.7186 155.009 81.3056C154.154 80.4534 154.154 79.065 155.009 78.2128L165.375 67.4198C165.507 67.2842 165.721 67.2796 165.857 67.409C165.993 67.5385 165.998 67.7542 165.868 67.8898L155.497 78.689C154.902 79.2823 154.902 80.2392 155.492 80.8264C155.778 81.1114 156.158 81.2686 156.561 81.2686C156.965 81.2686 157.345 81.1114 157.631 80.8264L168.231 70.2552C168.364 70.1227 168.58 70.1227 168.713 70.2552C168.846 70.3877 168.846 70.6035 168.713 70.736L158.113 81.3071C157.699 81.7201 157.149 81.9482 156.561 81.9482L156.56 81.9466Z" fill="black"/>
<path d="M172.225 78.9309H172.208C171.596 78.9263 171.044 78.6828 170.652 78.2452C170.255 77.8014 170.072 77.2158 170.137 76.5964L170.352 68.46C170.357 68.272 170.528 68.1287 170.701 68.1287C170.89 68.1333 171.038 68.2905 171.034 68.4769L170.817 76.6395C170.771 77.0941 170.893 77.4932 171.16 77.7922C171.423 78.0849 171.797 78.2483 172.213 78.2514H172.225C173.12 78.2514 173.922 77.524 174.016 76.6241L174.632 70.7899C174.635 70.7653 174.64 70.7406 174.648 70.7175L177.806 61.2744C177.818 61.2358 177.839 61.2004 177.865 61.168L184.293 53.2582C184.41 53.1133 184.625 53.0902 184.772 53.2073C184.919 53.326 184.94 53.5402 184.821 53.685L178.432 61.5456L175.306 70.8947L174.694 76.6919C174.564 77.9278 173.458 78.9279 172.225 78.9279V78.9309Z" fill="black"/>
<path d="M168.469 70.8347C168.377 70.8347 168.286 70.7977 168.218 70.7237C168.091 70.585 168.1 70.3708 168.239 70.2445L172.604 66.2718C172.743 66.1454 172.958 66.1547 173.085 66.2934C173.212 66.4321 173.202 66.6463 173.063 66.7726L168.698 70.7453C168.633 70.8054 168.551 70.8347 168.468 70.8347H168.469Z" fill="black"/>
<path d="M157.596 59.9691C157.494 59.9691 157.392 59.9229 157.325 59.8366C157.211 59.6871 157.239 59.4745 157.389 59.3604L167.653 51.5153L173.244 44.7565C173.364 44.6117 173.578 44.5917 173.723 44.7103C173.868 44.8305 173.888 45.0432 173.769 45.188L168.154 51.9776C168.137 51.9976 168.119 52.0161 168.099 52.0315L157.803 59.8998C157.741 59.9475 157.669 59.9691 157.596 59.9691Z" fill="black"/>
<path d="M281.291 76.5547C279.482 79.4024 276.31 80.8663 273.159 80.6383H253.086V85.9993H214.513V44.8336L200.075 35.7171L184.325 55.6004L170.526 45.1079L193.301 19.8496L194.002 19.0683L194.027 19.0452C196.892 16.2453 201.413 15.6674 204.95 17.9003L278.549 64.3763C282.677 66.9852 283.904 72.4356 281.291 76.5531V76.5547Z" fill="#FFDD00"/>
<path d="M253.087 86.3399H214.515C214.326 86.3399 214.175 86.1873 214.175 86.0009V45.0231L200.154 36.1717L184.594 55.8146C184.479 55.9594 184.268 55.9872 184.119 55.8747L170.321 45.3821C170.245 45.3251 170.197 45.2388 170.188 45.1433C170.179 45.0493 170.21 44.9553 170.274 44.8844L193.75 18.8464C193.75 18.8464 193.784 18.8125 193.789 18.8079C196.847 15.8199 201.51 15.3314 205.132 17.6167L278.731 64.0927C283.01 66.7971 284.287 72.4695 281.579 76.738C279.762 79.5981 276.531 81.2223 273.134 80.9788H253.427V86.0009C253.427 86.1889 253.274 86.3399 253.087 86.3399ZM214.856 85.6603H252.747V80.6382C252.747 80.4502 252.9 80.2992 253.087 80.2992H273.161C276.328 80.5304 279.323 79.0217 281.005 76.3728C283.513 72.4202 282.33 67.1685 278.368 64.6644L204.769 18.1884C201.415 16.0711 197.097 16.5242 194.268 19.2887L193.557 20.0777L171.028 45.0616L184.266 55.1273L199.809 35.506C199.917 35.3688 200.11 35.3365 200.259 35.4289L214.697 44.5454C214.796 44.607 214.855 44.7164 214.855 44.832V85.6572L214.856 85.6603Z" fill="black"/>
<path d="M184.324 55.9426C184.249 55.9426 184.175 55.918 184.112 55.8687C183.964 55.7531 183.939 55.5389 184.056 55.391L204.261 29.8877C204.377 29.7413 204.592 29.7151 204.74 29.8322C204.888 29.9478 204.913 30.162 204.796 30.3099L184.591 55.8132C184.524 55.8979 184.424 55.9426 184.324 55.9426Z" fill="black"/>
<path d="M237.854 37.0623C242.59 37.0623 246.43 33.3112 246.43 28.684C246.43 24.0568 242.59 20.3057 237.854 20.3057C233.118 20.3057 229.278 24.0568 229.278 28.684C229.278 33.3112 233.118 37.0623 237.854 37.0623Z" fill="black"/>
<path d="M238.897 42.9534L232.281 46.1756V34.0774H238.897V42.9534Z" fill="#F4AA74"/>
<path d="M238.897 36.5799V34.0774H232.281V39.6003C232.877 39.7189 234.069 39.8684 235.434 39.4184C237.573 38.7157 238.624 37.0469 238.897 36.5784V36.5799Z" fill="black"/>
<path d="M234.689 37.9948C237.628 37.9948 240.01 35.3682 240.01 32.1282C240.01 28.8882 237.628 26.2617 234.689 26.2617C231.75 26.2617 229.367 28.8882 229.367 32.1282C229.367 35.3682 231.75 37.9948 234.689 37.9948Z" fill="#F4AA74"/>
<path d="M234.691 38.3337C231.568 38.3337 229.029 35.5491 229.029 32.1281C229.029 28.7072 231.569 25.9226 234.691 25.9226C237.812 25.9226 240.352 28.7072 240.352 32.1281C240.352 35.5491 237.812 38.3337 234.691 38.3337ZM234.691 26.6022C231.945 26.6022 229.709 29.0816 229.709 32.1281C229.709 35.1747 231.943 37.6541 234.691 37.6541C237.438 37.6541 239.671 35.1747 239.671 32.1281C239.671 29.0816 237.436 26.6022 234.691 26.6022Z" fill="black"/>
<path d="M236.969 34.6737C236.455 35.1437 235.793 35.4612 235.045 35.5367C233.38 35.7062 231.878 34.6259 231.464 33.0603L236.969 34.6737Z" fill="white"/>
<path d="M253.107 80.9774H241.155C240.967 80.9774 240.815 80.8249 240.815 80.6384V62.7985C240.815 62.6105 240.968 62.4595 241.155 62.4595H269.906C270.095 62.4595 270.246 62.612 270.246 62.7985C270.246 62.9849 270.093 63.1375 269.906 63.1375H241.497V80.2979H253.109C253.297 80.2979 253.449 80.4504 253.449 80.6369C253.449 80.8234 253.296 80.9759 253.109 80.9759L253.107 80.9774Z" fill="black"/>
<path d="M236.293 65.7818C234.872 65.7818 234.046 63.8247 230.837 63.8247H223.1C220.803 63.8247 218.612 64.7801 217.051 66.4613L216.237 67.3397C215.605 68.0208 215.466 69.0039 215.85 69.8191L215.864 69.8284L214.946 70.8177C214.245 71.5728 214.152 72.7008 214.705 73.5575L214.155 74.1493C213.427 74.9336 213.355 76.1202 213.981 76.9878L214.528 77.7429C214.042 78.4502 214.038 79.3979 214.554 80.1098C215.327 81.1792 216.892 81.2625 217.773 80.2808L218.751 79.1914C219.219 78.6705 219.886 78.3731 220.586 78.3731H241.16V65.7771H236.295L236.293 65.7818Z" fill="#F4AA74"/>
<path d="M236.657 65.7817L241.159 78.3762V65.7817H236.657Z" fill="#020202"/>
<path d="M214.704 73.8985C214.591 73.8985 214.483 73.843 214.416 73.7428C213.777 72.752 213.891 71.4545 214.694 70.5884L216.136 69.0367C217.357 67.7207 219.09 66.9656 220.889 66.9656H224.854C225.043 66.9656 225.194 67.1181 225.194 67.3046C225.194 67.4911 225.041 67.6436 224.854 67.6436H220.889C219.279 67.6436 217.729 68.3186 216.637 69.4974L215.195 71.0492C214.603 71.6871 214.518 72.6441 214.99 73.3745C215.092 73.5317 215.045 73.7428 214.888 73.8445C214.83 73.8815 214.767 73.8985 214.704 73.8985Z" fill="black"/>
<path d="M214.531 78.0912C214.426 78.0912 214.321 78.0419 214.255 77.9495L213.703 77.1867C212.985 76.1927 213.07 74.8182 213.904 73.9198L215.633 72.0568C216.673 70.938 218.146 70.2954 219.677 70.2954H224.893C225.082 70.2954 225.233 70.448 225.233 70.6344C225.233 70.8209 225.08 70.9734 224.893 70.9734H219.677C218.336 70.9734 217.044 71.5359 216.134 72.5175L214.406 74.3805C213.791 75.0432 213.728 76.0571 214.258 76.7891L214.809 77.5519C214.919 77.7044 214.885 77.9171 214.732 78.0265C214.672 78.0697 214.602 78.0912 214.533 78.0912H214.531Z" fill="black"/>
<path d="M241.501 78.717H228.703C228.514 78.717 228.363 78.5644 228.363 78.378C228.363 78.1915 228.516 78.0389 228.703 78.0389H240.82V66.1225H236.294C235.623 66.1225 235.101 65.7774 234.497 65.3782C233.68 64.8374 232.661 64.1655 230.838 64.1655H223.101C220.907 64.1655 218.792 65.087 217.302 66.6927L216.486 67.5711C215.955 68.1443 215.827 68.9703 216.159 69.676C216.239 69.8455 216.165 70.0474 215.995 70.1275C215.825 70.2077 215.623 70.1353 215.542 69.9642C215.091 69.0073 215.266 67.887 215.987 67.1088L216.802 66.2304C218.421 64.486 220.717 63.4844 223.101 63.4844H230.838C232.867 63.4844 234.027 64.2502 234.874 64.8096C235.407 65.1625 235.829 65.4414 236.294 65.4414H241.5V78.717H241.501Z" fill="black"/>
<path d="M216.233 81.3089C216.189 81.3089 216.146 81.3089 216.103 81.3058C215.371 81.2673 214.705 80.9036 214.277 80.3103C213.609 79.3872 213.688 78.1098 214.463 77.2746L216.267 75.3314C217.324 74.1926 218.822 73.5408 220.377 73.5408H224.717C224.906 73.5408 225.057 73.6933 225.057 73.8798C225.057 74.0662 224.904 74.2188 224.717 74.2188H220.377C219.011 74.2188 217.694 74.792 216.766 75.7921L214.963 77.7353C214.406 78.3348 214.351 79.2501 214.828 79.9127C215.136 80.338 215.613 80.5985 216.138 80.6262C216.662 80.6524 217.166 80.4459 217.517 80.056L218.495 78.9666C219.026 78.3748 219.788 78.0358 220.584 78.0358H232.979C235.024 78.0358 236.929 77.0265 238.079 75.3376C238.184 75.1819 238.397 75.1418 238.551 75.2466C238.707 75.3514 238.748 75.5625 238.643 75.7182C237.366 77.5935 235.249 78.7138 232.979 78.7138H220.584C219.981 78.7138 219.405 78.9712 219.002 79.4181L218.024 80.506C217.563 81.0176 216.916 81.3058 216.231 81.3058L216.233 81.3089Z" fill="black"/>
<path d="M239.328 248.081H177.607V186.527H224.574L239.328 226.623V248.081Z" fill="white"/>
<path d="M239.329 248.421H177.607C177.418 248.421 177.267 248.268 177.267 248.082V186.527C177.267 186.339 177.42 186.188 177.607 186.188H224.574C224.718 186.188 224.845 186.277 224.894 186.41L239.649 226.506C239.663 226.543 239.671 226.583 239.671 226.623V248.082C239.671 248.27 239.518 248.421 239.331 248.421H239.329ZM177.948 247.741H238.989V226.683L224.338 186.868H177.95V247.742L177.948 247.741Z" fill="black"/>
<path d="M237.601 221.936L196.61 217.303V195.77H227.645L237.601 221.936Z" fill="#B9BEC6"/>
<path d="M237.603 222.275C237.59 222.275 237.577 222.275 237.564 222.272L196.892 217.641C196.72 217.621 196.591 217.476 196.591 217.303V195.768C196.591 195.58 196.744 195.429 196.931 195.429H227.967C228.109 195.429 228.237 195.519 228.287 195.651L237.924 221.817C237.964 221.928 237.946 222.051 237.872 222.144C237.807 222.225 237.708 222.273 237.604 222.273L237.603 222.275ZM197.27 217.001L237.093 221.535L227.729 196.109H197.272V217L197.27 217.001Z" fill="black"/>
<path d="M170.644 158.057H0.340088V248.02H170.644V158.057Z" fill="white"/>
<path d="M170.644 248.359H0.339941C0.151428 248.359 0 248.206 0 248.02V158.057C0 157.869 0.152973 157.718 0.339941 157.718H170.644C170.832 157.718 170.984 157.871 170.984 158.057V248.02C170.984 248.208 170.831 248.359 170.644 248.359ZM0.681426 247.679H170.304V158.396H0.681426V247.679Z" fill="black"/>
<path d="M240.065 248.02H8.02295V262.134H240.065V248.02Z" fill="#0B3D59"/>
<path d="M210.763 248.081H177.604V238.111H188.14C196.751 238.111 204.965 241.731 210.763 248.081Z" fill="#0B3D59"/>
<path d="M227.648 248.544H187.318C187.13 248.544 186.978 248.391 186.978 248.205V192.29C186.978 192.102 187.131 191.951 187.318 191.951H215.655C215.797 191.951 215.926 192.041 215.975 192.173L227.967 224.762C227.981 224.799 227.989 224.839 227.989 224.879V248.205C227.989 248.393 227.836 248.544 227.649 248.544H227.648ZM187.66 247.864H227.308V224.939L215.419 192.631H187.66V247.866V247.864Z" fill="black"/>
<path d="M222.269 194.633H216.513V213.295H222.269V194.633Z" fill="black"/>
<path d="M222.269 214.251H216.513V221.056H222.269V214.251Z" fill="black"/>
<path d="M239.325 230.653H236.039V242.798H239.325V230.653Z" fill="black"/>
<path d="M204.446 225.027H192.823C192.635 225.027 192.483 224.874 192.483 224.688C192.483 224.501 192.636 224.349 192.823 224.349H204.446C204.635 224.349 204.786 224.501 204.786 224.688C204.786 224.874 204.633 225.027 204.446 225.027Z" fill="black"/>
<path d="M192.901 281.659C201.62 281.659 208.688 274.61 208.688 265.915C208.688 257.22 201.62 250.171 192.901 250.171C184.182 250.171 177.114 257.22 177.114 265.915C177.114 274.61 184.182 281.659 192.901 281.659Z" fill="white"/>
<path d="M192.901 282C184.008 282 176.774 274.785 176.774 265.917C176.774 257.048 184.008 249.832 192.901 249.832C201.793 249.832 209.029 257.047 209.029 265.917C209.029 274.786 201.795 282 192.901 282ZM192.901 250.511C184.384 250.511 177.455 257.423 177.455 265.917C177.455 274.41 184.384 281.32 192.901 281.32C201.418 281.32 208.348 274.41 208.348 265.917C208.348 257.423 201.418 250.511 192.901 250.511Z" fill="black"/>
<path d="M192.901 272.654C196.633 272.654 199.658 269.637 199.658 265.915C199.658 262.194 196.633 259.177 192.901 259.177C189.169 259.177 186.144 262.194 186.144 265.915C186.144 269.637 189.169 272.654 192.901 272.654Z" fill="white"/>
<path d="M192.901 272.994C188.987 272.994 185.802 269.819 185.802 265.915C185.802 262.012 188.987 258.836 192.901 258.836C196.815 258.836 199.999 262.012 199.999 265.915C199.999 269.819 196.815 272.994 192.901 272.994ZM192.901 259.517C189.362 259.517 186.483 262.388 186.483 265.917C186.483 269.446 189.362 272.316 192.901 272.316C196.439 272.316 199.318 269.446 199.318 265.917C199.318 262.388 196.439 259.517 192.901 259.517Z" fill="black"/>
<path d="M55.1932 281.659C63.9122 281.659 70.9803 274.61 70.9803 265.915C70.9803 257.22 63.9122 250.171 55.1932 250.171C46.4742 250.171 39.406 257.22 39.406 265.915C39.406 274.61 46.4742 281.659 55.1932 281.659Z" fill="white"/>
<path d="M55.193 282C46.3005 282 39.0659 274.785 39.0659 265.917C39.0659 257.048 46.3005 249.832 55.193 249.832C64.0855 249.832 71.3201 257.047 71.3201 265.917C71.3201 274.787 64.0855 282 55.193 282ZM55.193 250.512C46.676 250.512 39.7473 257.423 39.7473 265.917C39.7473 274.411 46.676 281.32 55.193 281.32C63.7101 281.32 70.6402 274.411 70.6402 265.917C70.6402 257.423 63.7116 250.512 55.193 250.512Z" fill="black"/>
<path d="M55.1895 272.654C58.9213 272.654 61.9466 269.637 61.9466 265.915C61.9466 262.194 58.9213 259.177 55.1895 259.177C51.4576 259.177 48.4324 262.194 48.4324 265.915C48.4324 269.637 51.4576 272.654 55.1895 272.654Z" fill="white"/>
<path d="M55.1909 272.994C51.2769 272.994 48.0923 269.819 48.0923 265.915C48.0923 262.012 51.2769 258.836 55.1909 258.836C59.1048 258.836 62.2894 262.012 62.2894 265.915C62.2894 269.819 59.1048 272.994 55.1909 272.994ZM55.1909 259.517C51.6524 259.517 48.7737 262.388 48.7737 265.917C48.7737 269.446 51.6524 272.316 55.1909 272.316C58.7293 272.316 61.608 269.446 61.608 265.917C61.608 262.388 58.7293 259.517 55.1909 259.517Z" fill="black"/>
<path d="M55.5853 190.589H4.85229V241.184H55.5853V190.589Z" fill="#FF6C08"/>
<path d="M55.5849 241.525H4.8519C4.66339 241.525 4.51196 241.372 4.51196 241.186V190.59C4.51196 190.402 4.66494 190.251 4.8519 190.251H55.5849C55.7734 190.251 55.9249 190.404 55.9249 190.59V241.186C55.9249 241.374 55.7719 241.525 55.5849 241.525ZM5.19184 240.845H55.2435V190.93H5.19184V240.845Z" fill="black"/>
<path d="M8.46299 228.084C8.27448 228.084 8.12305 227.931 8.12305 227.745V194.193C8.12305 194.005 8.27602 193.854 8.46299 193.854H33.753C33.9415 193.854 34.093 194.007 34.093 194.193C34.093 194.379 33.94 194.532 33.753 194.532H8.80447V227.743C8.80447 227.931 8.6515 228.082 8.46453 228.082L8.46299 228.084Z" fill="black"/>
<path d="M51.9743 237.92H24.3387C24.1502 237.92 23.9988 237.768 23.9988 237.581C23.9988 237.395 24.1518 237.242 24.3387 237.242H51.6344V206.669C51.6344 206.481 51.7874 206.33 51.9743 206.33C52.1613 206.33 52.3143 206.483 52.3143 206.669V237.581C52.3143 237.769 52.1613 237.92 51.9743 237.92Z" fill="black"/>
<path d="M8.46259 233.887C8.37606 233.887 8.28953 233.855 8.22309 233.79C8.08866 233.659 8.08711 233.443 8.21845 233.309L47.0258 193.954C47.1571 193.82 47.3734 193.819 47.5079 193.95C47.6423 194.081 47.6438 194.296 47.5125 194.43L8.70519 233.786C8.63874 233.853 8.55067 233.887 8.46259 233.887Z" fill="black"/>
<path d="M13.4572 237.92C13.3707 237.92 13.2842 237.888 13.2177 237.823C13.0833 237.692 13.0817 237.476 13.2131 237.342L51.7268 198.285C51.8581 198.151 52.0745 198.149 52.2089 198.28C52.3433 198.411 52.3449 198.627 52.2135 198.761L13.6998 237.818C13.6334 237.886 13.5453 237.92 13.4572 237.92Z" fill="black"/>
<path d="M13.761 222.464C13.5727 222.464 13.4214 222.312 13.4214 222.125V196.901C13.4214 196.713 13.5742 196.562 13.761 196.562C13.9478 196.562 14.1006 196.714 14.1006 196.901V222.125C14.1006 222.313 13.9478 222.464 13.761 222.464Z" fill="#020202"/>
<path d="M20.3784 217.068C20.1901 217.068 20.0388 216.915 20.0388 216.729V196.901C20.0388 196.713 20.1917 196.562 20.3784 196.562C20.5652 196.562 20.7181 196.714 20.7181 196.901V216.729C20.7181 216.917 20.5652 217.068 20.3784 217.068Z" fill="#020202"/>
<path d="M26.99 211.07C26.8017 211.07 26.6504 210.918 26.6504 210.731V196.901C26.6504 196.713 26.8032 196.562 26.99 196.562C27.1768 196.562 27.3296 196.714 27.3296 196.901V210.731C27.3296 210.919 27.1768 211.07 26.99 211.07Z" fill="#020202"/>
<path d="M33.6035 205.074C33.4152 205.074 33.2639 204.922 33.2639 204.735V196.901C33.2639 196.713 33.4168 196.562 33.6035 196.562C33.7903 196.562 33.9432 196.714 33.9432 196.901V204.735C33.9432 204.923 33.7903 205.074 33.6035 205.074Z" fill="#020202"/>
<path d="M47.1304 235.357C46.9421 235.357 46.7908 235.205 46.7908 235.018V209.794C46.7908 209.606 46.9436 209.455 47.1304 209.455C47.3172 209.455 47.47 209.608 47.47 209.794V235.018C47.47 235.206 47.3172 235.357 47.1304 235.357Z" fill="#020202"/>
<path d="M40.5149 235.357C40.3266 235.357 40.1753 235.205 40.1753 235.018V215.191C40.1753 215.003 40.3281 214.852 40.5149 214.852C40.7017 214.852 40.8545 215.004 40.8545 215.191V235.018C40.8545 235.206 40.7017 235.357 40.5149 235.357Z" fill="#020202"/>
<path d="M33.9053 235.357C33.717 235.357 33.5657 235.205 33.5657 235.018V221.188C33.5657 221 33.7185 220.849 33.9053 220.849C34.0921 220.849 34.2449 221.002 34.2449 221.188V235.018C34.2449 235.206 34.0921 235.357 33.9053 235.357Z" fill="#020202"/>
<path d="M27.2879 235.357C27.0995 235.357 26.9482 235.205 26.9482 235.018V227.184C26.9482 226.996 27.1011 226.845 27.2879 226.845C27.4747 226.845 27.6275 226.998 27.6275 227.184V235.018C27.6275 235.206 27.4747 235.357 27.2879 235.357Z" fill="#020202"/>
<path d="M27.7889 204.639L15.1321 199.995L11.9212 208.698L24.578 213.342L27.7889 204.639Z" fill="white"/>
<path d="M24.5755 213.681C24.5369 213.681 24.4967 213.675 24.4581 213.659L11.8015 209.015C11.6253 208.95 11.5342 208.754 11.5991 208.579L14.8099 199.875C14.8409 199.79 14.9042 199.722 14.9861 199.684C15.068 199.647 15.1622 199.642 15.2472 199.673L27.9038 204.318C28.08 204.382 28.1712 204.578 28.1063 204.754L24.8954 213.456C24.8444 213.593 24.7146 213.678 24.5755 213.678V213.681ZM12.3562 208.497L24.3731 212.906L27.3476 204.842L15.3307 200.433L12.3562 208.498V208.497Z" fill="black"/>
<path d="M93.9871 207.973H60.6853V241.184H93.9871V207.973Z" fill="#FFDD00"/>
<path d="M93.9889 241.525H60.6871C60.4986 241.525 60.3472 241.372 60.3472 241.186V207.974C60.3472 207.786 60.5001 207.635 60.6871 207.635H93.9889C94.1774 207.635 94.3289 207.788 94.3289 207.974V241.186C94.3289 241.374 94.1759 241.525 93.9889 241.525ZM61.027 240.845H93.6474V208.313H61.027V240.845Z" fill="black"/>
<path d="M63.0604 232.701C62.8719 232.701 62.7205 232.548 62.7205 232.362V210.338C62.7205 210.15 62.8734 209.999 63.0604 209.999H79.6603C79.8488 209.999 80.0003 210.152 80.0003 210.338C80.0003 210.524 79.8473 210.677 79.6603 210.677H63.4003V232.36C63.4003 232.548 63.2474 232.699 63.0604 232.699V232.701Z" fill="black"/>
<path d="M91.6147 239.159H73.4742C73.2857 239.159 73.1343 239.007 73.1343 238.82C73.1343 238.634 73.2873 238.481 73.4742 238.481H91.2732V218.53C91.2732 218.342 91.4262 218.191 91.6131 218.191C91.8001 218.191 91.9531 218.344 91.9531 218.53V238.822C91.9531 239.01 91.8001 239.161 91.6131 239.161L91.6147 239.159Z" fill="black"/>
<path d="M63.058 236.512C62.9715 236.512 62.885 236.479 62.8185 236.415C62.6841 236.284 62.6826 236.068 62.8139 235.934L88.2863 210.101C88.4176 209.967 88.6339 209.965 88.7684 210.096C88.9028 210.227 88.9043 210.443 88.773 210.577L63.3006 236.41C63.2342 236.478 63.1461 236.512 63.058 236.512Z" fill="black"/>
<path d="M66.3325 239.159C66.2459 239.159 66.1594 239.127 66.093 239.062C65.9585 238.931 65.957 238.715 66.0883 238.581L91.3691 212.943C91.5004 212.808 91.7167 212.807 91.8512 212.938C91.9856 213.069 91.9872 213.285 91.8558 213.419L66.5751 239.058C66.5086 239.125 66.4205 239.159 66.3325 239.159Z" fill="black"/>
<path d="M66.532 229.013C66.3437 229.013 66.1924 228.861 66.1924 228.674V212.116C66.1924 211.928 66.3452 211.777 66.532 211.777C66.7188 211.777 66.8716 211.93 66.8716 212.116V228.674C66.8716 228.862 66.7188 229.013 66.532 229.013Z" fill="white"/>
<path d="M70.876 225.471C70.6877 225.471 70.5364 225.318 70.5364 225.131V212.116C70.5364 211.928 70.6892 211.777 70.876 211.777C71.0628 211.777 71.2156 211.93 71.2156 212.116V225.131C71.2156 225.319 71.0628 225.471 70.876 225.471Z" fill="white"/>
<path d="M75.2141 221.535C75.0258 221.535 74.8745 221.382 74.8745 221.196V212.116C74.8745 211.928 75.0273 211.777 75.2141 211.777C75.4009 211.777 75.5538 211.93 75.5538 212.116V221.196C75.5538 221.384 75.4009 221.535 75.2141 221.535Z" fill="white"/>
<path d="M79.5559 217.598C79.3676 217.598 79.2163 217.445 79.2163 217.259V212.116C79.2163 211.928 79.3691 211.777 79.5559 211.777C79.7427 211.777 79.8956 211.93 79.8956 212.116V217.259C79.8956 217.447 79.7427 217.598 79.5559 217.598Z" fill="white"/>
<path d="M88.4392 237.476C88.2509 237.476 88.0996 237.324 88.0996 237.137V220.58C88.0996 220.392 88.2524 220.24 88.4392 220.24C88.626 220.24 88.7789 220.393 88.7789 220.58V237.137C88.7789 237.325 88.626 237.476 88.4392 237.476Z" fill="white"/>
<path d="M84.0955 237.476C83.9072 237.476 83.7559 237.324 83.7559 237.137V224.122C83.7559 223.934 83.9087 223.783 84.0955 223.783C84.2823 223.783 84.4351 223.936 84.4351 224.122V237.137C84.4351 237.325 84.2823 237.476 84.0955 237.476Z" fill="white"/>
<path d="M79.7574 237.476C79.569 237.476 79.4177 237.324 79.4177 237.137V228.059C79.4177 227.871 79.5706 227.72 79.7574 227.72C79.9442 227.72 80.097 227.873 80.097 228.059V237.137C80.097 237.325 79.9442 237.476 79.7574 237.476Z" fill="white"/>
<path d="M75.4136 237.476C75.2253 237.476 75.074 237.324 75.074 237.137V231.995C75.074 231.807 75.2268 231.656 75.4136 231.656C75.6004 231.656 75.7532 231.809 75.7532 231.995V237.137C75.7532 237.325 75.6004 237.476 75.4136 237.476Z" fill="white"/>
<path d="M75.7427 217.194L67.4348 214.146L65.3273 219.858L73.6352 222.907L75.7427 217.194Z" fill="white"/>
<path d="M73.6311 223.247C73.5925 223.247 73.5523 223.241 73.5137 223.225L65.2067 220.177C65.0306 220.113 64.9394 219.917 65.0043 219.741L67.112 214.029C67.1429 213.944 67.2062 213.876 67.2881 213.838C67.37 213.801 67.4643 213.796 67.5492 213.827L75.8577 216.875C75.9427 216.906 76.0107 216.969 76.0493 217.051C76.0864 217.132 76.091 217.226 76.0601 217.311L73.9525 223.024C73.9015 223.161 73.7717 223.245 73.6326 223.245L73.6311 223.247ZM65.7599 219.658L73.4287 222.472L75.3014 217.397L67.6327 214.584L65.7615 219.658H65.7599Z" fill="black"/>
<path d="M97.2875 242.045H163.271V192.227H97.2875V242.045Z" fill="#FF6C08"/>
<path d="M163.273 242.386H97.2889C97.1004 242.386 96.949 242.233 96.949 242.047V192.23C96.949 192.042 97.1019 191.891 97.2889 191.891H163.273C163.461 191.891 163.613 192.043 163.613 192.23V242.047C163.613 242.235 163.46 242.386 163.273 242.386ZM97.6289 241.706H162.931V192.569H97.6289V241.706Z" fill="black"/>
<path d="M163.273 200.403H97.2889C97.1004 200.403 96.949 200.251 96.949 200.064V192.228C96.949 192.04 97.1019 191.889 97.2889 191.889H163.273C163.461 191.889 163.613 192.042 163.613 192.228V200.064C163.613 200.252 163.46 200.403 163.273 200.403ZM97.6289 199.724H162.931V192.567H97.6289V199.724Z" fill="black"/>
<path d="M143.839 230.36C146.183 230.36 148.084 228.465 148.084 226.127V221.894H139.595V226.127C139.595 228.465 141.495 230.36 143.839 230.36Z" fill="black"/>
<path d="M143.84 235.948C143.652 235.948 143.501 235.795 143.501 235.609V226.129C143.501 225.941 143.654 225.79 143.84 225.79C144.027 225.79 144.18 225.942 144.18 226.129V235.609C144.18 235.797 144.027 235.948 143.84 235.948Z" fill="black"/>
<path d="M146.926 235.948H140.752C140.563 235.948 140.412 235.795 140.412 235.609C140.412 235.422 140.565 235.27 140.752 235.27H146.926C147.115 235.27 147.266 235.422 147.266 235.609C147.266 235.795 147.113 235.948 146.926 235.948Z" fill="black"/>
<path d="M127.248 214.198H132.721V191.108H127.248V214.198Z" fill="white"/>
<path d="M132.722 214.537H127.249C127.061 214.537 126.909 214.385 126.909 214.198V191.108C126.909 190.92 127.062 190.769 127.249 190.769H132.722C132.911 190.769 133.062 190.922 133.062 191.108V214.198C133.062 214.386 132.909 214.537 132.722 214.537ZM127.589 213.858H132.381V191.447H127.589V213.858Z" fill="black"/>
<path d="M96.6816 204.22V209.678H163.97V204.22H96.6816Z" fill="white"/>
<path d="M163.97 210.018H96.6815C96.493 210.018 96.3416 209.865 96.3416 209.679V204.22C96.3416 204.032 96.4945 203.881 96.6815 203.881H163.97C164.158 203.881 164.31 204.034 164.31 204.22V209.679C164.31 209.867 164.157 210.018 163.97 210.018ZM97.0214 209.338H163.628V204.559H97.0214V209.338Z" fill="black"/>
<path d="M149.944 228.233H161.233C161.233 225.355 158.893 223.022 156.007 223.022H155.171C152.285 223.022 149.945 225.355 149.945 228.233H149.944Z" fill="black"/>
<path d="M156.568 235.947C155.839 235.947 155.245 235.356 155.245 234.628V221.894C155.245 221.706 155.398 221.555 155.585 221.555C155.772 221.555 155.925 221.707 155.925 221.894V234.628C155.925 234.981 156.213 235.268 156.566 235.268C156.92 235.268 157.208 234.981 157.208 234.628V233.47C157.208 233.282 157.361 233.131 157.548 233.131C157.735 233.131 157.888 233.283 157.888 233.47V234.628C157.888 235.356 157.294 235.947 156.565 235.947H156.568Z" fill="black"/>
<path d="M93.9871 171.539H60.6853V204.751H93.9871V171.539Z" fill="#FFDD00"/>
<path d="M93.9889 205.091H60.6871C60.4986 205.091 60.3472 204.939 60.3472 204.752V171.541C60.3472 171.353 60.5001 171.202 60.6871 171.202H93.9889C94.1774 171.202 94.3289 171.354 94.3289 171.541V204.752C94.3289 204.94 94.1759 205.091 93.9889 205.091ZM61.027 204.412H93.6474V171.88H61.027V204.412Z" fill="black"/>
<path d="M63.0604 196.267C62.8719 196.267 62.7205 196.115 62.7205 195.928V173.905C62.7205 173.717 62.8734 173.566 63.0604 173.566H79.6603C79.8488 173.566 80.0003 173.718 80.0003 173.905C80.0003 174.091 79.8473 174.244 79.6603 174.244H63.4003V195.927C63.4003 196.115 63.2474 196.266 63.0604 196.266V196.267Z" fill="black"/>
<path d="M91.6147 202.724H73.4742C73.2857 202.724 73.1343 202.572 73.1343 202.385C73.1343 202.199 73.2873 202.046 73.4742 202.046H91.2732V182.095C91.2732 181.907 91.4262 181.756 91.6131 181.756C91.8001 181.756 91.9531 181.909 91.9531 182.095V202.387C91.9531 202.575 91.8001 202.726 91.6131 202.726L91.6147 202.724Z" fill="black"/>
<path d="M63.058 200.077C62.9715 200.077 62.885 200.044 62.8185 199.98C62.6841 199.849 62.6826 199.633 62.8139 199.499L88.2863 173.666C88.4176 173.532 88.6339 173.53 88.7684 173.661C88.9028 173.792 88.9043 174.008 88.773 174.142L63.3006 199.975C63.2342 200.043 63.1461 200.077 63.058 200.077Z" fill="black"/>
<path d="M66.3325 202.724C66.2459 202.724 66.1594 202.692 66.093 202.627C65.9585 202.496 65.957 202.28 66.0883 202.146L91.3691 176.507C91.5004 176.373 91.7167 176.372 91.8512 176.503C91.9856 176.634 91.9872 176.85 91.8558 176.984L66.5751 202.622C66.5086 202.69 66.4205 202.724 66.3325 202.724Z" fill="black"/>
<path d="M66.532 192.578C66.3437 192.578 66.1924 192.426 66.1924 192.239V175.681C66.1924 175.493 66.3452 175.342 66.532 175.342C66.7188 175.342 66.8716 175.495 66.8716 175.681V192.239C66.8716 192.427 66.7188 192.578 66.532 192.578Z" fill="white"/>
<path d="M70.876 189.035C70.6877 189.035 70.5364 188.883 70.5364 188.696V175.681C70.5364 175.493 70.6892 175.342 70.876 175.342C71.0628 175.342 71.2156 175.495 71.2156 175.681V188.696C71.2156 188.884 71.0628 189.035 70.876 189.035Z" fill="white"/>
<path d="M75.2141 185.1C75.0258 185.1 74.8745 184.947 74.8745 184.761V175.681C74.8745 175.493 75.0273 175.342 75.2141 175.342C75.4009 175.342 75.5538 175.495 75.5538 175.681V184.761C75.5538 184.949 75.4009 185.1 75.2141 185.1Z" fill="white"/>
<path d="M79.5559 181.164C79.3676 181.164 79.2163 181.012 79.2163 180.825V175.683C79.2163 175.495 79.3691 175.344 79.5559 175.344C79.7427 175.344 79.8956 175.497 79.8956 175.683V180.825C79.8956 181.013 79.7427 181.164 79.5559 181.164Z" fill="white"/>
<path d="M88.4392 201.042C88.2509 201.042 88.0996 200.889 88.0996 200.703V184.145C88.0996 183.957 88.2524 183.806 88.4392 183.806C88.626 183.806 88.7789 183.958 88.7789 184.145V200.703C88.7789 200.891 88.626 201.042 88.4392 201.042Z" fill="white"/>
<path d="M84.0955 201.042C83.9072 201.042 83.7559 200.889 83.7559 200.703V187.687C83.7559 187.499 83.9087 187.348 84.0955 187.348C84.2823 187.348 84.4351 187.501 84.4351 187.687V200.703C84.4351 200.891 84.2823 201.042 84.0955 201.042Z" fill="white"/>
<path d="M79.7574 201.041C79.569 201.041 79.4177 200.889 79.4177 200.702V191.623C79.4177 191.435 79.5706 191.284 79.7574 191.284C79.9442 191.284 80.097 191.436 80.097 191.623V200.702C80.097 200.89 79.9442 201.041 79.7574 201.041Z" fill="white"/>
<path d="M75.4136 201.041C75.2253 201.041 75.074 200.889 75.074 200.702V195.56C75.074 195.372 75.2268 195.221 75.4136 195.221C75.6004 195.221 75.7532 195.374 75.7532 195.56V200.702C75.7532 200.89 75.6004 201.041 75.4136 201.041Z" fill="white"/>
<path d="M75.7407 180.761L67.4329 177.713L65.3253 183.425L73.6332 186.474L75.7407 180.761Z" fill="white"/>
<path d="M73.6311 186.813C73.5909 186.813 73.5523 186.806 73.5137 186.792L65.2067 183.744C65.0306 183.679 64.9394 183.483 65.0043 183.308L67.112 177.595C67.1429 177.511 67.2062 177.443 67.2881 177.404C67.37 177.367 67.4643 177.363 67.5492 177.393L75.8577 180.441C75.9427 180.472 76.0107 180.535 76.0493 180.619C76.0864 180.7 76.091 180.794 76.0601 180.879L73.9525 186.592C73.9216 186.676 73.8582 186.744 73.7748 186.783C73.73 186.803 73.6805 186.813 73.6326 186.813H73.6311ZM65.7599 183.224L73.4287 186.038L75.3014 180.964L67.6327 178.15L65.7615 183.224H65.7599Z" fill="black"/>
</svg>
