<svg width="282" height="282" viewBox="0 0 282 282" fill="none" xmlns="http://www.w3.org/2000/svg">
<path d="M170.941 221.977C232.089 221.977 281.658 172.362 281.658 111.159C281.658 49.9556 232.089 0.340576 170.941 0.340576C109.794 0.340576 60.2239 49.9556 60.2239 111.159C60.2239 172.362 109.794 221.977 170.941 221.977Z" fill="white"/>
<path d="M139.385 129.458L128.499 124.615L123.66 114.444H117.854L115.194 109.117H110.113L107.453 107.422H95.5978L89.147 112.267L91.0822 116.058L89.7921 121.707L85.4381 125.581L86.0832 129.939L84.4697 132.522L94.8727 148.221L101.889 153.548L102.614 170.619L104.186 176.189L103.097 183.211L107.089 191.444L110.596 203.066L113.669 206.014C115.169 206.923 116.69 207.797 118.234 208.635H124.506L124.87 206.335L120.636 205.003L117.732 201.008L119.547 197.012L117.371 194.833L120.636 185.39L124.385 183.695L132.853 168.197V163.354L135.029 161.175H142.287L144.706 145.193L148.818 135.992L144.221 129.454H139.382L139.385 129.458Z" fill="#0B3D59"/>
<path d="M60.8843 99.0453L67.0518 102.096L70.0756 101.491L73.4626 105.243L78.785 106.816L79.8734 110.327L84.4706 113.595L88.221 115.532V110.811H85.5591L84.4706 108.618L84.9541 100.52H79.0267L81.567 93.2558H76.0029L74.6727 97.0081L69.1087 96.1606L68.2619 89.3802L69.9555 86.3537V83.6894L75.3994 81.0265L79.9966 82.4797L84.4722 80.0588L88.2226 81.512V87.323L91.7297 86.5155L91.4064 78.6057L99.6324 73.6005L105.6 64.3993L109.149 63.7537L114.309 59.0722L115.599 60.8474L123.664 57.4572L119.793 55.682L122.052 51.0005L127.696 51.1623L126.406 53.9068L133.985 55.5202L134.953 51.0005L133.018 50.0312L133.502 42.9288L129.953 42.4449L129.63 35.6646L124.307 38.0855L123.662 35.0189L116.646 32.9201L112.534 40.6682L108.018 43.5745L105.922 48.0942L103.341 47.2867L105.276 42.6052L97.3738 39.5386L96.2453 36.1485L105.6 31.9508L114.469 31.6272L119.792 24.041L123.34 23.8792L125.921 26.3001L122.534 28.7209L118.18 30.0123L127.696 33.8863L136.244 27.106L128.744 18.4287H116.648L114.148 20.6077V23.2304L111.567 23.6342L110.842 20.0822L106.003 21.8574V24.8438L101.04 25.2152C79.0759 43.1368 64.1159 69.3212 60.8874 99.036L60.8843 99.0453Z" fill="#0B3D59"/>
<path d="M84.0671 91.6038L87.6959 90.0706L91.6465 90.8364L97.3722 94.5903L96.082 96.4456L92.9366 95.3161L90.7197 92.8135L87.6959 92.3296L84.0671 93.621V91.6038Z" fill="#DFE3E8"/>
<path d="M99.469 95.4778H103.339L106.162 97.7384L102.816 99.1099L97.3721 98.7061L99.469 95.4778Z" fill="#DFE3E8"/>
<path d="M137.048 12.7472H143.338L151.725 9.1952L178.497 7.58179L189.463 9.357L183.174 11.9397L181.884 17.2669L177.69 19.526L177.045 23.4015L170.594 25.8224H166.562L162.53 28.889H158.176L150.112 36.7988L147.531 35.0236L143.983 32.1173L144.144 25.6606L148.015 24.0472L146.241 20.4952L146.563 16.9433L142.209 15.4917L138.177 16.1373L137.048 12.7472Z" fill="#0B3D59"/>
<path d="M174.948 27.4358H183.335L183.98 29.5346L178.658 31.6334H174.948L172.49 27.4358H174.948Z" fill="#DFE3E8"/>
<path d="M259.136 143.663L256.394 148.83L252.523 149.797V155.448L250.75 158.031L251.555 163.842L254.297 164.972L256.555 163.358L261.393 148.99L259.136 143.663Z" fill="#DFE3E8"/>
<path d="M262.844 107.424L262.199 112.268L257.684 120.741L253.007 123.323L248.491 129.62L246.878 133.816L248.653 141.242V149.152L241.555 154.317V162.067L238.491 164.326L236.879 169.169L229.807 175.788L218.9 178.692L216.88 172.236V169.169L213.655 166.425L212.848 159.161L209.784 152.38L210.59 145.601L212.525 143.663L210.913 135.107L205.914 127.683V119.773L202.204 118.642L199.623 115.899L192.527 118.642L188.012 117.351L183.98 118.966L176.56 113.8L170.916 103.791L172.528 99.2717L172.367 91.5221L175.915 84.5815L179.624 81.6752L183.173 76.3481L188.012 71.9902H192.044L195.269 70.537L208.816 69.4075V74.2508L213.655 76.026L218.9 79.2544L221.234 75.8642L228.977 78.2851L236.073 77.8012L238.491 85.2272L242.847 91.8457L243.975 96.5272L246.717 102.016L253.007 109.119L262.844 107.424Z" fill="#0B3D59"/>
<path d="M210.872 43.8611H207.365L207.97 39.7451L205.067 40.4709L205.308 44.345L201.558 45.9183L197.446 50.2777H194.18L189.463 52.5784L194.302 56.8161L194.18 59.8426L185.954 60.0846L182.689 65.7754L183.979 69.4075L187.648 70.7389L193.334 69.4075L195.149 66.2593L198.656 64.1404L199.986 59.8426L203.252 61.0538L206.639 58.7531L209.421 63.111L213.956 65.0481V67.1068L210.267 67.9544L214.44 70.7389L215.105 68.4382L217.645 64.4425L212.928 61.2942L211.234 57.5404L216.015 60.7872C215.944 54.9608 215.048 49.4025 213.578 43.8595H210.871L210.872 43.8611Z" fill="#DFE3E8"/>
<path d="M260.224 83.3302L265.547 85.5092L267.965 84.9036L268.934 86.7204L273.288 88.2937L279.152 87.6419C273.746 62.604 259.892 40.719 240.718 25.1211L238.652 25.9825L222.968 21.301L215.105 22.1886L209.46 29.5345L201.436 33.8123L204.097 38.7758L208.331 36.7987L210.025 39.5031L210.267 42.4094L215.105 40.9563L215.226 38.2919L217.524 36.7987L215.589 33.0865L219.943 28.3649L222.967 29.536L218.897 32.6026L219.821 35.2654L222.967 38.2919L220.185 39.7451L218.249 43.861H213.577C215.047 49.4039 215.943 54.9623 216.014 60.7887L218.897 62.7473L220.91 68.3164L224.175 70.3752L225.142 63.8368L227.199 64.5626V68.3149L231.069 71.0995L233.851 70.3736L236.512 71.2212L239.657 70.8575L238.447 79.4531L244.616 90.4712L246.068 94.8306L253.931 106.333L262.842 101.975L270.744 96.8894L272.558 91.8041L267.357 87.2027L264.697 88.6559L261.673 88.2922L259.375 84.902L255.866 80.6643L258.648 80.0587L260.22 83.3272L260.224 83.3302Z" fill="#0B3D59"/>
<path d="M193.898 38.4938L194.867 42.5296L197.93 46.3235L194.785 49.1482L190.351 49.5519L192.045 44.0228L189.463 40.1087L191.56 37.3643L193.898 38.4938Z" fill="#DFE3E8"/>
<path d="M190.026 43.4575H186.076L183.979 48.4226L188.816 47.3732L190.026 43.4575Z" fill="#DFE3E8"/>
<path d="M170.941 222.316C141.276 222.316 113.388 210.754 92.4113 189.758C71.4361 168.764 59.8831 140.849 59.8831 111.157C59.8831 81.4656 71.4345 53.5523 92.4113 32.5564C113.388 11.562 141.277 0 170.941 0C200.604 0 228.493 11.562 249.47 32.5579C270.447 53.5538 281.998 81.4672 281.998 111.159C281.998 140.851 270.447 168.765 249.47 189.76C228.495 210.754 200.605 222.318 170.941 222.318V222.316ZM170.941 0.679574C110.078 0.679574 60.562 50.2407 60.562 111.159C60.562 172.077 110.078 221.638 170.941 221.638C231.803 221.638 281.319 172.077 281.319 111.159C281.319 50.2407 231.805 0.679574 170.941 0.679574Z" fill="#0B3D59"/>
<path d="M216.603 153.702L209.955 142.117C207.93 137.349 211.427 132.059 216.603 132.059C221.779 132.059 225.275 137.349 223.251 142.117L216.603 153.702Z" fill="#FFDD00"/>
<path d="M216.603 143.832C219.09 143.832 221.105 141.815 221.105 139.326C221.105 136.838 219.09 134.821 216.603 134.821C214.117 134.821 212.102 136.838 212.102 139.326C212.102 141.815 214.117 143.832 216.603 143.832Z" fill="white"/>
<path d="M252.81 76.9505L244.922 63.2018C242.518 57.5434 246.667 51.2654 252.81 51.2654C258.953 51.2654 263.102 57.5434 260.699 63.2018L252.81 76.9505Z" fill="#FFDD00"/>
<path d="M252.81 65.2359C255.761 65.2359 258.152 62.8419 258.152 59.8887C258.152 56.9355 255.761 54.5415 252.81 54.5415C249.86 54.5415 247.468 56.9355 247.468 59.8887C247.468 62.8419 249.86 65.2359 252.81 65.2359Z" fill="white"/>
<path d="M153.98 30.8181L145.392 15.852C142.776 9.6912 147.292 2.85693 153.98 2.85693C160.668 2.85693 165.185 9.6912 162.568 15.852L153.98 30.8181Z" fill="#FFDD00"/>
<path d="M153.98 18.068C157.192 18.068 159.796 15.4615 159.796 12.2462C159.796 9.03084 157.192 6.42432 153.98 6.42432C150.767 6.42432 148.163 9.03084 148.163 12.2462C148.163 15.4615 150.767 18.068 153.98 18.068Z" fill="white"/>
<path d="M227.651 112.536L217.466 94.789C214.364 87.4832 219.72 79.3792 227.651 79.3792C235.581 79.3792 240.937 87.4832 237.835 94.789L227.651 112.536Z" fill="#FFDD00"/>
<path d="M227.65 97.4163C231.459 97.4163 234.547 94.3255 234.547 90.5127C234.547 86.7 231.459 83.6091 227.65 83.6091C223.841 83.6091 220.753 86.7 220.753 90.5127C220.753 94.3255 223.841 97.4163 227.65 97.4163Z" fill="white"/>
<path d="M259.561 280.601C262.419 280.601 264.735 278.285 264.735 275.429C264.735 272.573 262.419 270.258 259.561 270.258C256.703 270.258 254.386 272.573 254.386 275.429C254.386 278.285 256.703 280.601 259.561 280.601Z" fill="#020202"/>
<path d="M219.137 280.601C221.995 280.601 224.312 278.285 224.312 275.429C224.312 272.573 221.995 270.258 219.137 270.258C216.28 270.258 213.963 272.573 213.963 275.429C213.963 278.285 216.28 280.601 219.137 280.601Z" fill="#020202"/>
<path d="M197.936 184.824C197.936 182.539 199.79 180.686 202.076 180.686H261.061C262.329 180.686 263.464 181.258 264.223 182.156L264.231 182.166C264.329 182.283 264.421 182.406 264.506 182.534L272.458 193.117C272.458 193.117 263.347 264.131 261.061 264.131L207.208 273.662L198.798 262.52V262.517C198.261 261.818 197.936 260.944 197.936 259.993V184.825V184.824Z" fill="#0B3D59"/>
<path d="M210.14 274.879H269.13C271.415 274.879 273.267 273.025 273.267 270.738V195.575C273.267 193.288 271.415 191.435 269.13 191.435H210.14C207.855 191.435 206.003 193.288 206.003 195.575V270.738C206.003 273.025 207.855 274.879 210.14 274.879Z" fill="white"/>
<path d="M269.129 275.218H210.138C207.67 275.218 205.661 273.209 205.661 270.737V195.575C205.661 193.105 207.669 191.094 210.138 191.094H269.129C271.597 191.094 273.606 193.104 273.606 195.575V270.737C273.606 273.207 271.598 275.218 269.129 275.218ZM210.138 191.774C208.044 191.774 206.34 193.48 206.34 195.575V270.737C206.34 272.833 208.044 274.539 210.138 274.539H269.129C271.223 274.539 272.927 272.833 272.927 270.737V195.575C272.927 193.48 271.223 191.774 269.129 191.774H210.138Z" fill="black"/>
<path d="M246.183 188.602H221.243C221.056 188.602 220.905 188.45 220.905 188.263V147.718C220.905 147.53 221.057 147.379 221.243 147.379H246.183C246.371 147.379 246.522 147.532 246.522 147.718V188.263C246.522 188.451 246.369 188.602 246.183 188.602ZM221.584 187.923H245.844V148.056H221.584V187.923Z" fill="black"/>
<path d="M225.661 150.531H241.97C243.497 150.531 244.735 149.292 244.735 147.763C244.735 146.235 243.497 144.996 241.97 144.996H225.661C224.134 144.996 222.896 146.235 222.896 147.763C222.896 149.292 224.134 150.531 225.661 150.531Z" fill="#020202"/>
<path d="M216.572 264.294H262.699C263.824 264.294 264.736 263.381 264.736 262.255V239.241C264.736 238.115 263.824 237.202 262.699 237.202H216.572C215.447 237.202 214.535 238.115 214.535 239.241V262.255C214.535 263.381 215.447 264.294 216.572 264.294Z" fill="white"/>
<path d="M262.699 264.635H216.572C215.262 264.635 214.197 263.568 214.197 262.257V239.242C214.197 237.931 215.262 236.865 216.572 236.865H262.699C264.01 236.865 265.075 237.931 265.075 239.242V262.257C265.075 263.568 264.01 264.635 262.699 264.635ZM216.571 237.543C215.634 237.543 214.874 238.305 214.874 239.242V262.257C214.874 263.194 215.636 263.957 216.571 263.957H262.698C263.634 263.957 264.394 263.194 264.394 262.257V239.242C264.394 238.305 263.632 237.543 262.698 237.543H216.571Z" fill="black"/>
<path d="M245.317 203.919L261.564 210.041L264.387 202.536L248.14 196.414L245.317 203.919Z" fill="white"/>
<path d="M261.573 210.372C261.533 210.372 261.493 210.364 261.453 210.35L245.206 204.228C245.121 204.197 245.054 204.132 245.017 204.051C244.98 203.969 244.977 203.875 245.009 203.79L247.839 196.287C247.905 196.112 248.101 196.022 248.276 196.09L264.523 202.212C264.608 202.243 264.676 202.308 264.713 202.39C264.75 202.471 264.753 202.565 264.72 202.65L261.891 210.153C261.84 210.289 261.71 210.372 261.573 210.372ZM245.765 203.712L261.376 209.595L263.967 202.727L248.356 196.844L245.765 203.712Z" fill="black"/>
<path d="M231.871 222.469C236.021 221.257 238.87 218.505 238.234 216.323C237.598 214.141 233.717 213.355 229.566 214.567C225.416 215.78 222.567 218.531 223.203 220.714C223.84 222.896 227.72 223.682 231.871 222.469Z" fill="white"/>
<path d="M228.066 223.37C225.408 223.37 223.37 222.444 222.886 220.794C222.54 219.612 223.064 218.27 224.36 217.017C225.599 215.818 227.416 214.826 229.476 214.225C233.873 212.939 237.867 213.81 238.567 216.208C238.913 217.39 238.39 218.732 237.094 219.985C235.854 221.184 234.038 222.176 231.978 222.777C230.604 223.179 229.271 223.37 228.064 223.37H228.066ZM223.539 220.603C224.115 222.567 227.893 223.264 231.79 222.125C233.745 221.553 235.462 220.62 236.624 219.496C237.73 218.427 238.19 217.327 237.917 216.399C237.342 214.434 233.563 213.736 229.667 214.876C227.712 215.448 225.995 216.382 224.832 217.505C223.727 218.575 223.267 219.675 223.539 220.603Z" fill="black"/>
<path d="M217.654 206.529H229.778V197.751H217.654V206.529Z" fill="white"/>
<path d="M229.779 206.868H217.655C217.467 206.868 217.316 206.715 217.316 206.529V197.751C217.316 197.563 217.469 197.412 217.655 197.412H229.779C229.967 197.412 230.118 197.565 230.118 197.751V206.529C230.118 206.717 229.966 206.868 229.779 206.868ZM217.994 206.188H229.439V198.089H217.994V206.188Z" fill="black"/>
<path d="M175.565 36.6045C175.635 36.7848 175.699 36.9667 175.775 37.147L191.511 64.5688L207.244 37.15C205.672 35.7077 203.723 34.8663 201.772 34.3778C193.497 31.923 182.176 30.5808 175.564 36.6045H175.565Z" fill="#FFDD00"/>
<path d="M191.512 13.3354C179.454 13.3354 171.256 25.4599 175.567 36.6043C182.178 30.5806 193.498 31.9228 201.775 34.3776C203.726 34.8661 205.675 35.7075 207.247 37.1498L207.25 37.1452C212.044 25.8575 203.767 13.3354 191.514 13.3354H191.512Z" fill="#FFDD00"/>
<path d="M191.513 64.9077C191.392 64.9077 191.279 64.843 191.219 64.7366L175.483 37.3148C175.477 37.3025 175.471 37.2917 175.465 37.2794C173.169 31.8736 173.731 25.7205 176.969 20.8217C180.207 15.9229 185.644 12.9966 191.513 12.9966C197.382 12.9966 202.82 15.9214 206.058 20.8217C209.295 25.7205 209.859 31.8736 207.562 37.2794C207.557 37.2917 207.551 37.3041 207.543 37.3148L191.807 64.7366C191.747 64.8414 191.635 64.9077 191.513 64.9077ZM176.08 36.9943L191.512 63.886L206.943 36.9943C209.14 31.8027 208.598 25.8977 205.49 21.1962C202.378 16.4869 197.153 13.6762 191.512 13.6762C185.871 13.6762 180.645 16.4869 177.534 21.1962C174.425 25.8992 173.883 31.8043 176.08 36.9959V36.9943Z" fill="black"/>
<path d="M191.512 41.2059C197.398 41.2059 202.169 36.4303 202.169 30.5392C202.169 24.6482 197.398 19.8726 191.512 19.8726C185.627 19.8726 180.855 24.6482 180.855 30.5392C180.855 36.4303 185.627 41.2059 191.512 41.2059Z" fill="white"/>
<path d="M104.837 194.976L121.232 184.963L125.264 194.679C127.164 199.255 127.419 204.348 125.986 209.091L110.707 259.699L98.7463 253.556L104.837 194.976Z" fill="#F4AA74"/>
<path d="M110.709 260.038C110.655 260.038 110.603 260.025 110.554 260.001L98.5929 253.858C98.4682 253.794 98.3958 253.661 98.4096 253.521L104.5 194.941C104.511 194.836 104.571 194.74 104.66 194.686L121.055 184.673C121.14 184.621 121.243 184.61 121.337 184.639C121.431 184.67 121.508 184.741 121.545 184.832L125.577 194.548C127.502 199.184 127.762 204.384 126.311 209.188L111.033 259.796C111.003 259.893 110.933 259.972 110.84 260.01C110.797 260.029 110.752 260.036 110.708 260.036L110.709 260.038ZM99.1086 253.361L110.502 259.21L125.663 208.993C127.069 204.337 126.816 199.3 124.952 194.808L121.072 185.459L105.159 195.178L99.1102 253.359L99.1086 253.361Z" fill="black"/>
<path d="M100.952 232.357L118.553 233.719L110.71 259.697L98.749 253.556L100.952 232.357Z" fill="#161616"/>
<path d="M91.1451 255.745C94.4028 252.307 95.5775 249.813 99.2833 248.132L99.6066 247.986C100.792 247.448 102.102 248.44 101.904 249.727L101.571 251.881C101.249 253.974 103.214 254.748 103.235 254.768C104.353 255.341 105.089 254.909 108.031 254.718L109.221 252.402L112.165 251.569L114.534 252.786L114.945 256.324L121.221 265.833L130.922 270.137L132.663 273.589L128.565 276.355H112.499L103.363 268.918L91.1436 255.746L91.1451 255.745Z" fill="#0B3D59"/>
<path d="M87.8269 256.635L91.1462 255.745L104.605 268.282L115.687 274.782L124.783 275.027L132.678 273.578L132.658 276.098L131.733 277.852L126.056 280.665C126.056 280.665 122.745 280.718 116.217 280.665C116.217 280.665 106.089 275.898 103.568 274.594L102.895 272.58L100.821 271.515L98.8056 272.148C93.2847 269.29 88.9185 267.071 88.9185 267.071L84.2258 261.304L87.8254 256.632L87.8269 256.635Z" fill="#020202"/>
<path d="M96.3413 250.735L96.1012 250.035C95.9272 249.53 94.403 245.055 94.5231 243.837C94.657 242.474 95.8779 241.473 97.2404 241.608C97.9009 241.672 98.4967 241.991 98.9186 242.504C99.3404 243.018 99.536 243.663 99.4713 244.324C99.3512 245.543 96.9849 249.634 96.7154 250.097L96.3429 250.736L96.3413 250.735ZM96.9957 242.273C96.0781 242.273 95.2898 242.971 95.1974 243.902C95.1204 244.677 95.9672 247.469 96.503 249.098C97.3451 247.603 98.72 245.03 98.797 244.255C98.8447 243.774 98.7015 243.306 98.3951 242.933C98.0888 242.56 97.6561 242.329 97.1742 242.281C97.1142 242.275 97.0542 242.272 96.9957 242.272V242.273Z" fill="black"/>
<path d="M113.011 259.397C112.843 259.397 112.697 259.272 112.675 259.101C112.65 258.914 112.781 258.745 112.968 258.72L116.325 258.279C116.509 258.253 116.681 258.386 116.706 258.572C116.73 258.759 116.599 258.928 116.413 258.953L113.055 259.394C113.04 259.395 113.026 259.397 113.011 259.397Z" fill="black"/>
<path d="M114.413 261.933C114.245 261.933 114.099 261.808 114.077 261.637C114.053 261.451 114.183 261.281 114.37 261.257L117.728 260.816C117.911 260.791 118.083 260.922 118.108 261.109C118.132 261.295 118.002 261.465 117.815 261.489L114.457 261.93C114.442 261.932 114.428 261.933 114.413 261.933Z" fill="black"/>
<path d="M115.817 264.47C115.649 264.47 115.503 264.345 115.481 264.174C115.457 263.987 115.587 263.818 115.774 263.793L119.132 263.352C119.316 263.326 119.487 263.459 119.512 263.645C119.537 263.832 119.406 264.001 119.219 264.026L115.862 264.467C115.846 264.468 115.832 264.47 115.817 264.47Z" fill="black"/>
<path d="M65.6055 203.608L86.7747 202.328L81.7064 264.981H67.3252L65.6055 203.608Z" fill="#DFE3E8"/>
<path d="M81.7068 265.322H67.3241C67.1409 265.322 66.99 265.175 66.9854 264.992L65.2672 203.618C65.2626 203.434 65.4027 203.28 65.5859 203.269L86.7551 201.989C86.8552 201.984 86.9491 202.02 87.0184 202.091C87.0876 202.162 87.1215 202.257 87.1138 202.356L82.0471 265.011C82.0332 265.186 81.8854 265.322 81.7084 265.322H81.7068ZM67.6551 264.642H81.3943L86.4056 202.69L65.9554 203.927L67.6551 264.642Z" fill="black"/>
<path d="M86.2882 208.339L65.8918 212.623L65.6055 203.608L86.7747 202.328L86.2882 208.339Z" fill="#020202"/>
<path d="M66.3525 241.561L83.8991 241.933L81.7068 264.981H67.3256L66.3525 241.561Z" fill="#020202"/>
<path d="M66.4808 259.633L66.2606 259.912C63.7326 263.1 63.8281 265.854 62.501 270.399L79.3917 276.534L104.658 276.85L108.975 274.315L107.517 270.734L93.5435 266.117L83.935 260.041L81.952 257.082H79.287L77.05 259.169V261.773C74.522 263.286 74.0632 264.007 72.8069 264.007C72.7792 264 70.6777 264.209 70.008 262.2L69.3182 260.132C68.9056 258.898 67.2875 258.612 66.4777 259.633H66.4808Z" fill="#0B3D59"/>
<path d="M104.66 277.189H104.655L79.3894 276.873C79.3509 276.873 79.314 276.865 79.2786 276.853L62.3879 270.718C62.22 270.657 62.1277 270.475 62.1785 270.304C62.5557 269.011 62.822 267.84 63.0576 266.806C63.6657 264.14 64.1445 262.035 65.9966 259.7L66.2168 259.421C66.6756 258.844 67.3838 258.574 68.1105 258.702C68.8372 258.83 69.4099 259.324 69.6439 260.024L70.3336 262.092C70.8278 263.574 72.2011 263.691 72.7708 263.668C72.7831 263.668 72.7969 263.668 72.8108 263.668C73.5529 263.668 73.9624 263.389 74.9508 262.721C75.4065 262.412 75.9654 262.035 76.7136 261.58V259.169C76.7136 259.075 76.7521 258.985 76.8214 258.921L79.0584 256.834C79.1215 256.776 79.2031 256.743 79.2894 256.743H81.9544C82.0668 256.743 82.173 256.8 82.2361 256.894L84.1791 259.794L93.6906 265.81L107.625 270.413C107.719 270.444 107.796 270.515 107.833 270.607L109.291 274.187C109.354 274.344 109.294 274.523 109.148 274.608L104.831 277.143C104.779 277.174 104.72 277.189 104.66 277.189ZM79.4541 276.195L104.569 276.509L108.551 274.172L107.262 271.008L93.4365 266.441C93.4104 266.431 93.3857 266.421 93.3611 266.405L83.7526 260.329C83.7126 260.303 83.6787 260.27 83.6525 260.23L81.7712 257.421H79.4218L77.3911 259.315V261.771C77.3911 261.89 77.3279 262.001 77.2263 262.063C76.4103 262.551 75.8114 262.956 75.3311 263.282C74.3181 263.967 73.7607 264.345 72.8108 264.345H72.8047C72.2227 264.362 70.3459 264.271 69.6901 262.306L69.0003 260.238C68.8464 259.779 68.4707 259.454 67.9935 259.369C67.5162 259.284 67.0497 259.461 66.7479 259.842L66.5278 260.121C64.7711 262.335 64.3062 264.374 63.7181 266.955C63.4994 267.917 63.2531 268.996 62.9159 270.187L79.4556 276.193L79.4541 276.195Z" fill="black"/>
<path d="M108.975 274.315L101.093 275.824L80.2054 275.403L62.5017 270.399L59.9553 272.708L58.8899 278.508L65.6994 281.494C65.6994 281.494 70.5984 281.473 76.8152 281.494L78.3178 280.011H80.6488L82.1683 281.494C91.8846 281.521 102.408 281.494 102.408 281.494L108.062 278.597L108.975 276.836V274.317V274.315Z" fill="#020202"/>
<path d="M64.8324 263.571L64.2982 263.058C63.9118 262.687 60.5108 259.403 60.0613 258.266C59.8165 257.649 59.8273 256.973 60.0921 256.364C60.3553 255.754 60.8418 255.284 61.4592 255.04C62.734 254.536 64.1812 255.164 64.6846 256.438C65.1342 257.577 64.9002 262.297 64.8709 262.832L64.8324 263.571ZM62.3706 255.544C62.1489 255.544 61.9257 255.584 61.7086 255.671C61.2591 255.848 60.9065 256.19 60.7141 256.634C60.5231 257.076 60.5155 257.568 60.6925 258.014C60.9789 258.739 63.008 260.836 64.2289 262.041C64.2951 260.327 64.3413 257.41 64.0549 256.686C63.7747 255.977 63.0927 255.544 62.3722 255.544H62.3706Z" fill="black"/>
<path d="M83.4632 263.699C83.3554 263.699 83.2492 263.648 83.1845 263.553C83.0783 263.399 83.1168 263.188 83.2707 263.08L86.0558 261.155C86.2098 261.049 86.4207 261.087 86.5285 261.241C86.6363 261.395 86.5962 261.607 86.4423 261.714L83.6572 263.639C83.5987 263.679 83.5309 263.699 83.4647 263.699H83.4632Z" fill="black"/>
<path d="M85.871 265.316C85.7632 265.316 85.657 265.265 85.5908 265.169C85.4845 265.015 85.523 264.804 85.677 264.696L88.4621 262.771C88.6161 262.665 88.827 262.704 88.9347 262.858C89.041 263.012 89.0025 263.223 88.8485 263.331L86.0634 265.256C86.0049 265.296 85.9372 265.316 85.871 265.316Z" fill="black"/>
<path d="M88.2785 266.931C88.1707 266.931 88.0645 266.88 87.9982 266.784C87.892 266.63 87.9305 266.419 88.0845 266.311L90.8696 264.386C91.0235 264.28 91.236 264.319 91.3422 264.473C91.4484 264.627 91.41 264.838 91.256 264.946L88.4709 266.871C88.4124 266.911 88.3447 266.931 88.2785 266.931Z" fill="black"/>
<path d="M129.964 197.121L101.956 206.547L90.9876 176.338V206.487H61.1213L63.985 140.699H90.9876V141.069L104.856 135.872L129.964 197.121Z" fill="#161616"/>
<path d="M101.955 206.886C101.816 206.886 101.685 206.8 101.636 206.663L91.3271 178.265V206.486C91.3271 206.674 91.1747 206.825 90.9884 206.825H61.1221C61.0297 206.825 60.9404 206.786 60.8773 206.72C60.8126 206.653 60.7788 206.563 60.7834 206.47L63.647 140.684C63.6547 140.502 63.804 140.359 63.9857 140.359H90.9884C91.1362 140.359 91.2624 140.454 91.3086 140.585L104.737 135.551C104.908 135.486 105.1 135.569 105.169 135.741L130.277 196.992C130.312 197.078 130.311 197.176 130.272 197.261C130.234 197.346 130.16 197.412 130.072 197.441L102.064 206.868C102.029 206.88 101.992 206.885 101.956 206.885L101.955 206.886ZM61.4746 206.146H90.6481V176.338C90.6481 176.173 90.7667 176.033 90.9283 176.003C91.09 175.974 91.2501 176.066 91.3055 176.222L102.16 206.12L129.51 196.916L104.666 136.305L91.1054 141.387C91.0007 141.427 90.8852 141.411 90.7928 141.348C90.702 141.285 90.6466 141.18 90.6466 141.069V141.038H64.3075L61.4731 206.146H61.4746Z" fill="black"/>
<path d="M90.9884 206.828H61.1206C61.0282 206.828 60.939 206.789 60.8758 206.723C60.8112 206.657 60.7773 206.566 60.7819 206.473L63.6471 140.684C63.6548 140.498 63.818 140.342 64.0012 140.36C64.189 140.368 64.3337 140.527 64.326 140.715L61.4763 206.148H90.6497V171.779C90.6497 171.656 90.7175 171.542 90.8253 171.482L93.3194 170.114C93.4841 170.023 93.6904 170.083 93.7797 170.248C93.8705 170.413 93.809 170.619 93.6458 170.709L91.3272 171.98V206.487C91.3272 206.675 91.1747 206.826 90.9884 206.826V206.828Z" fill="black"/>
<path d="M163.42 121.309L182.849 114.353L179.344 119.31L172.22 121.939C169.418 122.973 166.31 122.79 163.652 121.427L163.42 121.309Z" fill="#DFE3E8"/>
<path d="M162.345 111.345L164.45 105.152L176.942 100.364L180.815 118.681L172.574 123.109L137.984 144.541C133.288 147.45 127.199 146.698 123.354 142.733L99.4731 118.111L118.524 108.633L134.28 128.374L161.23 112.954C161.489 112.652 162.193 111.71 162.342 111.342L162.345 111.345Z" fill="#F4AA74"/>
<path d="M187.622 82.6939L180.998 80.6443L167.591 124.048L174.215 126.098L187.622 82.6939Z" fill="white"/>
<path d="M174.235 126.439C174.201 126.439 174.167 126.434 174.135 126.424L167.511 124.374C167.333 124.319 167.233 124.129 167.288 123.95L180.664 80.5362C180.69 80.4499 180.75 80.3775 180.83 80.3359C180.91 80.2927 181.003 80.285 181.089 80.3112L187.712 82.3607C187.891 82.4162 187.991 82.6058 187.936 82.7845L174.56 126.199C174.533 126.285 174.473 126.357 174.393 126.399C174.344 126.425 174.29 126.439 174.235 126.439ZM168.035 123.826L174.01 125.675L187.186 82.9093L181.211 81.0602L168.035 123.826Z" fill="black"/>
<path d="M212.03 38.8297H212.027C198.418 22.8451 170.572 26.7669 163.752 48.8692C162.753 52.1114 162.365 55.3984 162.528 58.6051C162.947 66.8232 166.969 74.5035 173.482 79.5286C174.984 80.6921 176.621 81.7107 178.378 82.5613C179.648 83.1777 180.983 83.7093 182.374 84.1392C197.248 88.7483 213.027 80.4255 217.611 65.5534C220.618 55.819 218.097 45.9198 212.028 38.8282L212.03 38.8297ZM212.826 64.0726C209.054 76.3018 196.08 83.1438 183.851 79.356C180.876 78.4345 178.219 76.969 175.959 75.0998C175.234 74.5066 174.552 73.8686 173.91 73.1936C173.53 72.7961 173.165 72.3815 172.817 71.9578C172.711 71.8268 172.601 71.6912 172.497 71.5571C171.768 70.6356 171.112 69.6571 170.538 68.6416C170.364 68.3395 170.198 68.0298 170.039 67.7201C168.818 65.3269 168.012 62.7242 167.675 60.0229V60.0198C167.602 59.4311 167.551 58.8332 167.524 58.2369C167.424 56.0671 167.633 53.8512 168.176 51.6507V51.6476C168.284 51.213 168.403 50.7816 168.535 50.3516C169.025 48.769 169.665 47.2789 170.44 45.8889C173.349 40.6619 178.128 36.8742 183.631 35.1236C185.501 34.5226 187.454 34.1621 189.447 34.0573C192.1 33.914 194.823 34.236 197.51 35.0682C206.304 37.7911 212.324 45.2741 213.603 53.8127C213.688 54.3705 213.751 54.9345 213.794 55.5001C214.008 58.317 213.705 61.214 212.824 64.0726H212.826Z" fill="white"/>
<path d="M190.752 85.7572C187.914 85.7572 185.063 85.3288 182.273 84.4643C180.902 84.0406 179.542 83.5028 178.229 82.8679C176.474 82.0172 174.806 80.9832 173.273 79.7982C166.653 74.6899 162.611 66.9711 162.188 58.622C162.019 55.3012 162.434 51.9865 163.426 48.769C166.53 38.7125 174.463 31.4545 184.65 29.3541C195.007 27.2199 205.586 30.7564 212.266 38.5877C212.272 38.5939 212.28 38.6016 212.284 38.6077C218.726 46.137 220.838 56.2474 217.933 65.6551C215.69 72.9347 210.743 78.8998 204.007 82.4533C199.851 84.6462 195.321 85.7572 190.75 85.7572H190.752ZM190.635 29.4219C188.696 29.4219 186.74 29.6176 184.789 30.0198C174.848 32.0693 167.104 39.1532 164.075 48.9693C163.107 52.1098 162.701 55.3474 162.865 58.5881C163.279 66.7384 167.225 74.2738 173.689 79.2604C175.185 80.4177 176.812 81.4255 178.526 82.2561C179.807 82.8771 181.136 83.4026 182.475 83.8156C189.582 86.0176 197.118 85.3211 203.693 81.8508C210.269 78.3821 215.097 72.5587 217.286 65.4532C220.119 56.2782 218.064 46.4174 211.789 39.0685C211.781 39.0608 211.775 39.0546 211.767 39.0469C206.505 32.8676 198.751 29.4204 190.633 29.4204L190.635 29.4219ZM190.738 80.7459C188.399 80.7459 186.048 80.393 183.75 79.6811C180.795 78.7673 178.101 77.3142 175.742 75.3633C175.028 74.7792 174.329 74.1289 173.664 73.4309C173.284 73.0333 172.911 72.6111 172.554 72.175C172.446 72.0424 172.337 71.9053 172.229 71.7697C171.492 70.8359 170.823 69.8404 170.241 68.811C170.077 68.5259 169.907 68.2116 169.736 67.8772C168.485 65.4224 167.677 62.795 167.338 60.0675C167.338 60.0551 167.335 60.0444 167.335 60.032C167.262 59.4495 167.212 58.8501 167.184 58.2537C167.081 56.0208 167.304 53.771 167.846 51.5705C167.847 51.5628 167.849 51.5566 167.852 51.5489C167.963 51.0989 168.085 50.6628 168.211 50.2529C168.697 48.675 169.349 47.1525 170.143 45.7255C173.051 40.5016 177.805 36.6214 183.528 34.8015C185.434 34.1882 187.42 33.8245 189.429 33.7197C192.18 33.5718 194.933 33.9154 197.611 34.7445C206.197 37.4042 212.606 44.8687 213.938 53.7618C214.022 54.3165 214.087 54.8928 214.132 55.4738C214.355 58.4032 214.024 61.3295 213.148 64.1726C211.297 70.1732 207.219 75.0921 201.666 78.0215C198.239 79.829 194.504 80.7459 190.736 80.7459H190.738ZM168.015 60.0135C168.348 62.6517 169.13 65.1928 170.342 67.5659C170.506 67.8895 170.673 68.1946 170.833 68.472C171.399 69.4736 172.049 70.4414 172.763 71.3475C172.868 71.48 172.974 71.6141 173.08 71.7435C173.425 72.1657 173.787 72.5756 174.155 72.9593C174.802 73.6374 175.481 74.2692 176.173 74.8363C178.464 76.7317 181.08 78.1432 183.95 79.0308C189.777 80.8368 195.957 80.2636 201.35 77.4189C206.743 74.5743 210.703 69.7988 212.5 63.9708C213.35 61.2109 213.671 58.3693 213.456 55.5246C213.413 54.9606 213.35 54.4013 213.268 53.8619C211.973 45.2232 205.749 37.9728 197.41 35.3902C194.812 34.5842 192.137 34.2498 189.466 34.3947C187.516 34.4964 185.588 34.8493 183.736 35.4441C178.178 37.2116 173.561 40.9793 170.737 46.0522C169.964 47.4376 169.333 48.9169 168.86 50.4486C168.736 50.8508 168.617 51.2808 168.508 51.7246C168.506 51.7323 168.505 51.7384 168.502 51.7462C167.978 53.8773 167.763 56.0547 167.863 58.2167C167.889 58.8069 167.94 59.3971 168.014 59.9735C168.014 59.9858 168.017 59.9981 168.017 60.0104L168.015 60.0135Z" fill="black"/>
<path d="M184.721 85.4413C182.37 84.7155 180.187 83.7092 178.19 82.4718L178.38 82.5627C179.65 83.1791 180.985 83.7107 182.376 84.1407C197.25 88.7497 213.029 80.4269 217.613 65.5549C217.794 64.9677 217.956 64.3791 218.095 63.7904C218.142 63.5932 218.19 63.3975 218.23 63.2002C218.261 63.0615 218.29 62.9213 218.318 62.7811C218.372 62.5145 218.422 62.2464 218.466 61.9844C218.496 61.8133 218.524 61.6423 218.547 61.4713C218.573 61.3187 218.593 61.1615 218.615 61.0105C218.638 60.8564 218.656 60.7038 218.673 60.5451C218.676 60.5143 218.681 60.4819 218.683 60.4511C218.709 60.2508 218.732 60.0489 218.746 59.8455C218.769 59.6359 218.784 59.4217 218.8 59.2122C218.817 58.9995 218.826 58.7899 218.838 58.5788C218.872 57.8731 218.88 57.1688 218.858 56.4723C218.857 56.3367 218.855 56.2026 218.846 56.0639C218.841 55.9746 218.837 55.8852 218.832 55.7973C218.829 55.7203 218.827 55.6448 218.82 55.5708C218.814 55.4136 218.801 55.258 218.786 55.1008C218.78 54.9991 218.77 54.8959 218.761 54.7926C218.746 54.5954 218.727 54.3966 218.704 54.2009C218.686 54.0098 218.663 53.8218 218.636 53.6307C218.633 53.5968 218.626 53.5629 218.623 53.529C218.6 53.3395 218.572 53.153 218.543 52.9681C218.519 52.8186 218.498 52.6692 218.47 52.5228C218.449 52.3949 218.426 52.2639 218.401 52.1344C218.37 51.9449 218.33 51.7569 218.29 51.572C218.261 51.4271 218.232 51.2838 218.198 51.1405C218.165 50.9941 218.133 50.8493 218.096 50.7044C217.936 50.031 217.75 49.3637 217.539 48.7042C217.448 48.4114 217.348 48.1186 217.246 47.832C217.034 47.2356 216.804 46.647 216.552 46.066C216.503 45.9551 216.455 45.8411 216.406 45.7301C216.299 45.4928 216.19 45.2539 216.073 45.0197C216.002 44.8718 215.93 44.7208 215.854 44.5744C215.761 44.3833 215.66 44.1922 215.557 44.0042C215.485 43.8671 215.414 43.7299 215.337 43.5943C214.874 42.7545 214.367 41.9393 213.818 41.1488C213.747 41.0424 213.673 40.9407 213.597 40.8359C213.567 40.7928 213.536 40.7512 213.505 40.708V40.705C213.505 40.705 213.494 40.6911 213.487 40.6803C213.323 40.4553 213.154 40.2319 212.982 40.0084C212.882 39.8728 212.777 39.7388 212.669 39.6078C212.547 39.4506 212.42 39.298 212.292 39.1455C212.286 39.1347 212.273 39.1255 212.264 39.1131C212.184 39.0191 212.106 38.9251 212.026 38.8311H212.022C211.707 38.4597 211.384 38.1007 211.046 37.7524C210.903 37.5999 210.762 37.4519 210.614 37.3055C210.189 36.8787 209.748 36.4642 209.294 36.0651C209.277 36.045 209.254 36.0265 209.231 36.0065C208.929 35.7415 208.623 35.4826 208.307 35.2314C208.146 35.1019 207.983 34.971 207.815 34.8461C207.653 34.7167 207.484 34.5903 207.314 34.4686C207.16 34.3546 207.005 34.2436 206.846 34.1311C206.822 34.1157 206.797 34.0957 206.769 34.0772C206.361 33.7921 205.943 33.5147 205.513 33.2512C208.181 34.5718 210.574 36.2808 212.634 38.2825H212.637C213.22 38.8512 213.773 39.4383 214.303 40.0516C217.323 43.5419 219.456 47.7349 220.49 52.2361C220.72 53.2239 220.895 54.2255 221.017 55.2395C221.046 55.466 221.069 55.6956 221.089 55.9222C221.425 59.5003 221.078 63.2064 219.954 66.8554C215.365 81.729 199.589 90.0488 184.718 85.4413H184.721Z" fill="#0B3D59"/>
<path d="M162.11 108.705L162.153 113.991L164.827 113.003C166.551 112.366 167.786 110.836 168.043 109.016C168.177 108.583 167.98 107.221 169.267 106.745C169.469 106.645 170.928 106.327 172.445 104.703C172.468 104.661 174.026 103.307 173.272 101.265L173.252 101.213C172.936 100.357 171.827 100.136 171.207 100.804C170.474 101.595 169.989 102.216 168.851 102.635L165.429 103.899C163.42 104.64 162.091 106.563 162.108 108.703L162.11 108.705Z" fill="#F4AA74"/>
<path d="M174.991 102.556C175.375 103.592 176.525 104.122 177.561 103.74L179.881 102.883L181.902 104.191L182.304 102.803C182.938 100.61 180.809 98.2771 178.417 99.1601L176.175 99.9876C175.139 100.37 174.609 101.519 174.991 102.556Z" fill="#F4AA74"/>
<path d="M175.908 106.481C176.291 107.517 177.441 108.047 178.478 107.665L179.218 107.392L180.123 109.844L181.551 109.317C183.831 108.475 184.476 106.372 184.459 106.397C185.287 104.272 183.527 101.538 181.149 102.416L177.09 103.914C176.054 104.296 175.525 105.446 175.906 106.483L175.908 106.481Z" fill="#F4AA74"/>
<path d="M176.363 110.526C176.746 111.562 177.896 112.092 178.933 111.71L179.16 111.625L180.297 114.699C180.323 114.682 182.786 113.921 183.842 111.309C183.905 111.053 184.615 109.981 184.086 108.548L183.912 108.078C183.468 106.877 182.135 106.264 180.936 106.708L177.547 107.959C176.511 108.341 175.981 109.491 176.363 110.528V110.526Z" fill="#F4AA74"/>
<path d="M176.385 114.786C176.769 115.821 177.919 116.351 178.955 115.969L180.251 115.491L179.832 116.365L180.49 118.857C183.056 117.909 184.995 115.205 184.109 112.809L183.826 112.041C183.443 111.006 182.293 110.476 181.256 110.858L177.569 112.218C176.533 112.601 176.003 113.75 176.385 114.787V114.786Z" fill="#F4AA74"/>
<path d="M176.869 104.202C175.918 104.202 175.02 103.617 174.672 102.674C174.455 102.088 174.48 101.453 174.742 100.886C175.003 100.317 175.47 99.886 176.056 99.6702L178.298 98.8427C179.374 98.4452 180.506 98.6116 181.403 99.2989C182.332 100.009 182.844 101.157 182.743 102.291C182.726 102.478 182.563 102.618 182.375 102.6C182.188 102.583 182.05 102.418 182.067 102.231C182.148 101.327 181.736 100.41 180.991 99.8382C180.282 99.2958 179.386 99.1633 178.534 99.4792L176.292 100.307C175.875 100.461 175.544 100.767 175.359 101.17C175.174 101.572 175.156 102.023 175.31 102.438C175.627 103.298 176.584 103.738 177.444 103.419L178.295 103.105C178.47 103.042 178.666 103.13 178.731 103.307C178.795 103.483 178.706 103.678 178.529 103.743L177.678 104.057C177.411 104.156 177.139 104.202 176.869 104.202Z" fill="black"/>
<path d="M177.785 108.127C176.833 108.127 175.936 107.542 175.588 106.598C175.371 106.013 175.395 105.378 175.657 104.811C175.919 104.242 176.385 103.811 176.972 103.595L181.03 102.097C182.114 101.697 183.198 101.937 184.002 102.757C184.945 103.718 185.263 105.267 184.774 106.52L184.767 106.517C184.661 106.964 184.168 107.702 183.997 107.924C183.882 108.072 183.669 108.098 183.521 107.984C183.373 107.868 183.346 107.656 183.461 107.508C183.749 107.136 183.929 106.794 184.028 106.572L184.142 106.273C184.536 105.261 184.28 104.01 183.517 103.231C183.159 102.868 182.393 102.318 181.266 102.734L177.207 104.231C176.79 104.386 176.459 104.692 176.273 105.094C176.088 105.497 176.07 105.947 176.224 106.363C176.541 107.223 177.498 107.663 178.358 107.344L178.879 107.152C179.055 107.087 179.25 107.178 179.315 107.353C179.38 107.529 179.29 107.725 179.113 107.79L178.593 107.982C178.327 108.081 178.054 108.127 177.785 108.127Z" fill="black"/>
<path d="M178.241 112.172C177.29 112.172 176.392 111.587 176.044 110.644C175.827 110.058 175.852 109.423 176.114 108.856C176.375 108.287 176.842 107.856 177.428 107.64L180.819 106.389C182.193 105.882 183.721 106.586 184.229 107.959L184.403 108.431C184.889 109.748 184.427 110.798 184.23 111.246C184.203 111.311 184.179 111.359 184.169 111.392L184.155 111.436C184.095 111.582 184.032 111.724 183.964 111.861C183.881 112.029 183.678 112.098 183.51 112.013C183.342 111.93 183.273 111.727 183.356 111.559C183.413 111.443 183.468 111.323 183.519 111.198C183.537 111.134 183.568 111.064 183.61 110.972C183.788 110.566 184.158 109.725 183.767 108.665L183.593 108.193C183.216 107.172 182.076 106.646 181.054 107.025L177.664 108.277C177.247 108.431 176.916 108.737 176.729 109.14C176.545 109.542 176.526 109.992 176.68 110.408C176.997 111.268 177.956 111.708 178.814 111.389L179.042 111.305C179.217 111.24 179.413 111.329 179.478 111.506C179.542 111.682 179.453 111.878 179.277 111.943L179.05 112.027C178.783 112.126 178.511 112.172 178.241 112.172Z" fill="black"/>
<path d="M180.257 119.301C180.126 119.301 180.002 119.225 179.946 119.097C179.871 118.926 179.949 118.726 180.12 118.65C182.468 117.62 184.534 114.951 183.786 112.926L183.503 112.158C183.186 111.3 182.228 110.859 181.369 111.177L177.682 112.537C177.266 112.691 176.933 112.997 176.749 113.4C176.562 113.803 176.545 114.254 176.699 114.67C177.016 115.528 177.974 115.971 178.833 115.652L181.397 114.706C181.572 114.642 181.768 114.73 181.832 114.907C181.897 115.083 181.808 115.279 181.632 115.343L179.067 116.29C177.857 116.737 176.508 116.116 176.062 114.906C175.845 114.32 175.871 113.684 176.131 113.117C176.393 112.55 176.859 112.117 177.446 111.901L181.133 110.54C182.343 110.093 183.692 110.714 184.139 111.924L184.422 112.691C185.322 115.132 183.022 118.119 180.393 119.275C180.348 119.293 180.302 119.304 180.257 119.304V119.301Z" fill="black"/>
<path d="M131.731 146.64C128.592 146.64 125.478 145.41 123.185 143.046L99.2325 118.35C99.1571 118.273 99.1232 118.164 99.1417 118.056C99.1601 117.95 99.2279 117.857 99.3249 117.809L118.376 108.331C118.519 108.26 118.693 108.298 118.791 108.423L134.367 127.938L161.013 112.692C161.518 112.085 161.792 111.319 161.786 110.528L161.77 108.708C161.752 106.431 163.174 104.37 165.313 103.583L168.735 102.319C169.685 101.97 170.133 101.479 170.751 100.805L170.957 100.581C171.329 100.179 171.871 100.003 172.412 100.11C172.948 100.216 173.382 100.586 173.571 101.099L173.591 101.153C174.287 103.036 173.212 104.41 172.718 104.913C172.709 104.922 172.724 104.905 172.746 104.868C172.732 104.894 172.715 104.917 172.695 104.939C171.337 106.394 170.03 106.842 169.539 107.012C169.483 107.03 169.442 107.044 169.417 107.055C168.634 107.346 168.514 107.956 168.441 108.668C168.424 108.83 168.41 108.973 168.378 109.092C168.096 111.027 166.783 112.647 164.948 113.325L164.722 113.408C164.546 113.473 164.351 113.384 164.286 113.208C164.221 113.032 164.31 112.837 164.486 112.772L164.712 112.689C166.321 112.095 167.47 110.671 167.71 108.973C167.713 108.955 167.716 108.938 167.722 108.919C167.741 108.859 167.755 108.728 167.767 108.6C167.827 108.001 167.941 106.885 169.142 106.435C169.18 106.418 169.24 106.397 169.32 106.369C169.767 106.215 170.952 105.808 172.193 104.484C172.207 104.469 172.221 104.454 172.238 104.437C172.74 103.927 173.5 102.851 172.958 101.387L172.938 101.333C172.832 101.045 172.587 100.835 172.282 100.775C171.978 100.715 171.67 100.814 171.457 101.043L171.254 101.265C170.623 101.956 170.078 102.552 168.972 102.959L165.55 104.222C163.681 104.913 162.435 106.714 162.452 108.705L162.468 110.525C162.475 111.499 162.13 112.442 161.493 113.18C161.468 113.209 161.438 113.234 161.405 113.253L134.455 128.673C134.31 128.756 134.126 128.721 134.022 128.59L118.437 109.063L100.047 118.211L123.675 142.573C127.339 146.351 133.233 147.057 137.685 144.249L167.052 125.745L179.752 118.803C179.766 118.796 179.782 118.789 179.797 118.783C179.906 118.743 180.016 118.698 180.125 118.651C180.296 118.575 180.496 118.654 180.572 118.826C180.647 118.997 180.568 119.198 180.396 119.273C180.282 119.323 180.168 119.369 180.054 119.412L167.394 126.332L138.045 144.826C136.108 146.046 133.915 146.64 131.733 146.64H131.731Z" fill="black"/>
<path d="M173.417 102.036C173.28 102.036 173.149 101.951 173.099 101.814C173.034 101.638 173.123 101.442 173.299 101.378L174.903 100.781C175.079 100.717 175.274 100.806 175.339 100.982C175.403 101.157 175.314 101.353 175.139 101.418L173.534 102.014C173.496 102.028 173.456 102.036 173.416 102.036H173.417Z" fill="black"/>
<path d="M66.475 176.512L63.0725 176.777L63.4667 181.841L62.5337 181.913L62.6476 183.368C62.7415 184.563 63.7869 185.459 64.9832 185.365C66.181 185.272 67.0755 184.226 66.9815 183.03L66.4735 176.51L66.475 176.512Z" fill="#DFE3E8"/>
<path d="M63.1344 177.531L59.732 177.796L60.1261 182.859L59.1931 182.932L59.3117 184.46C59.401 185.616 60.4125 186.481 61.5687 186.391L61.7149 186.38C62.8712 186.291 63.7364 185.28 63.6456 184.124L63.1329 177.532L63.1344 177.531Z" fill="#DFE3E8"/>
<path d="M59.6654 176.842L56.263 177.107L56.6571 182.17L55.7241 182.243L55.8427 183.771C55.932 184.927 56.9435 185.792 58.0997 185.702L58.2459 185.691C59.4022 185.602 60.2674 184.591 60.1766 183.435L59.6639 176.843L59.6654 176.842Z" fill="#DFE3E8"/>
<path d="M56.2119 176.342L52.8094 176.607L53.2035 181.671L52.5554 181.796C51.5393 181.784 51.2437 183.297 51.2437 183.297C51.3483 184.644 52.2182 185.386 53.5653 185.283L54.446 185.215C55.7946 185.112 56.8031 183.933 56.6984 182.586L56.2119 176.342Z" fill="#DFE3E8"/>
<path d="M65.3061 168.654L62.4456 171.636C62.4456 171.636 67.1828 174.527 68.3221 175.253C68.5207 175.351 69.64 176.307 71.8201 176.53C71.8662 176.523 73.8585 176.939 75.0131 175.131L75.0424 175.085C75.5258 174.328 75.0393 173.325 74.1448 173.237C73.0871 173.134 72.3112 173.122 71.3028 172.479L65.3046 168.654H65.3061Z" fill="#DFE3E8"/>
<path d="M58.1898 146.023L64.6252 165.685C65.4119 167.26 65.8861 168.972 66.0231 170.725L66.6497 178.762L53.063 179.819L52.0576 166.902L42.4029 142.965C41.1328 139.816 41.3452 136.266 42.9803 133.29L51.3463 118.065L65.0901 124.447L58.7517 137.594C57.4831 140.226 57.2829 143.245 58.1913 146.022L58.1898 146.023Z" fill="#DFE3E8"/>
<path d="M61.4077 186.736C60.447 186.736 59.5648 186.168 59.1737 185.279C59.0983 185.108 59.1768 184.907 59.3477 184.832C59.5201 184.756 59.7187 184.835 59.7942 185.006C60.0944 185.69 60.7995 186.112 61.5447 186.052L61.6909 186.041C62.1605 186.004 62.587 185.789 62.8918 185.431C63.1982 185.074 63.346 184.619 63.309 184.151L62.8133 177.782C62.7994 177.595 62.938 177.432 63.1258 177.416C63.3106 177.403 63.4753 177.541 63.4907 177.728L63.9864 184.097C64.0373 184.747 63.8309 185.377 63.4076 185.872C62.9842 186.367 62.393 186.667 61.7433 186.718L61.597 186.729C61.5339 186.733 61.4708 186.736 61.4077 186.736Z" fill="black"/>
<path d="M57.9363 186.048C56.9694 186.048 56.0857 185.474 55.6977 184.577C55.6238 184.405 55.7023 184.206 55.8732 184.131C56.0457 184.057 56.2443 184.135 56.3197 184.308C56.6184 184.997 57.322 185.422 58.0733 185.363L58.2195 185.351C58.6891 185.314 59.1156 185.098 59.422 184.741C59.7283 184.383 59.8761 183.929 59.8392 183.46L59.3465 177.138C59.3327 176.951 59.4712 176.788 59.6591 176.772C59.8469 176.754 60.0085 176.897 60.0239 177.084L60.5166 183.406C60.5674 184.057 60.3611 184.687 59.9377 185.181C59.5143 185.676 58.9231 185.977 58.2734 186.027L58.1272 186.04C58.0641 186.044 57.9994 186.048 57.9363 186.048Z" fill="black"/>
<path d="M64.8143 185.713C64.2862 185.713 63.7689 185.547 63.3394 185.235C63.187 185.126 63.1531 184.913 63.264 184.762C63.3748 184.61 63.5857 184.576 63.7382 184.687C64.0907 184.941 64.5249 185.063 64.9575 185.029C65.4455 184.99 65.8905 184.765 66.2092 184.393C66.5279 184.021 66.6818 183.547 66.6433 183.06L65.7596 171.712C65.7458 171.525 65.8843 171.362 66.0722 171.347C66.2584 171.33 66.4216 171.471 66.437 171.658L67.3208 183.006C67.3731 183.674 67.1606 184.325 66.7249 184.835C66.2877 185.345 65.6796 185.655 65.0098 185.705C64.9452 185.71 64.879 185.713 64.8143 185.713Z" fill="black"/>
<path d="M53.8627 185.821C53.1468 185.821 52.4263 185.613 51.8444 185.271L51.8028 185.246C51.0299 184.775 50.665 183.89 50.8806 182.995C51.1023 182.075 51.849 181.434 52.785 181.363L52.8297 181.36C52.6526 179.586 52.6018 177.789 52.5526 176.048C52.451 172.462 52.3555 169.077 51.2639 165.811C50.8775 164.888 50.3156 162.913 49.7736 161.002C49.2733 159.241 48.7544 157.418 48.4019 156.531C48.3326 156.357 48.4173 156.16 48.5912 156.091C48.7652 156.02 48.9623 156.106 49.0315 156.28C49.398 157.199 49.8968 158.955 50.4249 160.817C50.9622 162.709 51.518 164.665 51.8982 165.574C53.0298 168.958 53.1314 172.553 53.23 176.03C53.2823 177.871 53.3362 179.776 53.5394 181.636L53.5779 181.984L52.8343 182.041C52.0614 182.099 51.6535 182.677 51.538 183.155C51.4225 183.634 51.5257 184.285 52.1569 184.67C53.2192 185.295 54.768 185.368 55.5717 184.436C56.9527 182.643 56.5601 180.517 56.1814 178.46C56.0643 177.823 55.9535 177.222 55.8904 176.623C55.8704 176.436 56.0058 176.27 56.1921 176.25C56.3753 176.228 56.5447 176.365 56.5647 176.552C56.6248 177.124 56.7325 177.712 56.848 178.336C57.236 180.437 57.6747 182.819 56.0967 184.866C55.5132 185.542 54.6895 185.822 53.8597 185.822L53.8627 185.821Z" fill="black"/>
<path d="M71.8853 176.757C69.7191 176.757 67.8177 175.578 66.0672 174.25C65.9179 174.137 65.8886 173.923 66.001 173.774C66.1134 173.624 66.3259 173.595 66.4767 173.707C68.8061 175.472 70.8476 176.52 73.2447 175.9L73.2986 175.886L73.354 175.889C73.5696 175.906 74.1854 175.697 74.5888 175.248C74.8351 174.974 74.9321 174.68 74.8782 174.376C74.6627 173.547 73.9314 173.41 72.7551 173.284C72.1578 173.219 71.5389 173.153 71.0739 172.88C70.5089 172.504 69.9516 172.157 69.4112 171.821C67.9886 170.937 66.6461 170.101 65.4421 168.952L65.359 168.872L65.3421 168.758C64.9449 166.14 62.1105 158.47 61.099 155.998C61.0282 155.824 61.1113 155.627 61.2853 155.556C61.4593 155.485 61.6563 155.568 61.7271 155.742C62.7325 158.2 65.5268 165.765 65.9949 168.54C67.1264 169.602 68.412 170.402 69.7699 171.246C70.3149 171.585 70.8769 171.935 71.4342 172.307C71.7575 172.496 72.2779 172.552 72.8275 172.61C73.8775 172.723 75.1861 172.863 75.5402 174.233C75.6372 174.771 75.4802 175.271 75.0938 175.704C74.6011 176.253 73.8375 176.572 73.371 176.572H73.3679C72.8598 176.7 72.3672 176.757 71.8868 176.757H71.8853Z" fill="black"/>
<path d="M130.026 121.738L114.991 101.229C112.688 98.0881 109.027 96.2312 105.13 96.2312H68.9683C64.6005 96.2312 60.5653 98.5596 58.3822 102.341L46.0933 123.616L61.9109 132.745V142.834H111.327V130.614L113.625 133.75L130.026 121.736V121.738Z" fill="#3F7421"/>
<path d="M111.326 143.174H61.9097C61.7218 143.174 61.5709 143.022 61.5709 142.835V132.942L45.9227 123.912C45.8441 123.867 45.7872 123.793 45.7641 123.706C45.741 123.619 45.7533 123.525 45.798 123.448L58.0869 102.172C60.3239 98.2994 64.4931 95.8923 68.9671 95.8923H105.129C109.116 95.8923 112.905 97.8124 115.262 101.027L130.298 121.536C130.352 121.608 130.373 121.699 130.359 121.789C130.345 121.878 130.298 121.958 130.224 122.01L113.823 134.022C113.672 134.133 113.459 134.099 113.349 133.95L111.663 131.649V142.832C111.663 143.02 111.51 143.171 111.324 143.171L111.326 143.174ZM62.2484 142.495H110.987V130.615C110.987 130.469 111.081 130.338 111.221 130.293C111.359 130.249 111.513 130.296 111.6 130.415L113.698 133.278L129.551 121.667L114.716 101.432C112.485 98.3903 108.902 96.5734 105.129 96.5734H68.9671C64.7348 96.5734 60.7904 98.8495 58.6735 102.514L46.5539 123.494L62.0775 132.452C62.1822 132.512 62.2468 132.625 62.2468 132.746V142.496L62.2484 142.495Z" fill="black"/>
<path d="M111.325 143.174H61.9089C61.7211 143.174 61.5702 143.022 61.5702 142.835V132.942L45.9219 123.912C45.8434 123.867 45.7865 123.793 45.7634 123.706C45.7403 123.619 45.7526 123.525 45.7972 123.448L58.0861 102.172C60.3231 98.2994 64.4923 95.8923 68.9663 95.8923H105.128C109.115 95.8923 112.904 97.8124 115.261 101.027L130.297 121.536C130.351 121.608 130.372 121.699 130.359 121.789C130.345 121.878 130.297 121.958 130.223 122.01L113.822 134.022C113.671 134.133 113.459 134.099 113.348 133.95L111.662 131.649V142.832C111.662 143.02 111.51 143.171 111.323 143.171L111.325 143.174ZM62.2476 142.495H110.986V130.615C110.986 130.469 111.08 130.338 111.22 130.293C111.359 130.249 111.513 130.296 111.599 130.415L113.697 133.278L129.55 121.667L114.715 101.432C112.484 98.3903 108.901 96.5734 105.128 96.5734H68.9663C64.734 96.5734 60.7896 98.8495 58.6727 102.514L46.5532 123.494L62.0767 132.452C62.1814 132.512 62.2461 132.625 62.2461 132.746V142.496L62.2476 142.495Z" fill="black"/>
<path d="M63.6015 132.967C63.5476 132.967 63.4937 132.954 63.4429 132.927C63.2782 132.839 63.215 132.634 63.3013 132.468L70.933 118.053C71.0207 117.887 71.2255 117.824 71.3917 117.911C71.5565 117.999 71.6196 118.204 71.5334 118.371L63.9017 132.785C63.8401 132.901 63.7231 132.965 63.6015 132.965V132.967Z" fill="black"/>
<path d="M111.324 130.954C111.141 130.954 110.99 130.808 110.986 130.623L110.57 114.164C110.565 113.976 110.713 113.82 110.901 113.815C111.083 113.815 111.244 113.959 111.249 114.147L111.665 130.606C111.669 130.794 111.521 130.95 111.334 130.954H111.324Z" fill="black"/>
<path d="M85.2743 99.8599C83.9918 99.2589 83.1743 97.9722 83.1743 96.5576V86.8047H89.8977V96.9243C89.8977 99.3005 87.4266 100.869 85.2743 99.8614V99.8599Z" fill="#F4AA74"/>
<path d="M86.6534 100.509C86.1361 100.509 85.6173 100.396 85.1292 100.168C83.7344 99.5149 82.8337 98.0972 82.8337 96.5577V86.8048C82.8337 86.6168 82.9862 86.4658 83.1724 86.4658H89.8958C90.0836 86.4658 90.2345 86.6184 90.2345 86.8048V96.9245C90.2345 98.1557 89.614 99.2853 88.5748 99.9464C87.9882 100.321 87.3216 100.509 86.6519 100.509H86.6534ZM83.5127 87.1439V96.5577C83.5127 97.8352 84.2609 99.011 85.4171 99.5534C86.324 99.9772 87.3678 99.9109 88.2115 99.3731C89.0536 98.8368 89.5555 97.9215 89.5555 96.9245V87.1454H83.5111L83.5127 87.1439Z" fill="black"/>
<path d="M88.0112 90.6122C90.9573 90.124 92.9091 87.0894 92.3707 83.8341C91.8323 80.5789 89.0076 78.3357 86.0614 78.8239C83.1153 79.312 81.1635 82.3467 81.7019 85.6019C82.2403 88.8572 85.0651 91.1004 88.0112 90.6122Z" fill="#F4AA74"/>
<path d="M87.2053 91.0178C84.4002 91.0178 81.8738 88.7679 81.3642 85.6444C81.0932 83.9863 81.4242 82.3297 82.2956 80.9814C83.1747 79.6222 84.4957 78.7361 86.0168 78.488C89.1437 77.978 92.1443 80.3573 92.7062 83.7936C92.9772 85.4517 92.6462 87.1083 91.7748 88.4567C90.8957 89.8158 89.5747 90.7019 88.0536 90.95C87.7688 90.9962 87.4855 91.0193 87.2053 91.0193V91.0178ZM82.0339 85.535C82.5342 88.6015 85.1869 90.7296 87.9443 90.2796C89.2745 90.0624 90.4323 89.2842 91.2052 88.0884C91.9857 86.8818 92.2813 85.3947 92.0381 83.9031C91.5377 80.8365 88.8865 78.7099 86.1276 79.1584C84.7974 79.3756 83.6397 80.1538 82.8668 81.3496C82.0862 82.5562 81.7906 84.0433 82.0339 85.535Z" fill="black"/>
<path d="M81.4741 85.6429L92.5668 83.8323C93.0733 87.187 91.0488 90.2921 88.0096 90.7883C84.9705 91.2845 82.0622 88.9853 81.4757 85.6429H81.4741Z" fill="#F4AA74"/>
<path d="M89.9117 87.4984C89.65 87.9021 89.2636 88.2303 88.7786 88.4106C87.6963 88.8144 86.5062 88.3536 85.9565 87.3782L89.9117 87.4968V87.4984Z" fill="white"/>
<path d="M89.5667 76.2754L79.4362 80.7581L77.4302 87.7912L96.1253 79.5161L89.5667 76.2754Z" fill="#FFDD00"/>
<path d="M82.2514 73.0347L81.9589 73.1641C79.257 74.3599 78.0253 77.5112 79.2015 80.2203L79.4356 80.7596L89.566 76.2754L89.3643 75.81C88.1757 73.0701 84.9811 71.8235 82.2499 73.0331L82.2514 73.0347Z" fill="#FFDD00"/>
<path d="M89.5669 76.616C89.436 76.616 89.3113 76.5405 89.2559 76.4111L89.0542 75.9457C88.5153 74.7052 87.5254 73.7513 86.266 73.2582C85.0035 72.7651 83.6272 72.7959 82.3893 73.3445C82.2184 73.4185 82.0168 73.343 81.9413 73.1704C81.8659 72.9993 81.9429 72.799 82.1137 72.722C83.5194 72.1009 85.0805 72.067 86.5123 72.6249C87.9411 73.1843 89.0649 74.266 89.6762 75.6745L89.8778 76.1399C89.9533 76.3124 89.8732 76.5112 89.7023 76.5867C89.6577 76.6052 89.613 76.6145 89.5669 76.6145V76.616Z" fill="black"/>
<path d="M77.4296 88.1303C77.2987 88.1303 77.1755 88.0548 77.1186 87.9284C77.0431 87.7574 77.1201 87.557 77.291 87.48L95.3241 79.4992L89.5584 76.6499L84.7272 78.7873C84.5563 78.8628 84.3561 78.7858 84.2791 78.6132C84.2037 78.4421 84.2807 78.2418 84.4516 78.1647L89.5722 75.8979L96.9222 79.53L77.5635 88.0979C77.5189 88.118 77.4727 88.1272 77.4265 88.1272L77.4296 88.1303Z" fill="black"/>
<path d="M55.1983 93.6667C57.6658 93.6554 59.657 91.6442 59.6458 89.1745C59.6346 86.7047 57.6253 84.7117 55.1578 84.7229C52.6902 84.7341 50.699 86.7453 50.7102 89.2151C50.7214 91.6848 52.7308 93.6779 55.1983 93.6667Z" fill="black"/>
<path d="M43.6164 90.0044C43.9922 87.5634 42.3198 85.2797 39.8811 84.9035C37.4424 84.5274 35.1607 86.2013 34.7849 88.6422C34.4091 91.0832 36.0815 93.3669 38.5202 93.7431C40.959 94.1192 43.2406 92.4453 43.6164 90.0044Z" fill="black"/>
<path d="M49.3567 94.6429L41.9607 94.6855L42.0305 106.825L49.4266 106.783L49.3567 94.6429Z" fill="#F4AA74"/>
<path d="M42.0316 107.163C41.9423 107.163 41.8561 107.128 41.793 107.065C41.7283 107.001 41.6929 106.915 41.6929 106.826L41.6221 94.6874C41.6221 94.4994 41.7714 94.3468 41.9592 94.3453L49.3554 94.3022C49.4339 94.2945 49.5324 94.3376 49.5955 94.4008C49.6602 94.464 49.6956 94.5503 49.6956 94.6396L49.7664 106.778C49.7664 106.966 49.6171 107.119 49.4293 107.12L42.0331 107.163H42.0316ZM42.3026 95.0218L42.3688 106.482L49.0875 106.444L49.0213 94.9833L42.3026 95.0218Z" fill="black"/>
<path d="M41.9796 97.4919L41.9626 94.6843L49.3588 94.6411L49.3942 100.837C48.7276 100.975 47.3974 101.15 45.867 100.654C43.4714 99.8789 42.286 98.0143 41.978 97.4904L41.9796 97.4919Z" fill="black"/>
<path d="M46.7231 99.1182C49.9652 99.0995 52.5767 96.177 52.5561 92.5907C52.5354 89.0044 49.8905 86.1123 46.6484 86.131C43.4063 86.1496 40.7948 89.0721 40.8154 92.6584C40.8361 96.2447 43.481 99.1368 46.7231 99.1182Z" fill="#F4AA74"/>
<path d="M46.693 99.4566C45.041 99.4566 43.486 98.7524 42.3128 97.4688C41.1397 96.1867 40.4885 94.4793 40.4777 92.6594C40.4669 90.841 41.0997 89.1244 42.2574 87.8284C43.4244 86.5232 44.9825 85.7989 46.6483 85.7897C48.3126 85.7712 49.8814 86.4862 51.0623 87.7775C52.2354 89.0596 52.8867 90.767 52.8975 92.5869C52.9082 94.4053 52.2755 96.122 51.1177 97.4179C49.9507 98.7231 48.3926 99.4474 46.7268 99.4566H46.693ZM46.6822 86.4692H46.6529C45.1826 86.4769 43.8016 87.1211 42.7639 88.2814C41.7186 89.451 41.1474 91.0044 41.1582 92.6547C41.1674 94.3051 41.7555 95.8523 42.8148 97.0096C43.857 98.1499 45.235 98.7771 46.6945 98.7771H46.7237C48.194 98.7694 49.575 98.1252 50.6127 96.9649C51.6581 95.7953 52.2293 94.242 52.2185 92.5916C52.2093 90.9412 51.6211 89.394 50.5619 88.2367C49.5196 87.0964 48.1417 86.4692 46.6822 86.4692Z" fill="black"/>
<path d="M46.6263 99.4566C44.7619 99.4566 43.5164 99.1315 41.966 97.4534C41.8382 97.3162 41.8475 97.1005 41.9845 96.9741C42.1215 96.8478 42.337 96.8555 42.4633 96.9926C43.8766 98.5228 44.962 98.794 46.7202 98.7771C48.1905 98.7694 49.5715 98.1252 50.6092 96.9649C51.6546 95.7953 52.2258 94.242 52.215 92.5916C52.2058 90.9412 51.6176 89.394 50.5584 88.2367C49.5084 87.0887 48.1243 86.4461 46.6494 86.4692C44.6941 86.48 42.9298 87.6049 41.9275 89.4757C41.8398 89.6406 41.6335 89.7038 41.4687 89.6144C41.304 89.5265 41.2409 89.3201 41.3302 89.1552C42.434 87.0918 44.4709 85.802 46.6463 85.7897C48.3106 85.7712 49.8794 86.4862 51.0603 87.7775C52.2335 89.0596 52.8847 90.767 52.8955 92.5869C52.9063 94.4053 52.2735 96.122 51.1157 97.4179C49.9487 98.7231 48.3907 99.4474 46.7249 99.4566C46.691 99.4566 46.6586 99.4566 46.6263 99.4566Z" fill="black"/>
<path d="M46.649 86.1288C43.4066 86.1472 40.7955 89.0705 40.817 92.6564C40.8186 92.9784 40.8432 93.2959 40.8848 93.6056L46.1902 88.7531L52.3007 90.7332C51.5633 88.0565 49.3078 86.1133 46.649 86.1288Z" fill="black"/>
<path d="M45.4336 96.4455C46.0217 96.7368 46.7022 96.8493 47.3966 96.7229C48.9438 96.4394 50.0169 95.0679 49.9784 93.5408L45.4351 96.4455H45.4336Z" fill="white"/>
<path d="M75.5786 272.104H58.7202L64.7123 236.122H81.5722L75.5786 272.104Z" fill="#F4AA74"/>
<path d="M75.5789 272.445H58.7206C58.6205 272.445 58.5266 272.401 58.4619 272.324C58.3972 272.247 58.3695 272.147 58.3865 272.048L64.38 236.067C64.4078 235.903 64.5494 235.783 64.7141 235.783H81.5725C81.6726 235.783 81.7665 235.826 81.8312 235.903C81.8958 235.979 81.9235 236.08 81.9066 236.179L75.913 272.161C75.8853 272.324 75.7437 272.445 75.5789 272.445ZM59.1208 271.765H75.2926L81.1722 236.463H65.0005L59.1208 271.765Z" fill="black"/>
<path d="M104.864 278.1H56.6248L58.7232 263.621H77.7539L90.7865 267.803L93.493 268.011C99.9408 268.507 104.864 272.874 104.864 278.098V278.1Z" fill="#FFDD00"/>
<path d="M104.863 278.439H56.6238C56.5253 278.439 56.4314 278.396 56.3667 278.322C56.3021 278.248 56.2728 278.148 56.2882 278.051L58.3867 263.572C58.4113 263.405 58.5545 263.28 58.7223 263.28H77.753C77.7884 263.28 77.8238 263.285 77.8562 263.297L90.8517 267.467L93.5183 267.672C100.179 268.185 105.202 272.668 105.202 278.098C105.202 278.286 105.05 278.437 104.863 278.437V278.439ZM57.0164 277.759H104.517C104.311 272.841 99.6289 268.825 93.4675 268.35L90.7609 268.142C90.7347 268.141 90.7086 268.134 90.6839 268.127L77.7007 263.96H59.0163L57.0164 277.759Z" fill="black"/>
<path d="M106.206 281.661H54.9722V278.1H105.908L106.206 281.661Z" fill="white"/>
<path d="M106.207 282H54.9725C54.7847 282 54.6338 281.847 54.6338 281.661V278.1C54.6338 277.912 54.7862 277.761 54.9725 277.761H105.906C106.082 277.761 106.23 277.896 106.245 278.072L106.545 281.633C106.553 281.729 106.521 281.821 106.458 281.892C106.393 281.961 106.302 282.002 106.208 282.002L106.207 282ZM55.3127 281.32H105.839L105.595 278.439H55.3127V281.32Z" fill="black"/>
<path d="M84.6094 270.786C84.5309 270.786 84.4524 270.76 84.3892 270.704C84.2476 270.583 84.2307 270.369 84.3523 270.225L87.4622 266.599C87.5838 266.458 87.7994 266.441 87.941 266.562C88.0827 266.684 88.0996 266.898 87.978 267.042L84.868 270.667C84.8003 270.746 84.7064 270.786 84.6109 270.786H84.6094Z" fill="black"/>
<path d="M81.613 269.888C81.5345 269.888 81.456 269.862 81.3929 269.806C81.2512 269.685 81.2343 269.47 81.3559 269.327L84.4659 265.701C84.5875 265.559 84.8031 265.542 84.9447 265.664C85.0863 265.786 85.1033 266 84.9816 266.143L81.8717 269.769C81.804 269.848 81.71 269.888 81.6146 269.888H81.613Z" fill="black"/>
<path d="M78.6145 268.99C78.536 268.99 78.4575 268.963 78.3944 268.908C78.2527 268.786 78.2358 268.572 78.3574 268.429L81.4674 264.803C81.589 264.661 81.8045 264.644 81.9462 264.766C82.0878 264.887 82.1047 265.102 81.9831 265.245L78.8732 268.871C78.8054 268.949 78.7115 268.99 78.6161 268.99H78.6145Z" fill="black"/>
<path d="M30.3272 272.104H13.4673L19.4609 236.122H36.3193L30.3272 272.104Z" fill="#F4AA74"/>
<path d="M30.3282 272.445H13.4698C13.3697 272.445 13.2758 272.401 13.2112 272.324C13.1465 272.249 13.1188 272.147 13.1357 272.048L19.1293 236.067C19.157 235.903 19.2987 235.783 19.4634 235.783H36.3218C36.4219 235.783 36.5158 235.826 36.5804 235.903C36.6451 235.98 36.6728 236.08 36.6559 236.179L30.6623 272.161C30.6346 272.324 30.4929 272.445 30.3282 272.445ZM13.8686 271.765H30.0403L35.92 236.463H19.7482L13.8686 271.765Z" fill="black"/>
<path d="M59.9108 278.1H11.6711L13.7696 263.621H32.8003L45.8329 267.803L48.5394 268.011C54.9872 268.507 59.9108 272.874 59.9108 278.098V278.1Z" fill="#FFDD00"/>
<path d="M59.9098 278.439H11.6702C11.5717 278.439 11.4778 278.396 11.4131 278.322C11.3485 278.248 11.3192 278.148 11.3346 278.051L13.433 263.572C13.4577 263.405 13.6009 263.28 13.7687 263.28H32.7994C32.8348 263.28 32.8702 263.285 32.9026 263.297L45.8981 267.467L48.5647 267.672C55.2249 268.185 60.2485 272.668 60.2485 278.098C60.2485 278.286 60.0961 278.437 59.9098 278.437V278.439ZM12.0628 277.759H59.5634C59.3571 272.841 54.6753 268.825 48.5139 268.35L45.8073 268.142C45.7811 268.141 45.755 268.134 45.7303 268.127L32.7471 263.96H14.0627L12.0628 277.759Z" fill="black"/>
<path d="M61.2547 281.661H10.019V278.1H60.9545L61.2547 281.661Z" fill="white"/>
<path d="M61.2548 282H10.0191C9.8313 282 9.68042 281.847 9.68042 281.661V278.1C9.68042 277.912 9.83284 277.761 10.0191 277.761H60.953C61.1285 277.761 61.2763 277.896 61.2917 278.072L61.5919 281.633C61.5996 281.729 61.5673 281.821 61.5042 281.892C61.4395 281.961 61.3487 282.002 61.2548 282.002V282ZM10.3594 281.32H60.8853L60.642 278.439H10.3594V281.32Z" fill="black"/>
<path d="M39.6597 270.786C39.5812 270.786 39.5026 270.76 39.4395 270.705C39.2979 270.583 39.2809 270.369 39.4026 270.225L42.5125 266.6C42.6341 266.458 42.8497 266.441 42.9913 266.563C43.133 266.684 43.1499 266.899 43.0283 267.042L39.9183 270.668C39.8506 270.746 39.7567 270.786 39.6612 270.786H39.6597Z" fill="black"/>
<path d="M36.6611 269.888C36.5826 269.888 36.5041 269.862 36.441 269.806C36.2993 269.685 36.2824 269.47 36.404 269.327L39.514 265.701C39.6356 265.559 39.8512 265.542 39.9928 265.664C40.1344 265.786 40.1514 266 40.0297 266.143L36.9198 269.769C36.8521 269.848 36.7581 269.888 36.6627 269.888H36.6611Z" fill="black"/>
<path d="M33.6668 268.99C33.5882 268.99 33.5097 268.963 33.4466 268.908C33.305 268.786 33.288 268.572 33.4097 268.429L36.5196 264.803C36.6412 264.661 36.8568 264.644 36.9984 264.766C37.1401 264.887 37.157 265.102 37.0354 265.245L33.9254 268.871C33.8577 268.949 33.7638 268.99 33.6683 268.99H33.6668Z" fill="black"/>
<path d="M89.8184 255.302H48.2867L55.6736 200.356L36.2996 138.131H59.852L76.7243 177.219C81.7495 188.863 84.8964 201.228 86.0464 213.855L89.8199 255.301L89.8184 255.302Z" fill="#020202"/>
<path d="M41.8718 255.302H0.338623L30.3065 138.131H50.8614L41.8718 255.302Z" fill="#020202"/>
<path d="M41.872 255.641H0.338792C0.234101 255.641 0.135568 255.594 0.0709054 255.51C0.00624306 255.427 -0.015311 255.319 0.0108618 255.218L29.9788 138.046C30.0173 137.896 30.1527 137.79 30.3067 137.79H50.8616C50.9555 137.79 51.0464 137.83 51.111 137.899C51.1757 137.969 51.208 138.061 51.2003 138.157L42.2107 255.329C42.1969 255.506 42.0491 255.643 41.872 255.643V255.641ZM0.776032 254.963H41.5564L50.4952 138.471H30.57L0.776032 254.963Z" fill="black"/>
<path d="M10.0224 255.641C9.9978 255.641 9.97317 255.638 9.947 255.634C9.76379 255.592 9.64986 255.412 9.68989 255.228L35.9674 138.057C36.009 137.873 36.1907 137.759 36.3723 137.799C36.5555 137.841 36.6695 138.021 36.6294 138.205L10.3519 255.376C10.3165 255.535 10.1764 255.641 10.0209 255.641H10.0224Z" fill="white"/>
<path d="M13.0188 255.641C12.9941 255.641 12.9695 255.638 12.9433 255.634C12.7601 255.592 12.6462 255.412 12.6862 255.228L38.9638 138.057C39.0053 137.873 39.187 137.759 39.3687 137.799C39.5519 137.841 39.6658 138.021 39.6258 138.205L13.3482 255.376C13.3128 255.535 13.1727 255.641 13.0172 255.641H13.0188Z" fill="white"/>
<path d="M43.817 142.274H25.5992C21.2884 142.274 16.6204 139.268 16.6204 134.959V117.532C16.6204 110.083 24.6816 104.16 30.806 104.163H43.8186V142.274H43.817Z" fill="#B9BEC6"/>
<path d="M43.8173 142.613H25.5995C21.1917 142.613 16.282 139.47 16.282 134.958V117.531C16.282 114 18.0263 110.542 21.1948 107.795C24.063 105.306 27.6549 103.822 30.8002 103.822H43.8173C44.0052 103.822 44.1561 103.975 44.1561 104.161V142.273C44.1561 142.461 44.0036 142.612 43.8173 142.612V142.613ZM30.8017 104.5C27.8581 104.5 24.3478 105.959 21.6397 108.308C18.6221 110.924 16.9609 114.201 16.9609 117.531V134.958C16.9609 139.069 21.5135 141.934 25.5995 141.934H43.4786V104.5H30.8017Z" fill="black"/>
<path d="M18.4984 146.74L7.51196 135.304L21.1203 111.78L37.3382 114.147L18.4984 146.74Z" fill="#F4AA74"/>
<path d="M7.51184 135.643C7.45488 135.643 7.39637 135.63 7.34249 135.597C7.18083 135.503 7.1254 135.295 7.21932 135.133L20.8277 111.609C20.9216 111.447 21.1279 111.391 21.2911 111.485C21.4527 111.579 21.5081 111.788 21.4142 111.949L7.8059 135.474C7.74278 135.583 7.62885 135.643 7.51184 135.643Z" fill="black"/>
<path d="M26.7946 123.004L17.7927 117.532L21.1198 111.78L37.3377 114.147L26.7946 123.004Z" fill="black"/>
<path d="M103.697 117.132L89.7548 133.891C89.6639 134.001 89.5716 134.109 89.4761 134.213L89.1466 134.608C85.1976 139.357 78.1417 140.009 73.389 136.064L55.884 121.539L65.4171 110.083L81.0254 123.037L95.0186 108.836L103.696 117.132H103.697Z" fill="#F4AA74"/>
<path d="M80.5301 138.98C77.9328 138.98 75.3232 138.11 73.174 136.326L55.669 121.801C55.5997 121.744 55.5566 121.66 55.5473 121.571C55.5381 121.482 55.5674 121.392 55.6243 121.323L65.1574 109.867C65.2775 109.724 65.4899 109.704 65.6347 109.823L81.0027 122.577L94.7773 108.599C94.9082 108.468 95.1191 108.463 95.2531 108.591L103.93 116.886C104.059 117.01 104.07 117.212 103.956 117.349L90.0139 134.108C89.9184 134.223 89.8245 134.333 89.726 134.441L89.4058 134.825C87.1287 137.563 83.8402 138.98 80.5285 138.98H80.5301ZM56.3633 121.496L73.6066 135.804C78.2084 139.624 85.0641 138.99 88.8869 134.39L89.2164 133.996C89.318 133.883 89.4058 133.779 89.495 133.672L103.234 117.158L95.0268 109.313L81.2675 123.275C81.1444 123.4 80.9458 123.411 80.8103 123.298L65.4622 110.561L56.3633 121.496Z" fill="black"/>
<path d="M99.139 106.191L109.762 92.3711C110.378 91.5929 110.401 90.6621 109.622 90.0473C108.844 89.4324 107.714 89.565 107.1 90.3416L96.3215 103.964L99.1405 106.189L99.139 106.191Z" fill="#F4AA74"/>
<path d="M102.629 108.528C103.239 109.014 104.127 108.914 104.614 108.305L107.371 104.824L108.815 105.972L109.485 105.134C110.553 103.794 110.175 102.289 110.173 102.31C109.896 100.726 107.834 99.7186 106.72 101.116L102.407 106.547C101.921 107.155 102.022 108.043 102.632 108.528H102.629Z" fill="#F4AA74"/>
<path d="M106.31 108.385C106.92 108.87 107.808 108.77 108.295 108.161L109.566 106.557L111.011 107.705L111.68 106.867C112.749 105.528 112.37 104.022 112.368 104.044C112.091 102.46 110.03 101.452 108.915 102.85L106.089 106.403C105.602 107.012 105.704 107.899 106.313 108.385H106.31Z" fill="#F4AA74"/>
<path d="M94.5741 106.226C94.8527 108.367 95.3069 110.481 95.9335 112.546L96.9419 115.871L102.974 117.931L111.825 106.745L102.795 99.6184L98.2721 105.334L97.5285 99.566C97.3761 98.3779 96.7633 97.2977 95.8227 96.555L94.1692 95.2497C93.4409 94.675 92.3848 94.7982 91.809 95.5256L91.6843 95.6843C91.1085 96.4116 91.2332 97.4672 91.9614 98.042L92.2216 98.247C93.1607 98.9882 93.7735 100.067 93.9274 101.253L94.5741 106.225V106.226Z" fill="#F4AA74"/>
<path d="M99.5568 107.879C100.166 108.365 101.055 108.265 101.541 107.656L105.164 103.082L106.608 104.23L107.278 103.392C108.346 102.053 107.968 100.547 107.966 100.569C107.689 98.9849 105.627 97.9771 104.513 99.3748L99.3351 105.899C98.8486 106.508 98.9502 107.396 99.5599 107.881L99.5568 107.879Z" fill="#F4AA74"/>
<path d="M71.5503 115.17L60.0358 124.981L55.8882 121.539L65.4197 110.082L71.5503 115.17Z" fill="black"/>
<path d="M100.434 108.527C100.052 108.527 99.6688 108.402 99.347 108.146C98.9806 107.855 98.7512 107.439 98.6973 106.975C98.645 106.511 98.7758 106.054 99.0684 105.688L104.246 99.1638C104.762 98.5181 105.513 98.2484 106.307 98.4241C107.248 98.6321 108.035 99.4072 108.266 100.352C108.31 100.534 108.2 100.719 108.016 100.762C107.835 100.806 107.652 100.696 107.607 100.512C107.439 99.8233 106.845 99.2377 106.161 99.0867C105.847 99.0189 105.251 98.9896 104.776 99.586L99.598 106.111C99.4194 106.334 99.3393 106.614 99.3701 106.898C99.4024 107.182 99.5425 107.437 99.7673 107.615C100.215 107.972 100.863 107.915 101.242 107.485L102.144 106.343C102.261 106.197 102.474 106.172 102.622 106.288C102.768 106.405 102.794 106.618 102.677 106.765L101.763 107.921C101.41 108.323 100.922 108.528 100.432 108.528L100.434 108.527Z" fill="black"/>
<path d="M103.508 109.174C103.126 109.174 102.741 109.049 102.419 108.793C102.053 108.502 101.823 108.086 101.77 107.622C101.717 107.158 101.848 106.701 102.141 106.336L106.453 100.905C106.969 100.258 107.72 99.9898 108.516 100.165C109.457 100.373 110.243 101.15 110.473 102.096C110.517 102.278 110.405 102.463 110.223 102.506C110.042 102.551 109.859 102.438 109.814 102.257C109.646 101.568 109.052 100.981 108.37 100.828C108.056 100.759 107.46 100.731 106.984 101.327L102.672 106.758C102.493 106.981 102.413 107.262 102.444 107.545C102.476 107.829 102.616 108.085 102.841 108.262C103.305 108.63 103.98 108.553 104.348 108.092L105.655 106.442C105.772 106.295 105.986 106.271 106.133 106.386C106.279 106.504 106.304 106.716 106.188 106.863L104.881 108.513C104.535 108.946 104.025 109.173 103.509 109.173L103.508 109.174Z" fill="black"/>
<path d="M108.199 111.672C108.125 111.672 108.051 111.647 107.988 111.598C107.842 111.481 107.817 111.268 107.933 111.12C108.064 110.955 108.228 110.755 108.415 110.529C109.651 109.029 112.225 105.909 111.939 103.979C111.868 103.497 111.622 103.123 111.187 102.834C110.051 102.078 109.335 102.834 108.372 104.07C108.298 104.166 108.224 104.26 108.151 104.351C108.005 104.536 107.81 104.748 107.603 104.973C106.944 105.693 106.042 106.678 106.124 107.402C106.171 107.82 106.393 108.119 106.747 108.243C107.18 108.396 107.708 108.263 108.059 107.914C108.333 107.642 108.582 107.3 108.824 106.97C108.952 106.796 109.078 106.624 109.208 106.46C109.325 106.314 109.537 106.289 109.685 106.405C109.831 106.522 109.856 106.735 109.74 106.883C109.616 107.04 109.495 107.205 109.372 107.371C109.115 107.722 108.849 108.085 108.538 108.394C108.007 108.923 107.197 109.119 106.524 108.883C105.919 108.67 105.528 108.157 105.451 107.477C105.334 106.448 106.316 105.376 107.104 104.514C107.303 104.297 107.489 104.093 107.622 103.927C107.693 103.838 107.765 103.745 107.837 103.651C108.673 102.577 109.819 101.106 111.565 102.266C112.159 102.662 112.511 103.204 112.612 103.878C112.941 106.108 110.338 109.263 108.94 110.96C108.756 111.184 108.595 111.379 108.465 111.541C108.399 111.626 108.299 111.669 108.199 111.669V111.672Z" fill="black"/>
<path d="M95.0206 109.176C94.8651 109.176 94.7234 109.068 94.6896 108.907C94.1507 106.42 93.8705 104.203 93.832 102.13C93.655 101.015 93.0099 100.045 92.3279 99.0205C91.9845 98.5043 91.6289 97.9711 91.3394 97.4179C90.893 96.6274 91.0254 95.6751 91.6689 95.1095C92.1693 94.6688 93.1546 94.3822 93.8705 94.6888C96.2584 95.7059 97.6471 97.834 98.0997 101.184C98.6894 100.447 99.2852 99.7155 99.8826 98.982C101.705 96.743 103.59 94.4284 105.253 92.0183L105.465 91.707C106.009 90.9042 106.624 89.9965 107.54 89.4911C108.363 89.038 109.354 89.1798 110.008 89.8378C110.63 90.465 110.744 91.3464 110.302 92.1385C109.75 93.1324 107.848 95.5996 106.321 97.5828C105.638 98.4704 105.046 99.2378 104.749 99.6508C104.64 99.8018 104.427 99.8357 104.275 99.7279C104.123 99.6184 104.089 99.4058 104.198 99.2532C104.501 98.8325 105.096 98.0605 105.784 97.1683C107.219 95.3068 109.182 92.758 109.711 91.8087C110.002 91.2848 109.934 90.727 109.528 90.3186C109.162 89.9503 108.506 89.7346 107.867 90.0875C107.094 90.5128 106.55 91.3141 106.025 92.0892L105.81 92.4051C104.132 94.8383 102.24 97.1637 100.409 99.412C99.7178 100.259 99.0281 101.109 98.3476 101.964L98.1182 102.252C98.032 102.361 97.8873 102.406 97.7549 102.366C97.6225 102.326 97.527 102.209 97.5147 102.07C97.2068 98.4642 95.9659 96.3177 93.6072 95.3145C93.1685 95.128 92.4587 95.3222 92.1185 95.6211C91.7197 95.9709 91.6458 96.5781 91.9383 97.0943C92.217 97.626 92.5619 98.1437 92.896 98.6461C93.5934 99.694 94.3154 100.777 94.5094 102.053C94.511 102.069 94.5125 102.082 94.5125 102.098C94.5479 104.134 94.8235 106.316 95.3547 108.767C95.3947 108.951 95.2777 109.131 95.0945 109.171C95.0698 109.176 95.0468 109.179 95.0221 109.179L95.0206 109.176Z" fill="black"/>
<path d="M69.5953 111.018L68.8594 110.521C63.9112 107.177 58.0746 105.389 52.1011 105.389H38.5728C31.8602 105.389 25.3417 107.645 20.0686 111.793L26.7966 123.003L22.7028 140.591L64.7349 141.044L62.7165 127.485C64.1637 126.551 65.1228 124.93 65.1228 123.081C65.1228 121.825 64.6794 120.673 63.942 119.77L69.5953 111.018Z" fill="white"/>
<path d="M64.7322 141.385H64.7291L22.6971 140.932C22.5939 140.932 22.4969 140.883 22.4338 140.803C22.3707 140.723 22.3476 140.616 22.3707 140.516L26.4336 123.061L19.7765 111.969C19.6887 111.823 19.7226 111.633 19.8581 111.527C25.1681 107.351 31.8129 105.05 38.5717 105.05H52.1C58.1644 105.05 64.0255 106.844 69.0492 110.239L69.7851 110.737C69.9375 110.84 69.9806 111.048 69.8805 111.202L64.3581 119.75C65.0724 120.71 65.462 121.882 65.462 123.08C65.462 124.907 64.5767 126.598 63.0833 127.646L65.0694 140.994C65.0832 141.092 65.0555 141.193 64.9893 141.266C64.9246 141.34 64.8323 141.384 64.7337 141.384L64.7322 141.385ZM23.1266 140.257L64.3381 140.701L62.3782 127.536C62.3582 127.404 62.4182 127.273 62.5306 127.2C63.9409 126.29 64.7815 124.75 64.7815 123.081C64.7815 121.956 64.3889 120.856 63.676 119.984C63.5837 119.87 63.5744 119.708 63.6545 119.585L69.1277 111.113L68.6674 110.801C63.7561 107.482 58.0273 105.728 52.0984 105.728H38.5701C32.0623 105.728 25.6623 107.909 20.5124 111.877L27.0864 122.829C27.1311 122.904 27.1465 122.995 27.1264 123.08L23.1282 140.257H23.1266Z" fill="black"/>
<path d="M69.5953 111.018L68.8594 110.521C63.9112 107.177 58.0746 105.389 52.1011 105.389H38.5728C31.8602 105.389 25.3417 107.645 20.0686 111.793L26.7966 123.003L22.7028 140.591L64.7349 141.044L62.7165 127.485C64.1637 126.551 65.1228 124.93 65.1228 123.081C65.1228 121.825 64.6794 120.673 63.942 119.77L69.5953 111.018Z" fill="#FFDD00"/>
<path d="M64.7322 141.385H64.7291L22.6971 140.932C22.5939 140.932 22.4969 140.883 22.4338 140.803C22.3707 140.723 22.3476 140.616 22.3707 140.516L26.4336 123.061L19.7765 111.969C19.6887 111.823 19.7226 111.633 19.8581 111.527C25.1681 107.351 31.8129 105.05 38.5717 105.05H52.1C58.1644 105.05 64.0255 106.844 69.0492 110.239L69.7851 110.737C69.9375 110.84 69.9806 111.048 69.8805 111.202L64.3581 119.75C65.0724 120.71 65.462 121.882 65.462 123.08C65.462 124.907 64.5767 126.598 63.0833 127.646L65.0694 140.994C65.0832 141.092 65.0555 141.193 64.9893 141.266C64.9246 141.34 64.8323 141.384 64.7337 141.384L64.7322 141.385ZM23.1266 140.257L64.3381 140.701L62.3782 127.536C62.3582 127.404 62.4182 127.273 62.5306 127.2C63.9409 126.29 64.7815 124.75 64.7815 123.081C64.7815 121.956 64.3889 120.856 63.676 119.984C63.5837 119.87 63.5744 119.708 63.6545 119.585L69.1277 111.113L68.6674 110.801C63.7561 107.482 58.0273 105.728 52.0984 105.728H38.5701C32.0623 105.728 25.6623 107.909 20.5124 111.877L27.0864 122.829C27.1311 122.904 27.1465 122.995 27.1264 123.08L23.1282 140.257H23.1266Z" fill="black"/>
<path d="M61.9146 128.253C61.7822 128.253 61.656 128.174 61.6021 128.045C61.5298 127.872 61.6098 127.673 61.7822 127.599C63.6036 126.829 64.7813 125.055 64.7813 123.08C64.7813 121.104 63.5743 119.283 61.7068 118.529C61.5944 118.485 61.5144 118.381 61.4974 118.261L61.0063 114.74C60.9801 114.554 61.1094 114.382 61.2957 114.356C61.4789 114.329 61.6529 114.459 61.6791 114.646L62.144 117.976C64.1655 118.873 65.4603 120.855 65.4603 123.08C65.4603 125.305 64.1209 127.348 62.0455 128.225C62.0024 128.244 61.9578 128.251 61.9131 128.251L61.9146 128.253Z" fill="black"/>
<path d="M50.2712 104.01H41.1091V107.617H50.2712V104.01Z" fill="#F4AA74"/>
<path d="M50.2715 107.957H41.1095C40.9216 107.957 40.7708 107.804 40.7708 107.618V104.01C40.7708 103.822 40.9232 103.671 41.1095 103.671H50.2715C50.4593 103.671 50.6102 103.824 50.6102 104.01V107.618C50.6102 107.806 50.4578 107.957 50.2715 107.957ZM41.4482 107.279H49.9312V104.349H41.4482V107.279Z" fill="black"/>
<path d="M19.4665 185.272L7.95818 172.379C4.72814 168.761 5.04068 163.206 8.65561 159.973L48.0796 124.719C51.6945 121.487 57.2447 121.799 60.4748 125.418L71.9831 138.311C75.2131 141.929 74.9006 147.484 71.2857 150.717L31.8617 185.971C28.2467 189.203 22.6966 188.891 19.4665 185.272Z" fill="#0B3D59"/>
<path d="M26.0168 188.539C23.5088 188.539 21.0116 187.513 19.2119 185.497L7.70352 172.604C6.0808 170.786 5.26328 168.445 5.40031 166.01C5.53733 163.577 6.61349 161.341 8.42866 159.717L47.8526 124.464C51.6015 121.112 57.378 121.437 60.7266 125.189L72.235 138.083C75.5851 141.835 75.2587 147.617 71.5098 150.969L32.0858 186.222C30.3492 187.773 28.1784 188.538 26.0168 188.538V188.539ZM53.9232 122.827C51.9217 122.827 49.9126 123.534 48.3053 124.971L8.88129 160.224C7.20007 161.726 6.20397 163.796 6.07772 166.049C5.95148 168.301 6.70895 170.468 8.21004 172.151L19.7184 185.044C22.8191 188.518 28.1645 188.82 31.6347 185.716L71.0587 150.463C74.5289 147.36 74.8291 142.009 71.73 138.536L60.2216 125.642C58.5573 123.778 56.2449 122.827 53.9232 122.827Z" fill="black"/>
<path d="M11.0175 175.555C10.9235 175.555 10.8312 175.516 10.765 175.441C10.6403 175.301 10.6526 175.086 10.7927 174.962L63.0152 128.264C63.1553 128.139 63.3693 128.151 63.494 128.291C63.6187 128.432 63.6064 128.646 63.4663 128.771L11.2438 175.469C11.1791 175.526 11.0991 175.555 11.0175 175.555Z" fill="black"/>
<path d="M12.6278 177.356C12.5339 177.356 12.4415 177.318 12.3753 177.242C12.2506 177.102 12.2629 176.888 12.403 176.763L64.6255 130.065C64.7656 129.94 64.9796 129.953 65.1044 130.093C65.2291 130.233 65.2167 130.447 65.0766 130.572L12.8541 177.27C12.7895 177.327 12.7094 177.356 12.6278 177.356Z" fill="black"/>
<path d="M16.2031 192.621C16.1292 192.621 16.0538 192.62 15.9799 192.615C14.9407 192.557 13.9877 192.096 13.2933 191.319C12.6005 190.543 12.251 189.542 12.3095 188.502C12.368 187.462 12.8284 186.508 13.6043 185.813C15.2055 184.38 17.6734 184.52 19.1052 186.123C20.5355 187.726 20.3969 190.196 18.7958 191.629C18.0753 192.273 17.1638 192.62 16.2062 192.62L16.2031 192.621ZM16.197 185.504C15.4333 185.504 14.6682 185.773 14.0554 186.32C13.415 186.893 13.0347 187.682 12.987 188.541C12.9392 189.399 13.2271 190.227 13.7999 190.868C14.3726 191.509 15.1608 191.889 16.0184 191.937C16.8759 191.99 17.7011 191.697 18.3431 191.123C19.6656 189.94 19.7811 187.901 18.5987 186.576C17.9644 185.866 17.0822 185.504 16.1985 185.504H16.197Z" fill="black"/>
<path d="M43.5422 170.488C43.4637 170.488 43.3867 170.462 43.3236 170.408L36.1292 164.312C36.026 164.224 35.9844 164.085 36.0229 163.956L39.3946 152.56C39.4485 152.38 39.6363 152.278 39.8165 152.331C39.9966 152.385 40.0982 152.573 40.0459 152.753L36.7358 163.936L43.5422 169.704L53.8312 161.016C53.9744 160.894 54.1884 160.912 54.31 161.056C54.4317 161.199 54.4132 161.413 54.27 161.535L43.7624 170.408C43.6993 170.462 43.6208 170.488 43.5438 170.488H43.5422Z" fill="black"/>
<path d="M40.8285 152.685L36.3483 164.052L10.9961 148.81C6.3404 146.011 4.79005 140.001 7.51356 135.304L11.0592 129.187L40.8285 152.685Z" fill="#F4AA74"/>
<path d="M56.1152 159.895L55.9489 159.675L55.0236 158.451L54.7742 158.122L54.7558 158.114C53.2578 156.294 51.1793 155.037 48.8623 154.556L39.7218 152.659L36.3501 164.055L43.5446 170.151L54.0537 161.278L55.4794 163.238L55.6995 163.067C56.6818 162.301 56.8681 160.891 56.1168 159.897L56.1152 159.895Z" fill="#F4AA74"/>
<path d="M54.6248 167.449L48.5034 159.352L51.1823 157.331L57.3021 165.428C57.8379 166.136 57.6978 167.146 56.988 167.681L56.8787 167.762C56.169 168.297 55.1606 168.157 54.6263 167.448L54.6248 167.449Z" fill="#F4AA74"/>
<path d="M52.8655 170.687L46.4224 162.164L49.1012 160.144L55.5428 168.665C56.0817 169.379 55.94 170.394 55.2257 170.934L55.1318 171.004C54.4189 171.542 53.4044 171.4 52.8655 170.689V170.687Z" fill="#F4AA74"/>
<path d="M47.5011 174.715L41.1611 166.329L43.84 164.309L50.1784 172.693C50.7219 173.413 50.5787 174.438 49.8582 174.982L49.7874 175.034C49.0669 175.577 48.0446 175.435 47.5011 174.715Z" fill="#F4AA74"/>
<path d="M41.3876 170.783L36.3901 164.119L39.0813 162.09L47.5613 173.361L44.4514 172.718C43.2289 172.465 42.1389 171.778 41.3876 170.783Z" fill="#F4AA74"/>
<path d="M52.1156 172.322L51.9694 172.431C51.2704 172.958 50.2004 172.721 49.58 171.9L43.3862 163.706L46.0651 161.686L52.2588 169.879C52.8793 170.701 52.8146 171.793 52.1156 172.32V172.322Z" fill="#F4AA74"/>
<path d="M36.963 164.616L25.2576 156.69L35.1247 148.56L47.3736 156.766L36.963 164.616Z" fill="#F4AA74"/>
<path d="M54.1617 171.667C53.5674 171.667 52.9808 171.399 52.5959 170.89L50.4221 168.015C50.3097 167.865 50.3389 167.653 50.4883 167.539C50.6376 167.426 50.8501 167.456 50.964 167.605L53.1379 170.481C53.5628 171.045 54.368 171.155 54.9315 170.73L55.0254 170.661C55.2979 170.454 55.4749 170.155 55.5211 169.818C55.5689 169.48 55.4811 169.144 55.2748 168.872L52.8053 165.605C52.6929 165.455 52.7222 165.243 52.8715 165.129C53.0209 165.016 53.2333 165.045 53.3473 165.195L55.8167 168.462C56.1324 168.879 56.2663 169.394 56.1939 169.912C56.1216 170.43 55.8521 170.889 55.4334 171.205L55.3395 171.274C54.9869 171.541 54.5728 171.669 54.1617 171.669V171.667Z" fill="black"/>
<path d="M51.0176 173.091C50.4341 173.091 49.8567 172.827 49.478 172.326L47.4257 169.613C47.3133 169.463 47.3426 169.251 47.4919 169.137C47.6413 169.024 47.8537 169.053 47.9676 169.203L50.0199 171.917C50.4341 172.465 51.2177 172.573 51.7673 172.16L51.9136 172.051C52.1784 171.85 52.3508 171.559 52.397 171.229C52.4432 170.899 52.357 170.573 52.1568 170.308L50.1769 167.688C50.0646 167.539 50.0938 167.326 50.2431 167.212C50.3925 167.099 50.6049 167.129 50.7189 167.278L52.6988 169.898C53.0082 170.308 53.1406 170.815 53.0698 171.323C52.999 171.833 52.7326 172.283 52.3231 172.595L52.1769 172.704C51.8305 172.966 51.424 173.091 51.0191 173.091H51.0176Z" fill="black"/>
<path d="M55.9126 168.426C55.3214 168.426 54.7379 168.16 54.3545 167.654L52.3669 165.025C52.2545 164.876 52.2838 164.663 52.4331 164.549C52.5825 164.437 52.7949 164.466 52.9089 164.615L54.8965 167.244C55.3183 167.802 56.1173 167.915 56.6762 167.492L56.784 167.411C57.055 167.206 57.2305 166.908 57.2767 166.574C57.3228 166.238 57.2366 165.905 57.0319 165.635L51.4755 158.285C51.3631 158.136 51.3924 157.923 51.5417 157.809C51.6911 157.696 51.9035 157.726 52.0175 157.875L57.5738 165.226C57.8879 165.64 58.0203 166.153 57.9495 166.668C57.8771 167.184 57.6092 167.64 57.1935 167.953L57.0857 168.035C56.7347 168.3 56.3221 168.428 55.9141 168.428L55.9126 168.426Z" fill="#F4AA74"/>
<path d="M48.8098 175.701C48.2109 175.701 47.6197 175.432 47.2332 174.918L46.037 173.391L44.3865 173.051C43.0825 172.781 41.9232 172.049 41.1211 170.987L36.236 164.508C36.1236 164.358 36.1529 164.145 36.3022 164.031C36.4516 163.917 36.664 163.948 36.778 164.098L41.663 170.578C42.3651 171.507 43.3812 172.149 44.5251 172.385L46.4188 172.776L47.7721 174.504C48.2062 175.077 49.0191 175.193 49.5903 174.761L49.6611 174.709C49.9367 174.501 50.1153 174.197 50.163 173.857C50.2108 173.515 50.123 173.176 49.9136 172.9L47.1147 169.195C47.0023 169.046 47.0315 168.833 47.1809 168.719C47.3302 168.607 47.5427 168.636 47.6566 168.785L50.4556 172.49C50.7727 172.911 50.9082 173.428 50.8358 173.951C50.7635 174.473 50.491 174.935 50.0707 175.253L49.9999 175.305C49.6442 175.573 49.2285 175.701 48.8144 175.703L48.8098 175.701Z" fill="black"/>
<path d="M55.6218 163.543C55.5202 163.543 55.4201 163.498 55.3539 163.412C55.2384 163.264 55.2646 163.051 55.4139 162.936C56.2622 162.275 56.4685 160.923 55.8466 160.1L54.5395 158.37C54.5225 158.356 54.5087 158.342 54.4963 158.328C53.0491 156.571 51.0246 155.349 48.7953 154.886L39.6548 152.989C39.4716 152.95 39.353 152.771 39.3915 152.586C39.43 152.403 39.6102 152.286 39.7918 152.323L48.9323 154.22C51.2956 154.71 53.4448 156.001 54.9875 157.857C55.0106 157.874 55.0306 157.894 55.046 157.914L56.3869 159.687C57.2353 160.809 56.9751 162.577 55.8312 163.469C55.7696 163.517 55.6957 163.54 55.6233 163.54L55.6218 163.543Z" fill="black"/>
<path d="M36.3491 164.392C36.289 164.392 36.229 164.377 36.1751 164.344L10.8228 149.102C6.03938 146.227 4.42436 139.961 7.22023 135.135L10.7659 129.017C10.8598 128.855 11.0676 128.8 11.2293 128.894C11.391 128.988 11.4464 129.196 11.3525 129.358L7.80681 135.475C5.19415 139.983 6.70448 145.834 11.1708 148.52L36.523 163.762C36.6832 163.859 36.7355 164.067 36.6385 164.227C36.5754 164.333 36.463 164.392 36.3475 164.392H36.3491Z" fill="black"/>
<path d="M41.5811 153.382C41.5087 153.382 41.4348 153.359 41.3732 153.311L16.9848 134.295C16.837 134.18 16.8108 133.967 16.9263 133.819C17.0417 133.671 17.2557 133.645 17.402 133.759L41.7905 152.775C41.9383 152.89 41.9644 153.103 41.849 153.251C41.7828 153.337 41.6827 153.382 41.5811 153.382Z" fill="black"/>
<path d="M35.4971 126.689C32.7967 129.928 23.7178 137.708 23.7178 137.708L25.6099 129.187C25.6099 129.187 32.264 121.566 33.6742 119.813C34.9675 118.205 36.5086 113.841 36.504 111.78C36.5009 110.143 35.8142 105.438 35.8142 105.438C35.7111 105.11 35.9574 104.777 36.3008 104.777H38.393C38.607 104.777 38.7979 104.91 38.8719 105.112L40.1112 110.548C41.7524 115.352 38.2021 123.449 35.5002 126.69L35.4971 126.689Z" fill="#B9BEC6"/>
<path d="M23.2729 138.471C23.2113 138.471 23.1482 138.454 23.0927 138.42C22.9665 138.342 22.9064 138.191 22.9434 138.046L25.2774 129.102C25.2928 129.045 25.322 128.993 25.3621 128.951C25.4329 128.877 32.515 121.596 34.1808 118.358C37.5401 111.827 35.5094 105.61 35.4879 105.548C35.4047 105.28 35.4494 105.006 35.6111 104.785C35.7727 104.565 36.0221 104.438 36.2946 104.438H38.3869C38.741 104.438 39.0612 104.662 39.1829 104.995L40.4315 109.744C41.5292 115.908 40.1744 121.3 36.2962 126.256C33.7559 129.501 23.9072 138.027 23.4899 138.389C23.4268 138.443 23.3483 138.473 23.2682 138.473L23.2729 138.471ZM25.9132 129.359L23.8795 137.152C26.3613 134.979 33.6912 128.489 35.7681 125.837C39.52 121.041 40.8302 115.825 39.7741 109.889L38.5409 105.197C38.5255 105.161 38.4624 105.117 38.3915 105.117H36.2992C36.2238 105.117 36.1807 105.16 36.1622 105.186C36.1437 105.212 36.1145 105.266 36.1376 105.337C36.2238 105.594 38.2776 111.885 34.7889 118.668C33.1431 121.867 26.6723 128.578 25.9148 129.359H25.9132Z" fill="black"/>
<path d="M134.249 41.4629L62.3811 58.1734C43.7337 62.5097 24.1965 61.6806 5.53064 55.7617L4.2959 51.7798L113.769 26.3243C119.435 25.0068 125.41 25.6648 130.862 28.2074C131.251 28.3892 131.658 28.5248 132.072 28.6096L136.073 29.4325C138.222 29.8747 139.788 31.992 139.708 34.3482C139.591 37.8401 137.368 40.7356 134.249 41.4614V41.4629Z" fill="#FED101"/>
<path d="M38.5124 61.2368C27.4044 61.2368 16.2393 59.5139 5.42688 56.0852C5.32064 56.0513 5.23751 55.9681 5.20518 55.8618L3.97043 51.8799C3.94272 51.789 3.9535 51.6919 3.99969 51.6102C4.04587 51.5286 4.12593 51.47 4.21677 51.4484L113.69 25.9929C119.463 24.6507 125.449 25.3103 131.003 27.8991C131.369 28.0702 131.751 28.1965 132.137 28.2767L136.139 29.0995C138.45 29.5757 140.129 31.8363 140.045 34.3605C139.923 37.9818 137.569 41.0375 134.322 41.7926L62.4544 58.503C54.6118 60.326 46.5752 61.2352 38.5093 61.2352L38.5124 61.2368ZM5.80099 55.492C24.299 61.3246 43.8332 62.1367 62.3035 57.8435L134.171 41.1331C137.119 40.4473 139.256 37.6535 139.369 34.3389C139.443 32.143 137.997 30.1767 136.005 29.7668L132.003 28.9439C131.565 28.853 131.133 28.7097 130.719 28.517C125.306 25.9929 119.471 25.3488 113.847 26.6555L4.72637 52.0278L5.79945 55.492H5.80099Z" fill="black"/>
<path d="M37.7969 43.9904L12.2953 49.9201L0.532959 22.207L5.79986 20.9819L18.6092 34.0356C23.9407 39.4676 30.6687 42.9579 37.7969 43.9904Z" fill="#FED101"/>
<path d="M12.2978 50.259C12.1638 50.259 12.0391 50.1804 11.9852 50.0525L0.221309 22.3394C0.182819 22.247 0.185899 22.1422 0.230546 22.0528C0.276734 21.9634 0.358331 21.8987 0.456864 21.8756L5.72376 20.6505C5.83923 20.6243 5.95932 20.6582 6.04246 20.743L18.8517 33.7966C24.094 39.1392 30.8404 42.6388 37.8471 43.6528C38.0087 43.6759 38.1304 43.8115 38.1381 43.9748C38.1457 44.1382 38.0349 44.283 37.8763 44.32L12.3747 50.2497C12.3486 50.2559 12.3239 50.259 12.2978 50.259ZM1.00341 22.4458L12.4979 49.5239L36.0873 44.0396C29.5364 42.7251 23.2981 39.298 18.3683 34.2743L5.69297 21.3563L1.00495 22.4473L1.00341 22.4458Z" fill="black"/>
<path d="M27.0558 50.5057L13.8139 53.5846L4.95361 49.8693L8.83797 48.9663L27.0558 50.5057Z" fill="#FED101"/>
<path d="M13.8139 53.9235C13.7692 53.9235 13.7246 53.9143 13.683 53.8973L4.82274 50.182C4.68726 50.125 4.60412 49.9878 4.61644 49.8399C4.62875 49.6935 4.73499 49.5702 4.87817 49.5379L8.76252 48.6349C8.79639 48.6272 8.8318 48.6241 8.86721 48.6272L27.0851 50.1666C27.2513 50.1805 27.3822 50.3145 27.3945 50.481C27.4068 50.6474 27.296 50.7984 27.1328 50.8354L13.8893 53.9143C13.8647 53.9204 13.8385 53.9235 13.8123 53.9235H13.8139ZM6.05286 49.9632L13.8431 53.2301L24.8819 50.6643L8.8626 49.3114L6.05286 49.9647V49.9632Z" fill="black"/>
<path d="M113.846 33.8644C113.999 34.5224 113.768 35.1388 113.329 35.2405C112.89 35.3422 112.412 34.8922 112.259 34.2342C112.107 33.5762 112.338 32.9598 112.776 32.8581C113.215 32.7564 113.694 33.2064 113.846 33.8644Z" fill="black"/>
<path d="M111.317 34.453C111.469 35.111 111.238 35.7274 110.8 35.8291C110.361 35.9308 109.882 35.4808 109.73 34.8228C109.577 34.1648 109.808 33.5484 110.247 33.4467C110.686 33.345 111.164 33.795 111.317 34.453Z" fill="black"/>
<path d="M108.787 35.0401C108.939 35.6981 108.709 36.3145 108.27 36.4162C107.831 36.5179 107.352 36.068 107.2 35.41C107.047 34.752 107.278 34.1356 107.717 34.0339C108.156 33.9322 108.635 34.3821 108.787 35.0401Z" fill="black"/>
<path d="M106.258 35.6288C106.41 36.2868 106.179 36.9032 105.74 37.0049C105.301 37.1066 104.823 36.6566 104.67 35.9986C104.518 35.3406 104.749 34.7242 105.188 34.6225C105.626 34.5208 106.105 34.9708 106.258 35.6288Z" fill="black"/>
<path d="M103.728 36.2174C103.88 36.8754 103.649 37.4918 103.211 37.5935C102.772 37.6952 102.293 37.2452 102.141 36.5872C101.988 35.9292 102.219 35.3128 102.658 35.2111C103.097 35.1094 103.576 35.5594 103.728 36.2174Z" fill="black"/>
<path d="M101.198 36.8045C101.351 37.4625 101.12 38.0789 100.681 38.1806C100.242 38.2823 99.7636 37.8324 99.6111 37.1744C99.4587 36.5164 99.6897 35.9 100.128 35.7983C100.567 35.6966 101.046 36.1465 101.198 36.8045Z" fill="black"/>
<path d="M98.6709 37.3932C98.8233 38.0512 98.5923 38.6676 98.1536 38.7693C97.7148 38.871 97.236 38.421 97.0836 37.763C96.9311 37.105 97.1621 36.4886 97.6009 36.3869C98.0396 36.2852 98.5184 36.7352 98.6709 37.3932Z" fill="black"/>
<path d="M96.1413 37.9818C96.2937 38.6398 96.0628 39.2562 95.624 39.3579C95.1852 39.4596 94.7064 39.0096 94.554 38.3516C94.4016 37.6936 94.6325 37.0772 95.0713 36.9755C95.5101 36.8738 95.9889 37.3238 96.1413 37.9818Z" fill="black"/>
<path d="M93.6115 38.5689C93.764 39.2269 93.533 39.8433 93.0942 39.945C92.6555 40.0468 92.1766 39.5968 92.0242 38.9388C91.8718 38.2808 92.1027 37.6644 92.5415 37.5627C92.9803 37.461 93.4591 37.9109 93.6115 38.5689Z" fill="black"/>
<path d="M91.082 39.1576C91.2344 39.8156 91.0035 40.432 90.5647 40.5337C90.1259 40.6354 89.6471 40.1854 89.4947 39.5274C89.3423 38.8694 89.5732 38.253 90.012 38.1513C90.4508 38.0496 90.9296 38.4996 91.082 39.1576Z" fill="black"/>
<path d="M88.5525 39.7462C88.7049 40.4042 88.4739 41.0206 88.0351 41.1223C87.5964 41.224 87.1176 40.774 86.9651 40.116C86.8127 39.458 87.0437 38.8416 87.4824 38.7399C87.9212 38.6382 88.4 39.0882 88.5525 39.7462Z" fill="black"/>
<path d="M86.0229 40.3333C86.1753 40.9913 85.9444 41.6077 85.5056 41.7095C85.0668 41.8112 84.588 41.3612 84.4356 40.7032C84.2832 40.0452 84.5141 39.4288 84.9529 39.3271C85.3917 39.2254 85.8705 39.6753 86.0229 40.3333Z" fill="black"/>
<path d="M83.4953 40.922C83.6477 41.58 83.4168 42.1964 82.978 42.2981C82.5392 42.3998 82.0604 41.9498 81.908 41.2918C81.7556 40.6338 81.9865 40.0174 82.4253 39.9157C82.8641 39.814 83.3429 40.264 83.4953 40.922Z" fill="black"/>
<path d="M80.9658 41.5091C81.1182 42.1671 80.8873 42.7835 80.4485 42.8852C80.0097 42.9869 79.5309 42.537 79.3785 41.879C79.2261 41.221 79.457 40.6046 79.8958 40.5029C80.3346 40.4012 80.8134 40.8511 80.9658 41.5091Z" fill="black"/>
<path d="M78.436 42.0978C78.5884 42.7558 78.3575 43.3721 77.9187 43.4739C77.4799 43.5756 77.0011 43.1256 76.8487 42.4676C76.6963 41.8096 76.9272 41.1932 77.366 41.0915C77.8048 40.9898 78.2836 41.4398 78.436 42.0978Z" fill="black"/>
<path d="M75.9065 42.6864C76.0589 43.3444 75.8279 43.9608 75.3892 44.0625C74.9504 44.1642 74.4716 43.7142 74.3191 43.0562C74.1667 42.3982 74.3977 41.7818 74.8364 41.6801C75.2752 41.5784 75.754 42.0284 75.9065 42.6864Z" fill="black"/>
<path d="M73.3769 43.2735C73.5293 43.9315 73.2984 44.5479 72.8596 44.6496C72.4208 44.7513 71.942 44.3014 71.7896 43.6434C71.6372 42.9854 71.8681 42.369 72.3069 42.2673C72.7457 42.1656 73.2245 42.6155 73.3769 43.2735Z" fill="black"/>
<path d="M70.8474 43.8622C70.9998 44.5202 70.7689 45.1366 70.3301 45.2383C69.8913 45.34 69.4125 44.89 69.2601 44.232C69.1076 43.574 69.3386 42.9576 69.7774 42.8559C70.2161 42.7542 70.695 43.2042 70.8474 43.8622Z" fill="black"/>
<path d="M68.3198 44.451C68.4722 45.109 68.2413 45.7254 67.8025 45.8271C67.3637 45.9288 66.8849 45.4789 66.7325 44.8209C66.5801 44.1629 66.811 43.5465 67.2498 43.4448C67.6886 43.3431 68.1674 43.793 68.3198 44.451Z" fill="black"/>
<path d="M65.7902 45.0379C65.9427 45.6959 65.7117 46.3123 65.2729 46.414C64.8342 46.5157 64.3554 46.0658 64.2029 45.4078C64.0505 44.7498 64.2815 44.1334 64.7202 44.0317C65.159 43.93 65.6378 44.3799 65.7902 45.0379Z" fill="black"/>
<path d="M63.2607 45.6266C63.4131 46.2846 63.1822 46.901 62.7434 47.0027C62.3046 47.1044 61.8258 46.6544 61.6734 45.9964C61.521 45.3384 61.7519 44.722 62.1907 44.6203C62.6295 44.5186 63.1083 44.9686 63.2607 45.6266Z" fill="black"/>
<path d="M60.7309 46.2154C60.8833 46.8734 60.6524 47.4898 60.2136 47.5915C59.7748 47.6932 59.296 47.2433 59.1436 46.5853C58.9912 45.9273 59.2221 45.3109 59.6609 45.2092C60.0997 45.1075 60.5785 45.5574 60.7309 46.2154Z" fill="black"/>
<path d="M58.2014 46.8023C58.3538 47.4603 58.1229 48.0767 57.6841 48.1784C57.2453 48.2801 56.7665 47.8302 56.6141 47.1722C56.4617 46.5142 56.6926 45.8978 57.1314 45.7961C57.5701 45.6944 58.049 46.1443 58.2014 46.8023Z" fill="black"/>
<path d="M55.6718 47.3912C55.8243 48.0492 55.5933 48.6656 55.1545 48.7673C54.7158 48.869 54.2369 48.419 54.0845 47.761C53.9321 47.103 54.1631 46.4867 54.6018 46.3849C55.0406 46.2832 55.5194 46.7332 55.6718 47.3912Z" fill="black"/>
<path d="M53.1442 47.9798C53.2967 48.6378 53.0657 49.2542 52.6269 49.3559C52.1882 49.4576 51.7094 49.0077 51.5569 48.3497C51.4045 47.6917 51.6355 47.0753 52.0742 46.9736C52.513 46.8719 52.9918 47.3218 53.1442 47.9798Z" fill="black"/>
<path d="M50.6147 48.567C50.7671 49.225 50.5362 49.8414 50.0974 49.9431C49.6586 50.0448 49.1798 49.5948 49.0274 48.9368C48.875 48.2788 49.1059 47.6624 49.5447 47.5607C49.9835 47.459 50.4623 47.909 50.6147 48.567Z" fill="black"/>
<path d="M48.0852 49.1556C48.2376 49.8136 48.0066 50.43 47.5679 50.5317C47.1291 50.6334 46.6503 50.1835 46.4979 49.5255C46.3454 48.8675 46.5764 48.2511 47.0152 48.1494C47.4539 48.0476 47.9327 48.4976 48.0852 49.1556Z" fill="black"/>
<path d="M45.5554 49.7425C45.7078 50.4005 45.4769 51.0169 45.0381 51.1186C44.5993 51.2203 44.1205 50.7704 43.9681 50.1124C43.8157 49.4544 44.0466 48.838 44.4854 48.7363C44.9242 48.6346 45.403 49.0845 45.5554 49.7425Z" fill="black"/>
<path d="M43.0258 50.3314C43.1783 50.9894 42.9473 51.6058 42.5085 51.7075C42.0698 51.8092 41.591 51.3592 41.4385 50.7012C41.2861 50.0432 41.5171 49.4268 41.9558 49.3251C42.3946 49.2234 42.8734 49.6734 43.0258 50.3314Z" fill="black"/>
<path d="M40.4963 50.92C40.6487 51.578 40.4178 52.1944 39.979 52.2961C39.5402 52.3978 39.0614 51.9479 38.909 51.2899C38.7566 50.6319 38.9875 50.0155 39.4263 49.9138C39.8651 49.8121 40.3439 50.262 40.4963 50.92Z" fill="black"/>
<path d="M37.9687 51.5072C38.1211 52.1652 37.8902 52.7816 37.4514 52.8833C37.0126 52.985 36.5338 52.535 36.3814 51.877C36.229 51.219 36.4599 50.6026 36.8987 50.5009C37.3375 50.3992 37.8163 50.8492 37.9687 51.5072Z" fill="black"/>
<path d="M84.9077 55.3224L64.5098 60.0656C63.4305 60.3167 62.3513 59.6449 62.1003 58.5631L62.0572 58.3782C61.8063 57.2979 62.4775 56.2177 63.5583 55.9665L83.9562 51.2234L84.9077 55.3209V55.3224Z" fill="#FED101"/>
<path d="M64.0557 60.4571C62.9887 60.4571 62.0219 59.7236 61.7709 58.6403L61.7278 58.4553C61.5862 57.8451 61.6909 57.2149 62.0219 56.6832C62.3529 56.1516 62.8717 55.7802 63.4829 55.6384L83.8808 50.8953C83.9686 50.8752 84.061 50.8907 84.1364 50.9384C84.2134 50.9862 84.2673 51.0617 84.2873 51.1495L85.2387 55.247C85.2818 55.4304 85.1679 55.6122 84.9847 55.6538L64.5868 60.397C64.4098 60.4386 64.2312 60.4586 64.0557 60.4586V60.4571ZM83.7022 51.6319L63.6354 56.298C63.2012 56.3997 62.8332 56.6632 62.5977 57.0407C62.3621 57.4183 62.2882 57.8667 62.3883 58.3012L62.4314 58.4862C62.6393 59.3815 63.5368 59.9409 64.4329 59.7344L84.4997 55.0683L83.7022 51.6319Z" fill="black"/>
<path d="M97.0883 59.2662L83.2444 62.4853L76.4872 62.006L74.9954 55.5771L81.0967 52.1083L94.6927 48.9478L97.0883 59.2662Z" fill="#FED101"/>
<path d="M83.2436 62.8243C83.2359 62.8243 83.2282 62.8243 83.219 62.8243L76.4618 62.3466C76.314 62.3358 76.1893 62.2294 76.1554 62.0846L74.6636 55.6556C74.6297 55.5092 74.6959 55.3582 74.8268 55.2842L80.9281 51.8155C80.9558 51.7985 80.9866 51.7877 81.0189 51.78L94.615 48.6179C94.7027 48.5979 94.7951 48.6133 94.8705 48.6611C94.9475 48.7089 95.0014 48.7844 95.0214 48.8722L97.417 59.1906C97.4601 59.374 97.3462 59.5558 97.163 59.5974L83.3191 62.8166C83.2944 62.8227 83.2683 62.8258 83.2421 62.8258L83.2436 62.8243ZM76.7605 61.6855L83.2175 62.1432L96.6811 59.0119L94.4395 49.3545L81.2222 52.4288L75.3841 55.7481L76.762 61.6855H76.7605Z" fill="black"/>
<path d="M65.3827 55.5445L93.7356 49.0601L97.3721 42.7775L51.6081 37.72L46.2273 38.8279L67.9092 49.1818L65.3827 55.5445Z" fill="#DDB80D"/>
<path d="M65.3827 55.8835C65.2857 55.8835 65.1903 55.8404 65.1256 55.7649C65.044 55.6693 65.0209 55.5353 65.0686 55.4182L67.4781 49.3513L46.0841 39.133C45.9532 39.0699 45.8763 38.9312 45.8932 38.7848C45.9117 38.6399 46.0194 38.5228 46.1611 38.4935L51.5419 37.3871C51.5758 37.3794 51.6127 37.3779 51.6481 37.3825L97.4106 42.4385C97.5245 42.4508 97.6246 42.5201 97.6754 42.6234C97.7262 42.7266 97.7231 42.8468 97.6661 42.947L94.0297 49.2311C93.9819 49.3128 93.9034 49.3713 93.811 49.3914L65.4582 55.8743C65.4335 55.8805 65.4074 55.8835 65.3827 55.8835ZM47.285 38.9558L68.0539 48.8751C68.2155 48.9522 68.2894 49.1402 68.2232 49.3066L65.9354 55.0683L93.5154 48.7626L96.8178 43.0579L51.625 38.0651L47.2865 38.9574L47.285 38.9558Z" fill="black"/>
<path d="M134.114 29.0319L121.055 32.0677L120.811 28.7206L127.776 27.1011L134.114 29.0319Z" fill="black"/>
</svg>
